<svg width="320" height="749" viewBox="0 0 320 749" fill="none" xmlns="http://www.w3.org/2000/svg">
<mask id="mask0_85_3826" style="mask-type:alpha" maskUnits="userSpaceOnUse" x="0" y="0" width="320" height="749">
<rect width="320" height="749" fill="#D9D9D9"/>
</mask>
<g mask="url(#mask0_85_3826)">
<g clip-path="url(#clip0_85_3826)">
<path d="M-97.2462 361.995L-104.652 354.285V346.357L377.76 326.573V331H374.547V672.57" stroke="#0F2B46" stroke-miterlimit="10" stroke-linejoin="round"/>
<path d="M-97.2463 361.995L-2.73871 358.447M27.4634 357.313L73.8606 355.571M105.079 354.447L148.93 352.738M180.178 351.665L221.725 350.003M252.944 349.282L374.817 344.272" stroke="#0F2B46" stroke-miterlimit="10" stroke-linejoin="round"/>
<path d="M-100.789 453.94V444.12L361.72 432.224L374.576 431.894V439.728L-100.789 453.94Z" stroke="#0F2B46" stroke-miterlimit="10" stroke-linejoin="round"/>
<path d="M374.818 337.899L259.052 342.039M216.092 343.252L185.86 344.454M142.948 345.807L111.158 346.968M68.0041 348.384L34.0847 349.543M-9.33088 351.027L-104.652 354.285" stroke="#0F2B46" stroke-miterlimit="10" stroke-linejoin="round"/>
<path d="M374.818 331.017L259.101 335.917M214.504 337.599L185.841 338.844M142.503 340.528L111.73 341.874M66.9006 343.623L34.4429 344.918M-10.2795 346.782L-104.652 350.646" stroke="#0F2B46" stroke-miterlimit="10" stroke-linejoin="round"/>
<path d="M-96.646 388.981L-96.2104 388.965M-62.7654 387.799L-2.40944 385.694M253.273 376.904L343.56 372.535C343.56 372.535 343.56 397.879 343.56 433.085M343.56 440.022C343.56 520.489 343.56 644.237 343.56 644.237M374.343 372.552L374.818 372.535" stroke="#0F2B46" stroke-miterlimit="10" stroke-linejoin="round"/>
<path d="M34.443 340.832V349.76L28.209 356.688V441.322" stroke="#0F2B46" stroke-miterlimit="10" stroke-linejoin="round"/>
<path d="M111.73 337.856V346.784L105.505 353.712V438.347" stroke="#0F2B46" stroke-miterlimit="10" stroke-linejoin="round"/>
<path d="M67.0166 339.786L67.9363 348.714L74.1703 355.283L75.1577 439.178" stroke="#0F2B46" stroke-miterlimit="10" stroke-linejoin="round"/>
<path d="M186.412 334.913V344.177L180.178 351.105V436.6" stroke="#0F2B46" stroke-miterlimit="10" stroke-linejoin="round"/>
<path d="M141.699 336.547L142.609 346.107L148.843 352.676L149.831 437.476" stroke="#0F2B46" stroke-miterlimit="10" stroke-linejoin="round"/>
<path d="M214.504 333.576L215.782 343.841L222.016 350.41L223.003 435.558" stroke="#0F2B46" stroke-miterlimit="10" stroke-linejoin="round"/>
<path d="M259.585 332.009V341.911L253.35 348.839V434.83" stroke="#0F2B46" stroke-miterlimit="10" stroke-linejoin="round"/>
<path d="M31.3259 440.562V450.113" stroke="#0F2B46" stroke-miterlimit="10" stroke-linejoin="round"/>
<path d="M108.622 439.178V447.854" stroke="#0F2B46" stroke-miterlimit="10" stroke-linejoin="round"/>
<path d="M71.0825 439.939V449.489" stroke="#0F2B46" stroke-miterlimit="10" stroke-linejoin="round"/>
<path d="M145.765 438.302V446.217" stroke="#0F2B46" stroke-miterlimit="10" stroke-linejoin="round"/>
<path d="M183.295 437.542V446.217" stroke="#0F2B46" stroke-miterlimit="10" stroke-linejoin="round"/>
<path d="M256.468 435.601V443.515" stroke="#0F2B46" stroke-miterlimit="10" stroke-linejoin="round"/>
<path d="M218.938 436.362V444.276" stroke="#0F2B46" stroke-miterlimit="10" stroke-linejoin="round"/>
<path d="M28.209 450.113V670.082" stroke="#0F2B46" stroke-miterlimit="10" stroke-linejoin="round"/>
<path d="M105.505 447.854V670.79" stroke="#0F2B46" stroke-miterlimit="10" stroke-linejoin="round"/>
<path d="M75.1577 448.613V670.402" stroke="#0F2B46" stroke-miterlimit="10" stroke-linejoin="round"/>
<path d="M149.831 446.99V671.551" stroke="#0F2B46" stroke-miterlimit="10" stroke-linejoin="round"/>
<path d="M180.178 446.217V670.776" stroke="#0F2B46" stroke-miterlimit="10" stroke-linejoin="round"/>
<path d="M253.35 442.933V671.55" stroke="#0F2B46" stroke-miterlimit="10" stroke-linejoin="round"/>
<path d="M223.003 444.909V670.79" stroke="#0F2B46" stroke-miterlimit="10" stroke-linejoin="round"/>
<path d="M-117.449 679.018L-117.1 669.112L437.923 672.571" stroke="#0F2B46" stroke-miterlimit="10" stroke-linejoin="round"/>
<path d="M-132.86 689.249V679.018L438 682.413" stroke="#0F2B46" stroke-miterlimit="10" stroke-linejoin="round"/>
<path d="M-146.267 698.471V689.249L438 692.393" stroke="#0F2B46" stroke-miterlimit="10" stroke-linejoin="round"/>
<path d="M-161.048 708.54L-161.097 698.471L438 701.244" stroke="#0F2B46" stroke-miterlimit="10" stroke-linejoin="round"/>
<path d="M-160.777 707.649L438 714.831" stroke="#0F2B46" stroke-miterlimit="10" stroke-linejoin="round"/>
<path d="M28.3831 384.498C35.8078 377.06 53.8903 378.03 63.4543 379.397C64.9741 379.614 73.6669 381.516 74.2381 382.655" stroke="#0F2B46" stroke-miterlimit="10" stroke-linecap="round" stroke-linejoin="round"/>
<path d="M105.486 383.24C112.92 375.801 131.003 376.772 140.557 378.138C142.077 378.355 148.485 379.505 149.056 380.643" stroke="#0F2B46" stroke-miterlimit="10" stroke-linecap="round" stroke-linejoin="round"/>
<path d="M180.265 380.215C187.69 372.776 205.066 374.175 214.63 375.542C216.15 375.759 221.735 376.48 222.306 377.618" stroke="#0F2B46" stroke-miterlimit="10" stroke-linecap="round" stroke-linejoin="round"/>
<path d="M36.7759 396.931L65.8358 395.983V436.919L36.9114 437.542L36.7759 396.931Z" stroke="#0F2B46" stroke-miterlimit="10" stroke-linejoin="round"/>
<path d="M36.9209 472.488H67.0166V526.499L36.9209 526.737V472.488Z" stroke="#0F2B46" stroke-miterlimit="10" stroke-linejoin="round"/>
<path d="M32.7876 589.988H71.0825V670.082L32.7876 669.878V589.988Z" stroke="#0F2B46" stroke-miterlimit="10" stroke-linejoin="round"/>
<path d="M108.622 590.308H146.917V670.403L108.622 670.199V590.308Z" stroke="#0F2B46" stroke-miterlimit="10" stroke-linejoin="round"/>
<path d="M182.134 590.308H220.438V670.403L182.134 670.199V590.308Z" stroke="#0F2B46" stroke-miterlimit="10" stroke-linejoin="round"/>
<path d="M256.468 591.456H294.762V671.55L256.468 671.347V591.456Z" stroke="#0F2B46" stroke-miterlimit="10" stroke-linejoin="round"/>
<path d="M112.746 471.707H142.842V525.717L112.746 525.955V471.707Z" stroke="#0F2B46" stroke-miterlimit="10" stroke-linejoin="round"/>
<path d="M112.746 394.22L141.796 393.271V434.207L112.872 434.83L112.746 394.22Z" stroke="#0F2B46" stroke-miterlimit="10" stroke-linejoin="round"/>
<path d="M186.751 392.025L215.811 391.077V432.013L186.887 432.636L186.751 392.025Z" stroke="#0F2B46" stroke-miterlimit="10" stroke-linejoin="round"/>
<path d="M265.693 387.96L294.753 387.012V427.948L265.828 428.571L265.693 387.96Z" stroke="#0F2B46" stroke-miterlimit="10" stroke-linejoin="round"/>
<path d="M186.751 470.611H215.811V525.717L186.751 525.955V470.611Z" stroke="#0F2B46" stroke-miterlimit="10" stroke-linejoin="round"/>
<path d="M265.693 469.516H294.753V524.621L265.693 524.859V469.516Z" stroke="#0F2B46" stroke-miterlimit="10" stroke-linejoin="round"/>
<path d="M36.9209 403.851L65.9808 403.065" stroke="#0F2B46" stroke-miterlimit="10" stroke-linejoin="round"/>
<path d="M112.639 401.321L141.699 400.535" stroke="#0F2B46" stroke-miterlimit="10" stroke-linejoin="round"/>
<path d="M186.751 398.786L215.811 398" stroke="#0F2B46" stroke-miterlimit="10" stroke-linejoin="round"/>
<path d="M265.693 395.983L294.753 395.197" stroke="#0F2B46" stroke-miterlimit="10" stroke-linejoin="round"/>
<path d="M52.4868 437.126V403.458" stroke="#0F2B46" stroke-miterlimit="10" stroke-linejoin="round"/>
<path d="M128.37 434.989V401.321" stroke="#0F2B46" stroke-miterlimit="10" stroke-linejoin="round"/>
<path d="M201.281 432.351V398.683" stroke="#0F2B46" stroke-miterlimit="10" stroke-linejoin="round"/>
<path d="M280.223 428.69V395.022" stroke="#0F2B46" stroke-miterlimit="10" stroke-linejoin="round"/>
<path d="M52.4868 526.737V472.018" stroke="#0F2B46" stroke-miterlimit="10" stroke-linejoin="round"/>
<path d="M52.4868 670.403V590.308" stroke="#0F2B46" stroke-miterlimit="10" stroke-linejoin="round"/>
<path d="M128.37 670.28V590.186" stroke="#0F2B46" stroke-miterlimit="10" stroke-linejoin="round"/>
<path d="M201.281 669.887V589.793" stroke="#0F2B46" stroke-miterlimit="10" stroke-linejoin="round"/>
<path d="M280.291 671.55V591.456" stroke="#0F2B46" stroke-miterlimit="10" stroke-linejoin="round"/>
<path d="M36.9209 491.501H67.0166" stroke="#0F2B46" stroke-miterlimit="10" stroke-linejoin="round"/>
<path d="M128.37 525.423L128.312 471.513" stroke="#0F2B46" stroke-miterlimit="10" stroke-linejoin="round"/>
<path d="M113.124 490.082L142.842 490.094" stroke="#0F2B46" stroke-miterlimit="10" stroke-linejoin="round"/>
<path d="M201.281 525.423V470.611" stroke="#0F2B46" stroke-miterlimit="10" stroke-linejoin="round"/>
<path d="M186.751 488.998H215.811" stroke="#0F2B46" stroke-miterlimit="10" stroke-linejoin="round"/>
<path d="M280.291 524.345L280.232 469.516" stroke="#0F2B46" stroke-miterlimit="10" stroke-linejoin="round"/>
<path d="M265.702 488.998H294.762" stroke="#0F2B46" stroke-miterlimit="10" stroke-linejoin="round"/>
<path d="M294.762 644.237H374.575" stroke="#0F2B46" stroke-miterlimit="10" stroke-linejoin="round"/>
<path d="M114.692 536.397H141.699V542.767H114.692V536.397Z" stroke="#0F2B46" stroke-miterlimit="10" stroke-linejoin="round"/>
<path d="M-25.4485 342.938V336.547L51.3057 333.576" stroke="#0F2B46" stroke-miterlimit="10" stroke-linejoin="round"/>
<path d="M51.4509 339.786L51.4218 338.518C51.3541 335.507 51.3057 333.576 51.3057 333.576L74.4316 327.13C74.9156 326.995 75.3997 326.902 75.903 326.852L105.486 323.842L128.244 321.699C128.331 321.691 128.408 321.684 128.495 321.678L149.685 320.298C149.782 320.292 149.879 320.287 149.976 320.284L220.293 318.008C220.389 318.005 220.477 318.003 220.573 318.003H285.769C286.505 318.003 287.241 318.096 287.957 318.279L328.285 328.637" stroke="#0F2B46" stroke-miterlimit="10" stroke-linejoin="round"/>
<path d="M80.23 246.483L80.0654 326.409" stroke="#0F2B46" stroke-miterlimit="10" stroke-linejoin="round"/>
<path d="M236.071 248.043L235.229 318.003" stroke="#0F2B46" stroke-miterlimit="10" stroke-linejoin="round"/>
<path d="M236.062 248.046C236.062 236.171 201.194 226.551 158.165 226.551C115.137 226.551 80.2397 236.171 80.2397 248.046" stroke="#0F2B46" stroke-miterlimit="10" stroke-linejoin="round"/>
<path d="M236.072 252.133C239.034 250.13 241.822 248.043 241.822 245.618C241.822 245.618 241.822 242.616 240.205 240.462C238.279 237.882 235.113 236.167 232.906 234.777C221.871 227.847 193.546 219.371 158.175 219.371C124.149 219.371 90.7332 228.087 80.0657 236.476C78.2651 237.895 74.2383 240.866 74.2383 245.618C74.2383 250.469 80.0657 253.256 80.0657 254.152" stroke="#0F2B46" stroke-miterlimit="10" stroke-linejoin="round"/>
<path d="M214.504 165.936C214.514 165.428 214.678 163.097 214.601 162.598C212.81 151.429 188.89 142.612 159.917 142.612C131.148 142.612 107.548 151.307 105.292 162.369C105.176 162.942 105.505 166.567 105.505 167.153" stroke="#0F2B46" stroke-miterlimit="10" stroke-linejoin="round"/>
<path d="M208.928 170.214C211.01 168.209 217.621 164.107 217.786 161.786C217.786 161.786 218.754 158.678 217.621 156.523C216.266 153.943 214.039 152.228 212.481 150.839C204.717 143.909 184.796 135.433 159.927 135.433C135.998 135.433 112.504 144.148 105.002 152.537C103.734 153.957 100.897 156.927 100.897 161.679C100.897 166.531 110.742 169.088 111.333 169.762" stroke="#0F2B46" stroke-miterlimit="10" stroke-linejoin="round"/>
<path d="M218.173 158.173C216.604 153.066 213.023 146.457 209.006 142.612C206.102 139.838 195.463 130.3 178.087 125.306C172.782 123.781 166.8 122.796 159.927 122.796C137.876 122.796 112.901 134.868 103.075 153.318C102.233 154.892 101.478 156.197 101.478 158.173" stroke="#0F2B46" stroke-miterlimit="10" stroke-linejoin="round"/>
<path d="M209.006 198.821C201.242 191.891 185.56 186.375 160.692 186.375C136.762 186.375 119.232 190.901 111.729 199.29" stroke="#0F2B46" stroke-miterlimit="10" stroke-linejoin="round"/>
<path d="M208.309 225.065C208.309 225.065 209.867 164.859 208.309 163.428C200.555 156.283 183.421 150.52 158.543 150.52C134.613 150.52 119.232 154.779 111.729 163.428C110.461 164.89 112.639 224.047 112.639 224.047" stroke="#0F2B46" stroke-miterlimit="10" stroke-linejoin="round"/>
<path d="M149.095 219.816V194.351H158.407H167.207V219.816" stroke="#0F2B46" stroke-miterlimit="10" stroke-linejoin="round"/>
<path d="M235.646 272.774L223.003 267.124L223.032 318.003" stroke="#0F2B46" stroke-miterlimit="10" stroke-linejoin="round"/>
<path d="M127.169 321.687V262.587L152.57 261.832L152.512 320.442" stroke="#0F2B46" stroke-miterlimit="10" stroke-linejoin="round"/>
<path d="M84.8281 326.409V274.068L100.897 267.944L100.859 325.018" stroke="#0F2B46" stroke-miterlimit="10" stroke-linejoin="round"/>
<path d="M205.666 318.872V263.442L180.265 261.562L180.323 319.658" stroke="#0F2B46" stroke-miterlimit="10" stroke-linejoin="round"/>
<path d="M120.974 222.278V200.419L138.447 194.351L139.086 219.816" stroke="#0F2B46" stroke-miterlimit="10" stroke-linejoin="round"/>
<path d="M177.352 219.816L176.635 194.351L195.463 200.419V222.278" stroke="#0F2B46" stroke-miterlimit="10" stroke-linejoin="round"/>
<path d="M163.828 122.796L160.372 10.6136" stroke="#0F2B46" stroke-miterlimit="10" stroke-linejoin="round"/>
<path d="M158.03 122.796V10.6136" stroke="#0F2B46" stroke-miterlimit="10" stroke-linejoin="round"/>
<path d="M155.251 6.80635C155.251 4.70409 156.975 3 159.094 3C161.224 3 162.938 4.70409 162.938 6.80635C162.938 8.90861 161.224 10.6137 159.094 10.6137C156.975 10.6137 155.251 8.90861 155.251 6.80635Z" stroke="#0F2B46" stroke-miterlimit="10" stroke-linejoin="round"/>
<path d="M-9.55347 351.137L34.0848 349.427" stroke="#0F2B46" stroke-miterlimit="10" stroke-linejoin="round"/>
<path d="M-3.31934 358.127L28.1413 357.338" stroke="#0F2B46" stroke-miterlimit="10" stroke-linejoin="round"/>
<path d="M68.188 348.473L112.117 346.533" stroke="#0F2B46" stroke-miterlimit="10" stroke-linejoin="round"/>
<path d="M73.8511 355.721L106.067 354.285" stroke="#0F2B46" stroke-miterlimit="10" stroke-linejoin="round"/>
<path d="M142.396 345.818L186.315 343.878" stroke="#0F2B46" stroke-miterlimit="10" stroke-linejoin="round"/>
<path d="M148.05 353.067L180.275 351.63" stroke="#0F2B46" stroke-miterlimit="10" stroke-linejoin="round"/>
<path d="M215.646 343.165L259.575 341.224" stroke="#0F2B46" stroke-miterlimit="10" stroke-linejoin="round"/>
<path d="M221.309 350.413L253.525 348.977" stroke="#0F2B46" stroke-miterlimit="10" stroke-linejoin="round"/>
</g>
</g>
<defs>
<clipPath id="clip0_85_3826">
<rect width="1920" height="840" fill="white" transform="translate(0 -91)"/>
</clipPath>
</defs>
</svg>
