<svg width="315" height="711" viewBox="0 0 315 711" fill="none" xmlns="http://www.w3.org/2000/svg">
<path d="M-18.4062 630.657H42.9246V744.858" stroke="#0F2B46" stroke-width="1.56605" stroke-miterlimit="10" stroke-linejoin="round"/>
<path d="M42.9229 642.259L312.983 630.657V642.259L42.9229 653.191" stroke="#0F2B46" stroke-width="1.56605" stroke-miterlimit="10" stroke-linejoin="round"/>
<path d="M42.9229 691.278L312.983 679.154" stroke="#0F2B46" stroke-width="1.56605" stroke-miterlimit="10" stroke-linejoin="round"/>
<path d="M42.9229 716.691L314.157 704.304" stroke="#0F2B46" stroke-width="1.56605" stroke-miterlimit="10" stroke-linejoin="round"/>
<path d="M-15.7207 631.148V621.818C-15.7207 619.726 -15.1145 617.68 -13.9781 615.924L-13.3531 614.98C-11.8946 613.057 -9.86794 611.715 -5.53046 610.774L-2.36724 610.395C-1.68536 610.292 3.22022 609.911 3.9021 609.938L14.4903 609.587L24.3584 609.938L32.3135 610.395L41.3863 611.565C42.1061 611.595 46.5003 612.378 47.2011 612.551H47.258L53.3569 614.658C53.9819 614.872 54.5693 615.145 55.1564 615.469L55.2133 615.505C58.6037 617.426 60.687 621.023 60.687 624.922V640.86" stroke="#0F2B46" stroke-width="1.56605" stroke-miterlimit="10" stroke-linejoin="round"/>
<path d="M-15.7207 590.312L-8.12536 260.55C-8.08748 258.962 -7.70873 257.404 -7.00791 255.978L-6.26919 254.508C-5.17061 252.585 -3.63638 251.243 -0.340659 250.302L2.04592 249.923C2.55733 249.82 6.28871 249.439 6.80012 249.466L14.3196 249.136C14.6606 249.123 14.9826 249.123 15.3046 249.138L22.2939 249.466L27.8245 249.885C28.1655 249.91 28.5065 249.951 28.8285 250.008L35.2115 251.093C35.7419 251.123 39.0754 251.905 39.6057 252.079H39.6437L43.9623 254.049C44.6441 254.354 45.2692 254.732 45.8564 255.172C48.3755 257.049 49.8909 259.964 49.9856 263.096L60.687 590.312" stroke="#0F2B46" stroke-width="1.56605" stroke-miterlimit="10" stroke-linejoin="round"/>
<path d="M-7.97312 256.002C-9.48839 252.972 -15.4168 250.203 -14.5266 245.736C-13.428 240.231 -2.08249 237.445 2.19817 236.588C16.2902 233.765 31.9925 233.7 45.4595 239.091C48.6037 240.349 57.8279 242.967 57.0134 247.892C56.3126 252.047 51.1228 254.739 48.471 257.383" stroke="#0F2B46" stroke-width="1.56605" stroke-miterlimit="10" stroke-linecap="round" stroke-linejoin="round"/>
<path d="M-14.6202 246.037C-14.6202 246.037 -16.4953 232.777 -15.5483 229.354C-14.6202 225.931 -5.47164 222.918 -2.47897 222.006C12.295 217.506 26.5575 218.325 41.3125 222.332C43.2634 222.865 53.7 226.671 55.3857 229.354C57.0715 232.039 57.0715 246.037 57.0715 246.037" stroke="#0F2B46" stroke-width="1.56605" stroke-miterlimit="10" stroke-linecap="round" stroke-linejoin="round"/>
<path d="M-6.68555 223.324V204.887V204.03C-6.28779 200.789 0.000525973 198.769 2.46285 197.895C12.028 194.501 26.3475 194.692 35.9506 197.698C37.3711 198.138 47.2014 201.796 47.2014 204.887V223.324" stroke="#0F2B46" stroke-width="1.56605" stroke-miterlimit="10" stroke-linecap="round" stroke-linejoin="round"/>
<path d="M-8.75 291.807C-2.55631 281.061 25.9877 282.4 36.0075 285.257C37.5796 285.705 50.7814 290.44 50.8761 291.807" stroke="#0F2B46" stroke-width="1.56605" stroke-miterlimit="10" stroke-linecap="round" stroke-linejoin="round"/>
<path d="M-9.71191 333.395C-3.53716 322.647 25.9918 323.271 36.0116 326.128C37.5837 326.576 52.1871 332.026 52.2818 333.395" stroke="#0F2B46" stroke-width="1.56605" stroke-miterlimit="10" stroke-linecap="round" stroke-linejoin="round"/>
<path d="M-10.6221 376.052C-4.42838 365.304 25.536 365.316 35.5747 368.173C37.1468 368.621 53.4362 374.683 53.5309 376.052" stroke="#0F2B46" stroke-width="1.56605" stroke-miterlimit="10" stroke-linecap="round" stroke-linejoin="round"/>
<path d="M-11.3398 417.431C-9.52151 413.953 -3.51738 412.243 -0.126948 411.181C12.4688 407.237 26.2011 408.369 38.8158 411.422C40.2174 411.763 54.5556 415.44 54.5366 416.523" stroke="#0F2B46" stroke-width="1.56605" stroke-miterlimit="10" stroke-linecap="round" stroke-linejoin="round"/>
<path d="M-12.0645 459.069C-8.67402 454.945 -0.283319 453.434 4.60345 452.632C19.813 450.132 34.4734 451.551 48.9822 456.692C51.1604 457.467 54.3047 458.32 56.1419 459.828" stroke="#0F2B46" stroke-width="1.56605" stroke-miterlimit="10" stroke-linecap="round" stroke-linejoin="round"/>
<path d="M-13.1455 500.571C-10.6453 497.099 -1.49683 496.587 2.23454 495.569C16.5918 491.638 44.6055 494.12 57.2581 503.193" stroke="#0F2B46" stroke-width="1.56605" stroke-miterlimit="10" stroke-linecap="round" stroke-linejoin="round"/>
<path d="M-13.732 543.7C-14.1297 543.999 -12.3305 543.193 -11.9896 543.036C-10.4364 542.338 -8.92093 541.767 -7.29201 541.284C-2.7083 539.926 1.91328 538.735 6.66746 538.25C20.5891 536.829 32.7301 538.908 46.2918 541.566C48.6215 542.025 56.6715 543.7 58.9255 545.647" stroke="#0F2B46" stroke-width="1.56605" stroke-miterlimit="10" stroke-linecap="round" stroke-linejoin="round"/>
<path d="M-30.2285 604.639C-28.5049 599.878 -14.9998 596.423 -11.1359 595.31C8.61953 589.629 33.0155 591.159 52.8088 595.778C57.6577 596.91 75.6516 602.482 75.8031 608.589C75.8221 608.986 75.7084 609.414 75.5 609.868C73.587 614.223 60.707 622.244 60.707 622.244" stroke="#0F2B46" stroke-width="1.56605" stroke-miterlimit="10" stroke-linecap="round" stroke-linejoin="round"/>
<path d="M2.20448 610.598C2.18554 610.338 2.16662 611.442 2.22344 611.998C2.37497 613.528 2.16662 615.058 2.22344 616.604C2.39391 621.045 2.24257 625.617 2.65927 630.014" stroke="#0F2B46" stroke-width="1.56605" stroke-miterlimit="10" stroke-linecap="round" stroke-linejoin="round"/>
<path d="M13.7197 609.832C13.9091 611.494 13.8523 614.15 13.9091 615.893C14.0796 620.831 14.0985 625.103 14.572 630.003" stroke="#0F2B46" stroke-width="1.56605" stroke-miterlimit="10" stroke-linecap="round" stroke-linejoin="round"/>
<path d="M-30.2285 596.466C-24.8114 592.343 -18.3336 589.939 -13.1437 588.642C0.114928 585.334 6.34648 584.561 15.7223 584.085C18.1278 583.964 20.2303 583.986 22.4843 584.085C32.9208 584.546 51.3502 587.216 60.6881 589.939C64.7414 591.118 71.8066 594.861 75.8031 598.421" stroke="#0F2B46" stroke-width="1.56605" stroke-miterlimit="10" stroke-linecap="round" stroke-linejoin="round"/>
<path d="M-30.1104 575.051C-24.7122 570.926 -18.2343 568.524 -13.0256 567.225C0.233092 563.92 6.46463 563.144 15.8215 562.67C18.2459 562.547 20.3293 562.57 22.6022 562.67C33.0198 563.131 51.4494 565.801 60.8062 568.524C64.8596 569.703 71.9245 573.445 75.9211 577.006" stroke="#0F2B46" stroke-width="1.56605" stroke-miterlimit="10" stroke-linecap="round" stroke-linejoin="round"/>
<path d="M17.7161 563.222L17.5078 592.295" stroke="#0F2B46" stroke-width="1.56605" stroke-miterlimit="10" stroke-linejoin="round"/>
<path d="M42.7136 564.722L42.4863 593.795" stroke="#0F2B46" stroke-width="1.56605" stroke-miterlimit="10" stroke-linejoin="round"/>
<path d="M68.5687 571.812L68.3604 600.885" stroke="#0F2B46" stroke-width="1.56605" stroke-miterlimit="10" stroke-linejoin="round"/>
<path d="M75.9163 577.006L75.8027 608.573" stroke="#0F2B46" stroke-width="1.56605" stroke-miterlimit="10" stroke-linejoin="round"/>
<path d="M147.343 637.906L149.426 489.707C149.445 487.648 150.07 485.64 151.188 483.918L152.192 482.384C153.896 480.177 156.245 478.635 161.284 477.556L164.958 477.122C165.753 477.004 171.455 476.566 172.231 476.597L184.543 476.195L196.002 476.597L205.245 477.122L215.776 478.465C216.61 478.499 221.724 479.398 222.538 479.597H222.595L229.831 482.067C230.437 482.278 231.043 482.545 231.611 482.866L232.842 483.552C236.157 485.414 238.259 488.888 238.373 492.7L242.237 634.349" stroke="#0F2B46" stroke-width="1.56605" stroke-miterlimit="10" stroke-linejoin="round"/>
<path d="M149.466 454.068L158.292 75.2345C158.33 73.6322 158.728 72.0564 159.429 70.6209L160.433 68.6317C161.721 66.4226 163.501 64.8828 167.308 63.8019L170.093 63.3677C170.699 63.2501 175.017 62.8121 175.604 62.8424L184.431 62.4613C184.753 62.448 185.094 62.448 185.416 62.4632L193.617 62.8424L200.114 63.3297C200.455 63.3544 200.777 63.3961 201.118 63.4511L208.6 64.7102C209.225 64.7463 213.108 65.6432 213.714 65.8423H213.752L218.884 68.152C219.585 68.4705 220.248 68.863 220.873 69.3257L221.328 69.6576C224.018 71.643 225.646 74.7472 225.76 78.0865L238.204 454.068" stroke="#0F2B46" stroke-width="1.56605" stroke-miterlimit="10" stroke-linejoin="round"/>
<path d="M158.467 70.3463C156.705 66.8666 149.811 63.6903 150.853 58.561C152.122 52.2445 165.305 49.0474 170.267 48.0632C186.651 44.8225 204.872 44.7467 220.517 50.9361C224.154 52.3791 234.875 55.3847 233.928 61.0375C233.113 65.8047 227.09 68.8975 224.022 71.9315" stroke="#0F2B46" stroke-width="1.56605" stroke-miterlimit="10" stroke-linecap="round" stroke-linejoin="round"/>
<path d="M150.737 58.9079C150.737 58.9079 148.559 43.6884 149.657 39.7594C150.737 35.8303 161.344 32.3715 164.829 31.3248C181.989 26.1594 198.544 27.0999 215.685 31.6983C217.958 32.3127 230.081 36.6779 232.031 39.7594C233.982 42.8408 233.982 58.9079 233.982 58.9079" stroke="#0F2B46" stroke-width="1.56605" stroke-miterlimit="10" stroke-linecap="round" stroke-linejoin="round"/>
<path d="M159.957 32.8383V11.6759V10.6899C160.412 6.9713 167.723 4.65217 170.583 3.64905C181.682 -0.243987 198.312 -0.0259091 209.469 3.42529C211.098 3.9297 222.538 8.12803 222.538 11.6759V32.8383" stroke="#0F2B46" stroke-width="1.56605" stroke-miterlimit="10" stroke-linecap="round" stroke-linejoin="round"/>
<path d="M157.553 111.444C164.731 99.1088 197.897 100.645 209.527 103.925C211.364 104.439 226.687 109.874 226.801 111.444" stroke="#0F2B46" stroke-width="1.56605" stroke-miterlimit="10" stroke-linecap="round" stroke-linejoin="round"/>
<path d="M156.421 159.177C163.6 146.841 197.902 147.558 209.531 150.837C211.369 151.351 228.321 157.606 228.434 159.177" stroke="#0F2B46" stroke-width="1.56605" stroke-miterlimit="10" stroke-linecap="round" stroke-linejoin="round"/>
<path d="M155.377 208.14C162.556 195.805 197.369 195.818 209.018 199.099C210.836 199.613 229.777 206.57 229.872 208.14" stroke="#0F2B46" stroke-width="1.56605" stroke-miterlimit="10" stroke-linecap="round" stroke-linejoin="round"/>
<path d="M154.541 255.636C156.662 251.644 163.633 249.68 167.572 248.461C182.195 243.934 198.143 245.235 212.784 248.737C214.413 249.13 231.062 253.351 231.044 254.593" stroke="#0F2B46" stroke-width="1.56605" stroke-miterlimit="10" stroke-linecap="round" stroke-linejoin="round"/>
<path d="M153.713 303.427C157.653 298.694 167.407 296.959 173.07 296.038C190.723 293.17 207.77 294.799 224.59 300.697C227.128 301.588 230.784 302.566 232.905 304.3" stroke="#0F2B46" stroke-width="1.56605" stroke-miterlimit="10" stroke-linecap="round" stroke-linejoin="round"/>
<path d="M152.463 351.063C155.342 347.077 165.987 346.491 170.324 345.321C186.992 340.81 219.514 343.658 234.212 354.073" stroke="#0F2B46" stroke-width="1.56605" stroke-miterlimit="10" stroke-linecap="round" stroke-linejoin="round"/>
<path d="M151.76 400.568C151.325 400.911 153.389 399.986 153.806 399.808C155.586 399.005 157.367 398.351 159.261 397.794C164.564 396.237 169.944 394.87 175.455 394.314C191.612 392.681 205.723 395.067 221.463 398.12C224.19 398.647 233.528 400.568 236.142 402.804" stroke="#0F2B46" stroke-width="1.56605" stroke-miterlimit="10" stroke-linecap="round" stroke-linejoin="round"/>
<path d="M149.105 489.074C144.332 488.146 131.074 476.006 132.627 470.648" stroke="#0F2B46" stroke-width="1.56605" stroke-miterlimit="10" stroke-linecap="round" stroke-linejoin="round"/>
<path d="M132.626 470.515C134.615 465.05 150.298 461.085 154.787 459.807C177.724 453.286 206.041 455.042 229.035 460.345C234.661 461.643 255.572 468.039 255.742 475.049C255.761 475.504 255.628 475.995 255.401 476.517C253.185 481.515 240.892 489.074 240.892 489.074" stroke="#0F2B46" stroke-width="1.56605" stroke-miterlimit="10" stroke-linecap="round" stroke-linejoin="round"/>
<path d="M132.626 461.133C138.895 456.4 146.415 453.641 152.457 452.152C167.856 448.358 175.091 447.466 185.964 446.922C188.767 446.782 191.21 446.808 193.824 446.922C205.946 447.451 227.35 450.516 238.203 453.641C242.9 454.995 251.102 459.29 255.742 463.376" stroke="#0F2B46" stroke-width="1.56605" stroke-miterlimit="10" stroke-linecap="round" stroke-linejoin="round"/>
<path d="M132.744 436.551C139.014 431.818 146.533 429.061 152.594 427.57C167.974 423.776 175.21 422.886 186.082 422.34C188.904 422.2 191.329 422.226 193.961 422.34C206.065 422.869 227.468 425.934 238.321 429.061C243.037 430.413 251.239 434.708 255.879 438.796" stroke="#0F2B46" stroke-width="1.56605" stroke-miterlimit="10" stroke-linecap="round" stroke-linejoin="round"/>
<path d="M132.739 436.591L132.493 471.636" stroke="#0F2B46" stroke-width="1.56605" stroke-miterlimit="10" stroke-linejoin="round"/>
<path d="M144.467 430.006L144.221 463.376" stroke="#0F2B46" stroke-width="1.56605" stroke-miterlimit="10" stroke-linejoin="round"/>
<path d="M161.742 425.333L161.496 458.703" stroke="#0F2B46" stroke-width="1.56605" stroke-miterlimit="10" stroke-linejoin="round"/>
<path d="M188.297 422.974L188.051 456.347" stroke="#0F2B46" stroke-width="1.56605" stroke-miterlimit="10" stroke-linejoin="round"/>
<path d="M217.316 424.696L217.069 458.066" stroke="#0F2B46" stroke-width="1.56605" stroke-miterlimit="10" stroke-linejoin="round"/>
<path d="M247.332 432.834L247.086 466.205" stroke="#0F2B46" stroke-width="1.56605" stroke-miterlimit="10" stroke-linejoin="round"/>
<path d="M255.875 438.796L255.742 475.03" stroke="#0F2B46" stroke-width="1.56605" stroke-miterlimit="10" stroke-linejoin="round"/>
<path d="M43.5101 633.015C43.4533 633.019 44.4762 632.82 44.7982 632.824C45.7831 632.835 46.7679 632.771 47.7528 632.78C51.2948 632.82 54.2308 633.774 57.5644 634.724C57.9621 634.837 60.9167 635.842 60.6894 636.286" stroke="#0F2B46" stroke-width="1.56605" stroke-miterlimit="10" stroke-linecap="round" stroke-linejoin="round"/>
<path d="M174.126 476.195V636.287" stroke="#0F2B46" stroke-width="1.56605" stroke-miterlimit="10" stroke-linejoin="round"/>
<path d="M188.051 476.195V634.533" stroke="#0F2B46" stroke-width="1.56605" stroke-miterlimit="10" stroke-linejoin="round"/>
<path d="M149.318 508.241C153.315 504.797 160.077 503.817 165.058 502.556C167.009 502.061 168.865 501.86 170.835 501.68C171.29 501.638 173.392 501.35 173.336 501.458" stroke="#0F2B46" stroke-width="1.56605" stroke-miterlimit="10" stroke-linecap="round" stroke-linejoin="round"/>
<path d="M188.672 499.984C191.608 498.774 195.756 499.185 198.862 499.163C207.726 499.104 216.023 499.627 224.811 500.281C226.667 500.42 236.289 501.923 237.634 503.488" stroke="#0F2B46" stroke-width="1.56605" stroke-miterlimit="10" stroke-linecap="round" stroke-linejoin="round"/>
<path d="M149.163 527.416C152.724 524.79 168.672 521.358 173.407 522.067" stroke="#0F2B46" stroke-width="1.56605" stroke-miterlimit="10" stroke-linecap="round" stroke-linejoin="round"/>
<path d="M188.412 520.789C188.299 520.81 189.776 520.381 190.269 520.342C191.67 520.234 193.034 519.833 194.436 519.856C198.357 519.919 202.22 519.475 206.122 519.773C214.513 520.408 222.809 521.612 230.992 523.546C232.052 523.797 237.811 526.23 238.644 525.609" stroke="#0F2B46" stroke-width="1.56605" stroke-miterlimit="10" stroke-linecap="round" stroke-linejoin="round"/>
<path d="M148.504 553.159C154.982 548.784 165.153 549.061 172.578 548.088" stroke="#0F2B46" stroke-width="1.56605" stroke-miterlimit="10" stroke-linecap="round" stroke-linejoin="round"/>
<path d="M188.146 546.863C199.322 543.74 212.05 546.415 223.225 548.01C226.975 548.547 230.877 549.732 234.495 550.932C235.594 551.302 239.211 552.603 238.832 552.739" stroke="#0F2B46" stroke-width="1.56605" stroke-miterlimit="10" stroke-linecap="round" stroke-linejoin="round"/>
<path d="M148.63 575.244C156.036 572.1 162.911 570.077 170.867 569.618C171.624 569.572 173.802 569.147 174.446 569.512" stroke="#0F2B46" stroke-width="1.56605" stroke-miterlimit="10" stroke-linecap="round" stroke-linejoin="round"/>
<path d="M188.502 567.949C203.977 563.553 224.357 567.636 238.847 573.513" stroke="#0F2B46" stroke-width="1.56605" stroke-miterlimit="10" stroke-linecap="round" stroke-linejoin="round"/>
<path d="M147.629 595.529C146.758 595.648 149.239 594.825 150.054 594.48C151.815 593.737 153.577 593.012 155.433 592.54C160.49 591.253 167.441 588.596 172.707 589.595" stroke="#0F2B46" stroke-width="1.56605" stroke-miterlimit="10" stroke-linecap="round" stroke-linejoin="round"/>
<path d="M188.051 589.485C190.021 588.144 195.419 589.24 197.635 589.248C206.613 589.286 215.667 589.9 224.437 591.981C228.073 592.842 231.767 593.852 235.422 594.546C237.032 594.85 238.775 595.375 240.29 595.893C240.612 596.004 240.404 596.001 240.195 596.056" stroke="#0F2B46" stroke-width="1.56605" stroke-miterlimit="10" stroke-linecap="round" stroke-linejoin="round"/>
<path d="M147.535 626.075C151.494 624.683 168.787 618.48 172.613 620.695" stroke="#0F2B46" stroke-width="1.56605" stroke-miterlimit="10" stroke-linecap="round" stroke-linejoin="round"/>
<path d="M188.146 620.073C196.102 614.828 216.823 619.084 225.744 620.436C229.476 621.005 233.056 622.271 236.73 623.03C237.923 623.276 241.389 624.981 241.143 624.93" stroke="#0F2B46" stroke-width="1.56605" stroke-miterlimit="10" stroke-linecap="round" stroke-linejoin="round"/>
</svg>
