<svg width="140" height="24" viewBox="0 0 140 24" fill="none" xmlns="http://www.w3.org/2000/svg">
<rect width="48" height="2" transform="translate(0 11)" fill="#E6C0A9"/>
<path d="M68 11H64C63.7348 11 63.4804 10.8946 63.2929 10.7071C63.1054 10.5196 63 10.2652 63 10V7C63 6.73478 63.1054 6.48043 63.2929 6.29289C63.4804 6.10536 63.7348 6 64 6H67C67.2652 6 67.5196 6.10536 67.7071 6.29289C67.8946 6.48043 68 6.73478 68 7V13C68 15.667 66.667 17.333 64 18M77 11H73C72.7348 11 72.4804 10.8946 72.2929 10.7071C72.1054 10.5196 72 10.2652 72 10V7C72 6.73478 72.1054 6.48043 72.2929 6.29289C72.4804 6.10536 72.7348 6 73 6H76C76.2652 6 76.5196 6.10536 76.7071 6.29289C76.8946 6.48043 77 6.73478 77 7V13C77 15.667 75.667 17.333 73 18" stroke="#E6C0A9" stroke-width="2" stroke-linecap="round" stroke-linejoin="round"/>
<rect width="48" height="2" transform="translate(92 11)" fill="#E6C0A9"/>
</svg>
