<svg width="375" height="347" viewBox="0 0 375 347" fill="none" xmlns="http://www.w3.org/2000/svg">
<g clip-path="url(#clip0_17_189)">
<mask id="mask0_17_189" style="mask-type:luminance" maskUnits="userSpaceOnUse" x="0" y="0" width="375" height="347">
<path d="M375 0H0V347H375V0Z" fill="white"/>
</mask>
<g mask="url(#mask0_17_189)">
<mask id="mask1_17_189" style="mask-type:luminance" maskUnits="userSpaceOnUse" x="-558" y="-75" width="884" height="498">
<path d="M325.163 -74.0295H-558V422.75H325.163V-74.0295Z" fill="white"/>
</mask>
<g mask="url(#mask1_17_189)">
<path d="M296.575 153.846L320.904 160.495" stroke="#0F2B46" stroke-miterlimit="10" stroke-linejoin="round"/>
<path d="M296.575 155.956L320.904 162.49" stroke="#0F2B46" stroke-miterlimit="10" stroke-linejoin="round"/>
<path d="M295.178 159.223L317.519 165.276" stroke="#0F2B46" stroke-miterlimit="10" stroke-linejoin="round"/>
<path d="M71.4612 214.32L71.1484 316.848" stroke="#0F2B46" stroke-miterlimit="10" stroke-linejoin="round"/>
<path d="M71.4335 199.31L-6.39062 208.571V212.863L69.0692 210.51" stroke="#0F2B46" stroke-miterlimit="10" stroke-linejoin="round"/>
<path d="M-6.39071 212.863H-7.89941V215.775L69.1795 213.256" stroke="#0F2B46" stroke-miterlimit="10" stroke-linejoin="round"/>
<path d="M-6.39062 215.775V218.159L71.4335 215.775" stroke="#0F2B46" stroke-miterlimit="10" stroke-linejoin="round"/>
<path d="M-6.39062 215.775V218.159L71.4335 215.775" stroke="#0F2B46" stroke-miterlimit="10" stroke-linejoin="round"/>
<path d="M70.8633 170.664L71.4337 209.665" stroke="#0F2B46" stroke-miterlimit="10" stroke-linejoin="round"/>
<path d="M70.8636 170.664L67.3447 167.003V163.239L296.576 153.846V155.948H295.049V318.126" stroke="#0F2B46" stroke-miterlimit="10" stroke-linejoin="round"/>
<path d="M295.178 162.249L316.498 168.144" stroke="#0F2B46" stroke-miterlimit="10" stroke-linejoin="round"/>
<path d="M70.8633 170.664L115.771 168.979M130.122 168.441L152.169 167.614M167.003 167.08L187.84 166.269M202.689 165.759L222.431 164.97M237.265 164.628L295.177 162.249" stroke="#0F2B46" stroke-miterlimit="10" stroke-linejoin="round"/>
<path d="M69.1797 214.32V209.657L288.954 204.009L295.062 203.852V207.572L69.1797 214.32Z" stroke="#0F2B46" stroke-miterlimit="10" stroke-linejoin="round"/>
<path d="M295.178 159.223L240.169 161.189M219.755 161.765L205.39 162.336M184.999 162.978L169.893 163.529M149.387 164.202L133.269 164.752M112.639 165.456L67.3447 167.003" stroke="#0F2B46" stroke-miterlimit="10" stroke-linejoin="round"/>
<path d="M295.178 155.956L240.192 158.283M219.001 159.081L205.381 159.672M184.787 160.472L170.165 161.111M148.863 161.941L133.44 162.556M112.189 163.441L67.3447 165.276" stroke="#0F2B46" stroke-miterlimit="10" stroke-linejoin="round"/>
<path d="M87.6387 213.941V316.852" stroke="#0F2B46" stroke-miterlimit="10" stroke-linejoin="round"/>
<path d="M87.6569 209.094L87.6201 183.059" stroke="#0F2B46" stroke-miterlimit="10" stroke-linejoin="round"/>
<path d="M71.1484 183.477L71.3554 183.47M87.2478 182.916L115.928 181.916M237.423 177.743L280.325 175.668C280.325 175.668 280.325 187.702 280.325 204.418M280.325 207.712C280.325 245.918 280.325 304.673 280.325 304.673M294.953 175.677L295.178 175.668" stroke="#0F2B46" stroke-miterlimit="10" stroke-linejoin="round"/>
<path d="M112.192 161.532L112.629 165.771L115.587 168.89L116.056 208.329" stroke="#0F2B46" stroke-miterlimit="10" stroke-linejoin="round"/>
<path d="M133.44 160.616V164.855L130.477 168.144V208.329" stroke="#0F2B46" stroke-miterlimit="10" stroke-linejoin="round"/>
<path d="M170.164 159.203V163.442L167.206 166.731V206.916" stroke="#0F2B46" stroke-miterlimit="10" stroke-linejoin="round"/>
<path d="M148.917 160.119L149.354 164.358L152.316 167.477L152.785 207.311" stroke="#0F2B46" stroke-miterlimit="10" stroke-linejoin="round"/>
<path d="M205.651 157.805V162.204L202.689 165.494V206.087" stroke="#0F2B46" stroke-miterlimit="10" stroke-linejoin="round"/>
<path d="M184.405 158.581L184.837 163.12L187.799 166.24L188.268 206.503" stroke="#0F2B46" stroke-miterlimit="10" stroke-linejoin="round"/>
<path d="M219 157.171L219.607 162.045L222.569 165.164L223.038 205.592" stroke="#0F2B46" stroke-miterlimit="10" stroke-linejoin="round"/>
<path d="M240.421 156.427V161.128L237.459 164.418V205.247" stroke="#0F2B46" stroke-miterlimit="10" stroke-linejoin="round"/>
<path d="M114.124 208.329V212.863" stroke="#0F2B46" stroke-miterlimit="10" stroke-linejoin="round"/>
<path d="M131.958 207.968V212.503" stroke="#0F2B46" stroke-miterlimit="10" stroke-linejoin="round"/>
<path d="M168.688 207.311V211.43" stroke="#0F2B46" stroke-miterlimit="10" stroke-linejoin="round"/>
<path d="M150.85 207.672V212.206" stroke="#0F2B46" stroke-miterlimit="10" stroke-linejoin="round"/>
<path d="M186.336 206.895V210.653" stroke="#0F2B46" stroke-miterlimit="10" stroke-linejoin="round"/>
<path d="M204.17 206.534V210.653" stroke="#0F2B46" stroke-miterlimit="10" stroke-linejoin="round"/>
<path d="M238.94 205.613V209.37" stroke="#0F2B46" stroke-miterlimit="10" stroke-linejoin="round"/>
<path d="M221.106 205.974V209.731" stroke="#0F2B46" stroke-miterlimit="10" stroke-linejoin="round"/>
<path d="M116.057 212.863V317.039" stroke="#0F2B46" stroke-miterlimit="10" stroke-linejoin="round"/>
<path d="M130.477 212.503V316.945" stroke="#0F2B46" stroke-miterlimit="10" stroke-linejoin="round"/>
<path d="M167.206 211.43V317.281" stroke="#0F2B46" stroke-miterlimit="10" stroke-linejoin="round"/>
<path d="M152.785 211.791V317.097" stroke="#0F2B46" stroke-miterlimit="10" stroke-linejoin="round"/>
<path d="M188.269 211.02V317.642" stroke="#0F2B46" stroke-miterlimit="10" stroke-linejoin="round"/>
<path d="M202.689 210.653V317.274" stroke="#0F2B46" stroke-miterlimit="10" stroke-linejoin="round"/>
<path d="M237.459 209.094V317.642" stroke="#0F2B46" stroke-miterlimit="10" stroke-linejoin="round"/>
<path d="M223.038 210.032V317.281" stroke="#0F2B46" stroke-miterlimit="10" stroke-linejoin="round"/>
<path d="M-3.18457 256.495L71.2908 254.487" stroke="#0F2B46" stroke-miterlimit="10" stroke-linejoin="round"/>
<path d="M-3.18457 272.848L71.1483 270.841" stroke="#0F2B46" stroke-miterlimit="10" stroke-linejoin="round"/>
<path d="M44.3179 227.346L51.5304 227.052L62.455 226.606V252.601L42.041 253.344V251.858L44.6353 251.804L44.3179 227.346Z" stroke="#0F2B46" stroke-miterlimit="10" stroke-linejoin="round"/>
<path d="M16.0015 228.062L23.2094 227.768L34.134 227.323V253.318L13.7246 254.061V252.597L16.0107 252.471L16.0015 228.062Z" stroke="#0F2B46" stroke-miterlimit="10" stroke-linejoin="round"/>
<path d="M16.0107 229.846L33.8395 229.091" stroke="#0F2B46" stroke-miterlimit="10" stroke-linejoin="round"/>
<path d="M25.5505 229.469L25.5459 252.018" stroke="#0F2B46" stroke-miterlimit="10" stroke-linejoin="round"/>
<path d="M18.4531 236.301H32.1836" stroke="#0F2B46" stroke-miterlimit="10" stroke-linejoin="round"/>
<path d="M18.4531 229.846V252.132" stroke="#0F2B46" stroke-miterlimit="10" stroke-linejoin="round"/>
<path d="M32.5881 229.469L32.3857 251.667" stroke="#0F2B46" stroke-miterlimit="10" stroke-linejoin="round"/>
<path d="M16.0107 252.471C16.6592 252.471 18.4531 252.401 18.4531 252.401L34.1063 251.667" stroke="#0F2B46" stroke-miterlimit="10" stroke-linejoin="round"/>
<path d="M44.6348 229.179L62.4636 228.424" stroke="#0F2B46" stroke-miterlimit="10" stroke-linejoin="round"/>
<path d="M54.1755 228.802L54.1709 251.351" stroke="#0F2B46" stroke-miterlimit="10" stroke-linejoin="round"/>
<path d="M47.0771 235.634H60.8076" stroke="#0F2B46" stroke-miterlimit="10" stroke-linejoin="round"/>
<path d="M47.0771 229.179V251.465" stroke="#0F2B46" stroke-miterlimit="10" stroke-linejoin="round"/>
<path d="M60.845 228.582L60.6426 250.78" stroke="#0F2B46" stroke-miterlimit="10" stroke-linejoin="round"/>
<path d="M44.6348 251.804C45.2833 251.804 47.0772 251.734 47.0772 251.734L62.7304 251" stroke="#0F2B46" stroke-miterlimit="10" stroke-linejoin="round"/>
<path d="M44.943 275.206L52.1508 274.912L63.0754 274.467V300.461L42.666 301.204V299.719L45.2603 299.665L44.943 275.206Z" stroke="#0F2B46" stroke-miterlimit="10" stroke-linejoin="round"/>
<path d="M16.6219 275.923L23.8344 275.629L34.759 275.184V301.178L14.3496 301.921V300.457L16.6357 300.332L16.6219 275.923Z" stroke="#0F2B46" stroke-miterlimit="10" stroke-linejoin="round"/>
<path d="M16.6357 277.707L34.4646 276.951" stroke="#0F2B46" stroke-miterlimit="10" stroke-linejoin="round"/>
<path d="M26.1755 277.329L26.1709 299.878" stroke="#0F2B46" stroke-miterlimit="10" stroke-linejoin="round"/>
<path d="M19.0781 284.161H32.804" stroke="#0F2B46" stroke-miterlimit="10" stroke-linejoin="round"/>
<path d="M19.0781 277.707V299.992" stroke="#0F2B46" stroke-miterlimit="10" stroke-linejoin="round"/>
<path d="M33.2141 277.329L33.0117 299.527" stroke="#0F2B46" stroke-miterlimit="10" stroke-linejoin="round"/>
<path d="M16.6357 300.332C17.2843 300.332 19.0782 300.261 19.0782 300.261L34.7268 299.527" stroke="#0F2B46" stroke-miterlimit="10" stroke-linejoin="round"/>
<path d="M45.2607 277.04L63.0896 276.284" stroke="#0F2B46" stroke-miterlimit="10" stroke-linejoin="round"/>
<path d="M54.8005 276.662L54.7959 299.212" stroke="#0F2B46" stroke-miterlimit="10" stroke-linejoin="round"/>
<path d="M47.7031 283.495H61.4289" stroke="#0F2B46" stroke-miterlimit="10" stroke-linejoin="round"/>
<path d="M47.7031 277.04V299.325" stroke="#0F2B46" stroke-miterlimit="10" stroke-linejoin="round"/>
<path d="M61.466 276.442L61.2637 298.64" stroke="#0F2B46" stroke-miterlimit="10" stroke-linejoin="round"/>
<path d="M45.2607 299.665C45.9093 299.665 47.7032 299.594 47.7032 299.594L63.3517 298.86" stroke="#0F2B46" stroke-miterlimit="10" stroke-linejoin="round"/>
<path d="M-3.16211 304.673L71.1479 302.505" stroke="#0F2B46" stroke-miterlimit="10" stroke-linejoin="round"/>
<path d="M-3.16211 326.445L53.8066 324.983" stroke="#0F2B46" stroke-miterlimit="10" stroke-linejoin="round"/>
<path d="M61.2637 321.187L61.4293 316.484L325.163 318.126" stroke="#0F2B46" stroke-miterlimit="10" stroke-linejoin="round"/>
<path d="M53.9404 326.045V321.188L325.2 322.8" stroke="#0F2B46" stroke-miterlimit="10" stroke-linejoin="round"/>
<path d="M47.5703 330.424V326.045L325.201 327.538" stroke="#0F2B46" stroke-miterlimit="10" stroke-linejoin="round"/>
<path d="M40.5455 335.204L40.5225 330.424L325.2 331.74" stroke="#0F2B46" stroke-miterlimit="10" stroke-linejoin="round"/>
<path d="M40.6748 334.782L325.201 338.192" stroke="#0F2B46" stroke-miterlimit="10" stroke-linejoin="round"/>
<path d="M130.56 181.349C134.088 177.817 142.681 178.277 147.225 178.926C147.947 179.029 152.078 179.933 152.349 180.473" stroke="#0F2B46" stroke-miterlimit="10" stroke-linecap="round" stroke-linejoin="round"/>
<path d="M91.8887 279.948C95.4213 273.507 104.014 274.347 108.554 275.531C109.276 275.718 113.411 277.366 113.683 278.352" stroke="#0F2B46" stroke-miterlimit="10" stroke-linecap="round" stroke-linejoin="round"/>
<path d="M167.197 180.751C170.729 177.219 179.322 177.68 183.862 178.329C184.584 178.432 187.629 178.978 187.9 179.518" stroke="#0F2B46" stroke-miterlimit="10" stroke-linecap="round" stroke-linejoin="round"/>
<path d="M202.73 179.315C206.258 175.783 214.515 176.447 219.06 177.096C219.782 177.199 222.436 177.542 222.707 178.082" stroke="#0F2B46" stroke-miterlimit="10" stroke-linecap="round" stroke-linejoin="round"/>
<path d="M134.547 187.252L148.356 186.802V206.238L134.612 206.534L134.547 187.252Z" stroke="#0F2B46" stroke-miterlimit="10" stroke-linejoin="round"/>
<path d="M134.616 223.126H148.917V248.771L134.616 248.884V223.126Z" stroke="#0F2B46" stroke-miterlimit="10" stroke-linejoin="round"/>
<path d="M132.652 278.916H150.849V316.945L132.652 316.848V278.916Z" stroke="#0F2B46" stroke-miterlimit="10" stroke-linejoin="round"/>
<path d="M95.8809 278.823H114.083V316.852L95.8809 316.756V278.823Z" stroke="#0F2B46" stroke-miterlimit="10" stroke-linejoin="round"/>
<path d="M168.688 279.068H186.885V317.097L168.688 317V279.068Z" stroke="#0F2B46" stroke-miterlimit="10" stroke-linejoin="round"/>
<path d="M203.618 279.068H221.819V317.097L203.618 317V279.068Z" stroke="#0F2B46" stroke-miterlimit="10" stroke-linejoin="round"/>
<path d="M238.94 279.613H257.137V317.642L238.94 317.545V279.613Z" stroke="#0F2B46" stroke-miterlimit="10" stroke-linejoin="round"/>
<path d="M95.8809 223.422H110.186V249.067L95.8809 249.18V223.422Z" stroke="#0F2B46" stroke-miterlimit="10" stroke-linejoin="round"/>
<path d="M170.646 222.756H184.947V248.4L170.646 248.513V222.756Z" stroke="#0F2B46" stroke-miterlimit="10" stroke-linejoin="round"/>
<path d="M170.646 185.964L184.451 185.514V204.951L170.706 205.246L170.646 185.964Z" stroke="#0F2B46" stroke-miterlimit="10" stroke-linejoin="round"/>
<path d="M205.812 184.922L219.622 184.472V203.909L205.877 204.205L205.812 184.922Z" stroke="#0F2B46" stroke-miterlimit="10" stroke-linejoin="round"/>
<path d="M243.323 182.992L257.132 182.542V201.979L243.388 202.274L243.323 182.992Z" stroke="#0F2B46" stroke-miterlimit="10" stroke-linejoin="round"/>
<path d="M95.8809 188.209L109.69 187.76V207.196L95.9453 207.492L95.8809 188.209Z" stroke="#0F2B46" stroke-miterlimit="10" stroke-linejoin="round"/>
<path d="M205.812 222.235H219.622V248.4L205.812 248.513V222.235Z" stroke="#0F2B46" stroke-miterlimit="10" stroke-linejoin="round"/>
<path d="M243.323 221.715H257.132V247.879L243.323 247.993V221.715Z" stroke="#0F2B46" stroke-miterlimit="10" stroke-linejoin="round"/>
<path d="M95.8809 192.035L109.69 191.662" stroke="#0F2B46" stroke-miterlimit="10" stroke-linejoin="round"/>
<path d="M134.616 190.538L148.425 190.164" stroke="#0F2B46" stroke-miterlimit="10" stroke-linejoin="round"/>
<path d="M170.597 189.336L184.406 188.963" stroke="#0F2B46" stroke-miterlimit="10" stroke-linejoin="round"/>
<path d="M205.812 188.133L219.622 187.76" stroke="#0F2B46" stroke-miterlimit="10" stroke-linejoin="round"/>
<path d="M243.323 186.802L257.132 186.429" stroke="#0F2B46" stroke-miterlimit="10" stroke-linejoin="round"/>
<path d="M103.034 248.884V223.422" stroke="#0F2B46" stroke-miterlimit="10" stroke-linejoin="round"/>
<path d="M103.034 207.492V191.506" stroke="#0F2B46" stroke-miterlimit="10" stroke-linejoin="round"/>
<path d="M142.014 206.337V190.351" stroke="#0F2B46" stroke-miterlimit="10" stroke-linejoin="round"/>
<path d="M178.071 205.322V189.336" stroke="#0F2B46" stroke-miterlimit="10" stroke-linejoin="round"/>
<path d="M212.716 204.069V188.084" stroke="#0F2B46" stroke-miterlimit="10" stroke-linejoin="round"/>
<path d="M250.229 202.331V186.345" stroke="#0F2B46" stroke-miterlimit="10" stroke-linejoin="round"/>
<path d="M96.1299 232.673H109.938" stroke="#0F2B46" stroke-miterlimit="10" stroke-linejoin="round"/>
<path d="M142.014 248.884V222.903" stroke="#0F2B46" stroke-miterlimit="10" stroke-linejoin="round"/>
<path d="M142.014 317.097V279.068" stroke="#0F2B46" stroke-miterlimit="10" stroke-linejoin="round"/>
<path d="M102.786 317.097V279.068" stroke="#0F2B46" stroke-miterlimit="10" stroke-linejoin="round"/>
<path d="M178.071 317.039V279.01" stroke="#0F2B46" stroke-miterlimit="10" stroke-linejoin="round"/>
<path d="M212.716 316.852V278.823" stroke="#0F2B46" stroke-miterlimit="10" stroke-linejoin="round"/>
<path d="M250.26 317.642V279.613" stroke="#0F2B46" stroke-miterlimit="10" stroke-linejoin="round"/>
<path d="M134.616 232.154H148.917" stroke="#0F2B46" stroke-miterlimit="10" stroke-linejoin="round"/>
<path d="M178.071 248.26L178.043 222.664" stroke="#0F2B46" stroke-miterlimit="10" stroke-linejoin="round"/>
<path d="M170.826 231.48L184.947 231.486" stroke="#0F2B46" stroke-miterlimit="10" stroke-linejoin="round"/>
<path d="M212.716 248.26V222.235" stroke="#0F2B46" stroke-miterlimit="10" stroke-linejoin="round"/>
<path d="M205.812 230.965H219.622" stroke="#0F2B46" stroke-miterlimit="10" stroke-linejoin="round"/>
<path d="M250.26 247.748L250.232 221.715" stroke="#0F2B46" stroke-miterlimit="10" stroke-linejoin="round"/>
<path d="M243.328 230.965H257.137" stroke="#0F2B46" stroke-miterlimit="10" stroke-linejoin="round"/>
<path d="M91.8887 279.948V316.484" stroke="#0F2B46" stroke-miterlimit="10" stroke-linejoin="round"/>
<path d="M94.4326 276.956V316.484" stroke="#0F2B46" stroke-miterlimit="10" stroke-linejoin="round"/>
<path d="M257.138 304.673H295.063" stroke="#0F2B46" stroke-miterlimit="10" stroke-linejoin="round"/>
<path d="M295.062 304.673H320.904" stroke="#0F2B46" stroke-miterlimit="10" stroke-linejoin="round"/>
<path d="M171.571 253.47H184.405V256.495H171.571V253.47Z" stroke="#0F2B46" stroke-miterlimit="10" stroke-linejoin="round"/>
<path d="M281.272 154.428V149.776L295.062 148.623L296.576 149.776L298.241 154.419" stroke="#0F2B46" stroke-miterlimit="10" stroke-linejoin="round"/>
<path d="M104.979 161.616V158.581L141.451 157.171" stroke="#0F2B46" stroke-miterlimit="10" stroke-linejoin="round"/>
<path d="M141.52 160.119L141.507 159.517C141.474 158.088 141.451 157.171 141.451 157.171L152.44 154.11C152.67 154.046 152.9 154.002 153.14 153.978L167.197 152.549L178.011 151.531C178.052 151.528 178.089 151.525 178.13 151.522L188.199 150.866C188.245 150.864 188.291 150.861 188.337 150.86L221.75 149.779C221.796 149.778 221.838 149.777 221.884 149.777H252.863C253.213 149.777 253.563 149.821 253.903 149.908L273.066 154.826" stroke="#0F2B46" stroke-miterlimit="10" stroke-linejoin="round"/>
<path d="M155.196 115.819L155.117 153.768" stroke="#0F2B46" stroke-miterlimit="10" stroke-linejoin="round"/>
<path d="M229.249 116.559L228.849 149.776" stroke="#0F2B46" stroke-miterlimit="10" stroke-linejoin="round"/>
<path d="M229.243 116.561C229.243 110.922 212.675 106.355 192.229 106.355C171.783 106.355 155.2 110.922 155.2 116.561" stroke="#0F2B46" stroke-miterlimit="10" stroke-linejoin="round"/>
<path d="M229.249 118.501C230.657 117.55 231.982 116.559 231.982 115.408C231.982 115.408 231.981 113.983 231.213 112.96C230.298 111.735 228.794 110.92 227.745 110.261C222.501 106.97 209.042 102.946 192.235 102.946C176.066 102.946 160.188 107.084 155.119 111.067C154.263 111.741 152.35 113.152 152.35 115.408C152.35 117.711 155.119 119.035 155.119 119.46" stroke="#0F2B46" stroke-miterlimit="10" stroke-linejoin="round"/>
<path d="M219 77.5748C219.004 77.3337 219.082 76.227 219.046 75.9901C218.195 70.687 206.829 66.5007 193.061 66.5007C179.391 66.5007 168.176 70.6291 167.105 75.8811C167.049 76.1534 167.206 77.8747 167.206 78.1525" stroke="#0F2B46" stroke-miterlimit="10" stroke-linejoin="round"/>
<path d="M216.351 79.606C217.34 78.6543 220.482 76.7063 220.56 75.6047C220.56 75.6047 221.02 74.1286 220.482 73.1056C219.838 71.8807 218.78 71.0665 218.039 70.4069C214.35 67.1162 204.884 63.0918 193.067 63.0918C181.696 63.0918 170.533 67.2298 166.968 71.2132C166.365 71.8871 165.017 73.2974 165.017 75.5536C165.017 77.8572 169.695 79.0715 169.976 79.3917" stroke="#0F2B46" stroke-miterlimit="10" stroke-linejoin="round"/>
<path d="M220.743 73.8889C219.998 71.4644 218.296 68.3264 216.387 66.5007C215.007 65.1833 209.952 60.6548 201.695 58.2836C199.174 57.5596 196.332 57.0918 193.066 57.0918C182.588 57.0918 170.72 62.8236 166.051 71.5839C165.651 72.331 165.292 72.9506 165.292 73.8889" stroke="#0F2B46" stroke-miterlimit="10" stroke-linejoin="round"/>
<path d="M216.387 93.1887C212.698 89.8984 205.246 87.2793 193.429 87.2793C182.059 87.2793 173.728 89.4283 170.164 93.4113" stroke="#0F2B46" stroke-miterlimit="10" stroke-linejoin="round"/>
<path d="M216.056 105.649C216.056 105.649 216.796 77.0635 216.056 76.3837C212.371 72.9913 204.23 70.2549 192.408 70.2549C181.038 70.2549 173.728 72.2774 170.164 76.3837C169.561 77.0782 170.596 105.166 170.596 105.166" stroke="#0F2B46" stroke-miterlimit="10" stroke-linejoin="round"/>
<path d="M187.919 103.157V91.0664H192.344H196.525V103.157" stroke="#0F2B46" stroke-miterlimit="10" stroke-linejoin="round"/>
<path d="M229.046 128.302L223.038 125.619L223.052 149.776" stroke="#0F2B46" stroke-miterlimit="10" stroke-linejoin="round"/>
<path d="M177.5 151.526V123.465L189.57 123.106L189.543 150.935" stroke="#0F2B46" stroke-miterlimit="10" stroke-linejoin="round"/>
<path d="M157.381 153.768V128.916L165.016 126.008L164.998 153.107" stroke="#0F2B46" stroke-miterlimit="10" stroke-linejoin="round"/>
<path d="M214.8 150.189V123.871L202.73 122.978L202.758 150.563" stroke="#0F2B46" stroke-miterlimit="10" stroke-linejoin="round"/>
<path d="M174.557 104.326V93.9473L182.86 91.0664L183.164 103.157" stroke="#0F2B46" stroke-miterlimit="10" stroke-linejoin="round"/>
<path d="M201.346 103.157L201.005 91.0664L209.952 93.9473V104.326" stroke="#0F2B46" stroke-miterlimit="10" stroke-linejoin="round"/>
<path d="M112.532 165.509L133.268 164.697" stroke="#0F2B46" stroke-miterlimit="10" stroke-linejoin="round"/>
<path d="M115.495 168.828L130.444 168.453" stroke="#0F2B46" stroke-miterlimit="10" stroke-linejoin="round"/>
<path d="M149.475 164.244L170.349 163.323" stroke="#0F2B46" stroke-miterlimit="10" stroke-linejoin="round"/>
<path d="M152.165 167.685L167.473 167.003" stroke="#0F2B46" stroke-miterlimit="10" stroke-linejoin="round"/>
<path d="M184.736 162.983L205.605 162.062" stroke="#0F2B46" stroke-miterlimit="10" stroke-linejoin="round"/>
<path d="M187.422 166.425L202.735 165.743" stroke="#0F2B46" stroke-miterlimit="10" stroke-linejoin="round"/>
<path d="M219.542 161.724L240.416 160.802" stroke="#0F2B46" stroke-miterlimit="10" stroke-linejoin="round"/>
<path d="M222.233 165.165L237.542 164.483" stroke="#0F2B46" stroke-miterlimit="10" stroke-linejoin="round"/>
</g>
<path d="M381.213 156.792C380.651 156.392 379.917 157.305 379.233 157.321C377.772 157.354 376.494 157.433 375.039 157.783C372.306 158.441 370.142 159.815 367.581 160.879C366.046 161.517 364.395 161.107 362.898 161.696C362.219 161.962 361.889 162.823 361.43 163.321C360.385 164.445 358.203 164.978 356.784 165.148C352.224 165.696 349.051 162.03 345.181 160.252C341.47 158.544 335.956 156.942 331.842 157.934C326.792 159.148 321.192 164.648 321.7 170.341C321.932 172.989 324.121 175.713 323.002 178.484C322.146 180.606 319.047 183.193 319.291 185.603C319.505 187.695 320.783 189.846 320.826 191.784C320.85 192.818 320.281 193.478 320.801 194.452C321.926 196.574 324.328 197.4 326.138 198.653C327.226 199.411 328.162 201.05 329.439 201.481C332.086 202.375 337.478 203.373 340.18 202.547C344.839 201.126 352.578 198.216 357.286 199.983C359.224 200.71 361.736 203.546 362.757 205.321C364.334 208.075 364.512 212.012 366.382 214.444C370.301 219.548 380.223 222.15 384.545 216.416C387.101 213.023 386.654 207.642 387.07 203.624C387.626 198.151 387.657 192.962 387.681 187.478C387.694 183.978 388.482 180.397 387.767 176.914C387.217 174.258 385.377 171.57 384.6 168.878C383.836 166.224 382.363 163.913 381.348 161.381C381.03 160.599 382.063 157.394 381.213 156.792Z" fill="#7396CD"/>
<path d="M379.453 114.203C379.38 114.123 374.654 114.664 373.664 114.053C371.616 112.792 373.23 109.186 370.576 108.756C367.66 108.283 367.813 111.693 366.853 112.859C366.383 113.43 364.86 113.027 364.365 113.714C363.626 114.727 364.212 116.439 363.277 117.265C362.317 118.11 361.247 117.131 360.196 117.475C358.105 118.157 356.883 119.916 354.749 120.23C353.135 120.468 350.922 119.386 349.51 118.75C347.926 118.037 343.023 116.816 341.281 116.816C340.603 116.816 339.264 118.047 338.53 118.279C338.029 118.439 334.092 118.297 334.453 119.666C334.654 120.407 336.348 120.629 336.873 120.938C339.765 122.639 343.916 120.519 346.985 122.188C349.718 123.676 350.891 127.699 353.74 129.249C355.886 130.419 359.499 128.865 361.602 130.614C363.705 132.367 363.571 136.594 366.878 136.917C368.314 137.057 370.534 136.113 371.622 135.187C372.123 134.758 372.19 134.042 372.783 133.687C375.186 132.234 376.616 133.564 378.573 133.078C379.374 132.88 380.59 131.732 381.269 131.786" fill="#48638C"/>
<path d="M356.137 130.74C355.391 131.2 355.22 131.952 354.767 132.586C354.138 133.459 353.129 133.936 352.438 134.745C351.631 135.698 351.393 136.859 350.317 137.6C349.492 138.17 347.297 138.457 346.099 139.199C344.369 140.27 342.895 142.246 340.939 142.852C339.49 143.3 338.17 143.093 336.721 143.314C334.012 143.726 331.286 144.23 328.669 144.784C325.857 145.379 322.666 147.588 319.854 145.887C318.833 145.267 317.017 140.862 316.235 139.587C315.324 138.099 311.693 137.161 311.65 135.268C311.589 132.456 316.326 133.447 316.852 131.276C317.555 128.365 311.344 127.544 313.459 124.608C314.768 122.792 317.121 124.209 318.766 123.419C319.915 122.872 319.206 120.86 320.722 120.302C322.122 119.785 323.247 121.411 324.708 120.983C325.533 120.74 325.454 119.257 326.145 119.11C326.921 118.947 327.979 119.418 328.761 119.484C330.051 119.593 331.384 119.137 332.637 119.393C334.997 119.874 337.185 120.679 339.765 120.701C341.446 120.716 343.152 120.49 344.796 120.873C345.946 121.139 346.961 121.782 348.134 121.955C348.507 122.011 350.836 122.399 350.537 123.06" fill="#48638C"/>
<path d="M343.767 156.193C342.495 158.139 339.976 156.69 338.35 157.636C337.708 158.011 337.458 158.85 336.724 159.161C335.899 159.511 334.896 159.086 334.175 159.455C333.509 159.794 333.258 160.544 332.414 160.804C330.849 161.283 329.7 161.244 328.239 162.2C327.609 162.609 327.481 163.751 326.894 164.292C326.093 165.039 325.121 165.268 324.54 166.301C322.896 169.229 325.763 169.029 325.916 170.073C326.075 171.188 324.632 171.86 324.73 172.976C324.803 173.827 325.848 174.059 326.203 174.704C326.435 175.13 326.338 175.799 326.802 176.051C329.254 177.39 330.721 174.751 332.854 174.851C333.576 174.885 335.288 174.463 335.263 175.648C335.226 178.021 331.436 177.465 330.122 177.813C327.609 178.478 328.343 180.624 326.79 181.857C325.732 182.697 324.069 182.284 322.987 183.144C321.325 184.462 322.615 186.018 322.052 186.874C321.484 187.745 320.077 187.9 320.071 189.196C320.065 190.2 322.523 191.019 321.612 192.411C321.526 192.542 321.172 192.359 321.111 192.344C319.79 192.028 320.047 190.011 318.427 190.033C316.978 190.052 316.96 191.667 314.588 191.158C311.727 190.544 312.57 189.129 311.311 187.448C309.458 184.969 305.259 186.636 304.556 182.43C304.403 181.514 305.937 180.697 305.632 179.987C305.081 178.683 302.33 178.028 302.85 176.449C304.458 171.56 310.18 175.037 312.68 172.48C313.72 171.424 312.063 170.711 312.051 169.757C312.044 169.111 312.925 168.907 313.01 168.248C313.108 167.451 311.28 167.273 310.785 167.16C308.682 166.677 309.104 166.452 307.514 165.456C306.487 164.813 304.977 165.2 303.883 164.551C303.07 164.067 302.196 163.31 301.957 162.34C301.585 160.851 303.59 160.683 303.901 159.538C304.403 157.66 302.581 155.883 303.577 153.952C304.806 151.558 307.991 152.873 309.911 152.948C311.727 153.019 312.98 151.721 314.82 151.808C316.905 151.906 318.39 153.144 320.585 152.471C322.835 151.782 320.524 150.203 321.416 149.149C321.918 148.556 323.104 148.751 323.66 148.023C324.363 147.107 323.299 146.51 323.703 145.653" fill="#48638C"/>
<path d="M326.886 143.12C324.38 145.186 325.413 144.149 325.358 147.004C325.346 147.58 324.985 148.651 325.541 149.128C326.984 150.381 329.784 150.639 331.539 151.239C333.923 152.055 336.123 153.328 338.52 154.151C340.311 154.766 342.873 156.859 344.566 154.893C345.887 153.351 345.098 149.776 343.832 148.48C342.885 147.51 341.509 146.984 340.488 146.111C338.019 144.006 335.353 142.895 332.07 142.342C330.298 142.042 328.378 141.891 326.886 143.12Z" fill="#48638C"/>
<path d="M338.343 118.842C338.581 116.304 333.526 115.216 332.028 114.805C331.435 114.643 330.121 114.804 329.931 114.055C329.338 111.713 334.265 112.291 332.511 108.511C331.417 106.146 328.433 107.583 326.972 106.434C325.963 105.636 327.308 103.685 326.96 103.46C326.129 102.924 323.408 102.852 324.062 100.947C324.252 100.396 324.826 100.026 325.242 99.6745C325.242 99.672 325.701 99.3216 325.664 99.27C325.157 98.639 324.533 100.962 324.606 101.298C324.869 102.463 326.281 103.022 326.404 104.248C326.495 105.128 324.955 105.831 325.267 106.664C325.707 107.834 329.283 108.057 329.295 110.476C329.301 111.125 329.045 112.972 328.36 113.307C325.798 114.567 324.197 113.683 322.668 116.565C322.314 117.232 322.045 117.717 322.308 118.413C322.454 118.81 321.91 119.11 322.014 119.474C322.393 120.81 325.138 119.759 325.621 120.57C325.853 120.965 325.633 121.77 325.805 122.223" fill="#48638C"/>
<path d="M379.779 103.008C380.709 103.302 375.952 103.086 375.353 103.463C374.65 103.905 372.92 107.374 372.382 107.041C370.86 106.089 371.844 103.495 371.019 102.197C369.968 100.542 367.437 101.635 365.945 100.771C364.337 99.8396 364.08 98.0497 362.552 97.1613C359.905 95.6269 356.97 98.4749 354.128 96.8291C352.288 95.7596 351.542 93.0915 349.751 92.1484C348.027 91.2412 345.85 91.4551 344.206 90.4309C343.607 90.0547 343.827 89.4148 343.601 88.9172C343.044 87.6803 340.801 87.6652 339.908 87.7722C338.875 87.8955 338.092 85.7873 337.182 85.8175C335.941 85.8596 337.854 90.3774 335.769 90.7951C334.803 90.9889 334.43 89.5514 333.465 89.5835C333.134 89.5948 332.823 90.5856 332.59 90.7788C332.511 90.8461 329.852 89.8345 329.674 89.6904C328.494 88.731 327.694 85.6237 325.847 85.686C323.824 85.7533 324.991 88.1616 324.288 88.4994C323.708 88.7788 323.53 87.9012 323.151 87.842C322.418 87.7269 321.702 88.6913 320.871 88.512C319.93 88.3101 319.868 87.2362 318.805 87.272C317.411 87.3186 315.43 89.0128 313.437 89.2513C309.5 89.7225 296.601 85.7589 294.535 89.925C293.899 91.2047 295.678 92.188 295.024 93.3865C294.431 94.463 290.047 95.8402 290.237 96.636C290.928 99.5426 296.032 96.5529 297.2 98.1824C298.557 100.08 291.765 100.946 293.905 102.691C294.853 103.465 296.344 102.792 297.39 102.82C300.471 102.903 304.035 102.284 306.621 104.393C308.436 105.875 304.94 106.653 305.948 108.242C306.859 109.678 309.451 108.125 310.521 109.479C310.955 110.035 309.366 110.959 310.02 111.869C310.912 113.119 315.644 113.921 315.876 114.291C316.194 114.785 315.222 115.303 315.944 115.721C316.952 116.307 318.224 115.687 319.288 115.916C320.455 116.167 320.877 117.729 322.308 117.042C323.726 116.36 326.795 113.222 328.458 113.482C329.363 113.623 329.693 114.582 330.414 115.032C331.557 115.747 333.128 115.563 334.394 115.697C335.69 115.836 337.597 117.897 338.857 118.535C340.825 119.537 342.341 118.098 344.377 118.371C348.326 118.899 352.997 121.104 356.916 120.242C359.758 119.617 362.179 119.042 364.643 117.385C365.162 117.032 365.175 116.099 365.596 115.635C366.764 114.357 369.081 112.839 370.75 112.639C371.453 112.555 372.217 113.981 372.639 114.396C374.375 116.118 378.269 117.313 380.262 115.369C382.463 113.219 382.255 109.026 381.779 106.215C381.577 104.993 381.228 104.272 380.226 103.525C379.926 103.302 379.064 102.781 379.779 103.008Z" fill="#7396CD"/>
<path d="M379.01 100.17C378.02 100.085 377.06 100.482 376.045 100.299C374.455 100.012 372.848 99.3732 371.362 98.7182C370.219 98.2143 368.336 96.3678 367.333 96.1325C366.429 95.9192 365.499 96.276 364.662 95.8444C363.586 95.2901 363.879 93.1442 362.706 92.7585C361.269 92.2835 360.615 92.8189 359.245 93.1095C357.558 93.4663 355.761 93.0253 354.116 92.7289C350.552 92.0847 350.876 87.6795 346.285 89.699C345.979 89.8343 344.634 89.699 344.567 90.0526C344.341 91.2341 349.232 91.4964 350.002 91.9041C352.68 93.3172 351.041 96.3244 352.967 97.3757C354.856 98.4062 357.497 97.8859 359.441 97.4008C360.26 97.1951 361.238 96.7528 362.07 97.0662C363.983 97.7821 363.739 100.037 365.34 100.913C367.223 101.943 369.864 100.22 371.478 101.882C372.297 102.728 372.615 107.202 372.732 107.266C373.392 107.628 374.37 104.857 374.902 104.505C375.904 103.847 376.754 104.251 377.781 104.339C378.423 104.394 378.973 103.77 379.481 103.512C380.214 103.142 380.966 99.8903 380.074 100.114" fill="#0F2B46"/>
<path d="M379.01 100.17C378.02 100.085 377.06 100.482 376.045 100.299C374.455 100.012 372.848 99.3732 371.362 98.7182C370.219 98.2143 368.336 96.3678 367.333 96.1325C366.429 95.9192 365.499 96.276 364.662 95.8444C363.586 95.2901 363.879 93.1442 362.706 92.7585C361.269 92.2835 360.615 92.8189 359.245 93.1095C357.558 93.4663 355.761 93.0253 354.116 92.7289C350.552 92.0847 350.876 87.6795 346.285 89.699C345.979 89.8343 344.634 89.699 344.567 90.0526C344.341 91.2341 349.232 91.4964 350.002 91.9041C352.68 93.3172 351.041 96.3244 352.967 97.3757C354.856 98.4062 357.497 97.8859 359.441 97.4008C360.26 97.1951 361.238 96.7528 362.07 97.0662C363.983 97.7821 363.739 100.037 365.34 100.913C367.223 101.943 369.864 100.22 371.478 101.882C372.297 102.728 372.615 107.202 372.732 107.266C373.392 107.628 374.37 104.857 374.902 104.505C375.904 103.847 376.754 104.251 377.781 104.339C378.423 104.394 378.973 103.77 379.481 103.512C380.214 103.142 380.966 99.8903 380.074 100.114" stroke="#0F2B46" stroke-width="0.781212" stroke-miterlimit="10" stroke-linecap="round" stroke-linejoin="round"/>
<path d="M358.602 130.211C359.58 129.39 353.809 128.874 352.745 128.501C350.245 127.623 349.462 123.595 347.31 122.232C345.916 121.351 344.003 122.338 342.658 121.956C341.863 121.729 341.148 121.251 340.304 121.144C339.014 120.979 338.262 121.669 336.814 121.23C336.031 120.991 335.23 120.84 334.417 120.763C334.368 120.758 333.176 120.657 333.219 120.745C333.439 121.207 335.157 121.388 335.56 121.497C337.853 122.114 340.261 122.315 342.585 122.767C343.618 122.968 345.44 122.981 346.344 123.538C349.114 125.247 350.336 128.934 353.216 130.5C353.491 130.649 353.748 130.342 354.01 130.359C354.72 130.405 355.148 131.217 355.875 131.115C357.116 130.943 357.513 131.126 358.602 130.211Z" fill="#0F2B46" stroke="#0F2B46" stroke-width="0.781212" stroke-miterlimit="10" stroke-linecap="round" stroke-linejoin="round"/>
<path d="M350.07 137.859C348.878 137.453 348.615 140.255 348.866 141.044C349.226 142.195 351.115 142.517 350.522 143.903C350.107 144.865 348.474 143.907 347.698 144.407C346.805 144.975 346.194 149.02 346.977 149.906C347.778 150.81 349.202 151.129 349.899 152.086C350.296 152.629 350.125 153.529 350.376 154.136C351.079 155.833 352.619 157.092 354.209 157.844C354.991 158.21 361.49 157.865 359.546 159.812C358.922 160.438 358.152 160.425 357.424 160.734C356.147 161.271 352.625 164.11 350.969 162.714C349.642 161.593 351.904 160.161 349.177 158.957C347.484 158.21 343.468 159.017 342.337 156.785C341.89 155.905 343.755 155.491 343.999 154.957C344.923 152.98 343.26 150.556 341.377 149.699C340.093 149.116 339.402 150.21 338.186 150.51C336.712 150.872 335.587 150.821 334.114 150.421C332.788 150.061 331.644 149.451 330.929 148.203C330.464 147.394 330.654 146.179 329.474 146.027C328.374 145.883 324.712 148.498 324.131 146.187C323.734 144.585 330.88 143.649 332.25 142.994C333.863 142.218 333.142 139.954 334.469 139.356C336.37 138.498 338.314 141.933 340.362 141.743C344.012 141.407 341.334 139.316 342.716 138.575C343.327 138.247 347.142 137.545 347.851 137.589C348.426 137.625 349.006 137.592 349.575 137.674C349.715 137.694 350.48 137.999 350.07 137.859Z" fill="#0F2B46" stroke="#0F2B46" stroke-width="0.781212" stroke-miterlimit="10" stroke-linecap="round" stroke-linejoin="round"/>
<path d="M380.585 235.449C380.585 230.633 375.064 234.164 374.355 229.784C374.099 228.205 376.452 228.823 376.672 227.697C376.966 226.204 373.677 225.54 374.209 223.895C374.685 222.429 377.809 222.138 378.702 220.913C380.499 218.443 377.718 218.771 377.4 216.813C377.253 215.909 378.494 215.529 378.121 214.502C377.284 212.197 370.914 213.87 371.384 208.985C371.433 208.513 372.582 201.863 372.686 201.754C373.506 200.911 377.186 200.907 377.4 199.816C377.791 197.778 373.836 197.786 374.789 194.523C375.59 191.785 377.675 190.913 379.063 189.006C379.185 188.842 379.387 188.482 379.283 188.261C378.739 187.144 374.417 190.248 373.775 190.796C372.98 191.48 372.57 192.679 371.892 193.479C370.535 195.075 369.153 195.598 367.472 196.461C366.946 196.732 366.549 197.809 366.17 198.25C365.063 199.529 362.471 199.881 360.882 199.517C357.275 198.693 359.274 196.891 358.204 195.566C357.207 194.337 355.08 193.654 355.52 191.615C355.85 190.087 359.433 187.992 358.204 186.472C357.018 185.009 355.612 189.836 353.924 190.124C352.207 190.419 348.954 189.568 347.481 188.559C347.224 188.385 345.115 186.718 345.017 186.77C344.889 186.837 344.919 187.554 344.944 187.664C345.054 188.109 346.491 188.616 346.9 188.857C348.086 189.554 349.89 191.844 350.085 193.256C350.336 195.026 346.882 197.003 345.525 197.803C344.748 198.258 342.376 198.74 341.465 198.474C340.677 198.241 340.035 196.73 339.075 197.057C338.017 197.421 337.932 199.289 336.758 199.741C334.808 200.495 333.157 199.614 331.256 199.368C329.783 199.179 328.144 199.864 326.763 199.294C323.596 197.99 324.055 195.538 322.055 193.479C321.493 192.905 321.108 192.313 320.607 191.69C320.564 191.635 320.325 191.179 320.246 191.243C319.916 191.495 319.983 192.352 319.665 192.733C318.993 193.541 317.831 193.509 317.201 194.672C314.579 199.533 319.885 197.268 321.695 199.592C322.697 200.883 321.469 204.018 321.909 204.289C323.871 205.499 327.344 204.969 328.933 206.376C330.107 207.41 328.193 209.589 329.874 210.55C331.641 211.559 333.622 210.619 334.588 212.936C335.248 214.52 333.524 214.365 332.632 215.023C331.825 215.616 332.246 217.108 331.764 217.409C330.143 218.406 327.631 217.274 326.402 219.049C324.513 221.772 328.884 222.219 329.226 224.342C329.392 225.35 327.937 225.573 327.558 226.355C326.922 227.67 328.444 230.098 329.3 230.977C329.752 231.446 331.042 232.447 331.69 232.542C332.326 232.635 333.536 231.784 334.007 232.17C335.37 233.29 333.72 234.842 334.368 235.673C335.493 237.117 336.361 236.171 337.559 236.941C340.713 238.973 340.108 241.889 345.305 240.742C348.471 240.045 349.052 235.161 352.983 235.897C354.872 236.25 353.173 238.493 354.725 239.177C356.034 239.755 357.599 239.366 358.925 239.997C359.714 240.37 360.258 241.922 361.028 242.01C362.3 242.155 363.51 241.365 364.794 241.861C367.252 242.81 364.745 244.569 365.448 245.29C366.946 246.837 371.415 246.143 372.185 246.93C374.025 248.826 374.942 251.155 376.526 253.49C377.1 254.33 380.2 257.943 381.239 257.516C386.521 255.339 386.117 244.252 384.21 240.146C383.091 237.751 380.964 236.169 380.151 233.66" fill="#48638C"/>
<path d="M379.637 265.379C379.093 263.687 377.901 262.647 377.265 261.113C376.263 258.715 375.7 256.131 374.557 253.776C374.093 252.832 373.145 252.202 372.784 251.217C372.32 249.939 372.222 248.492 371.678 247.236C371.354 246.479 370.761 245.907 370.522 245.074C369.893 242.918 369.489 240.403 368.419 238.42C366.946 235.687 364.488 233.336 362.728 230.799C361.42 228.913 361.933 225.831 360.295 224.144C359.824 223.66 358.87 223.596 358.308 223.234C356.645 222.164 355.306 220.721 353.772 219.594C353.191 219.164 352.451 218.984 352.005 218.342C351.522 217.648 350.538 217.025 350.183 216.295C349.248 214.374 350.813 211.515 350.403 209.412C350.299 208.876 349.266 206.269 350.183 206C351.241 205.689 351.063 207.765 351.063 208.218C351.063 210.281 350.654 213.519 351.455 215.441C352.402 217.718 354.524 218.05 356.425 219.139C358.369 220.251 360.594 221.7 362.061 223.461C363.492 225.174 364.684 228.106 365.546 230.173C365.674 230.488 366.39 232.328 366.928 232.107C367.777 231.757 367.405 228.085 367.313 227.499C367.032 225.619 366.329 223.753 366.487 221.812C366.604 220.333 367.325 218.86 367.203 217.375C367.093 216.039 366.432 214.773 366.432 213.394C366.432 211.684 366.922 210.333 367.588 208.787C367.649 208.647 367.704 208.281 367.814 208.389C367.894 208.471 367.667 208.737 367.643 208.787C367.184 209.897 366.708 211.499 366.708 212.712C366.708 214.709 368.016 216.934 368.199 219.025C368.383 221.081 367.643 223.049 367.643 225.111C367.643 226.273 368.285 227.17 368.419 228.296C368.872 232.025 368.908 232.909 370.797 236.145C371.201 236.838 370.999 237.843 371.183 238.59C371.568 240.178 372.118 242.001 372.674 243.538C373.402 245.531 375.187 246.878 375.939 248.942C376.587 250.734 376.532 253.043 377.596 254.687C378.213 255.643 379.313 256.331 380.029 257.246C380.591 257.976 380.64 259.013 381.52 259.464" fill="#0F2B46"/>
<path d="M379.637 265.379C379.093 263.687 377.901 262.647 377.265 261.113C376.263 258.715 375.7 256.131 374.557 253.776C374.093 252.832 373.145 252.202 372.784 251.217C372.32 249.939 372.222 248.492 371.678 247.236C371.354 246.479 370.761 245.907 370.522 245.074C369.893 242.918 369.489 240.403 368.419 238.42C366.946 235.687 364.488 233.336 362.728 230.799C361.42 228.913 361.933 225.831 360.295 224.144C359.824 223.66 358.87 223.596 358.308 223.234C356.645 222.164 355.306 220.721 353.772 219.594C353.191 219.164 352.451 218.984 352.005 218.342C351.522 217.648 350.538 217.025 350.183 216.295C349.248 214.374 350.813 211.515 350.403 209.412C350.299 208.876 349.266 206.269 350.183 206C351.241 205.689 351.063 207.765 351.063 208.218C351.063 210.281 350.654 213.519 351.455 215.441C352.402 217.718 354.524 218.05 356.425 219.139C358.369 220.251 360.594 221.7 362.061 223.461C363.492 225.174 364.684 228.106 365.546 230.173C365.674 230.488 366.39 232.328 366.928 232.107C367.777 231.757 367.405 228.085 367.313 227.499C367.032 225.619 366.329 223.753 366.487 221.812C366.604 220.333 367.325 218.86 367.203 217.375C367.093 216.039 366.432 214.773 366.432 213.394C366.432 211.684 366.922 210.333 367.588 208.787C367.649 208.647 367.704 208.281 367.814 208.389C367.894 208.471 367.667 208.737 367.643 208.787C367.184 209.897 366.708 211.499 366.708 212.712C366.708 214.709 368.016 216.934 368.199 219.025C368.383 221.081 367.643 223.049 367.643 225.111C367.643 226.273 368.285 227.17 368.419 228.296C368.872 232.025 368.908 232.909 370.797 236.145C371.201 236.838 370.999 237.843 371.183 238.59C371.568 240.178 372.118 242.001 372.674 243.538C373.402 245.531 375.187 246.878 375.939 248.942C376.587 250.734 376.532 253.043 377.596 254.687C378.213 255.643 379.313 256.331 380.029 257.246C380.591 257.976 380.64 259.013 381.52 259.464" stroke="#0F2B46" stroke-width="0.781212" stroke-miterlimit="10" stroke-linecap="round" stroke-linejoin="round"/>
<path d="M380.621 100.022C379.184 99.453 377.643 101.185 376.048 101.185C374.568 101.185 366.566 97.5178 365.294 96.5357C364.286 95.7594 363.142 93.8424 361.956 93.436C359.841 92.7087 358.496 94.8528 356.687 94.5433C354.235 94.1224 352.939 91.9399 350.879 90.6684C348.88 89.4341 346.71 89.6996 344.961 87.9016C342.516 85.3844 345.756 85.5914 345.499 84.0274C345.316 82.8685 343.891 82.2696 343.567 81.2598C343.262 80.318 344.209 80.0305 344.209 79.3781C344.209 78.6747 343.464 78.0871 343.353 77.3856C343.298 77.078 345.187 73.5008 345.499 73.1793C346.71 71.933 349.057 72.2368 350.665 71.9612C352.163 71.7039 351.674 70.5017 352.707 69.9688C353.673 69.4737 354.706 69.7813 355.611 69.083C356.864 68.116 356.192 67.2849 356.363 66.2053C356.491 65.4196 357.848 65.4906 358.087 64.8766C358.356 64.1883 357.145 63.6831 357.549 62.9949C358.612 61.1748 361.302 61.3856 362.818 60.4488C363.448 60.0625 362.586 59.5926 362.929 59.1207C363.625 58.16 365.496 58.1323 366.37 57.4604C367.752 56.3953 365.264 55.5648 366.37 54.1392C367.232 53.0301 370.564 53.9216 370.992 53.0326C371.334 52.3318 369.837 49.9071 370.136 48.8262C370.234 48.455 370.448 48.4261 370.778 48.3833C373.584 48.0222 376.182 46.5123 378.848 46.1694C382.485 45.702 386.917 52.009 387.235 54.9143C387.51 57.4025 387.033 59.9801 387.559 62.4419C388.079 64.8848 389.222 66.8011 388.959 69.4152C388.733 71.6247 387.883 73.7316 387.669 75.9462C387.302 79.7077 387.229 82.1588 385.517 85.6876C383.94 88.9295 383.39 92.5785 382.29 95.9821C381.947 97.0447 381.874 98.2891 381.104 99.0818C380.902 99.2901 381.293 100.289 380.621 100.022Z" fill="#7396CD"/>
<path d="M380.016 130.738C377.332 130.853 373.346 131.563 371.164 133.135C369.752 134.15 368.792 135.986 366.878 136.03C365.032 136.072 364.568 132.626 363.767 131.455C363.058 130.408 359.408 128.59 358.21 128.549C353.771 128.397 351.986 134.272 349.321 136.841C348.887 137.255 347.713 137.984 347.603 138.644C347.316 140.294 349.468 141.463 348.923 142.894C348.624 143.684 347.273 143.373 346.692 143.935C345.934 144.663 345.861 147.313 345.824 148.342C345.708 152.077 348.801 152.86 350.47 155.312C351.033 156.142 351.02 157.457 352.194 157.854C353.117 158.166 358.65 158.069 357.293 159.673C356.755 160.313 355.312 161.046 354.529 161.285C350.684 162.46 352.225 158.118 349.523 157.034C348.465 156.607 347.236 157.366 346.179 156.981C344.797 156.477 343.146 155.426 341.838 155.188C340.01 154.856 337.442 157.532 335.902 158.227C335.291 158.505 331.775 159.095 332.032 159.972C332.106 160.22 332.497 160.169 332.747 160.214C335.346 160.688 338.702 159.399 341.257 160.428C342.981 161.122 343.256 163.435 344.809 164.304C347.187 165.63 349.963 167.49 352.567 168.278C355.422 169.141 359.83 168.005 362.049 165.996C362.617 165.482 363.131 163.518 363.809 163.31C364.384 163.135 364.916 165.677 366.42 165.121C368.205 164.463 368.664 161.929 370.259 161.033C371.298 160.45 372.753 160.707 373.909 160.583C376.385 160.32 379.35 159.085 381.263 157.468C383.543 155.545 383.77 145.77 383.837 143.126C383.88 141.542 384.711 139.858 384.008 138.369C383.403 137.094 382.645 133.54 381.728 132.721C381.294 132.33 380.297 132.016 380.199 131.551C380.163 131.378 380.352 130.724 380.016 130.738Z" fill="#7396CD"/>
<path d="M380.152 216.7C380.298 216.471 378.642 217.884 377.969 218.393C376.148 219.769 373.818 220.014 372.889 222.351C371.831 225.002 373.788 225.321 373.665 226.997C373.617 227.604 372.907 227.964 372.767 228.575C371.893 232.326 375.451 235.656 378.911 235.859C381.625 236.02 381.558 232.864 381.692 230.738C381.882 227.708 381.876 224.689 381.203 221.708C380.879 220.256 379.4 217.9 380.152 216.7Z" fill="#7396CD"/>
<path d="M321.215 186.657C319.955 186.657 319.601 188.125 319.753 189.094C319.864 189.773 320.365 190.425 320.664 191.045C320.982 191.695 320.939 192.587 321.215 193.295C321.679 194.487 323.311 197.449 324.131 198.433C324.809 199.247 326.313 200.72 327.591 199.97C328.667 199.337 328.092 197.682 327.774 196.782C327.041 194.742 325.83 193.344 324.565 191.645C324.222 191.181 323.666 190.831 323.544 190.22C323.293 188.911 323.984 187.661 323.764 186.319C323.678 185.795 322.284 183.523 322.596 184.819" fill="#7396CD"/>
<path d="M381.178 296.555C381.324 296.581 379.992 295.881 379.637 295.683C378.592 295.101 376.941 294.48 375.755 294.61C374.465 294.753 367.85 297.1 367.691 297.002C366.359 296.174 366.414 292.233 365.466 290.894C363.388 287.956 360.777 285.692 357.733 284.128C356.467 283.476 355.746 284.291 354.548 283.739C352.604 282.84 349.468 280.339 347.138 280.932C344.84 281.516 343.886 282.712 342.174 283.995C339.319 286.129 335.969 285.156 334.037 289.142C333.34 290.57 331.849 295.536 330.473 296.044C329.269 296.492 328.774 294.482 327.215 294.397C322.569 294.143 317.079 296.267 313.111 298.429C310.464 299.874 308.172 308.276 305.916 308.968C305.696 309.036 304.088 307.877 303.709 307.809C301.166 307.349 296.948 309.236 294.93 310.591C289.929 313.95 289.055 320.357 286.61 325.405C286.182 326.283 282.752 329.724 283.144 330.484C284.568 333.251 288.774 330.168 290.51 329.417C294.459 327.716 298.085 325.106 302.633 325.994C304.669 326.391 306.387 328.705 308.41 328.746C310.421 328.787 312.469 326.55 314.261 326.736C318.943 327.222 316.51 335.812 320.044 335.511C323.211 335.241 326.145 333.769 329.397 333.835C331.39 333.875 334.123 335.448 335.957 334.982C340.139 333.916 342.669 328.131 346.411 326.091C349.254 324.539 351.999 329.891 356.149 327.626C359.555 325.77 362.801 320.865 364.58 317.477C365.283 316.137 366.01 313.46 367.465 312.832C369.856 311.803 376.024 318.658 380.958 317.404C386.392 316.019 383.959 304.752 383.58 301.561C383.427 300.261 382.902 298.639 381.82 297.917C381.508 297.709 380.487 296.432 381.178 296.555Z" fill="#7396CD"/>
<path d="M380.377 317.103C376.678 313.822 372.545 310.993 367.526 311.293C362.275 311.607 360.618 321.51 356.901 324.392C354.554 326.215 351.24 324.103 348.587 324.774C345.983 325.433 342.669 326.248 340.468 327.952C338.035 329.843 336.642 331.789 333.353 332.263C330.919 332.613 328.706 331.775 326.298 331.839C323.259 331.92 321.407 334.08 318.711 331.138C317.244 329.543 318.246 326.191 315.52 324.944C312.414 323.527 310.342 326.305 307.64 326.377C304.259 326.467 302.853 323.123 299.423 323.215C295.089 323.33 291.83 327.433 287.838 327.869C286.041 328.066 284.287 322.847 282.281 322.124C274.291 319.247 274.047 322.6 267.866 326.371C265.72 327.682 263.22 329.461 261.771 331.622C260.493 333.536 262.046 335.512 261.196 337.272C261.19 337.282 254.521 341.585 253.591 342.304C251.935 343.592 249.868 342.841 248.108 343.094C244.66 343.59 241.89 348.121 238.944 348.297C237.99 348.353 237.159 349.006 236.309 349.301C235.875 349.451 234.695 349.646 235.074 349.913C236.474 350.909 240.014 349.069 241.53 349.066C248.823 349.046 256.141 347.486 263.483 347.291C268.056 347.169 272.824 348.385 277.397 348.112C280.722 347.913 284.708 345.766 287.851 344.679C296.293 341.759 305.372 342.171 313.973 340.539C316.486 340.061 319.445 338.673 321.933 338.524C323.699 338.418 325.564 337.705 327.416 337.734C330.54 337.782 333.933 338.787 336.996 337.931C340.212 337.031 342.669 333.474 346.026 332.313C349.975 330.947 354.914 332.195 359.071 331.032C364.372 329.549 366.805 325.758 371.622 323.55C373.627 322.63 376.403 323.788 378.267 322.729C380.456 321.486 381.954 318.502 380.377 317.103Z" fill="#48638C"/>
<path d="M381.519 322.11C377.631 320.963 373.804 320.206 369.971 321.531C366.658 322.677 364.561 326.994 361.351 328.393C356.027 330.719 349.932 328.701 344.405 330.1C342.687 330.534 338.597 335.82 336.702 337.292C334.813 338.755 329.488 335.52 327.52 335.572C320.178 335.767 315.825 341.163 309.217 343.014C307.725 343.431 304.301 341.316 302.565 341.065C298.102 340.422 291.103 341.325 286.909 343.156C285.289 343.861 283.491 346.053 281.694 346.16C278.338 346.361 274.89 345.683 271.546 345.883C267.798 346.107 263.916 346.466 260.2 347.408C259.069 347.693 258.127 348.647 256.947 348.718C256.281 348.758 254.367 348.772 254.979 349.028C257.583 350.112 260.725 349.145 263.403 349.255C269.064 349.486 274.731 349.041 280.331 349.127C294.502 349.345 308.776 346.159 322.947 346.578C329.238 346.763 335.608 347.206 341.917 346.943C348.562 346.665 355.067 347.628 361.614 347.611C363.962 347.605 367.361 348.776 369.501 347.562C372.288 345.979 369.507 342.337 370.778 341.024C372.759 338.969 376.513 341.752 378.438 339.757C378.995 339.182 382.394 327.647 382.308 326.87C382.118 325.01 383.604 322.725 381.519 322.11Z" fill="#0F2B46"/>
<path d="M379.948 337.492C380.064 336.742 378.652 338.664 377.576 338.666C375.51 338.669 368.84 337.424 368.418 341.292C368.302 342.357 369.677 343.099 369.366 344.221C369.06 345.334 366.584 346.804 367.452 347.759C368.455 348.857 379.66 348.976 380.162 347.977C381.922 344.446 379.52 340.352 379.948 337.492Z" fill="#7396CD"/>
<path d="M317.388 338.669C314.839 338.787 312.271 339.787 309.667 339.907C307.918 339.988 306.133 339.819 304.409 340.298C302.49 340.831 302.062 341.25 299.904 340.911C299.708 340.879 297.611 340.967 297.63 341.089C297.654 341.21 297.813 341.262 297.929 341.296C299.684 341.809 301.664 341.544 303.449 342.067C307.136 343.145 311.935 344.144 315.646 342.016C316.795 341.356 316.697 339.885 317.883 339.417C318.88 339.023 322.114 338.91 322.26 337.563C322.321 337.011 320.928 337.198 320.604 337.199C318.14 337.203 316.336 338.238 314.808 339.963" fill="#7396CD"/>
<path d="M235.517 349.746C242.877 347.922 251.131 345.72 258.705 346.34C261.346 346.556 257.366 348.257 260.875 348.662C265.338 349.176 270.644 348.487 275.144 347.89C280.297 347.206 285.512 348.055 290.696 347.977C299.267 347.847 307.844 346.704 316.33 346.311C318.751 346.199 321.447 345.347 323.898 345.63C331.265 346.48 338.967 346.456 346.383 346.899C350.858 347.167 355.62 346.047 360.059 346.559C363.989 347.012 368.416 347.346 372.426 347.16C373.215 347.123 380.471 346.577 380.471 347.705C380.477 351 374.229 349.388 372.132 349.486C363.396 349.891 354.52 350.26 345.765 349.974C338.484 349.736 331.246 351.093 323.996 351.203C313.725 351.359 303.363 350.472 293.08 350.362C287.432 350.301 281.82 351.3 276.171 350.962C272.264 350.728 268.352 349.768 264.378 349.564C260.527 349.366 256.688 350.409 252.818 350.283C248.985 350.158 244.638 350.048 240.921 350.541C240.139 350.645 239.521 351.156 238.659 351.086C237.602 350.999 234.563 349.982 235.517 349.746Z" fill="#7396CD"/>
</g>
</g>
<defs>
<clipPath id="clip0_17_189">
<rect width="375" height="347" fill="white"/>
</clipPath>
</defs>
</svg>
