<svg width="608" height="663" viewBox="0 0 608 663" fill="none" xmlns="http://www.w3.org/2000/svg">
<path d="M549.772 277.874L593.661 289.879" stroke="#0F2B46" stroke-miterlimit="10" stroke-linejoin="round"/>
<path d="M549.772 281.683L593.661 293.48" stroke="#0F2B46" stroke-miterlimit="10" stroke-linejoin="round"/>
<path d="M547.25 287.582L587.554 298.509" stroke="#0F2B46" stroke-miterlimit="10" stroke-linejoin="round"/>
<path d="M143.666 387.055L143.102 572.162" stroke="#0F2B46" stroke-miterlimit="10" stroke-linejoin="round"/>
<path d="M143.616 359.956L3.22168 376.677V384.426L139.351 380.176" stroke="#0F2B46" stroke-miterlimit="10" stroke-linejoin="round"/>
<path d="M3.22168 384.425H0.5V389.683L139.55 385.134" stroke="#0F2B46" stroke-miterlimit="10" stroke-linejoin="round"/>
<path d="M3.22168 389.683V393.987L143.616 389.683" stroke="#0F2B46" stroke-miterlimit="10" stroke-linejoin="round"/>
<path d="M3.22168 389.683V393.987L143.616 389.683" stroke="#0F2B46" stroke-miterlimit="10" stroke-linejoin="round"/>
<path d="M9.00586 393.987V591.462" stroke="#0F2B46" stroke-miterlimit="10" stroke-linejoin="round"/>
<path d="M142.588 308.238L143.617 378.651" stroke="#0F2B46" stroke-miterlimit="10" stroke-linejoin="round"/>
<path d="M142.587 308.238L136.239 301.629V294.833L549.773 277.874V281.668H547.018V574.47" stroke="#0F2B46" stroke-miterlimit="10" stroke-linejoin="round"/>
<path d="M547.25 293.046L585.711 303.689" stroke="#0F2B46" stroke-miterlimit="10" stroke-linejoin="round"/>
<path d="M142.588 308.238L223.602 305.196M249.492 304.225L289.264 302.732M316.025 301.767L353.616 300.302M380.402 299.383L416.017 297.958M442.778 297.34L547.251 293.046" stroke="#0F2B46" stroke-miterlimit="10" stroke-linejoin="round"/>
<path d="M139.551 387.055V378.637L536.023 368.44L547.043 368.157V374.872L139.551 387.055Z" stroke="#0F2B46" stroke-miterlimit="10" stroke-linejoin="round"/>
<path d="M547.25 287.582L448.014 291.131M411.187 292.171L385.272 293.202M348.487 294.361L321.236 295.357M284.243 296.57L255.167 297.564M217.95 298.836L136.239 301.628" stroke="#0F2B46" stroke-miterlimit="10" stroke-linejoin="round"/>
<path d="M547.25 281.683L448.055 285.884M409.826 287.325L385.255 288.392M348.105 289.836L321.726 290.99M283.297 292.489L255.474 293.599M217.137 295.197L136.239 298.509" stroke="#0F2B46" stroke-miterlimit="10" stroke-linejoin="round"/>
<path d="M172.851 386.371V572.17" stroke="#0F2B46" stroke-miterlimit="10" stroke-linejoin="round"/>
<path d="M172.884 377.62L172.817 330.617" stroke="#0F2B46" stroke-miterlimit="10" stroke-linejoin="round"/>
<path d="M143.102 331.37L143.475 331.357M172.145 330.357L223.883 328.553M443.06 321.018L520.455 317.272C520.455 317.272 520.455 338.998 520.455 369.178M520.455 375.124C520.455 444.102 520.455 550.181 520.455 550.181M546.843 317.287L547.25 317.272" stroke="#0F2B46" stroke-miterlimit="10" stroke-linejoin="round"/>
<path d="M217.146 291.751L217.934 299.404L223.269 305.035L224.116 376.239" stroke="#0F2B46" stroke-miterlimit="10" stroke-linejoin="round"/>
<path d="M255.474 290.097V297.749L250.13 303.689V376.239" stroke="#0F2B46" stroke-miterlimit="10" stroke-linejoin="round"/>
<path d="M321.726 287.545V295.199L316.391 301.138V373.688" stroke="#0F2B46" stroke-miterlimit="10" stroke-linejoin="round"/>
<path d="M283.397 289.2L284.186 296.853L289.53 302.485L290.376 374.401" stroke="#0F2B46" stroke-miterlimit="10" stroke-linejoin="round"/>
<path d="M385.745 285.022V292.964L380.401 298.903V372.191" stroke="#0F2B46" stroke-miterlimit="10" stroke-linejoin="round"/>
<path d="M347.417 286.423L348.197 294.618L353.541 300.25L354.387 372.942" stroke="#0F2B46" stroke-miterlimit="10" stroke-linejoin="round"/>
<path d="M409.826 283.876L410.922 292.676L416.265 298.307L417.112 371.297" stroke="#0F2B46" stroke-miterlimit="10" stroke-linejoin="round"/>
<path d="M448.47 282.534V291.022L443.126 296.96V370.674" stroke="#0F2B46" stroke-miterlimit="10" stroke-linejoin="round"/>
<path d="M220.631 376.239V384.425" stroke="#0F2B46" stroke-miterlimit="10" stroke-linejoin="round"/>
<path d="M252.802 375.587V383.774" stroke="#0F2B46" stroke-miterlimit="10" stroke-linejoin="round"/>
<path d="M319.062 374.401V381.838" stroke="#0F2B46" stroke-miterlimit="10" stroke-linejoin="round"/>
<path d="M286.883 375.053V383.239" stroke="#0F2B46" stroke-miterlimit="10" stroke-linejoin="round"/>
<path d="M350.901 373.65V380.435" stroke="#0F2B46" stroke-miterlimit="10" stroke-linejoin="round"/>
<path d="M383.073 372.998V380.435" stroke="#0F2B46" stroke-miterlimit="10" stroke-linejoin="round"/>
<path d="M445.799 371.335V378.119" stroke="#0F2B46" stroke-miterlimit="10" stroke-linejoin="round"/>
<path d="M413.627 371.987V378.771" stroke="#0F2B46" stroke-miterlimit="10" stroke-linejoin="round"/>
<path d="M224.116 384.425V572.506" stroke="#0F2B46" stroke-miterlimit="10" stroke-linejoin="round"/>
<path d="M250.13 383.774V572.336" stroke="#0F2B46" stroke-miterlimit="10" stroke-linejoin="round"/>
<path d="M316.391 381.838V572.944" stroke="#0F2B46" stroke-miterlimit="10" stroke-linejoin="round"/>
<path d="M290.376 382.489V572.611" stroke="#0F2B46" stroke-miterlimit="10" stroke-linejoin="round"/>
<path d="M354.387 381.098V573.595" stroke="#0F2B46" stroke-miterlimit="10" stroke-linejoin="round"/>
<path d="M380.401 380.435V572.932" stroke="#0F2B46" stroke-miterlimit="10" stroke-linejoin="round"/>
<path d="M443.126 377.62V573.595" stroke="#0F2B46" stroke-miterlimit="10" stroke-linejoin="round"/>
<path d="M417.112 379.313V572.943" stroke="#0F2B46" stroke-miterlimit="10" stroke-linejoin="round"/>
<path d="M9.00586 463.2L143.36 459.574" stroke="#0F2B46" stroke-miterlimit="10" stroke-linejoin="round"/>
<path d="M9.00586 492.724L143.102 489.099" stroke="#0F2B46" stroke-miterlimit="10" stroke-linejoin="round"/>
<path d="M94.6993 410.572L107.711 410.042L127.419 409.238V456.169L90.5918 457.51V454.828L95.2719 454.73L94.6993 410.572Z" stroke="#0F2B46" stroke-miterlimit="10" stroke-linejoin="round"/>
<path d="M43.6163 411.866L56.6194 411.336L76.3272 410.532V457.463L39.5088 458.804V456.162L43.6329 455.935L43.6163 411.866Z" stroke="#0F2B46" stroke-miterlimit="10" stroke-linejoin="round"/>
<path d="M43.6328 415.087L75.7961 413.723" stroke="#0F2B46" stroke-miterlimit="10" stroke-linejoin="round"/>
<path d="M60.8433 414.405L60.835 455.117" stroke="#0F2B46" stroke-miterlimit="10" stroke-linejoin="round"/>
<path d="M48.0391 426.741H72.8088" stroke="#0F2B46" stroke-miterlimit="10" stroke-linejoin="round"/>
<path d="M48.0391 415.087V455.322" stroke="#0F2B46" stroke-miterlimit="10" stroke-linejoin="round"/>
<path d="M73.5389 414.405L73.1738 454.482" stroke="#0F2B46" stroke-miterlimit="10" stroke-linejoin="round"/>
<path d="M43.6328 455.935C44.8028 455.935 48.039 455.807 48.039 455.807L76.2773 454.481" stroke="#0F2B46" stroke-miterlimit="10" stroke-linejoin="round"/>
<path d="M95.2725 413.883L127.436 412.519" stroke="#0F2B46" stroke-miterlimit="10" stroke-linejoin="round"/>
<path d="M112.482 413.201L112.474 453.912" stroke="#0F2B46" stroke-miterlimit="10" stroke-linejoin="round"/>
<path d="M99.6787 425.537H124.448" stroke="#0F2B46" stroke-miterlimit="10" stroke-linejoin="round"/>
<path d="M99.6787 413.883V454.118" stroke="#0F2B46" stroke-miterlimit="10" stroke-linejoin="round"/>
<path d="M124.514 412.804L124.149 452.881" stroke="#0F2B46" stroke-miterlimit="10" stroke-linejoin="round"/>
<path d="M95.2725 454.731C96.4425 454.731 99.6787 454.603 99.6787 454.603L127.917 453.277" stroke="#0F2B46" stroke-miterlimit="10" stroke-linejoin="round"/>
<path d="M95.8283 496.981L108.831 496.45L128.539 495.646V542.578L91.7207 543.919V541.236L96.4008 541.139L95.8283 496.981Z" stroke="#0F2B46" stroke-miterlimit="10" stroke-linejoin="round"/>
<path d="M44.7369 498.275L57.7483 497.744L77.4561 496.94V543.871L40.6377 545.212V542.57L44.7618 542.343L44.7369 498.275Z" stroke="#0F2B46" stroke-miterlimit="10" stroke-linejoin="round"/>
<path d="M44.7617 501.495L76.925 500.131" stroke="#0F2B46" stroke-miterlimit="10" stroke-linejoin="round"/>
<path d="M61.9722 500.813L61.9639 541.525" stroke="#0F2B46" stroke-miterlimit="10" stroke-linejoin="round"/>
<path d="M49.168 513.148H73.9294" stroke="#0F2B46" stroke-miterlimit="10" stroke-linejoin="round"/>
<path d="M49.168 501.496V541.731" stroke="#0F2B46" stroke-miterlimit="10" stroke-linejoin="round"/>
<path d="M74.6679 500.813L74.3027 540.89" stroke="#0F2B46" stroke-miterlimit="10" stroke-linejoin="round"/>
<path d="M44.7617 542.343C45.9317 542.343 49.1679 542.215 49.1679 542.215L77.3979 540.89" stroke="#0F2B46" stroke-miterlimit="10" stroke-linejoin="round"/>
<path d="M96.4004 500.291L128.564 498.927" stroke="#0F2B46" stroke-miterlimit="10" stroke-linejoin="round"/>
<path d="M113.611 499.609L113.603 540.321" stroke="#0F2B46" stroke-miterlimit="10" stroke-linejoin="round"/>
<path d="M100.807 511.945H125.568" stroke="#0F2B46" stroke-miterlimit="10" stroke-linejoin="round"/>
<path d="M100.807 500.291V540.526" stroke="#0F2B46" stroke-miterlimit="10" stroke-linejoin="round"/>
<path d="M125.635 499.212L125.27 539.289" stroke="#0F2B46" stroke-miterlimit="10" stroke-linejoin="round"/>
<path d="M96.4004 541.139C97.5704 541.139 100.807 541.011 100.807 541.011L129.037 539.686" stroke="#0F2B46" stroke-miterlimit="10" stroke-linejoin="round"/>
<path d="M9.04688 550.181L143.102 546.267" stroke="#0F2B46" stroke-miterlimit="10" stroke-linejoin="round"/>
<path d="M9.04688 589.488L111.818 586.85" stroke="#0F2B46" stroke-miterlimit="10" stroke-linejoin="round"/>
<path d="M125.27 579.996L125.568 571.505L601.345 574.47" stroke="#0F2B46" stroke-miterlimit="10" stroke-linejoin="round"/>
<path d="M112.059 588.767V579.997L601.411 582.907" stroke="#0F2B46" stroke-miterlimit="10" stroke-linejoin="round"/>
<path d="M100.566 596.672V588.767L601.412 591.462" stroke="#0F2B46" stroke-miterlimit="10" stroke-linejoin="round"/>
<path d="M87.895 605.303L87.8535 596.672L601.412 599.049" stroke="#0F2B46" stroke-miterlimit="10" stroke-linejoin="round"/>
<path d="M88.127 604.54L601.411 610.696" stroke="#0F2B46" stroke-miterlimit="10" stroke-linejoin="round"/>
<path d="M250.279 327.528C256.644 321.152 272.145 321.983 280.343 323.155C281.646 323.341 289.098 324.972 289.587 325.948" stroke="#0F2B46" stroke-miterlimit="10" stroke-linecap="round" stroke-linejoin="round"/>
<path d="M180.518 505.542C186.89 493.912 202.391 495.43 210.581 497.567C211.884 497.905 219.344 500.88 219.834 502.66" stroke="#0F2B46" stroke-miterlimit="10" stroke-linecap="round" stroke-linejoin="round"/>
<path d="M316.374 326.449C322.747 320.073 338.248 320.905 346.438 322.076C347.741 322.262 353.234 323.248 353.724 324.223" stroke="#0F2B46" stroke-miterlimit="10" stroke-linecap="round" stroke-linejoin="round"/>
<path d="M380.476 323.856C386.84 317.479 401.735 318.678 409.934 319.85C411.236 320.036 416.024 320.654 416.514 321.63" stroke="#0F2B46" stroke-miterlimit="10" stroke-linecap="round" stroke-linejoin="round"/>
<path d="M257.474 338.186L282.384 337.373V372.464L257.59 372.998L257.474 338.186Z" stroke="#0F2B46" stroke-miterlimit="10" stroke-linejoin="round"/>
<path d="M257.599 402.955H283.397V449.254L257.599 449.458V402.955Z" stroke="#0F2B46" stroke-miterlimit="10" stroke-linejoin="round"/>
<path d="M254.056 503.678H286.883V572.337L254.056 572.162V503.678Z" stroke="#0F2B46" stroke-miterlimit="10" stroke-linejoin="round"/>
<path d="M187.721 503.511H220.556V572.17L187.721 571.995V503.511Z" stroke="#0F2B46" stroke-miterlimit="10" stroke-linejoin="round"/>
<path d="M319.062 503.953H351.89V572.611L319.062 572.437V503.953Z" stroke="#0F2B46" stroke-miterlimit="10" stroke-linejoin="round"/>
<path d="M382.077 503.953H414.912V572.611L382.077 572.437V503.953Z" stroke="#0F2B46" stroke-miterlimit="10" stroke-linejoin="round"/>
<path d="M445.799 504.937H478.626V573.595L445.799 573.421V504.937Z" stroke="#0F2B46" stroke-miterlimit="10" stroke-linejoin="round"/>
<path d="M187.721 403.489H213.528V449.788L187.721 449.992V403.489Z" stroke="#0F2B46" stroke-miterlimit="10" stroke-linejoin="round"/>
<path d="M322.597 402.285H348.395V448.583L322.597 448.788V402.285Z" stroke="#0F2B46" stroke-miterlimit="10" stroke-linejoin="round"/>
<path d="M322.597 335.862L347.499 335.049V370.14L322.705 370.674L322.597 335.862Z" stroke="#0F2B46" stroke-miterlimit="10" stroke-linejoin="round"/>
<path d="M386.036 333.98L410.947 333.167V368.259L386.152 368.793L386.036 333.98Z" stroke="#0F2B46" stroke-miterlimit="10" stroke-linejoin="round"/>
<path d="M453.706 330.495L478.617 329.683V364.774L453.822 365.308L453.706 330.495Z" stroke="#0F2B46" stroke-miterlimit="10" stroke-linejoin="round"/>
<path d="M187.721 339.914L212.631 339.102V374.192L187.837 374.727L187.721 339.914Z" stroke="#0F2B46" stroke-miterlimit="10" stroke-linejoin="round"/>
<path d="M386.036 401.346H410.947V448.584L386.036 448.788V401.346Z" stroke="#0F2B46" stroke-miterlimit="10" stroke-linejoin="round"/>
<path d="M453.706 400.407H478.617V447.644L453.706 447.848V400.407Z" stroke="#0F2B46" stroke-miterlimit="10" stroke-linejoin="round"/>
<path d="M187.721 346.821L212.631 346.148" stroke="#0F2B46" stroke-miterlimit="10" stroke-linejoin="round"/>
<path d="M257.599 344.118L282.509 343.444" stroke="#0F2B46" stroke-miterlimit="10" stroke-linejoin="round"/>
<path d="M322.506 341.949L347.417 341.275" stroke="#0F2B46" stroke-miterlimit="10" stroke-linejoin="round"/>
<path d="M386.036 339.776L410.947 339.102" stroke="#0F2B46" stroke-miterlimit="10" stroke-linejoin="round"/>
<path d="M453.706 337.373L478.617 336.7" stroke="#0F2B46" stroke-miterlimit="10" stroke-linejoin="round"/>
<path d="M200.624 449.458V403.489" stroke="#0F2B46" stroke-miterlimit="10" stroke-linejoin="round"/>
<path d="M200.624 374.727V345.865" stroke="#0F2B46" stroke-miterlimit="10" stroke-linejoin="round"/>
<path d="M270.941 372.642V343.781" stroke="#0F2B46" stroke-miterlimit="10" stroke-linejoin="round"/>
<path d="M335.99 370.81V341.949" stroke="#0F2B46" stroke-miterlimit="10" stroke-linejoin="round"/>
<path d="M398.491 368.548V339.688" stroke="#0F2B46" stroke-miterlimit="10" stroke-linejoin="round"/>
<path d="M466.162 365.41V336.549" stroke="#0F2B46" stroke-miterlimit="10" stroke-linejoin="round"/>
<path d="M188.169 420.19H213.08" stroke="#0F2B46" stroke-miterlimit="10" stroke-linejoin="round"/>
<path d="M270.941 449.458V402.552" stroke="#0F2B46" stroke-miterlimit="10" stroke-linejoin="round"/>
<path d="M270.941 572.611V503.953" stroke="#0F2B46" stroke-miterlimit="10" stroke-linejoin="round"/>
<path d="M200.176 572.611V503.953" stroke="#0F2B46" stroke-miterlimit="10" stroke-linejoin="round"/>
<path d="M335.99 572.507V503.848" stroke="#0F2B46" stroke-miterlimit="10" stroke-linejoin="round"/>
<path d="M398.491 572.17V503.511" stroke="#0F2B46" stroke-miterlimit="10" stroke-linejoin="round"/>
<path d="M466.22 573.595V504.937" stroke="#0F2B46" stroke-miterlimit="10" stroke-linejoin="round"/>
<path d="M257.599 419.253H283.397" stroke="#0F2B46" stroke-miterlimit="10" stroke-linejoin="round"/>
<path d="M335.99 448.332L335.94 402.119" stroke="#0F2B46" stroke-miterlimit="10" stroke-linejoin="round"/>
<path d="M322.921 418.037L348.396 418.047" stroke="#0F2B46" stroke-miterlimit="10" stroke-linejoin="round"/>
<path d="M398.491 448.332V401.346" stroke="#0F2B46" stroke-miterlimit="10" stroke-linejoin="round"/>
<path d="M386.036 417.107H410.947" stroke="#0F2B46" stroke-miterlimit="10" stroke-linejoin="round"/>
<path d="M466.22 447.408L466.17 400.407" stroke="#0F2B46" stroke-miterlimit="10" stroke-linejoin="round"/>
<path d="M453.715 417.107H478.626" stroke="#0F2B46" stroke-miterlimit="10" stroke-linejoin="round"/>
<path d="M180.518 505.542V571.505" stroke="#0F2B46" stroke-miterlimit="10" stroke-linejoin="round"/>
<path d="M185.106 500.14V571.505" stroke="#0F2B46" stroke-miterlimit="10" stroke-linejoin="round"/>
<path d="M478.625 550.181H547.042" stroke="#0F2B46" stroke-miterlimit="10" stroke-linejoin="round"/>
<path d="M547.043 550.181H593.661" stroke="#0F2B46" stroke-miterlimit="10" stroke-linejoin="round"/>
<path d="M324.265 457.738H347.416V463.199H324.265V457.738Z" stroke="#0F2B46" stroke-miterlimit="10" stroke-linejoin="round"/>
<path d="M522.165 278.924V270.527L547.043 268.445L549.773 270.527L552.777 278.908" stroke="#0F2B46" stroke-miterlimit="10" stroke-linejoin="round"/>
<path d="M204.134 291.902V286.423L269.929 283.876" stroke="#0F2B46" stroke-miterlimit="10" stroke-linejoin="round"/>
<path d="M270.054 289.2L270.029 288.113C269.971 285.532 269.93 283.877 269.93 283.877L289.754 278.351C290.169 278.235 290.584 278.155 291.015 278.112L316.374 275.532L335.883 273.695C335.957 273.688 336.024 273.683 336.098 273.678L354.263 272.494C354.346 272.489 354.429 272.485 354.512 272.483L414.789 270.531C414.872 270.529 414.946 270.527 415.029 270.527H470.917C471.547 270.527 472.178 270.607 472.792 270.764L507.362 279.643" stroke="#0F2B46" stroke-miterlimit="10" stroke-linejoin="round"/>
<path d="M294.724 209.219L294.583 277.733" stroke="#0F2B46" stroke-miterlimit="10" stroke-linejoin="round"/>
<path d="M428.315 210.556L427.593 270.527" stroke="#0F2B46" stroke-miterlimit="10" stroke-linejoin="round"/>
<path d="M428.306 210.559C428.306 200.379 398.417 192.132 361.532 192.132C324.647 192.132 294.732 200.379 294.732 210.559" stroke="#0F2B46" stroke-miterlimit="10" stroke-linejoin="round"/>
<path d="M428.315 214.062C430.854 212.345 433.244 210.556 433.244 208.477C433.244 208.477 433.244 205.904 431.858 204.058C430.207 201.846 427.493 200.375 425.601 199.184C416.141 193.243 391.861 185.978 361.54 185.978C332.373 185.978 303.728 193.449 294.583 200.64C293.04 201.857 289.588 204.404 289.588 208.477C289.588 212.635 294.583 215.025 294.583 215.793" stroke="#0F2B46" stroke-miterlimit="10" stroke-linejoin="round"/>
<path d="M409.826 140.172C409.835 139.737 409.976 137.739 409.909 137.311C408.374 127.737 387.87 120.179 363.034 120.179C338.372 120.179 318.141 127.632 316.208 137.114C316.108 137.606 316.39 140.714 316.39 141.215" stroke="#0F2B46" stroke-miterlimit="10" stroke-linejoin="round"/>
<path d="M405.047 143.839C406.831 142.121 412.498 138.604 412.639 136.615C412.639 136.615 413.469 133.95 412.498 132.103C411.337 129.892 409.428 128.422 408.092 127.231C401.437 121.29 384.36 114.024 363.042 114.024C342.529 114.024 322.39 121.495 315.959 128.687C314.872 129.903 312.44 132.449 312.44 136.523C312.44 140.682 320.88 142.874 321.386 143.452" stroke="#0F2B46" stroke-miterlimit="10" stroke-linejoin="round"/>
<path d="M412.972 133.517C411.627 129.14 408.557 123.475 405.113 120.178C402.624 117.8 393.504 109.624 378.609 105.343C374.062 104.036 368.934 103.191 363.042 103.191C344.139 103.191 322.73 113.54 314.308 129.356C313.586 130.705 312.938 131.823 312.938 133.517" stroke="#0F2B46" stroke-miterlimit="10" stroke-linejoin="round"/>
<path d="M405.113 168.362C398.458 162.422 385.015 157.693 363.697 157.693C343.184 157.693 328.157 161.573 321.726 168.764" stroke="#0F2B46" stroke-miterlimit="10" stroke-linejoin="round"/>
<path d="M404.515 190.859C404.515 190.859 405.851 139.249 404.515 138.022C397.869 131.897 383.181 126.957 361.855 126.957C341.342 126.957 328.157 130.608 321.726 138.022C320.639 139.276 322.506 189.986 322.506 189.986" stroke="#0F2B46" stroke-miterlimit="10" stroke-linejoin="round"/>
<path d="M353.756 186.359V164.53H361.739H369.281V186.359" stroke="#0F2B46" stroke-miterlimit="10" stroke-linejoin="round"/>
<path d="M427.95 231.756L417.112 226.913L417.137 270.527" stroke="#0F2B46" stroke-miterlimit="10" stroke-linejoin="round"/>
<path d="M334.961 273.685V223.024L356.735 222.376L356.685 272.618" stroke="#0F2B46" stroke-miterlimit="10" stroke-linejoin="round"/>
<path d="M298.666 277.733V232.865L312.441 227.615L312.408 276.54" stroke="#0F2B46" stroke-miterlimit="10" stroke-linejoin="round"/>
<path d="M402.25 271.272V223.756L380.476 222.144L380.525 271.946" stroke="#0F2B46" stroke-miterlimit="10" stroke-linejoin="round"/>
<path d="M329.65 188.47V169.731L344.628 164.53L345.176 186.359" stroke="#0F2B46" stroke-miterlimit="10" stroke-linejoin="round"/>
<path d="M377.978 186.359L377.364 164.53L393.504 169.731V188.47" stroke="#0F2B46" stroke-miterlimit="10" stroke-linejoin="round"/>
<path d="M366.386 103.191L363.424 7.02637" stroke="#0F2B46" stroke-miterlimit="10" stroke-linejoin="round"/>
<path d="M361.415 103.191V7.02637" stroke="#0F2B46" stroke-miterlimit="10" stroke-linejoin="round"/>
<path d="M359.034 3.76288C359.034 1.96078 360.511 0.5 362.328 0.5C364.154 0.5 365.623 1.96078 365.623 3.76288C365.623 5.56498 364.154 7.0266 362.328 7.0266C360.511 7.0266 359.034 5.56498 359.034 3.76288Z" stroke="#0F2B46" stroke-miterlimit="10" stroke-linejoin="round"/>
<path d="M217.76 298.93L255.167 297.464" stroke="#0F2B46" stroke-miterlimit="10" stroke-linejoin="round"/>
<path d="M223.104 304.922L250.072 304.246" stroke="#0F2B46" stroke-miterlimit="10" stroke-linejoin="round"/>
<path d="M284.401 296.647L322.058 294.983" stroke="#0F2B46" stroke-miterlimit="10" stroke-linejoin="round"/>
<path d="M289.256 302.86L316.872 301.628" stroke="#0F2B46" stroke-miterlimit="10" stroke-linejoin="round"/>
<path d="M348.014 294.371L385.662 292.708" stroke="#0F2B46" stroke-miterlimit="10" stroke-linejoin="round"/>
<path d="M352.86 300.585L380.484 299.353" stroke="#0F2B46" stroke-miterlimit="10" stroke-linejoin="round"/>
<path d="M410.806 292.097L448.462 290.433" stroke="#0F2B46" stroke-miterlimit="10" stroke-linejoin="round"/>
<path d="M415.66 298.31L443.276 297.078" stroke="#0F2B46" stroke-miterlimit="10" stroke-linejoin="round"/>
<path d="M596.302 399.251C595.519 398.71 594.498 399.946 593.544 399.968C591.51 400.013 589.732 400.12 587.706 400.593C583.902 401.485 580.89 403.345 577.324 404.784C575.188 405.648 572.89 405.093 570.805 405.89C569.861 406.251 569.401 407.416 568.763 408.091C567.308 409.612 564.269 410.334 562.295 410.564C555.946 411.306 551.53 406.343 546.143 403.936C540.977 401.623 533.301 399.455 527.574 400.797C520.544 402.442 512.749 409.886 513.455 417.593C513.778 421.179 516.825 424.867 515.268 428.618C514.076 431.49 509.762 434.992 510.102 438.255C510.4 441.087 512.179 443.998 512.238 446.622C512.272 448.022 511.481 448.916 512.204 450.234C513.77 453.107 517.114 454.225 519.633 455.922C521.148 456.947 522.45 459.167 524.229 459.75C527.914 460.961 535.42 462.311 539.181 461.193C545.666 459.269 556.44 455.33 562.993 457.722C565.691 458.706 569.188 462.545 570.609 464.948C572.805 468.677 573.052 474.006 575.656 477.299C581.111 484.208 594.923 487.73 600.94 479.968C604.497 475.375 603.876 468.091 604.455 462.651C605.229 455.242 605.272 448.217 605.306 440.793C605.323 436.055 606.42 431.207 605.425 426.493C604.659 422.896 602.097 419.258 601.016 415.613C599.953 412.02 597.902 408.892 596.489 405.464C596.046 404.406 597.485 400.066 596.302 399.251Z" fill="#7396CD"/>
<path d="M593.851 341.598C593.749 341.489 587.17 342.221 585.792 341.394C582.941 339.687 585.187 334.805 581.494 334.224C577.435 333.583 577.647 338.198 576.311 339.778C575.656 340.551 573.537 340.005 572.848 340.935C571.818 342.307 572.635 344.624 571.333 345.743C569.997 346.886 568.508 345.561 567.044 346.026C564.133 346.95 562.431 349.331 559.461 349.756C557.214 350.079 554.134 348.613 552.168 347.753C549.964 346.788 543.139 345.134 540.713 345.134C539.769 345.135 537.905 346.801 536.884 347.115C536.186 347.332 530.705 347.139 531.207 348.993C531.488 349.996 533.845 350.296 534.577 350.714C538.603 353.018 544.381 350.147 548.653 352.406C552.457 354.422 554.091 359.867 558.057 361.966C561.044 363.55 566.074 361.445 569.001 363.814C571.929 366.187 571.741 371.908 576.345 372.346C578.345 372.536 581.434 371.258 582.949 370.005C583.647 369.424 583.741 368.455 584.566 367.974C587.911 366.007 589.902 367.808 592.625 367.149C593.74 366.881 595.434 365.327 596.378 365.4" fill="#48638C"/>
<path d="M561.39 363.988C560.352 364.609 560.114 365.628 559.484 366.486C558.608 367.669 557.203 368.313 556.242 369.409C555.118 370.699 554.786 372.271 553.289 373.274C552.14 374.046 549.085 374.434 547.417 375.439C545.008 376.888 542.957 379.563 540.234 380.383C538.217 380.991 536.379 380.71 534.362 381.009C530.592 381.567 526.796 382.25 523.154 383C519.239 383.805 514.797 386.795 510.882 384.492C509.461 383.653 506.934 377.69 505.844 375.963C504.576 373.95 499.521 372.679 499.462 370.117C499.377 366.31 505.972 367.652 506.704 364.713C507.683 360.772 499.036 359.66 501.981 355.686C503.802 353.227 507.078 355.145 509.368 354.076C510.968 353.336 509.98 350.613 512.091 349.856C514.04 349.157 515.606 351.358 517.64 350.778C518.788 350.449 518.678 348.442 519.639 348.243C520.72 348.022 522.192 348.66 523.282 348.749C525.077 348.897 526.933 348.28 528.677 348.626C531.962 349.277 535.009 350.367 538.6 350.397C540.94 350.417 543.315 350.111 545.604 350.63C547.204 350.99 548.617 351.86 550.251 352.095C550.77 352.17 554.012 352.695 553.595 353.59" fill="#48638C"/>
<path d="M544.175 398.438C542.405 401.072 538.899 399.111 536.635 400.391C535.742 400.899 535.393 402.034 534.372 402.455C533.223 402.929 531.827 402.354 530.823 402.853C529.895 403.313 529.546 404.328 528.372 404.68C526.193 405.328 524.593 405.275 522.56 406.57C521.683 407.123 521.504 408.669 520.687 409.402C519.572 410.413 518.219 410.723 517.411 412.121C515.122 416.086 519.113 415.814 519.326 417.228C519.547 418.738 517.539 419.647 517.675 421.158C517.777 422.31 519.232 422.624 519.726 423.497C520.049 424.074 519.913 424.979 520.56 425.321C523.972 427.133 526.015 423.561 528.985 423.696C529.989 423.742 532.372 423.171 532.338 424.776C532.287 427.987 527.01 427.234 525.181 427.706C521.683 428.606 522.704 431.512 520.543 433.18C519.07 434.318 516.756 433.758 515.249 434.923C512.934 436.707 514.73 438.813 513.947 439.972C513.156 441.152 511.198 441.361 511.19 443.116C511.181 444.474 514.602 445.584 513.334 447.468C513.215 447.646 512.722 447.397 512.637 447.377C510.798 446.949 511.156 444.219 508.901 444.249C506.884 444.275 506.858 446.46 503.556 445.772C499.573 444.94 500.748 443.026 498.995 440.75C496.416 437.393 490.57 439.65 489.591 433.957C489.378 432.717 491.514 431.61 491.089 430.65C490.323 428.883 486.493 427.997 487.217 425.859C489.455 419.24 497.42 423.948 500.901 420.486C502.348 419.057 500.042 418.091 500.025 416.799C500.016 415.926 501.242 415.649 501.361 414.757C501.497 413.679 498.952 413.437 498.263 413.285C495.335 412.63 495.923 412.326 493.71 410.978C492.28 410.107 490.178 410.631 488.655 409.752C487.523 409.097 486.306 408.073 485.974 406.76C485.455 404.743 488.246 404.516 488.68 402.965C489.378 400.424 486.842 398.018 488.229 395.403C489.94 392.163 494.374 393.943 497.046 394.045C499.574 394.141 501.318 392.384 503.88 392.501C506.782 392.634 508.85 394.311 511.905 393.398C515.037 392.466 511.82 390.328 513.062 388.902C513.76 388.099 515.411 388.363 516.185 387.378C517.164 386.137 515.683 385.329 516.245 384.169" fill="#48638C"/>
<path d="M520.673 380.745C517.184 383.542 518.622 382.138 518.545 386.003C518.528 386.783 518.026 388.233 518.801 388.879C520.809 390.575 524.707 390.924 527.149 391.736C530.468 392.842 533.532 394.565 536.868 395.678C539.361 396.511 542.927 399.345 545.284 396.684C547.123 394.596 546.025 389.756 544.263 388.002C542.944 386.689 541.029 385.976 539.608 384.794C536.17 381.945 532.46 380.441 527.89 379.692C525.422 379.286 522.749 379.082 520.673 380.745Z" fill="#48638C"/>
<path d="M536.625 347.874C536.957 344.438 529.919 342.966 527.834 342.41C527.009 342.191 525.179 342.408 524.915 341.394C524.09 338.224 530.949 339.006 528.507 333.889C526.983 330.688 522.83 332.632 520.796 331.077C519.392 329.997 521.264 327.356 520.779 327.051C519.622 326.325 515.835 326.227 516.745 323.649C517.009 322.903 517.809 322.403 518.388 321.926C518.388 321.923 519.026 321.449 518.975 321.379C518.269 320.525 517.401 323.669 517.503 324.124C517.869 325.701 519.835 326.458 520.005 328.117C520.132 329.31 517.988 330.26 518.422 331.388C519.035 332.972 524.013 333.274 524.03 336.549C524.039 337.428 523.681 339.928 522.728 340.382C519.162 342.088 516.933 340.89 514.805 344.793C514.312 345.695 513.937 346.352 514.303 347.293C514.507 347.831 513.75 348.238 513.894 348.73C514.422 350.538 518.243 349.116 518.916 350.214C519.239 350.749 518.933 351.838 519.171 352.452" fill="#48638C"/>
<path d="M594.302 326.443C595.595 326.84 588.974 326.548 588.14 327.059C587.162 327.657 584.753 332.353 584.004 331.902C581.885 330.613 583.255 327.102 582.106 325.345C580.643 323.104 577.119 324.584 575.043 323.415C572.805 322.153 572.447 319.73 570.32 318.528C566.635 316.451 562.55 320.306 558.593 318.078C556.031 316.63 554.993 313.018 552.499 311.741C550.1 310.513 547.07 310.803 544.781 309.416C543.947 308.907 544.253 308.041 543.938 307.367C543.164 305.693 540.041 305.672 538.798 305.817C537.36 305.984 536.271 303.13 535.003 303.171C533.275 303.228 535.939 309.344 533.037 309.91C531.692 310.172 531.173 308.226 529.828 308.269C529.369 308.285 528.935 309.626 528.611 309.887C528.501 309.978 524.799 308.609 524.552 308.414C522.91 307.115 521.795 302.909 519.225 302.993C516.408 303.084 518.033 306.344 517.055 306.802C516.246 307.18 515.999 305.992 515.472 305.912C514.45 305.756 513.455 307.061 512.297 306.819C510.987 306.545 510.902 305.092 509.421 305.14C507.481 305.203 504.723 307.497 501.949 307.819C496.468 308.457 478.512 303.092 475.636 308.732C474.75 310.464 477.227 311.795 476.316 313.418C475.491 314.875 469.389 316.739 469.653 317.817C470.614 321.751 477.721 317.704 479.346 319.91C481.235 322.479 471.78 323.652 474.759 326.014C476.078 327.061 478.154 326.15 479.61 326.189C483.899 326.301 488.86 325.463 492.46 328.318C494.988 330.324 490.12 331.377 491.524 333.528C492.792 335.472 496.4 333.369 497.89 335.203C498.494 335.956 496.281 337.206 497.192 338.439C498.434 340.13 505.021 341.217 505.345 341.718C505.787 342.386 504.434 343.087 505.438 343.654C506.842 344.446 508.612 343.607 510.093 343.918C511.719 344.257 512.306 346.372 514.297 345.442C516.272 344.518 520.544 340.27 522.859 340.622C524.118 340.813 524.578 342.111 525.582 342.721C527.173 343.688 529.36 343.439 531.122 343.621C532.926 343.809 535.581 346.6 537.334 347.462C540.075 348.819 542.185 346.871 545.019 347.24C550.517 347.955 557.018 350.941 562.474 349.773C566.431 348.927 569.801 348.15 573.23 345.906C573.954 345.428 573.971 344.165 574.558 343.536C576.183 341.807 579.409 339.752 581.732 339.481C582.711 339.367 583.775 341.298 584.362 341.86C586.779 344.19 592.2 345.808 594.974 343.177C598.038 340.266 597.748 334.59 597.084 330.784C596.804 329.13 596.318 328.154 594.923 327.143C594.506 326.84 593.306 326.135 594.302 326.443Z" fill="#7396CD"/>
<path d="M593.228 322.597C591.85 322.483 590.514 323.02 589.101 322.772C586.888 322.383 584.65 321.519 582.582 320.632C580.991 319.95 578.37 317.45 576.974 317.131C575.714 316.843 574.421 317.326 573.255 316.741C571.757 315.991 572.166 313.086 570.532 312.564C568.532 311.921 567.621 312.646 565.715 313.039C563.366 313.522 560.864 312.925 558.575 312.524C553.614 311.652 554.065 305.688 547.673 308.422C547.248 308.605 545.376 308.422 545.282 308.901C544.967 310.5 551.775 310.855 552.848 311.407C556.575 313.32 554.294 317.391 556.975 318.814C559.605 320.21 563.281 319.505 565.987 318.848C567.128 318.57 568.489 317.971 569.647 318.395C572.31 319.365 571.97 322.417 574.2 323.603C576.821 324.997 580.497 322.665 582.744 324.915C583.884 326.06 584.327 332.117 584.489 332.204C585.408 332.694 586.769 328.943 587.51 328.466C588.905 327.575 590.088 328.122 591.518 328.241C592.411 328.315 593.177 327.47 593.884 327.122C594.905 326.62 595.952 322.219 594.709 322.521" fill="#0F2B46"/>
<path d="M593.228 322.597C591.85 322.483 590.514 323.02 589.101 322.772C586.888 322.383 584.65 321.519 582.582 320.632C580.991 319.95 578.37 317.45 576.974 317.131C575.714 316.843 574.421 317.326 573.255 316.741C571.757 315.991 572.166 313.086 570.532 312.564C568.532 311.921 567.621 312.646 565.715 313.039C563.366 313.522 560.864 312.925 558.575 312.524C553.614 311.652 554.065 305.688 547.673 308.422C547.248 308.605 545.376 308.422 545.282 308.901C544.967 310.5 551.775 310.855 552.848 311.407C556.575 313.32 554.294 317.391 556.975 318.814C559.605 320.21 563.281 319.505 565.987 318.848C567.128 318.57 568.489 317.971 569.647 318.395C572.31 319.365 571.97 322.417 574.2 323.603C576.821 324.997 580.497 322.665 582.744 324.915C583.884 326.06 584.327 332.117 584.489 332.204C585.408 332.694 586.769 328.943 587.51 328.466C588.905 327.575 590.088 328.122 591.518 328.241C592.411 328.315 593.177 327.47 593.884 327.122C594.905 326.62 595.952 322.219 594.709 322.521" stroke="#0F2B46" stroke-miterlimit="10" stroke-linecap="round" stroke-linejoin="round"/>
<path d="M564.819 363.265C566.181 362.152 558.147 361.454 556.666 360.949C553.186 359.76 552.096 354.308 549.101 352.463C547.161 351.269 544.497 352.606 542.625 352.089C541.518 351.781 540.523 351.134 539.348 350.989C537.553 350.767 536.506 351.7 534.489 351.106C533.4 350.783 532.285 350.579 531.153 350.474C531.085 350.467 529.425 350.331 529.485 350.45C529.791 351.074 532.183 351.32 532.744 351.468C535.936 352.303 539.289 352.574 542.523 353.187C543.961 353.459 546.497 353.476 547.756 354.231C551.611 356.544 553.313 361.536 557.322 363.656C557.705 363.857 558.062 363.442 558.428 363.465C559.415 363.527 560.011 364.626 561.024 364.488C562.751 364.255 563.304 364.503 564.819 363.265Z" fill="#0F2B46" stroke="#0F2B46" stroke-miterlimit="10" stroke-linecap="round" stroke-linejoin="round"/>
<path d="M552.951 373.617C551.292 373.067 550.926 376.86 551.275 377.928C551.777 379.487 554.407 379.922 553.581 381.798C553.002 383.101 550.73 381.804 549.649 382.481C548.407 383.25 547.556 388.726 548.645 389.925C549.76 391.149 551.743 391.582 552.713 392.877C553.266 393.611 553.028 394.83 553.377 395.652C554.355 397.949 556.5 399.654 558.713 400.672C559.802 401.167 568.848 400.7 566.142 403.336C565.274 404.183 564.202 404.166 563.189 404.584C561.41 405.311 556.509 409.155 554.202 407.264C552.356 405.746 555.504 403.809 551.709 402.178C549.352 401.167 543.76 402.26 542.186 399.238C541.565 398.046 544.16 397.486 544.501 396.763C545.786 394.087 543.471 390.805 540.85 389.646C539.063 388.856 538.101 390.337 536.408 390.744C534.357 391.233 532.791 391.164 530.74 390.623C528.893 390.136 527.302 389.309 526.306 387.62C525.659 386.525 525.923 384.881 524.281 384.674C522.749 384.479 517.651 388.02 516.843 384.891C516.289 382.722 526.238 381.455 528.144 380.568C530.391 379.517 529.387 376.452 531.233 375.643C533.88 374.481 536.586 379.132 539.437 378.875C544.518 378.42 540.79 375.589 542.714 374.586C543.565 374.142 548.875 373.191 549.862 373.251C550.662 373.299 551.471 373.255 552.262 373.367C552.458 373.394 553.521 373.807 552.951 373.617Z" fill="#0F2B46" stroke="#0F2B46" stroke-miterlimit="10" stroke-linecap="round" stroke-linejoin="round"/>
<path d="M595.427 505.738C595.427 499.217 587.742 503.998 586.755 498.069C586.397 495.931 589.674 496.768 589.98 495.243C590.389 493.222 585.81 492.323 586.551 490.096C587.214 488.111 591.563 487.718 592.806 486.059C595.308 482.716 591.435 483.159 590.993 480.508C590.789 479.285 592.516 478.771 591.997 477.38C590.831 474.259 581.964 476.525 582.619 469.912C582.687 469.273 584.287 460.27 584.432 460.122C585.572 458.982 590.695 458.976 590.993 457.498C591.537 454.74 586.031 454.751 587.359 450.333C588.474 446.627 591.376 445.447 593.308 442.865C593.478 442.642 593.759 442.156 593.614 441.856C592.857 440.344 586.84 444.547 585.946 445.287C584.84 446.214 584.27 447.837 583.325 448.92C581.436 451.081 579.513 451.788 577.172 452.957C576.44 453.323 575.887 454.782 575.36 455.379C573.819 457.11 570.211 457.587 567.998 457.095C562.977 455.979 565.76 453.54 564.271 451.746C562.884 450.082 559.922 449.158 560.535 446.397C560.994 444.328 565.981 441.492 564.271 439.434C562.62 437.454 560.663 443.989 558.314 444.379C555.922 444.778 551.395 443.626 549.344 442.26C548.987 442.024 546.051 439.768 545.914 439.838C545.736 439.928 545.778 440.899 545.812 441.049C545.965 441.65 547.965 442.337 548.536 442.663C550.187 443.606 552.697 446.707 552.969 448.618C553.318 451.014 548.51 453.691 546.621 454.774C545.54 455.389 542.238 456.043 540.97 455.682C539.872 455.367 538.979 453.321 537.643 453.764C536.17 454.257 536.051 456.785 534.417 457.398C531.702 458.418 529.405 457.225 526.758 456.893C524.707 456.637 522.426 457.564 520.503 456.792C516.095 455.027 516.733 451.708 513.95 448.92C513.167 448.142 512.631 447.341 511.933 446.499C511.874 446.424 511.542 445.807 511.431 445.893C510.972 446.234 511.065 447.394 510.623 447.911C509.687 449.003 508.07 448.961 507.193 450.535C503.542 457.116 510.929 454.049 513.448 457.196C514.844 458.944 513.133 463.187 513.746 463.554C516.478 465.192 521.311 464.475 523.524 466.38C525.158 467.779 522.494 470.729 524.835 472.031C527.294 473.396 530.051 472.123 531.396 475.26C532.315 477.405 529.915 477.194 528.673 478.086C527.549 478.888 528.137 480.909 527.464 481.316C525.209 482.666 521.711 481.133 520.001 483.536C517.371 487.222 523.456 487.828 523.933 490.701C524.162 492.066 522.137 492.368 521.609 493.426C520.724 495.207 522.843 498.494 524.035 499.683C524.664 500.318 526.46 501.674 527.362 501.802C528.247 501.928 529.932 500.775 530.588 501.298C532.485 502.815 530.188 504.916 531.09 506.041C532.656 507.995 533.864 506.715 535.532 507.757C539.923 510.507 539.081 514.456 546.314 512.903C550.723 511.959 551.531 505.347 557.003 506.344C559.633 506.821 557.267 509.858 559.429 510.784C561.25 511.566 563.428 511.04 565.275 511.894C566.373 512.399 567.13 514.5 568.203 514.619C569.973 514.816 571.658 513.746 573.445 514.418C576.866 515.703 573.377 518.084 574.355 519.059C576.44 521.154 582.661 520.215 583.734 521.28C586.295 523.847 587.572 527 589.776 530.161C590.576 531.298 594.891 536.189 596.337 535.61C603.69 532.664 603.128 517.655 600.473 512.096C598.916 508.853 595.954 506.712 594.822 503.316" fill="#48638C"/>
<path d="M594.101 546.251C593.344 543.96 591.684 542.552 590.799 540.475C589.404 537.229 588.621 533.731 587.029 530.543C586.383 529.265 585.064 528.411 584.561 527.078C583.915 525.348 583.779 523.39 583.021 521.689C582.57 520.664 581.745 519.89 581.413 518.762C580.536 515.844 579.974 512.439 578.485 509.754C576.434 506.054 573.013 502.872 570.562 499.437C568.741 496.884 569.456 492.712 567.175 490.427C566.52 489.773 565.192 489.686 564.409 489.196C562.095 487.747 560.231 485.794 558.095 484.268C557.286 483.686 556.257 483.443 555.635 482.574C554.963 481.634 553.593 480.791 553.099 479.802C551.797 477.202 553.976 473.331 553.406 470.485C553.261 469.759 551.823 466.229 553.099 465.865C554.572 465.445 554.325 468.254 554.325 468.869C554.325 471.661 553.755 476.045 554.869 478.647C556.189 481.729 559.142 482.178 561.788 483.652C564.494 485.157 567.592 487.119 569.635 489.503C571.626 491.823 573.286 495.791 574.485 498.589C574.664 499.016 575.66 501.507 576.409 501.207C577.592 500.735 577.073 495.763 576.945 494.97C576.553 492.425 575.575 489.899 575.796 487.271C575.958 485.269 576.962 483.274 576.792 481.265C576.639 479.455 575.719 477.742 575.719 475.875C575.719 473.56 576.4 471.731 577.328 469.639C577.413 469.449 577.49 468.953 577.643 469.099C577.753 469.21 577.438 469.57 577.404 469.639C576.766 471.141 576.102 473.309 576.102 474.951C576.102 477.655 577.924 480.667 578.179 483.498C578.434 486.281 577.404 488.946 577.404 491.736C577.404 493.31 578.298 494.524 578.485 496.049C579.115 501.097 579.166 502.294 581.796 506.674C582.357 507.612 582.077 508.973 582.332 509.985C582.868 512.134 583.634 514.603 584.408 516.683C585.421 519.381 587.906 521.205 588.953 523.999C589.855 526.425 589.778 529.551 591.259 531.775C592.119 533.07 593.65 534.002 594.646 535.24C595.429 536.228 595.497 537.632 596.723 538.243" fill="#0F2B46"/>
<path d="M594.101 546.251C593.344 543.96 591.684 542.552 590.799 540.475C589.404 537.229 588.621 533.731 587.029 530.543C586.383 529.265 585.064 528.411 584.561 527.078C583.915 525.348 583.779 523.39 583.021 521.689C582.57 520.664 581.745 519.89 581.413 518.762C580.536 515.844 579.974 512.439 578.485 509.754C576.434 506.054 573.013 502.872 570.562 499.437C568.741 496.884 569.456 492.712 567.175 490.427C566.52 489.773 565.192 489.686 564.409 489.196C562.095 487.747 560.231 485.794 558.095 484.268C557.286 483.686 556.257 483.443 555.635 482.574C554.963 481.634 553.593 480.791 553.099 479.802C551.797 477.202 553.976 473.331 553.406 470.485C553.261 469.759 551.823 466.229 553.099 465.865C554.572 465.445 554.325 468.254 554.325 468.869C554.325 471.661 553.755 476.045 554.869 478.647C556.189 481.729 559.142 482.178 561.788 483.652C564.494 485.157 567.592 487.119 569.635 489.503C571.626 491.823 573.286 495.791 574.485 498.589C574.664 499.016 575.66 501.507 576.409 501.207C577.592 500.735 577.073 495.763 576.945 494.97C576.553 492.425 575.575 489.899 575.796 487.271C575.958 485.269 576.962 483.274 576.792 481.265C576.639 479.455 575.719 477.742 575.719 475.875C575.719 473.56 576.4 471.731 577.328 469.639C577.413 469.449 577.49 468.953 577.643 469.099C577.753 469.21 577.438 469.57 577.404 469.639C576.766 471.141 576.102 473.309 576.102 474.951C576.102 477.655 577.924 480.667 578.179 483.498C578.434 486.281 577.404 488.946 577.404 491.736C577.404 493.31 578.298 494.524 578.485 496.049C579.115 501.097 579.166 502.294 581.796 506.674C582.357 507.612 582.077 508.973 582.332 509.985C582.868 512.134 583.634 514.603 584.408 516.683C585.421 519.381 587.906 521.205 588.953 523.999C589.855 526.425 589.778 529.551 591.259 531.775C592.119 533.07 593.65 534.002 594.646 535.24C595.429 536.228 595.497 537.632 596.723 538.243" stroke="#0F2B46" stroke-miterlimit="10" stroke-linecap="round" stroke-linejoin="round"/>
<path d="M595.474 322.399C593.475 321.628 591.33 323.973 589.109 323.973C587.049 323.973 575.91 319.009 574.139 317.679C572.735 316.628 571.144 314.033 569.493 313.483C566.548 312.498 564.676 315.401 562.157 314.982C558.744 314.412 556.94 311.457 554.072 309.736C551.29 308.065 548.268 308.425 545.835 305.991C542.43 302.583 546.941 302.863 546.583 300.746C546.328 299.177 544.345 298.366 543.894 296.999C543.469 295.724 544.788 295.335 544.788 294.452C544.788 293.5 543.75 292.704 543.596 291.754C543.52 291.338 546.149 286.495 546.583 286.06C548.268 284.373 551.536 284.784 553.775 284.411C555.86 284.063 555.179 282.435 556.617 281.714C557.962 281.044 559.4 281.46 560.659 280.515C562.404 279.206 561.468 278.081 561.706 276.619C561.885 275.555 563.774 275.652 564.106 274.82C564.48 273.889 562.795 273.205 563.357 272.273C564.838 269.809 568.582 270.094 570.693 268.826C571.569 268.303 570.369 267.667 570.846 267.028C571.816 265.728 574.42 265.69 575.637 264.781C577.561 263.339 574.097 262.214 575.637 260.284C576.837 258.783 581.475 259.99 582.071 258.786C582.547 257.838 580.462 254.555 580.879 253.092C581.016 252.589 581.314 252.55 581.773 252.492C585.679 252.003 589.296 249.959 593.006 249.495C598.07 248.862 604.24 257.401 604.683 261.334C605.065 264.702 604.402 268.192 605.133 271.524C605.857 274.831 607.448 277.426 607.082 280.964C606.767 283.956 605.585 286.808 605.287 289.806C604.776 294.898 604.674 298.216 602.291 302.993C600.095 307.382 599.33 312.322 597.798 316.93C597.321 318.368 597.219 320.053 596.147 321.126C595.866 321.408 596.411 322.759 595.474 322.399Z" fill="#7396CD"/>
<path d="M594.634 363.981C590.898 364.136 585.35 365.097 582.312 367.226C580.346 368.6 579.01 371.085 576.346 371.144C573.776 371.201 573.129 366.537 572.014 364.951C571.027 363.533 565.947 361.073 564.279 361.018C558.1 360.811 555.615 368.765 551.905 372.242C551.301 372.803 549.667 373.79 549.513 374.683C549.113 376.917 552.109 378.499 551.352 380.437C550.935 381.506 549.054 381.085 548.245 381.846C547.19 382.831 547.088 386.419 547.037 387.813C546.875 392.868 551.181 393.928 553.505 397.249C554.288 398.372 554.271 400.151 555.905 400.689C557.19 401.111 564.891 400.981 563.002 403.152C562.253 404.018 560.245 405.011 559.156 405.335C553.803 406.925 555.947 401.047 552.186 399.579C550.713 399.001 549.003 400.028 547.531 399.507C545.607 398.825 543.31 397.403 541.488 397.08C538.944 396.63 535.369 400.253 533.225 401.194C532.374 401.57 527.481 402.37 527.838 403.557C527.94 403.893 528.485 403.824 528.834 403.884C532.451 404.525 537.123 402.78 540.68 404.174C543.08 405.113 543.463 408.244 545.624 409.421C548.935 411.215 552.798 413.734 556.424 414.8C560.398 415.97 566.534 414.431 569.623 411.711C570.414 411.016 571.129 408.356 572.074 408.075C572.874 407.838 573.614 411.28 575.708 410.527C578.193 409.636 578.831 406.206 581.052 404.992C582.499 404.203 584.524 404.551 586.133 404.384C589.579 404.027 593.707 402.356 596.371 400.166C599.545 397.563 599.86 384.331 599.953 380.751C600.013 378.607 601.17 376.327 600.192 374.311C599.349 372.585 598.294 367.773 597.017 366.665C596.413 366.136 595.026 365.711 594.89 365.082C594.839 364.848 595.102 363.962 594.634 363.981Z" fill="#7396CD"/>
<path d="M594.822 480.351C595.026 480.041 592.72 481.953 591.784 482.642C589.248 484.504 586.005 484.836 584.712 488C583.239 491.59 585.963 492.021 585.792 494.289C585.724 495.111 584.737 495.599 584.542 496.425C583.325 501.503 588.278 506.011 593.094 506.287C596.873 506.504 596.779 502.232 596.966 499.354C597.23 495.252 597.222 491.165 596.286 487.129C595.835 485.164 593.775 481.975 594.822 480.351Z" fill="#7396CD"/>
<path d="M512.779 439.682C511.026 439.682 510.533 441.67 510.746 442.981C510.899 443.9 511.597 444.783 512.014 445.621C512.456 446.501 512.397 447.71 512.779 448.668C513.426 450.281 515.698 454.291 516.839 455.623C517.783 456.726 519.877 458.72 521.656 457.704C523.153 456.848 522.353 454.607 521.911 453.389C520.89 450.627 519.205 448.734 517.443 446.434C516.966 445.806 516.192 445.333 516.022 444.505C515.673 442.733 516.635 441.041 516.328 439.224C516.209 438.514 514.269 435.439 514.703 437.194" fill="#7396CD"/>
<path d="M596.249 588.46C596.453 588.495 594.598 587.547 594.104 587.279C592.649 586.491 590.351 585.651 588.7 585.827C586.905 586.02 577.697 589.198 577.475 589.064C575.62 587.944 575.697 582.609 574.378 580.796C571.484 576.819 567.85 573.754 563.612 571.636C561.851 570.755 560.846 571.857 559.178 571.11C556.472 569.893 552.107 566.507 548.864 567.31C545.664 568.101 544.337 569.72 541.954 571.456C537.98 574.346 533.316 573.029 530.627 578.424C529.657 580.357 527.58 587.08 525.665 587.768C523.989 588.374 523.3 585.653 521.129 585.538C514.662 585.194 507.02 588.069 501.496 590.997C497.812 592.952 494.62 604.326 491.48 605.264C491.174 605.356 488.935 603.787 488.408 603.695C484.868 603.073 478.996 605.626 476.187 607.461C469.226 612.008 468.009 620.682 464.605 627.516C464.009 628.704 459.235 633.362 459.78 634.392C461.762 638.137 467.617 633.964 470.034 632.948C475.532 630.645 480.578 627.111 486.91 628.313C489.744 628.85 492.135 631.983 494.952 632.039C497.752 632.094 500.603 629.066 503.096 629.318C509.615 629.976 506.228 641.604 511.147 641.196C515.555 640.832 519.64 638.839 524.168 638.928C526.942 638.983 530.746 641.111 533.299 640.481C539.12 639.038 542.643 631.206 547.851 628.444C551.809 626.343 555.63 633.588 561.408 630.523C566.148 628.009 570.667 621.37 573.144 616.783C574.122 614.969 575.135 611.344 577.161 610.494C580.488 609.102 589.075 618.382 595.943 616.684C603.508 614.809 600.121 599.556 599.593 595.237C599.381 593.477 598.649 591.28 597.143 590.303C596.708 590.022 595.287 588.293 596.249 588.46Z" fill="#7396CD"/>
<path d="M595.135 616.271C589.986 611.83 584.233 608 577.246 608.407C569.936 608.832 567.63 622.237 562.456 626.139C559.188 628.608 554.575 625.749 550.882 626.656C547.256 627.549 542.644 628.652 539.58 630.959C536.193 633.519 534.253 636.153 529.674 636.795C526.287 637.269 523.207 636.134 519.854 636.22C515.624 636.33 513.045 639.254 509.292 635.272C507.25 633.112 508.646 628.575 504.85 626.887C500.527 624.968 497.642 628.73 493.881 628.827C489.174 628.949 487.217 624.422 482.443 624.545C476.409 624.701 471.873 630.257 466.316 630.847C463.814 631.113 461.372 624.048 458.58 623.069C447.457 619.174 447.117 623.714 438.513 628.819C435.526 630.593 432.046 633.002 430.029 635.926C428.25 638.518 430.412 641.193 429.229 643.575C429.22 643.589 419.936 649.415 418.642 650.388C416.336 652.132 413.459 651.115 411.008 651.458C406.209 652.129 402.353 658.262 398.252 658.501C396.924 658.577 395.767 659.461 394.584 659.86C393.98 660.062 392.337 660.327 392.865 660.689C394.813 662.037 399.741 659.546 401.851 659.541C412.004 659.515 422.191 657.403 432.411 657.139C438.777 656.973 445.415 658.621 451.781 658.251C456.41 657.981 461.959 655.074 466.333 653.602C478.086 649.65 490.723 650.208 502.697 647.998C506.195 647.352 510.314 645.472 513.777 645.27C516.237 645.127 518.833 644.162 521.411 644.201C525.76 644.266 530.483 645.627 534.746 644.467C539.223 643.25 542.644 638.434 547.316 636.862C552.814 635.013 559.69 636.703 565.477 635.128C572.855 633.121 576.242 627.989 582.948 624.999C585.74 623.754 589.603 625.321 592.199 623.889C595.245 622.205 597.33 618.166 595.135 616.271Z" fill="#48638C"/>
<path d="M596.73 623.053C591.318 621.5 585.99 620.475 580.654 622.269C576.042 623.821 573.123 629.665 568.655 631.559C561.242 634.707 552.758 631.976 545.065 633.869C542.673 634.457 536.98 641.613 534.342 643.606C531.712 645.587 524.3 641.206 521.559 641.277C511.339 641.541 505.28 648.846 496.08 651.352C494.004 651.916 489.238 649.054 486.821 648.714C480.608 647.843 470.864 649.065 465.026 651.544C462.771 652.499 460.269 655.466 457.767 655.611C453.095 655.883 448.295 654.965 443.64 655.235C438.423 655.539 433.019 656.026 427.845 657.3C426.271 657.687 424.96 658.978 423.318 659.074C422.39 659.128 419.727 659.147 420.578 659.493C424.203 660.961 428.577 659.652 432.305 659.801C440.185 660.113 448.074 659.511 455.869 659.628C475.596 659.923 495.467 655.61 515.194 656.177C523.951 656.428 532.818 657.027 541.601 656.671C550.852 656.295 559.906 657.598 569.021 657.575C572.289 657.567 577.02 659.152 579.999 657.509C583.88 655.366 580.007 650.435 581.778 648.658C584.535 645.876 589.76 649.644 592.441 646.943C593.215 646.165 597.947 630.549 597.828 629.497C597.564 626.979 599.632 623.886 596.73 623.053Z" fill="#0F2B46"/>
<path d="M594.54 643.873C594.702 642.858 592.736 645.46 591.238 645.462C588.362 645.468 579.077 643.781 578.49 649.018C578.328 650.459 580.243 651.464 579.809 652.983C579.383 654.49 575.937 656.48 577.145 657.773C578.541 659.259 594.14 659.42 594.838 658.068C597.289 653.288 593.944 647.745 594.54 643.873Z" fill="#7396CD"/>
<path d="M507.447 645.468C503.898 645.628 500.324 646.981 496.698 647.145C494.264 647.255 491.779 647.025 489.379 647.674C486.707 648.396 486.112 648.963 483.107 648.503C482.835 648.461 479.916 648.58 479.942 648.745C479.976 648.908 480.197 648.979 480.359 649.024C482.801 649.719 485.558 649.361 488.043 650.069C493.175 651.528 499.855 652.88 505.021 649.999C506.621 649.105 506.485 647.115 508.136 646.48C509.523 645.947 514.025 645.794 514.229 643.971C514.314 643.224 512.374 643.477 511.923 643.478C508.493 643.483 505.983 644.885 503.855 647.22" fill="#7396CD"/>
<path d="M393.482 660.464C403.728 657.996 415.217 655.014 425.761 655.854C429.438 656.146 423.897 658.449 428.782 658.997C434.995 659.692 442.382 658.76 448.645 657.952C455.819 657.027 463.078 658.176 470.295 658.069C482.226 657.894 494.166 656.347 505.978 655.815C509.348 655.662 513.101 654.51 516.514 654.892C526.769 656.043 537.491 656.011 547.814 656.611C554.044 656.974 560.673 655.457 566.851 656.15C572.323 656.763 578.485 657.216 584.068 656.964C585.165 656.914 595.267 656.174 595.267 657.701C595.275 662.162 586.578 659.98 583.659 660.112C571.498 660.661 559.141 661.16 546.955 660.773C536.819 660.45 526.743 662.288 516.65 662.437C502.353 662.648 487.928 661.448 473.614 661.298C465.75 661.215 457.938 662.569 450.075 662.11C444.637 661.794 439.19 660.495 433.658 660.218C428.297 659.95 422.953 661.363 417.566 661.191C412.23 661.022 406.179 660.874 401.005 661.541C399.916 661.681 399.056 662.374 397.856 662.278C396.384 662.161 392.154 660.784 393.482 660.464Z" fill="#7396CD"/>
</svg>
