<svg width="375" height="311" viewBox="0 0 375 311" fill="none" xmlns="http://www.w3.org/2000/svg">
<g clip-path="url(#clip0_23_11197)">
<path d="M280.095 140.204L300.964 145.912" stroke="#0F2B46" stroke-miterlimit="10" stroke-linejoin="round"/>
<path d="M280.095 142.015L300.964 147.625" stroke="#0F2B46" stroke-miterlimit="10" stroke-linejoin="round"/>
<path d="M278.896 144.82L298.06 150.016" stroke="#0F2B46" stroke-miterlimit="10" stroke-linejoin="round"/>
<path d="M86.987 192.12L86.7188 280.14" stroke="#0F2B46" stroke-miterlimit="10" stroke-linejoin="round"/>
<path d="M86.9632 179.234L20.2041 187.185V190.87L84.935 188.849" stroke="#0F2B46" stroke-miterlimit="10" stroke-linejoin="round"/>
<path d="M20.2043 190.87H18.9102V193.37L85.03 191.207" stroke="#0F2B46" stroke-miterlimit="10" stroke-linejoin="round"/>
<path d="M20.2041 193.37V195.417L86.9632 193.37" stroke="#0F2B46" stroke-miterlimit="10" stroke-linejoin="round"/>
<path d="M20.2041 193.37V195.417L86.9632 193.37" stroke="#0F2B46" stroke-miterlimit="10" stroke-linejoin="round"/>
<path d="M22.9541 195.417V289.318" stroke="#0F2B46" stroke-miterlimit="10" stroke-linejoin="round"/>
<path d="M86.4736 154.642L86.9629 188.124" stroke="#0F2B46" stroke-miterlimit="10" stroke-linejoin="round"/>
<path d="M86.4736 154.642L83.4551 151.499V148.268L280.094 140.204V142.008H278.784V281.238" stroke="#0F2B46" stroke-miterlimit="10" stroke-linejoin="round"/>
<path d="M278.896 147.418L297.184 152.479" stroke="#0F2B46" stroke-miterlimit="10" stroke-linejoin="round"/>
<path d="M86.4736 154.642L124.997 153.196M137.307 152.734L156.22 152.024M168.945 151.565L186.819 150.869M199.556 150.431L216.492 149.754M229.217 149.46L278.895 147.418" stroke="#0F2B46" stroke-miterlimit="10" stroke-linejoin="round"/>
<path d="M85.0303 192.12V188.118L273.557 183.269L278.797 183.134V186.327L85.0303 192.12Z" stroke="#0F2B46" stroke-miterlimit="10" stroke-linejoin="round"/>
<path d="M278.895 144.82L231.707 146.508M214.195 147.002L201.873 147.492M184.381 148.043L171.423 148.517M153.832 149.094L140.006 149.566M122.309 150.171L83.4551 151.499" stroke="#0F2B46" stroke-miterlimit="10" stroke-linejoin="round"/>
<path d="M278.895 142.015L231.727 144.012M213.548 144.698L201.865 145.205M184.199 145.892L171.656 146.441M153.383 147.153L140.152 147.681M121.923 148.441L83.4551 150.016" stroke="#0F2B46" stroke-miterlimit="10" stroke-linejoin="round"/>
<path d="M100.864 191.795V280.144" stroke="#0F2B46" stroke-miterlimit="10" stroke-linejoin="round"/>
<path d="M100.88 187.634L100.849 165.283" stroke="#0F2B46" stroke-miterlimit="10" stroke-linejoin="round"/>
<path d="M86.7188 165.642L86.8963 165.636M100.529 165.16L125.131 164.302M229.352 160.719L266.154 158.938C266.154 158.938 266.154 169.269 266.154 183.62M266.154 186.447C266.154 219.247 266.154 269.689 266.154 269.689M278.702 158.946L278.895 158.938" stroke="#0F2B46" stroke-miterlimit="10" stroke-linejoin="round"/>
<path d="M121.927 146.802L122.302 150.441L124.839 153.119L125.241 186.977" stroke="#0F2B46" stroke-miterlimit="10" stroke-linejoin="round"/>
<path d="M140.152 146.016V149.655L137.611 152.479V186.977" stroke="#0F2B46" stroke-miterlimit="10" stroke-linejoin="round"/>
<path d="M171.656 144.803V148.442L169.119 151.266V185.764" stroke="#0F2B46" stroke-miterlimit="10" stroke-linejoin="round"/>
<path d="M153.431 145.589L153.806 149.229L156.347 151.906L156.749 186.103" stroke="#0F2B46" stroke-miterlimit="10" stroke-linejoin="round"/>
<path d="M202.098 143.603V147.379L199.557 150.203V185.052" stroke="#0F2B46" stroke-miterlimit="10" stroke-linejoin="round"/>
<path d="M183.872 144.269L184.243 148.166L186.784 150.844L187.187 185.409" stroke="#0F2B46" stroke-miterlimit="10" stroke-linejoin="round"/>
<path d="M213.549 143.058L214.07 147.242L216.611 149.92L217.013 184.628" stroke="#0F2B46" stroke-miterlimit="10" stroke-linejoin="round"/>
<path d="M231.924 142.419V146.456L229.383 149.28V184.331" stroke="#0F2B46" stroke-miterlimit="10" stroke-linejoin="round"/>
<path d="M123.584 186.977V190.87" stroke="#0F2B46" stroke-miterlimit="10" stroke-linejoin="round"/>
<path d="M138.883 186.667V190.561" stroke="#0F2B46" stroke-miterlimit="10" stroke-linejoin="round"/>
<path d="M170.39 186.103V189.639" stroke="#0F2B46" stroke-miterlimit="10" stroke-linejoin="round"/>
<path d="M155.088 186.413V190.306" stroke="#0F2B46" stroke-miterlimit="10" stroke-linejoin="round"/>
<path d="M185.529 185.746V188.972" stroke="#0F2B46" stroke-miterlimit="10" stroke-linejoin="round"/>
<path d="M200.827 185.436V188.972" stroke="#0F2B46" stroke-miterlimit="10" stroke-linejoin="round"/>
<path d="M230.653 184.646V187.871" stroke="#0F2B46" stroke-miterlimit="10" stroke-linejoin="round"/>
<path d="M215.355 184.955V188.181" stroke="#0F2B46" stroke-miterlimit="10" stroke-linejoin="round"/>
<path d="M125.242 190.87V280.305" stroke="#0F2B46" stroke-miterlimit="10" stroke-linejoin="round"/>
<path d="M137.611 190.561V280.224" stroke="#0F2B46" stroke-miterlimit="10" stroke-linejoin="round"/>
<path d="M169.119 189.639V280.512" stroke="#0F2B46" stroke-miterlimit="10" stroke-linejoin="round"/>
<path d="M156.749 189.949V280.354" stroke="#0F2B46" stroke-miterlimit="10" stroke-linejoin="round"/>
<path d="M187.187 189.288V280.822" stroke="#0F2B46" stroke-miterlimit="10" stroke-linejoin="round"/>
<path d="M199.557 188.973V280.507" stroke="#0F2B46" stroke-miterlimit="10" stroke-linejoin="round"/>
<path d="M229.383 187.634V280.822" stroke="#0F2B46" stroke-miterlimit="10" stroke-linejoin="round"/>
<path d="M217.014 188.439V280.512" stroke="#0F2B46" stroke-miterlimit="10" stroke-linejoin="round"/>
<path d="M22.9541 228.328L86.8406 226.604" stroke="#0F2B46" stroke-miterlimit="10" stroke-linejoin="round"/>
<path d="M22.9541 242.367L86.7183 240.644" stroke="#0F2B46" stroke-miterlimit="10" stroke-linejoin="round"/>
<path d="M63.7032 203.303L69.8902 203.051L79.2615 202.668V224.985L61.75 225.622V224.347L63.9754 224.301L63.7032 203.303Z" stroke="#0F2B46" stroke-miterlimit="10" stroke-linejoin="round"/>
<path d="M39.4121 203.918L45.5952 203.666L54.9665 203.284V225.6L37.459 226.238V224.981L39.42 224.873L39.4121 203.918Z" stroke="#0F2B46" stroke-miterlimit="10" stroke-linejoin="round"/>
<path d="M39.4209 205.45L54.7148 204.801" stroke="#0F2B46" stroke-miterlimit="10" stroke-linejoin="round"/>
<path d="M47.6045 205.125L47.6006 224.484" stroke="#0F2B46" stroke-miterlimit="10" stroke-linejoin="round"/>
<path d="M41.5156 210.991H53.2939" stroke="#0F2B46" stroke-miterlimit="10" stroke-linejoin="round"/>
<path d="M41.5156 205.45V224.582" stroke="#0F2B46" stroke-miterlimit="10" stroke-linejoin="round"/>
<path d="M53.6414 205.125L53.4678 224.182" stroke="#0F2B46" stroke-miterlimit="10" stroke-linejoin="round"/>
<path d="M39.4209 224.873C39.9773 224.873 41.5161 224.812 41.5161 224.812L54.9437 224.182" stroke="#0F2B46" stroke-miterlimit="10" stroke-linejoin="round"/>
<path d="M63.9746 204.877L79.2685 204.229" stroke="#0F2B46" stroke-miterlimit="10" stroke-linejoin="round"/>
<path d="M72.1592 204.553L72.1553 223.912" stroke="#0F2B46" stroke-miterlimit="10" stroke-linejoin="round"/>
<path d="M66.0703 210.419H77.8486" stroke="#0F2B46" stroke-miterlimit="10" stroke-linejoin="round"/>
<path d="M66.0703 204.877V224.009" stroke="#0F2B46" stroke-miterlimit="10" stroke-linejoin="round"/>
<path d="M77.8796 204.364L77.7061 223.421" stroke="#0F2B46" stroke-miterlimit="10" stroke-linejoin="round"/>
<path d="M63.9746 224.301C64.531 224.301 66.0698 224.24 66.0698 224.24L79.4974 223.61" stroke="#0F2B46" stroke-miterlimit="10" stroke-linejoin="round"/>
<path d="M64.2393 244.391L70.4224 244.139L79.7937 243.757V266.073L62.2861 266.711V265.435L64.5116 265.389L64.2393 244.391Z" stroke="#0F2B46" stroke-miterlimit="10" stroke-linejoin="round"/>
<path d="M39.9453 245.007L46.1323 244.754L55.5036 244.372V266.688L37.9961 267.326V266.069L39.9571 265.962L39.9453 245.007Z" stroke="#0F2B46" stroke-miterlimit="10" stroke-linejoin="round"/>
<path d="M39.957 246.538L55.251 245.889" stroke="#0F2B46" stroke-miterlimit="10" stroke-linejoin="round"/>
<path d="M48.1407 246.213L48.1367 265.572" stroke="#0F2B46" stroke-miterlimit="10" stroke-linejoin="round"/>
<path d="M42.0527 252.079H53.827" stroke="#0F2B46" stroke-miterlimit="10" stroke-linejoin="round"/>
<path d="M42.0527 246.538V265.67" stroke="#0F2B46" stroke-miterlimit="10" stroke-linejoin="round"/>
<path d="M54.1775 246.213L54.0039 265.27" stroke="#0F2B46" stroke-miterlimit="10" stroke-linejoin="round"/>
<path d="M39.957 265.962C40.5134 265.962 42.0522 265.9 42.0522 265.9L55.4759 265.271" stroke="#0F2B46" stroke-miterlimit="10" stroke-linejoin="round"/>
<path d="M64.5117 245.965L79.8057 245.316" stroke="#0F2B46" stroke-miterlimit="10" stroke-linejoin="round"/>
<path d="M72.6954 245.641L72.6914 265" stroke="#0F2B46" stroke-miterlimit="10" stroke-linejoin="round"/>
<path d="M66.6074 251.507H78.3817" stroke="#0F2B46" stroke-miterlimit="10" stroke-linejoin="round"/>
<path d="M66.6074 245.965V265.097" stroke="#0F2B46" stroke-miterlimit="10" stroke-linejoin="round"/>
<path d="M78.4129 245.452L78.2393 264.509" stroke="#0F2B46" stroke-miterlimit="10" stroke-linejoin="round"/>
<path d="M64.5117 265.389C65.0681 265.389 66.607 265.328 66.607 265.328L80.0305 264.698" stroke="#0F2B46" stroke-miterlimit="10" stroke-linejoin="round"/>
<path d="M22.9746 269.689L86.7191 267.827" stroke="#0F2B46" stroke-miterlimit="10" stroke-linejoin="round"/>
<path d="M22.9746 288.379L71.8434 287.125" stroke="#0F2B46" stroke-miterlimit="10" stroke-linejoin="round"/>
<path d="M78.2393 283.866L78.3813 279.828L304.618 281.238" stroke="#0F2B46" stroke-miterlimit="10" stroke-linejoin="round"/>
<path d="M71.958 288.036V283.866L304.65 285.25" stroke="#0F2B46" stroke-miterlimit="10" stroke-linejoin="round"/>
<path d="M66.4922 291.795V288.036L304.649 289.318" stroke="#0F2B46" stroke-miterlimit="10" stroke-linejoin="round"/>
<path d="M60.467 295.9L60.4473 291.795L304.649 292.926" stroke="#0F2B46" stroke-miterlimit="10" stroke-linejoin="round"/>
<path d="M60.5781 295.537L304.65 298.464" stroke="#0F2B46" stroke-miterlimit="10" stroke-linejoin="round"/>
<path d="M137.683 163.815C140.709 160.783 148.08 161.178 151.978 161.735C152.598 161.824 156.141 162.599 156.374 163.063" stroke="#0F2B46" stroke-miterlimit="10" stroke-linecap="round" stroke-linejoin="round"/>
<path d="M104.511 248.462C107.541 242.932 114.912 243.653 118.806 244.67C119.426 244.831 122.973 246.245 123.206 247.091" stroke="#0F2B46" stroke-miterlimit="10" stroke-linecap="round" stroke-linejoin="round"/>
<path d="M169.111 163.302C172.142 160.27 179.513 160.666 183.407 161.222C184.027 161.311 186.639 161.78 186.871 162.244" stroke="#0F2B46" stroke-miterlimit="10" stroke-linecap="round" stroke-linejoin="round"/>
<path d="M199.593 162.069C202.619 159.037 209.702 159.607 213.6 160.164C214.22 160.253 216.497 160.547 216.729 161.011" stroke="#0F2B46" stroke-miterlimit="10" stroke-linecap="round" stroke-linejoin="round"/>
<path d="M141.104 168.883L152.949 168.496V185.182L141.159 185.436L141.104 168.883Z" stroke="#0F2B46" stroke-miterlimit="10" stroke-linejoin="round"/>
<path d="M141.163 199.681H153.431V221.696L141.163 221.793V199.681Z" stroke="#0F2B46" stroke-miterlimit="10" stroke-linejoin="round"/>
<path d="M139.479 247.576H155.088V280.223L139.479 280.14V247.576Z" stroke="#0F2B46" stroke-miterlimit="10" stroke-linejoin="round"/>
<path d="M107.936 247.496H123.549V280.144L107.936 280.061V247.496Z" stroke="#0F2B46" stroke-miterlimit="10" stroke-linejoin="round"/>
<path d="M170.39 247.707H185.999V280.354L170.39 280.271V247.707Z" stroke="#0F2B46" stroke-miterlimit="10" stroke-linejoin="round"/>
<path d="M200.354 247.707H215.967V280.354L200.354 280.271V247.707Z" stroke="#0F2B46" stroke-miterlimit="10" stroke-linejoin="round"/>
<path d="M230.653 248.174H246.263V280.822L230.653 280.739V248.174Z" stroke="#0F2B46" stroke-miterlimit="10" stroke-linejoin="round"/>
<path d="M107.936 199.935H120.207V221.95L107.936 222.047V199.935Z" stroke="#0F2B46" stroke-miterlimit="10" stroke-linejoin="round"/>
<path d="M172.07 199.362H184.338V221.378L172.07 221.475V199.362Z" stroke="#0F2B46" stroke-miterlimit="10" stroke-linejoin="round"/>
<path d="M172.07 167.778L183.912 167.391V184.077L172.122 184.331L172.07 167.778Z" stroke="#0F2B46" stroke-miterlimit="10" stroke-linejoin="round"/>
<path d="M202.236 166.883L214.082 166.497V183.183L202.292 183.437L202.236 166.883Z" stroke="#0F2B46" stroke-miterlimit="10" stroke-linejoin="round"/>
<path d="M234.414 165.226L246.259 164.839V181.526L234.469 181.779L234.414 165.226Z" stroke="#0F2B46" stroke-miterlimit="10" stroke-linejoin="round"/>
<path d="M107.936 169.705L119.781 169.318V186.004L107.991 186.258L107.936 169.705Z" stroke="#0F2B46" stroke-miterlimit="10" stroke-linejoin="round"/>
<path d="M202.236 198.916H214.082V221.378L202.236 221.475V198.916Z" stroke="#0F2B46" stroke-miterlimit="10" stroke-linejoin="round"/>
<path d="M234.414 198.469H246.259V220.931L234.414 221.028V198.469Z" stroke="#0F2B46" stroke-miterlimit="10" stroke-linejoin="round"/>
<path d="M107.936 172.989L119.781 172.668" stroke="#0F2B46" stroke-miterlimit="10" stroke-linejoin="round"/>
<path d="M141.163 171.703L153.008 171.383" stroke="#0F2B46" stroke-miterlimit="10" stroke-linejoin="round"/>
<path d="M172.027 170.672L183.873 170.352" stroke="#0F2B46" stroke-miterlimit="10" stroke-linejoin="round"/>
<path d="M202.236 169.639L214.082 169.318" stroke="#0F2B46" stroke-miterlimit="10" stroke-linejoin="round"/>
<path d="M234.414 168.496L246.259 168.176" stroke="#0F2B46" stroke-miterlimit="10" stroke-linejoin="round"/>
<path d="M114.071 221.793V199.935" stroke="#0F2B46" stroke-miterlimit="10" stroke-linejoin="round"/>
<path d="M114.071 186.258V172.534" stroke="#0F2B46" stroke-miterlimit="10" stroke-linejoin="round"/>
<path d="M147.508 185.267V171.543" stroke="#0F2B46" stroke-miterlimit="10" stroke-linejoin="round"/>
<path d="M178.439 184.396V170.672" stroke="#0F2B46" stroke-miterlimit="10" stroke-linejoin="round"/>
<path d="M208.158 183.32V169.597" stroke="#0F2B46" stroke-miterlimit="10" stroke-linejoin="round"/>
<path d="M240.337 181.828V168.104" stroke="#0F2B46" stroke-miterlimit="10" stroke-linejoin="round"/>
<path d="M108.148 207.876H119.994" stroke="#0F2B46" stroke-miterlimit="10" stroke-linejoin="round"/>
<path d="M147.508 221.794V199.489" stroke="#0F2B46" stroke-miterlimit="10" stroke-linejoin="round"/>
<path d="M147.508 280.354V247.707" stroke="#0F2B46" stroke-miterlimit="10" stroke-linejoin="round"/>
<path d="M113.858 280.354V247.707" stroke="#0F2B46" stroke-miterlimit="10" stroke-linejoin="round"/>
<path d="M178.439 280.304V247.657" stroke="#0F2B46" stroke-miterlimit="10" stroke-linejoin="round"/>
<path d="M208.158 280.144V247.496" stroke="#0F2B46" stroke-miterlimit="10" stroke-linejoin="round"/>
<path d="M240.364 280.822V248.174" stroke="#0F2B46" stroke-miterlimit="10" stroke-linejoin="round"/>
<path d="M141.163 207.431H153.431" stroke="#0F2B46" stroke-miterlimit="10" stroke-linejoin="round"/>
<path d="M178.439 221.258L178.415 199.284" stroke="#0F2B46" stroke-miterlimit="10" stroke-linejoin="round"/>
<path d="M172.225 206.853L184.338 206.857" stroke="#0F2B46" stroke-miterlimit="10" stroke-linejoin="round"/>
<path d="M208.158 221.258V198.916" stroke="#0F2B46" stroke-miterlimit="10" stroke-linejoin="round"/>
<path d="M202.236 206.411H214.082" stroke="#0F2B46" stroke-miterlimit="10" stroke-linejoin="round"/>
<path d="M240.365 220.819L240.341 198.469" stroke="#0F2B46" stroke-miterlimit="10" stroke-linejoin="round"/>
<path d="M234.418 206.411H246.263" stroke="#0F2B46" stroke-miterlimit="10" stroke-linejoin="round"/>
<path d="M104.511 248.462V279.828" stroke="#0F2B46" stroke-miterlimit="10" stroke-linejoin="round"/>
<path d="M106.692 245.894V279.828" stroke="#0F2B46" stroke-miterlimit="10" stroke-linejoin="round"/>
<path d="M246.264 269.688H278.797" stroke="#0F2B46" stroke-miterlimit="10" stroke-linejoin="round"/>
<path d="M278.797 269.688H300.964" stroke="#0F2B46" stroke-miterlimit="10" stroke-linejoin="round"/>
<path d="M172.863 225.731H183.872V228.328H172.863V225.731Z" stroke="#0F2B46" stroke-miterlimit="10" stroke-linejoin="round"/>
<path d="M266.967 140.703V136.71L278.796 135.72L280.094 136.71L281.523 140.695" stroke="#0F2B46" stroke-miterlimit="10" stroke-linejoin="round"/>
<path d="M115.74 146.874V144.269L147.027 143.058" stroke="#0F2B46" stroke-miterlimit="10" stroke-linejoin="round"/>
<path d="M147.086 145.589L147.074 145.072C147.046 143.845 147.026 143.058 147.026 143.058L156.453 140.43C156.65 140.375 156.847 140.337 157.053 140.317L169.111 139.09L178.388 138.216C178.423 138.213 178.455 138.211 178.49 138.208L187.128 137.645C187.167 137.643 187.207 137.641 187.246 137.64L215.908 136.712C215.948 136.711 215.983 136.71 216.023 136.71H242.598C242.898 136.71 243.197 136.748 243.489 136.823L259.928 141.045" stroke="#0F2B46" stroke-miterlimit="10" stroke-linejoin="round"/>
<path d="M158.816 107.558L158.749 140.137" stroke="#0F2B46" stroke-miterlimit="10" stroke-linejoin="round"/>
<path d="M222.339 108.193L221.996 136.71" stroke="#0F2B46" stroke-miterlimit="10" stroke-linejoin="round"/>
<path d="M222.336 108.194C222.336 103.354 208.123 99.4326 190.584 99.4326C173.045 99.4326 158.82 103.354 158.82 108.194" stroke="#0F2B46" stroke-miterlimit="10" stroke-linejoin="round"/>
<path d="M222.34 109.861C223.547 109.044 224.684 108.194 224.684 107.205C224.684 107.205 224.684 105.981 224.025 105.104C223.24 104.052 221.949 103.353 221.05 102.786C216.551 99.9613 205.006 96.5063 190.588 96.5063C176.719 96.5063 163.098 100.059 158.749 103.479C158.015 104.057 156.374 105.268 156.374 107.205C156.374 109.182 158.749 110.318 158.749 110.684" stroke="#0F2B46" stroke-miterlimit="10" stroke-linejoin="round"/>
<path d="M213.549 74.7253C213.553 74.5184 213.62 73.5683 213.589 73.3649C212.859 68.8122 203.109 65.2183 191.299 65.2183C179.572 65.2183 169.952 68.7624 169.033 73.2713C168.985 73.5051 169.119 74.9828 169.119 75.2213" stroke="#0F2B46" stroke-miterlimit="10" stroke-linejoin="round"/>
<path d="M211.276 76.4689C212.125 75.6519 214.82 73.9795 214.887 73.0338C214.887 73.0338 215.281 71.7666 214.82 70.8883C214.267 69.8367 213.36 69.1378 212.724 68.5715C209.56 65.7464 201.439 62.2915 191.303 62.2915C181.549 62.2915 171.972 65.844 168.914 69.2637C168.397 69.8422 167.241 71.053 167.241 72.9899C167.241 74.9675 171.254 76.0101 171.495 76.2849" stroke="#0F2B46" stroke-miterlimit="10" stroke-linejoin="round"/>
<path d="M215.044 71.5609C214.405 69.4794 212.945 66.7855 211.308 65.2181C210.124 64.0872 205.787 60.1994 198.705 58.1638C196.542 57.5422 194.104 57.1406 191.302 57.1406C182.314 57.1406 172.134 62.0614 168.129 69.5821C167.785 70.2234 167.478 70.7553 167.478 71.5609" stroke="#0F2B46" stroke-miterlimit="10" stroke-linejoin="round"/>
<path d="M211.308 88.1298C208.143 85.3052 201.751 83.0566 191.614 83.0566C181.86 83.0566 174.714 84.9016 171.656 88.3209" stroke="#0F2B46" stroke-miterlimit="10" stroke-linejoin="round"/>
<path d="M211.023 98.8271C211.023 98.8271 211.658 74.2861 211.023 73.7025C207.863 70.7901 200.878 68.4409 190.738 68.4409C180.984 68.4409 174.714 70.1773 171.656 73.7025C171.139 74.2988 172.027 98.412 172.027 98.412" stroke="#0F2B46" stroke-miterlimit="10" stroke-linejoin="round"/>
<path d="M186.887 96.6874V86.3076H190.683H194.269V96.6874" stroke="#0F2B46" stroke-miterlimit="10" stroke-linejoin="round"/>
<path d="M222.167 118.274L217.014 115.971L217.026 136.71" stroke="#0F2B46" stroke-miterlimit="10" stroke-linejoin="round"/>
<path d="M177.95 138.212V114.122L188.304 113.814L188.28 137.705" stroke="#0F2B46" stroke-miterlimit="10" stroke-linejoin="round"/>
<path d="M160.69 140.137V118.802L167.24 116.305L167.225 139.569" stroke="#0F2B46" stroke-miterlimit="10" stroke-linejoin="round"/>
<path d="M209.947 137.064V114.47L199.593 113.704L199.616 137.385" stroke="#0F2B46" stroke-miterlimit="10" stroke-linejoin="round"/>
<path d="M175.424 97.6912V88.7808L182.546 86.3076L182.806 96.6874" stroke="#0F2B46" stroke-miterlimit="10" stroke-linejoin="round"/>
<path d="M198.404 96.6874L198.112 86.3076L205.787 88.7808V97.6912" stroke="#0F2B46" stroke-miterlimit="10" stroke-linejoin="round"/>
<path d="M192.892 57.1404L191.483 11.4131" stroke="#0F2B46" stroke-miterlimit="10" stroke-linejoin="round"/>
<path d="M190.529 57.1404V11.4131" stroke="#0F2B46" stroke-miterlimit="10" stroke-linejoin="round"/>
<path d="M189.396 9.8611C189.396 9.00419 190.099 8.30957 190.963 8.30957C191.831 8.30957 192.529 9.00419 192.529 9.8611C192.529 10.718 191.831 11.413 190.963 11.413C190.099 11.413 189.396 10.718 189.396 9.8611Z" stroke="#0F2B46" stroke-miterlimit="10" stroke-linejoin="round"/>
<path d="M122.219 150.217L140.006 149.52" stroke="#0F2B46" stroke-miterlimit="10" stroke-linejoin="round"/>
<path d="M124.761 153.066L137.585 152.744" stroke="#0F2B46" stroke-miterlimit="10" stroke-linejoin="round"/>
<path d="M153.908 149.13L171.814 148.339" stroke="#0F2B46" stroke-miterlimit="10" stroke-linejoin="round"/>
<path d="M156.216 152.085L169.347 151.499" stroke="#0F2B46" stroke-miterlimit="10" stroke-linejoin="round"/>
<path d="M184.156 148.048L202.058 147.257" stroke="#0F2B46" stroke-miterlimit="10" stroke-linejoin="round"/>
<path d="M186.461 151.003L199.596 150.417" stroke="#0F2B46" stroke-miterlimit="10" stroke-linejoin="round"/>
<path d="M214.015 146.967L231.921 146.176" stroke="#0F2B46" stroke-miterlimit="10" stroke-linejoin="round"/>
<path d="M216.322 149.921L229.454 149.335" stroke="#0F2B46" stroke-miterlimit="10" stroke-linejoin="round"/>
<path d="M377.213 120.639C376.651 120.239 375.917 121.152 375.233 121.168C373.772 121.201 372.494 121.281 371.039 121.63C368.306 122.288 366.142 123.663 363.581 124.726C362.046 125.364 360.395 124.954 358.898 125.543C358.219 125.809 357.889 126.67 357.43 127.169C356.385 128.292 354.203 128.825 352.784 128.996C348.224 129.544 345.051 125.878 341.181 124.099C337.47 122.391 331.956 120.789 327.842 121.781C322.792 122.996 317.192 128.495 317.7 134.188C317.932 136.836 320.121 139.561 319.002 142.331C318.146 144.453 315.047 147.04 315.291 149.45C315.505 151.542 316.783 153.693 316.826 155.631C316.85 156.665 316.281 157.325 316.801 158.299C317.926 160.421 320.328 161.247 322.138 162.501C323.226 163.258 324.162 164.898 325.439 165.329C328.086 166.223 333.478 167.22 336.18 166.394C340.839 164.973 348.578 162.063 353.286 163.83C355.224 164.557 357.736 167.393 358.757 169.168C360.334 171.922 360.512 175.859 362.382 178.291C366.301 183.395 376.223 185.997 380.545 180.263C383.101 176.87 382.654 171.49 383.07 167.471C383.626 161.999 383.657 156.809 383.681 151.325C383.694 147.825 384.482 144.244 383.767 140.762C383.217 138.105 381.377 135.417 380.6 132.725C379.836 130.071 378.363 127.76 377.348 125.228C377.03 124.446 378.063 121.241 377.213 120.639Z" fill="#7396CD"/>
<path d="M375.453 78.0504C375.379 77.9698 370.654 78.5109 369.663 77.9C367.615 76.6392 369.229 73.033 366.576 72.6033C363.66 72.1302 363.813 75.5395 362.853 76.7059C362.382 77.2771 360.86 76.8739 360.365 77.5609C359.625 78.5744 360.212 80.2857 359.277 81.1123C358.317 81.9566 357.247 80.9783 356.195 81.3218C354.105 82.0038 352.882 83.7629 350.748 84.0768C349.135 84.3152 346.921 83.2325 345.509 82.5971C343.926 81.8843 339.023 80.6625 337.281 80.6625C336.602 80.6631 335.263 81.8937 334.53 82.1258C334.028 82.2863 330.091 82.1435 330.452 83.5131C330.654 84.2542 332.347 84.4757 332.873 84.7846C335.765 86.4864 339.916 84.3656 342.984 86.0346C345.717 87.5232 346.891 91.5458 349.74 93.096C351.886 94.2662 355.499 92.7116 357.602 94.4612C359.705 96.214 359.57 100.44 362.877 100.764C364.314 100.904 366.533 99.9598 367.621 99.0344C368.123 98.6053 368.19 97.8894 368.783 97.5339C371.185 96.0812 372.616 97.4112 374.572 96.9249C375.373 96.7267 376.59 95.5792 377.268 95.6326" fill="#48638C"/>
<path d="M352.137 94.5873C351.391 95.0465 351.22 95.799 350.768 96.4331C350.138 97.3064 349.129 97.7826 348.438 98.5923C347.631 99.5448 347.393 100.706 346.317 101.447C345.492 102.017 343.297 102.304 342.099 103.046C340.369 104.117 338.895 106.093 336.939 106.699C335.49 107.147 334.17 106.94 332.721 107.16C330.013 107.573 327.286 108.077 324.67 108.631C321.857 109.226 318.666 111.435 315.854 109.734C314.833 109.114 313.018 104.709 312.235 103.433C311.324 101.946 307.693 101.008 307.65 99.1151C307.589 96.3029 312.327 97.2938 312.852 95.1233C313.556 92.2123 307.344 91.3906 309.46 88.4551C310.768 86.6388 313.121 88.0556 314.766 87.2661C315.915 86.7193 315.206 84.7074 316.722 84.1487C318.122 83.6322 319.247 85.2579 320.708 84.8294C321.533 84.5866 321.454 83.1037 322.145 82.9571C322.921 82.7936 323.979 83.2648 324.761 83.3309C326.051 83.4403 327.384 82.9842 328.637 83.2403C330.997 83.7209 333.186 84.5256 335.765 84.5482C337.447 84.5627 339.152 84.3368 340.797 84.72C341.946 84.9861 342.961 85.6291 344.135 85.8021C344.507 85.8575 346.837 86.2456 346.537 86.9068" fill="#48638C"/>
<path d="M339.767 120.04C338.495 121.986 335.976 120.537 334.35 121.483C333.708 121.858 333.458 122.697 332.724 123.008C331.899 123.358 330.896 122.933 330.175 123.302C329.508 123.641 329.258 124.391 328.414 124.651C326.849 125.13 325.7 125.091 324.239 126.047C323.609 126.456 323.48 127.598 322.894 128.139C322.093 128.886 321.121 129.116 320.54 130.148C318.895 133.077 321.763 132.876 321.915 133.92C322.074 135.036 320.632 135.708 320.729 136.824C320.803 137.674 321.848 137.906 322.203 138.551C322.435 138.977 322.337 139.646 322.802 139.898C325.253 141.237 326.721 138.598 328.854 138.698C329.575 138.732 331.287 138.31 331.263 139.496C331.226 141.868 327.436 141.312 326.121 141.66C323.609 142.325 324.342 144.471 322.79 145.704C321.732 146.544 320.069 146.131 318.987 146.992C317.324 148.309 318.614 149.865 318.052 150.721C317.483 151.592 316.077 151.747 316.071 153.043C316.065 154.047 318.523 154.866 317.612 156.258C317.526 156.39 317.171 156.206 317.11 156.191C315.79 155.875 316.047 153.858 314.427 153.88C312.978 153.9 312.959 155.514 310.587 155.006C307.726 154.391 308.57 152.977 307.311 151.296C305.458 148.816 301.258 150.483 300.555 146.278C300.403 145.362 301.937 144.544 301.631 143.835C301.081 142.53 298.33 141.875 298.85 140.296C300.458 135.407 306.18 138.884 308.68 136.327C309.719 135.272 308.063 134.558 308.05 133.604C308.044 132.958 308.925 132.754 309.01 132.095C309.108 131.299 307.28 131.12 306.785 131.007C304.682 130.524 305.104 130.3 303.514 129.304C302.487 128.66 300.977 129.048 299.883 128.398C299.07 127.914 298.196 127.158 297.957 126.188C297.584 124.698 299.589 124.53 299.901 123.385C300.402 121.507 298.581 119.73 299.577 117.799C300.806 115.406 303.991 116.72 305.911 116.795C307.726 116.866 308.98 115.568 310.82 115.655C312.904 115.753 314.39 116.992 316.585 116.318C318.834 115.629 316.523 114.05 317.416 112.997C317.917 112.403 319.103 112.598 319.66 111.87C320.363 110.954 319.299 110.357 319.702 109.5" fill="#48638C"/>
<path d="M322.886 106.967C320.379 109.033 321.413 107.995 321.358 110.85C321.345 111.427 320.985 112.498 321.541 112.975C322.984 114.227 325.784 114.485 327.538 115.086C329.922 115.902 332.123 117.175 334.52 117.997C336.311 118.612 338.872 120.706 340.566 118.74C341.886 117.198 341.098 113.623 339.832 112.327C338.885 111.357 337.509 110.831 336.488 109.957C334.018 107.853 331.353 106.742 328.07 106.188C326.297 105.888 324.378 105.738 322.886 106.967Z" fill="#48638C"/>
<path d="M334.343 82.6885C334.581 80.1506 329.526 79.0628 328.028 78.652C327.435 78.4903 326.121 78.6508 325.931 77.9021C325.338 75.5598 330.265 76.138 328.511 72.3582C327.417 69.9933 324.433 71.4296 322.972 70.2808C321.963 69.4831 323.308 67.5321 322.96 67.3069C322.129 66.7709 319.408 66.6986 320.062 64.7942C320.252 64.2431 320.826 63.8731 321.242 63.5214C321.242 63.5189 321.701 63.1685 321.664 63.1169C321.157 62.4859 320.533 64.8087 320.606 65.1446C320.869 66.3098 322.281 66.869 322.404 68.0946C322.495 68.9754 320.955 69.6775 321.267 70.5105C321.707 71.6806 325.283 71.904 325.295 74.323C325.301 74.9723 325.045 76.8188 324.36 77.1541C321.798 78.4142 320.197 77.5297 318.668 80.4124C318.314 81.0786 318.045 81.5643 318.308 82.2595C318.454 82.6571 317.91 82.9572 318.014 83.3208C318.393 84.6565 321.138 83.6058 321.621 84.4168C321.853 84.8119 321.633 85.6165 321.805 86.0701" fill="#48638C"/>
<path d="M375.78 66.8556C376.709 67.1488 371.953 66.933 371.354 67.3105C370.651 67.7522 368.921 71.2212 368.383 70.8877C366.861 69.9359 367.845 67.342 367.02 66.0441C365.968 64.3888 363.437 65.4823 361.945 64.6185C360.338 63.6867 360.081 61.8968 358.553 61.0085C355.905 59.474 352.971 62.3221 350.128 60.6763C348.288 59.6068 347.542 56.9386 345.751 55.9956C344.027 55.0884 341.851 55.3023 340.206 54.278C339.607 53.9018 339.827 53.262 339.601 52.7644C339.045 51.5275 336.801 51.5124 335.909 51.6193C334.875 51.7426 334.093 49.6344 333.182 49.6646C331.941 49.7068 333.854 54.2246 331.77 54.6423C330.804 54.8361 330.431 53.3985 329.465 53.4306C329.135 53.4419 328.823 54.4328 328.591 54.6259C328.511 54.6933 325.852 53.6816 325.675 53.5376C324.495 52.5781 323.694 49.4709 321.848 49.5331C319.824 49.6005 320.992 52.0088 320.289 52.3466C319.708 52.6259 319.531 51.7483 319.152 51.6892C318.418 51.5741 317.703 52.5385 316.872 52.3592C315.93 52.1573 315.869 51.0833 314.805 51.1192C313.411 51.1657 311.431 52.86 309.438 53.0984C305.501 53.5696 292.601 49.6061 290.535 53.7722C289.899 55.0519 291.678 56.0352 291.024 57.2337C290.431 58.3101 286.048 59.6873 286.237 60.4832C286.928 63.3898 292.033 60.4001 293.201 62.0296C294.558 63.927 287.766 64.7934 289.905 66.5386C290.853 67.3118 292.345 66.6392 293.39 66.6675C296.471 66.7506 300.035 66.1315 302.621 68.2403C304.437 69.7219 300.94 70.5002 301.949 72.0887C302.86 73.525 305.452 71.9717 306.522 73.3262C306.956 73.8824 305.366 74.8059 306.02 75.7163C306.913 76.9658 311.645 77.7685 311.877 78.1385C312.195 78.6323 311.223 79.1501 311.944 79.5685C312.953 80.1542 314.224 79.5339 315.288 79.7635C316.456 80.0139 316.878 81.5767 318.308 80.8897C319.726 80.2071 322.795 77.069 324.458 77.3288C325.363 77.4703 325.693 78.4291 326.414 78.8796C327.558 79.5943 329.129 79.4099 330.394 79.5446C331.69 79.683 333.598 81.7447 334.857 82.382C336.826 83.3842 338.342 81.9454 340.377 82.2178C344.327 82.7462 348.997 84.9513 352.916 84.0888C355.759 83.4641 358.18 82.8897 360.643 81.2325C361.163 80.879 361.175 79.946 361.597 79.4817C362.765 78.2045 365.082 76.6864 366.75 76.4864C367.454 76.4021 368.218 77.8283 368.64 78.2435C370.376 79.9648 374.27 81.1602 376.263 79.2162C378.464 77.0664 378.256 72.8733 377.779 70.0617C377.577 68.8399 377.229 68.1189 376.226 67.3721C375.927 67.1488 375.065 66.6279 375.78 66.8556Z" fill="#7396CD"/>
<path d="M375.01 64.0168C374.02 63.9325 373.06 64.3295 372.045 64.1464C370.455 63.8589 368.848 63.2203 367.362 62.5654C366.219 62.0615 364.336 60.215 363.333 59.9797C362.429 59.7664 361.499 60.1231 360.662 59.6915C359.586 59.1373 359.879 56.9913 358.706 56.6057C357.269 56.1307 356.615 56.6661 355.245 56.9567C353.558 57.3134 351.761 56.8724 350.116 56.5761C346.552 55.9319 346.876 51.5267 342.285 53.5462C341.979 53.6814 340.634 53.5462 340.567 53.8998C340.341 55.0813 345.232 55.3436 346.002 55.7513C348.68 57.1643 347.041 60.1716 348.967 61.2229C350.856 62.2534 353.497 61.7331 355.441 61.248C356.26 61.0423 357.238 60.6 358.07 60.9133C359.983 61.6293 359.739 63.8841 361.34 64.7604C363.223 65.7897 365.864 64.0672 367.478 65.7293C368.297 66.5749 368.615 71.0493 368.732 71.1134C369.392 71.4752 370.37 68.7045 370.902 68.3521C371.904 67.6941 372.754 68.098 373.781 68.1861C374.423 68.2408 374.973 67.6167 375.481 67.3594C376.214 66.9888 376.966 63.7375 376.074 63.9608" fill="#0F2B46"/>
<path d="M375.01 64.0168C374.02 63.9325 373.06 64.3295 372.045 64.1464C370.455 63.8589 368.848 63.2203 367.362 62.5654C366.219 62.0615 364.336 60.215 363.333 59.9797C362.429 59.7664 361.499 60.1231 360.662 59.6915C359.586 59.1373 359.879 56.9913 358.706 56.6057C357.269 56.1307 356.615 56.6661 355.245 56.9567C353.558 57.3134 351.761 56.8724 350.116 56.5761C346.552 55.9319 346.876 51.5267 342.285 53.5462C341.979 53.6814 340.634 53.5462 340.567 53.8998C340.341 55.0813 345.232 55.3436 346.002 55.7513C348.68 57.1643 347.041 60.1716 348.967 61.2229C350.856 62.2534 353.497 61.7331 355.441 61.248C356.26 61.0423 357.238 60.6 358.07 60.9133C359.983 61.6293 359.739 63.8841 361.34 64.7604C363.223 65.7897 365.864 64.0672 367.478 65.7293C368.297 66.5749 368.615 71.0493 368.732 71.1134C369.392 71.4752 370.37 68.7045 370.902 68.3521C371.904 67.6941 372.754 68.098 373.781 68.1861C374.423 68.2408 374.973 67.6167 375.481 67.3594C376.214 66.9888 376.966 63.7375 376.074 63.9608" stroke="#0F2B46" stroke-width="0.781212" stroke-miterlimit="10" stroke-linecap="round" stroke-linejoin="round"/>
<path d="M354.602 94.0581C355.58 93.2364 349.809 92.7205 348.745 92.3475C346.245 91.4692 345.462 87.4421 343.31 86.0788C341.916 85.1973 340.003 86.1845 338.658 85.8026C337.863 85.5755 337.148 85.0973 336.304 84.9904C335.014 84.8262 334.262 85.5157 332.814 85.0766C332.031 84.8381 331.23 84.6871 330.417 84.6098C330.368 84.6047 329.176 84.5041 329.219 84.5921C329.439 85.0533 331.157 85.2345 331.56 85.344C333.853 85.9605 336.261 86.1612 338.585 86.6142C339.618 86.8149 341.44 86.8275 342.344 87.3849C345.114 89.0936 346.336 92.7809 349.216 94.3468C349.491 94.4953 349.748 94.1889 350.01 94.2059C350.72 94.2518 351.148 95.064 351.875 94.9621C353.116 94.7897 353.513 94.9728 354.602 94.0581Z" fill="#0F2B46" stroke="#0F2B46" stroke-width="0.781212" stroke-miterlimit="10" stroke-linecap="round" stroke-linejoin="round"/>
<path d="M346.07 101.706C344.878 101.3 344.615 104.102 344.866 104.891C345.227 106.042 347.116 106.364 346.523 107.75C346.107 108.711 344.475 107.754 343.698 108.254C342.806 108.822 342.194 112.867 342.977 113.753C343.778 114.657 345.202 114.976 345.899 115.933C346.296 116.476 346.125 117.376 346.376 117.983C347.079 119.68 348.62 120.939 350.209 121.691C350.992 122.057 357.49 121.712 355.546 123.659C354.922 124.285 354.152 124.272 353.425 124.581C352.147 125.118 348.626 127.957 346.969 126.561C345.642 125.439 347.904 124.008 345.178 122.804C343.484 122.057 339.468 122.864 338.337 120.632C337.891 119.751 339.755 119.337 340 118.804C340.923 116.827 339.26 114.403 337.377 113.546C336.093 112.963 335.402 114.057 334.186 114.357C332.713 114.719 331.588 114.668 330.114 114.268C328.788 113.908 327.645 113.298 326.929 112.05C326.465 111.241 326.654 110.026 325.474 109.873C324.374 109.73 320.712 112.345 320.131 110.034C319.734 108.432 326.88 107.496 328.25 106.84C329.864 106.065 329.142 103.8 330.469 103.203C332.37 102.345 334.314 105.78 336.362 105.59C340.012 105.254 337.334 103.163 338.716 102.422C339.327 102.094 343.142 101.392 343.851 101.436C344.426 101.471 345.007 101.439 345.575 101.521C345.716 101.541 346.48 101.846 346.07 101.706Z" fill="#0F2B46" stroke="#0F2B46" stroke-width="0.781212" stroke-miterlimit="10" stroke-linecap="round" stroke-linejoin="round"/>
<path d="M376.584 199.296C376.584 194.48 371.064 198.011 370.355 193.631C370.098 192.052 372.452 192.67 372.672 191.543C372.965 190.051 369.676 189.387 370.208 187.742C370.685 186.276 373.809 185.985 374.701 184.759C376.499 182.29 373.717 182.617 373.399 180.659C373.253 179.756 374.494 179.376 374.121 178.349C373.283 176.043 366.913 177.717 367.384 172.832C367.433 172.36 368.582 165.71 368.686 165.601C369.505 164.758 373.185 164.754 373.399 163.662C373.791 161.625 369.835 161.633 370.789 158.369C371.59 155.632 373.674 154.76 375.062 152.853C375.184 152.688 375.386 152.329 375.282 152.108C374.738 150.991 370.416 154.095 369.774 154.642C368.979 155.327 368.57 156.525 367.891 157.326C366.534 158.922 365.152 159.444 363.471 160.308C362.945 160.578 362.548 161.656 362.169 162.097C361.063 163.375 358.471 163.728 356.881 163.364C353.274 162.54 355.273 160.738 354.203 159.413C353.207 158.184 351.079 157.501 351.52 155.462C351.85 153.933 355.432 151.839 354.203 150.318C353.017 148.856 351.611 153.683 349.924 153.971C348.206 154.266 344.954 153.415 343.48 152.406C343.224 152.232 341.115 150.565 341.017 150.617C340.888 150.683 340.919 151.4 340.943 151.511C341.053 151.955 342.49 152.463 342.9 152.704C344.086 153.4 345.889 155.691 346.085 157.102C346.335 158.873 342.881 160.85 341.524 161.65C340.748 162.104 338.376 162.587 337.465 162.32C336.676 162.088 336.034 160.576 335.075 160.904C334.017 161.268 333.931 163.136 332.758 163.588C330.807 164.342 329.157 163.46 327.256 163.215C325.782 163.026 324.144 163.711 322.762 163.141C319.596 161.836 320.054 159.385 318.055 157.326C317.493 156.751 317.107 156.159 316.606 155.537C316.563 155.482 316.325 155.026 316.245 155.09C315.915 155.341 315.983 156.198 315.665 156.58C314.992 157.387 313.831 157.356 313.201 158.518C310.578 163.38 315.885 161.114 317.694 163.439C318.697 164.73 317.468 167.865 317.908 168.135C319.871 169.346 323.343 168.816 324.933 170.223C326.106 171.256 324.193 173.436 325.874 174.397C327.641 175.406 329.622 174.466 330.587 176.783C331.248 178.367 329.524 178.211 328.631 178.87C327.824 179.463 328.246 180.955 327.763 181.256C326.143 182.253 323.63 181.121 322.402 182.896C320.513 185.619 324.884 186.066 325.226 188.189C325.391 189.197 323.936 189.42 323.557 190.201C322.921 191.517 324.443 193.945 325.299 194.824C325.752 195.292 327.042 196.294 327.69 196.389C328.325 196.482 329.536 195.63 330.007 196.017C331.37 197.137 329.719 198.689 330.367 199.52C331.492 200.963 332.36 200.018 333.559 200.787C336.713 202.819 336.108 205.736 341.304 204.589C344.471 203.891 345.052 199.007 348.983 199.743C350.872 200.096 349.172 202.339 350.725 203.024C352.033 203.601 353.598 203.212 354.925 203.844C355.713 204.217 356.257 205.769 357.028 205.857C358.299 206.002 359.51 205.211 360.794 205.708C363.251 206.657 360.745 208.416 361.448 209.136C362.945 210.684 367.414 209.99 368.185 210.777C370.025 212.673 370.942 215.002 372.525 217.337C373.1 218.177 376.199 221.79 377.239 221.362C382.52 219.186 382.117 208.099 380.21 203.993C379.091 201.598 376.963 200.016 376.15 197.507" fill="#48638C"/>
<path d="M375.637 229.226C375.093 227.534 373.901 226.494 373.265 224.96C372.263 222.562 371.7 219.978 370.557 217.623C370.093 216.679 369.145 216.048 368.784 215.064C368.32 213.785 368.222 212.339 367.678 211.083C367.354 210.326 366.761 209.754 366.522 208.921C365.893 206.765 365.489 204.25 364.419 202.267C362.946 199.534 360.488 197.183 358.728 194.645C357.42 192.76 357.933 189.678 356.295 187.991C355.824 187.507 354.87 187.443 354.308 187.081C352.645 186.011 351.306 184.568 349.772 183.441C349.191 183.011 348.451 182.831 348.005 182.189C347.522 181.495 346.538 180.872 346.183 180.141C345.248 178.221 346.813 175.362 346.403 173.259C346.299 172.723 345.266 170.116 346.183 169.847C347.241 169.536 347.063 171.612 347.063 172.065C347.063 174.128 346.654 177.366 347.455 179.288C348.402 181.565 350.524 181.897 352.425 182.986C354.369 184.097 356.594 185.547 358.061 187.308C359.492 189.021 360.684 191.953 361.546 194.019C361.674 194.335 362.39 196.175 362.928 195.953C363.777 195.604 363.405 191.932 363.313 191.346C363.032 189.466 362.329 187.6 362.487 185.659C362.604 184.18 363.325 182.706 363.203 181.222C363.093 179.885 362.432 178.62 362.432 177.241C362.432 175.531 362.922 174.18 363.588 172.634C363.649 172.494 363.704 172.128 363.814 172.236C363.894 172.318 363.667 172.584 363.643 172.634C363.184 173.744 362.708 175.346 362.708 176.559C362.708 178.556 364.016 180.781 364.199 182.872C364.383 184.928 363.643 186.896 363.643 188.957C363.643 190.12 364.285 191.017 364.419 192.143C364.872 195.872 364.908 196.756 366.797 199.992C367.201 200.684 366.999 201.69 367.183 202.437C367.568 204.025 368.118 205.848 368.674 207.385C369.402 209.378 371.187 210.725 371.939 212.789C372.587 214.581 372.532 216.89 373.596 218.534C374.213 219.49 375.313 220.178 376.029 221.093C376.591 221.823 376.64 222.859 377.52 223.311" fill="#0F2B46"/>
<path d="M375.637 229.226C375.093 227.534 373.901 226.494 373.265 224.96C372.263 222.562 371.7 219.978 370.557 217.623C370.093 216.679 369.145 216.048 368.784 215.064C368.32 213.785 368.222 212.339 367.678 211.083C367.354 210.326 366.761 209.754 366.522 208.921C365.893 206.765 365.489 204.25 364.419 202.267C362.946 199.534 360.488 197.183 358.728 194.645C357.42 192.76 357.933 189.678 356.295 187.991C355.824 187.507 354.87 187.443 354.308 187.081C352.645 186.011 351.306 184.568 349.772 183.441C349.191 183.011 348.451 182.831 348.005 182.189C347.522 181.495 346.538 180.872 346.183 180.141C345.248 178.221 346.813 175.362 346.403 173.259C346.299 172.723 345.266 170.116 346.183 169.847C347.241 169.536 347.063 171.612 347.063 172.065C347.063 174.128 346.654 177.366 347.455 179.288C348.402 181.565 350.524 181.897 352.425 182.986C354.369 184.097 356.594 185.547 358.061 187.308C359.492 189.021 360.684 191.953 361.546 194.019C361.674 194.335 362.39 196.175 362.928 195.953C363.777 195.604 363.405 191.932 363.313 191.346C363.032 189.466 362.329 187.6 362.487 185.659C362.604 184.18 363.325 182.706 363.203 181.222C363.093 179.885 362.432 178.62 362.432 177.241C362.432 175.531 362.922 174.18 363.588 172.634C363.649 172.494 363.704 172.128 363.814 172.236C363.894 172.318 363.667 172.584 363.643 172.634C363.184 173.744 362.708 175.346 362.708 176.559C362.708 178.556 364.016 180.781 364.199 182.872C364.383 184.928 363.643 186.896 363.643 188.957C363.643 190.12 364.285 191.017 364.419 192.143C364.872 195.872 364.908 196.756 366.797 199.992C367.201 200.684 366.999 201.69 367.183 202.437C367.568 204.025 368.118 205.848 368.674 207.385C369.402 209.378 371.187 210.725 371.939 212.789C372.587 214.581 372.532 216.89 373.596 218.534C374.213 219.49 375.313 220.178 376.029 221.093C376.591 221.823 376.64 222.859 377.52 223.311" stroke="#0F2B46" stroke-width="0.781212" stroke-miterlimit="10" stroke-linecap="round" stroke-linejoin="round"/>
<path d="M376.621 63.8693C375.184 63.2999 373.644 65.0319 372.048 65.0319C370.569 65.0319 362.566 61.3647 361.295 60.3827C360.286 59.6063 359.143 57.6894 357.957 57.2829C355.842 56.5557 354.497 58.6997 352.687 58.3902C350.235 57.9693 348.939 55.7868 346.879 54.5154C344.88 53.281 342.71 53.5465 340.962 51.7485C338.516 49.2313 341.756 49.4383 341.5 47.8743C341.316 46.7154 339.892 46.1165 339.568 45.1067C339.262 44.1649 340.21 43.8774 340.21 43.225C340.21 42.5216 339.464 41.934 339.354 41.2325C339.299 40.9249 341.188 37.3477 341.5 37.0262C342.71 35.7799 345.057 36.0837 346.665 35.8082C348.163 35.5509 347.674 34.3486 348.707 33.8157C349.673 33.3206 350.706 33.6282 351.611 32.9299C352.864 31.9629 352.192 31.1319 352.363 30.0523C352.491 29.2665 353.849 29.3376 354.087 28.7235C354.356 28.0353 353.145 27.5301 353.549 26.8418C354.613 25.0217 357.303 25.2325 358.819 24.2957C359.448 23.9094 358.586 23.4395 358.929 22.9676C359.626 22.0069 361.496 21.9792 362.371 21.3073C363.752 20.2422 361.264 19.4118 362.371 17.9862C363.233 16.877 366.564 17.7685 366.992 16.8795C367.335 16.1787 365.837 13.754 366.136 12.6732C366.234 12.302 366.448 12.273 366.778 12.2302C369.584 11.8691 372.182 10.3592 374.848 10.0163C378.485 9.54888 382.918 15.8559 383.236 18.7612C383.511 21.2495 383.034 23.827 383.559 26.2888C384.079 28.7317 385.222 30.648 384.959 33.2621C384.733 35.4716 383.884 37.5785 383.67 39.7931C383.303 43.5546 383.229 46.0057 381.518 49.5345C379.94 52.7765 379.39 56.4254 378.29 59.829C377.947 60.8916 377.874 62.1361 377.104 62.9288C376.902 63.137 377.293 64.1354 376.621 63.8693Z" fill="#7396CD"/>
<path d="M376.016 94.5852C373.332 94.6997 369.346 95.41 367.164 96.9822C365.751 97.9976 364.792 99.8328 362.878 99.8768C361.032 99.919 360.567 96.4732 359.766 95.3018C359.057 94.2549 355.408 92.4374 354.209 92.3965C349.771 92.2442 347.986 98.119 345.321 100.688C344.887 101.102 343.713 101.831 343.603 102.491C343.315 104.141 345.467 105.31 344.923 106.741C344.624 107.531 343.273 107.22 342.692 107.782C341.934 108.51 341.86 111.16 341.824 112.19C341.708 115.924 344.801 116.707 346.47 119.16C347.032 119.989 347.02 121.304 348.194 121.701C349.117 122.013 354.65 121.917 353.292 123.52C352.754 124.16 351.312 124.894 350.529 125.133C346.684 126.307 348.224 121.966 345.522 120.881C344.465 120.454 343.236 121.213 342.178 120.828C340.797 120.324 339.146 119.274 337.838 119.035C336.01 118.703 333.442 121.379 331.902 122.074C331.29 122.352 327.775 122.943 328.032 123.82C328.105 124.068 328.497 124.017 328.747 124.061C331.345 124.535 334.702 123.246 337.257 124.275C338.981 124.969 339.256 127.282 340.809 128.151C343.187 129.477 345.962 131.337 348.567 132.125C351.422 132.989 355.829 131.852 358.049 129.843C358.617 129.33 359.131 127.365 359.809 127.157C360.384 126.982 360.916 129.525 362.42 128.968C364.205 128.31 364.663 125.776 366.259 124.88C367.298 124.297 368.753 124.554 369.909 124.431C372.384 124.167 375.349 122.933 377.263 121.315C379.543 119.392 379.769 109.618 379.837 106.973C379.879 105.389 380.711 103.705 380.008 102.216C379.403 100.941 378.645 97.3867 377.728 96.5682C377.294 96.1775 376.297 95.8636 376.199 95.3987C376.163 95.2256 376.352 94.5714 376.016 94.5852Z" fill="#7396CD"/>
<path d="M376.152 180.547C376.298 180.318 374.642 181.731 373.969 182.24C372.148 183.616 369.818 183.861 368.889 186.198C367.831 188.849 369.788 189.168 369.665 190.844C369.617 191.451 368.907 191.811 368.767 192.422C367.893 196.172 371.451 199.502 374.911 199.706C377.625 199.867 377.558 196.711 377.692 194.585C377.882 191.555 377.876 188.536 377.203 185.555C376.879 184.103 375.4 181.747 376.152 180.547Z" fill="#7396CD"/>
<path d="M317.214 150.504C315.955 150.504 315.6 151.972 315.753 152.941C315.863 153.62 316.364 154.272 316.664 154.892C316.982 155.541 316.939 156.434 317.214 157.142C317.679 158.334 319.311 161.295 320.13 162.279C320.809 163.094 322.313 164.567 323.59 163.817C324.666 163.184 324.092 161.529 323.774 160.629C323.04 158.589 321.83 157.191 320.564 155.492C320.222 155.028 319.666 154.678 319.543 154.067C319.293 152.758 319.983 151.508 319.763 150.166C319.678 149.641 318.284 147.37 318.596 148.666" fill="#7396CD"/>
<path d="M377.177 260.402C377.324 260.428 375.991 259.728 375.637 259.53C374.591 258.948 372.941 258.327 371.755 258.457C370.465 258.6 363.85 260.947 363.691 260.848C362.359 260.021 362.414 256.08 361.466 254.741C359.387 251.803 356.777 249.539 353.733 247.974C352.467 247.323 351.746 248.138 350.547 247.585C348.603 246.687 345.467 244.186 343.138 244.779C340.839 245.363 339.886 246.559 338.174 247.842C335.319 249.976 331.969 249.003 330.037 252.988C329.34 254.417 327.849 259.382 326.473 259.891C325.269 260.339 324.774 258.329 323.215 258.244C318.568 257.989 313.079 260.113 309.111 262.276C306.464 263.72 304.171 272.122 301.916 272.815C301.696 272.883 300.088 271.723 299.709 271.655C297.166 271.196 292.947 273.082 290.93 274.437C285.929 277.796 285.055 284.203 282.61 289.252C282.182 290.129 278.752 293.571 279.143 294.331C280.568 297.097 284.774 294.015 286.51 293.264C290.459 291.563 294.084 288.953 298.633 289.84C300.669 290.237 302.386 292.552 304.41 292.593C306.421 292.634 308.469 290.397 310.26 290.583C314.943 291.069 312.51 299.659 316.044 299.357C319.21 299.088 322.145 297.616 325.397 297.682C327.39 297.722 330.123 299.294 331.957 298.829C336.138 297.763 338.669 291.978 342.411 289.937C345.253 288.385 347.998 293.737 352.149 291.473C355.554 289.616 358.801 284.712 360.58 281.324C361.283 279.984 362.01 277.306 363.465 276.678C365.855 275.65 372.024 282.505 376.957 281.25C382.392 279.866 379.959 268.598 379.58 265.408C379.427 264.108 378.901 262.485 377.819 261.764C377.508 261.556 376.487 260.279 377.177 260.402Z" fill="#7396CD"/>
<path d="M376.377 280.949C372.678 277.669 368.545 274.84 363.526 275.14C358.275 275.454 356.618 285.357 352.901 288.239C350.554 290.062 347.24 287.95 344.587 288.62C341.983 289.28 338.669 290.095 336.468 291.799C334.035 293.69 332.642 295.636 329.353 296.11C326.919 296.46 324.706 295.622 322.298 295.686C319.259 295.767 317.407 297.927 314.711 294.985C313.244 293.39 314.246 290.038 311.52 288.791C308.414 287.373 306.342 290.152 303.64 290.224C300.259 290.314 298.853 286.97 295.423 287.061C291.089 287.177 287.83 291.28 283.838 291.716C282.041 291.913 280.287 286.694 278.281 285.971C270.291 283.094 270.047 286.447 263.866 290.218C261.72 291.529 259.22 293.308 257.771 295.469C256.493 297.383 258.046 299.359 257.196 301.119C257.19 301.129 250.521 305.432 249.591 306.151C247.935 307.439 245.868 306.688 244.108 306.941C240.66 307.437 237.89 311.967 234.944 312.144C233.99 312.2 233.159 312.853 232.309 313.148C231.875 313.297 230.695 313.493 231.074 313.76C232.474 314.756 236.014 312.916 237.53 312.912C244.823 312.893 252.141 311.333 259.483 311.138C264.056 311.016 268.824 312.232 273.397 311.959C276.722 311.76 280.708 309.613 283.851 308.525C292.293 305.606 301.372 306.018 309.973 304.386C312.486 303.908 315.445 302.52 317.933 302.371C319.699 302.265 321.564 301.552 323.416 301.581C326.54 301.629 329.933 302.634 332.996 301.777C336.212 300.878 338.669 297.321 342.026 296.16C345.975 294.793 350.914 296.042 355.071 294.879C360.372 293.396 362.805 289.605 367.622 287.397C369.627 286.477 372.403 287.635 374.267 286.576C376.456 285.333 377.954 282.349 376.377 280.949Z" fill="#48638C"/>
<path d="M377.52 285.957C373.632 284.81 369.805 284.053 365.972 285.378C362.658 286.524 360.561 290.841 357.352 292.24C352.027 294.566 345.932 292.548 340.406 293.947C338.688 294.381 334.598 299.667 332.703 301.139C330.814 302.602 325.489 299.367 323.52 299.419C316.178 299.614 311.826 305.01 305.217 306.861C303.725 307.278 300.302 305.163 298.566 304.912C294.103 304.269 287.103 305.171 282.909 307.003C281.289 307.708 279.492 309.9 277.695 310.007C274.338 310.208 270.89 309.529 267.546 309.73C263.799 309.954 259.917 310.313 256.2 311.255C255.069 311.54 254.128 312.494 252.948 312.565C252.281 312.605 250.368 312.619 250.979 312.875C253.583 313.959 256.726 312.992 259.403 313.102C265.064 313.333 270.732 312.888 276.331 312.974C290.502 313.192 304.777 310.006 318.948 310.425C325.238 310.61 331.608 311.053 337.917 310.79C344.563 310.512 351.067 311.475 357.615 311.458C359.962 311.451 363.361 312.623 365.501 311.409C368.289 309.826 365.507 306.184 366.779 304.871C368.759 302.816 372.513 305.599 374.439 303.604C374.995 303.029 378.394 291.494 378.308 290.717C378.119 288.857 379.605 286.572 377.52 285.957Z" fill="#0F2B46"/>
<path d="M375.948 301.339C376.064 300.589 374.652 302.511 373.576 302.513C371.51 302.516 364.84 301.271 364.418 305.139C364.302 306.204 365.677 306.946 365.366 308.068C365.06 309.181 362.584 310.651 363.452 311.606C364.455 312.704 375.66 312.823 376.162 311.824C377.922 308.293 375.52 304.199 375.948 301.339Z" fill="#7396CD"/>
<path d="M313.388 302.515C310.839 302.634 308.272 303.633 305.667 303.754C303.919 303.835 302.134 303.666 300.41 304.145C298.49 304.678 298.062 305.097 295.904 304.758C295.709 304.726 293.612 304.814 293.63 304.936C293.654 305.057 293.813 305.109 293.93 305.143C295.684 305.656 297.665 305.391 299.45 305.914C303.136 306.992 307.935 307.991 311.646 305.862C312.795 305.203 312.698 303.732 313.884 303.264C314.88 302.87 318.114 302.756 318.261 301.409C318.322 300.858 316.928 301.045 316.604 301.046C314.14 301.05 312.337 302.085 310.809 303.81" fill="#7396CD"/>
<path d="M231.517 313.593C238.877 311.77 247.13 309.567 254.705 310.187C257.346 310.403 253.366 312.104 256.875 312.509C261.338 313.023 266.644 312.334 271.144 311.737C276.297 311.054 281.512 311.902 286.696 311.824C295.267 311.694 303.844 310.552 312.329 310.158C314.75 310.046 317.446 309.195 319.898 309.477C327.264 310.327 334.967 310.303 342.383 310.747C346.858 311.015 351.62 309.894 356.058 310.406C359.989 310.859 364.415 311.193 368.426 311.007C369.214 310.971 376.471 310.424 376.471 311.552C376.477 314.847 370.229 313.235 368.132 313.333C359.396 313.738 350.52 314.107 341.765 313.821C334.484 313.583 327.246 314.94 319.996 315.051C309.725 315.206 299.363 314.319 289.08 314.209C283.431 314.148 277.819 315.147 272.171 314.809C268.264 314.576 264.352 313.615 260.378 313.411C256.526 313.213 252.687 314.257 248.818 314.13C244.984 314.005 240.638 313.895 236.921 314.388C236.138 314.492 235.521 315.003 234.659 314.933C233.601 314.846 230.563 313.829 231.517 313.593Z" fill="#7396CD"/>
</g>
<defs>
<clipPath id="clip0_23_11197">
<rect width="375" height="311" fill="white"/>
</clipPath>
</defs>
</svg>
