<svg width="613" height="663" viewBox="0 0 613 663" fill="none" xmlns="http://www.w3.org/2000/svg">
<path d="M555.124 277.874L599.012 289.879" stroke="#0F2B46" stroke-miterlimit="10" stroke-linejoin="round"/>
<path d="M555.124 281.684L599.012 293.48" stroke="#0F2B46" stroke-miterlimit="10" stroke-linejoin="round"/>
<path d="M552.601 287.582L592.905 298.509" stroke="#0F2B46" stroke-miterlimit="10" stroke-linejoin="round"/>
<path d="M149.017 387.055L148.453 572.162" stroke="#0F2B46" stroke-miterlimit="10" stroke-linejoin="round"/>
<path d="M148.967 359.956L8.57227 376.677V384.426L144.702 380.176" stroke="#0F2B46" stroke-miterlimit="10" stroke-linejoin="round"/>
<path d="M8.57227 384.426H5.85059V389.683L144.901 385.134" stroke="#0F2B46" stroke-miterlimit="10" stroke-linejoin="round"/>
<path d="M8.57227 389.683V393.987L148.967 389.683" stroke="#0F2B46" stroke-miterlimit="10" stroke-linejoin="round"/>
<path d="M8.57227 389.683V393.987L148.967 389.683" stroke="#0F2B46" stroke-miterlimit="10" stroke-linejoin="round"/>
<path d="M14.3564 393.987V591.462" stroke="#0F2B46" stroke-miterlimit="10" stroke-linejoin="round"/>
<path d="M147.938 308.238L148.967 378.651" stroke="#0F2B46" stroke-miterlimit="10" stroke-linejoin="round"/>
<path d="M147.938 308.238L141.59 301.629V294.833L555.123 277.874V281.668H552.368V574.47" stroke="#0F2B46" stroke-miterlimit="10" stroke-linejoin="round"/>
<path d="M552.601 293.046L591.063 303.689" stroke="#0F2B46" stroke-miterlimit="10" stroke-linejoin="round"/>
<path d="M147.938 308.238L228.952 305.196M254.842 304.225L294.614 302.732M321.376 301.767L358.966 300.302M385.752 299.383L421.367 297.958M448.128 297.34L552.602 293.046" stroke="#0F2B46" stroke-miterlimit="10" stroke-linejoin="round"/>
<path d="M144.901 387.054V378.637L541.374 368.439L552.393 368.156V374.871L144.901 387.054Z" stroke="#0F2B46" stroke-miterlimit="10" stroke-linejoin="round"/>
<path d="M552.601 287.582L453.364 291.131M416.537 292.171L390.623 293.202M353.837 294.361L326.587 295.357M289.594 296.57L260.517 297.564M223.301 298.836L141.59 301.628" stroke="#0F2B46" stroke-miterlimit="10" stroke-linejoin="round"/>
<path d="M552.601 281.684L453.406 285.884M415.177 287.326L390.606 288.393M353.456 289.836L327.076 290.991M288.648 292.49L260.825 293.6M222.488 295.198L141.59 298.51" stroke="#0F2B46" stroke-miterlimit="10" stroke-linejoin="round"/>
<path d="M178.201 386.37V572.169" stroke="#0F2B46" stroke-miterlimit="10" stroke-linejoin="round"/>
<path d="M178.234 377.619L178.168 330.616" stroke="#0F2B46" stroke-miterlimit="10" stroke-linejoin="round"/>
<path d="M148.453 331.37L148.826 331.357M177.496 330.357L229.234 328.553M448.411 321.018L525.807 317.272C525.807 317.272 525.807 338.998 525.807 369.178M525.807 375.124C525.807 444.102 525.807 550.181 525.807 550.181M552.194 317.287L552.601 317.272" stroke="#0F2B46" stroke-miterlimit="10" stroke-linejoin="round"/>
<path d="M222.496 291.751L223.284 299.404L228.62 305.035L229.466 376.239" stroke="#0F2B46" stroke-miterlimit="10" stroke-linejoin="round"/>
<path d="M260.825 290.097V297.749L255.481 303.689V376.239" stroke="#0F2B46" stroke-miterlimit="10" stroke-linejoin="round"/>
<path d="M327.076 287.546V295.199L321.741 301.138V373.689" stroke="#0F2B46" stroke-miterlimit="10" stroke-linejoin="round"/>
<path d="M288.748 289.2L289.536 296.854L294.88 302.485L295.726 374.401" stroke="#0F2B46" stroke-miterlimit="10" stroke-linejoin="round"/>
<path d="M391.096 285.022V292.964L385.752 298.903V372.191" stroke="#0F2B46" stroke-miterlimit="10" stroke-linejoin="round"/>
<path d="M352.767 286.424L353.547 294.619L358.891 300.25L359.737 372.942" stroke="#0F2B46" stroke-miterlimit="10" stroke-linejoin="round"/>
<path d="M415.177 283.877L416.272 292.677L421.616 298.308L422.462 371.298" stroke="#0F2B46" stroke-miterlimit="10" stroke-linejoin="round"/>
<path d="M453.821 282.533V291.021L448.477 296.96V370.673" stroke="#0F2B46" stroke-miterlimit="10" stroke-linejoin="round"/>
<path d="M225.981 376.238V384.425" stroke="#0F2B46" stroke-miterlimit="10" stroke-linejoin="round"/>
<path d="M258.153 375.587V383.774" stroke="#0F2B46" stroke-miterlimit="10" stroke-linejoin="round"/>
<path d="M324.413 374.401V381.838" stroke="#0F2B46" stroke-miterlimit="10" stroke-linejoin="round"/>
<path d="M292.233 375.053V383.239" stroke="#0F2B46" stroke-miterlimit="10" stroke-linejoin="round"/>
<path d="M356.252 373.65V380.435" stroke="#0F2B46" stroke-miterlimit="10" stroke-linejoin="round"/>
<path d="M388.424 372.998V380.435" stroke="#0F2B46" stroke-miterlimit="10" stroke-linejoin="round"/>
<path d="M451.149 371.335V378.119" stroke="#0F2B46" stroke-miterlimit="10" stroke-linejoin="round"/>
<path d="M418.978 371.986V378.77" stroke="#0F2B46" stroke-miterlimit="10" stroke-linejoin="round"/>
<path d="M229.466 384.426V572.507" stroke="#0F2B46" stroke-miterlimit="10" stroke-linejoin="round"/>
<path d="M255.481 383.774V572.336" stroke="#0F2B46" stroke-miterlimit="10" stroke-linejoin="round"/>
<path d="M321.741 381.838V572.944" stroke="#0F2B46" stroke-miterlimit="10" stroke-linejoin="round"/>
<path d="M295.727 382.488V572.611" stroke="#0F2B46" stroke-miterlimit="10" stroke-linejoin="round"/>
<path d="M359.738 381.098V573.595" stroke="#0F2B46" stroke-miterlimit="10" stroke-linejoin="round"/>
<path d="M385.752 380.436V572.932" stroke="#0F2B46" stroke-miterlimit="10" stroke-linejoin="round"/>
<path d="M448.477 377.62V573.596" stroke="#0F2B46" stroke-miterlimit="10" stroke-linejoin="round"/>
<path d="M422.462 379.313V572.944" stroke="#0F2B46" stroke-miterlimit="10" stroke-linejoin="round"/>
<path d="M14.3564 463.2L148.71 459.574" stroke="#0F2B46" stroke-miterlimit="10" stroke-linejoin="round"/>
<path d="M14.3564 492.725L148.452 489.1" stroke="#0F2B46" stroke-miterlimit="10" stroke-linejoin="round"/>
<path d="M100.05 410.573L113.061 410.042L132.769 409.238V456.169L95.9424 457.51V454.828L100.622 454.731L100.05 410.573Z" stroke="#0F2B46" stroke-miterlimit="10" stroke-linejoin="round"/>
<path d="M48.9678 411.867L61.9709 411.336L81.6787 410.532V457.463L44.8604 458.804V456.163L48.9845 455.935L48.9678 411.867Z" stroke="#0F2B46" stroke-miterlimit="10" stroke-linejoin="round"/>
<path d="M48.9844 415.087L81.1476 413.723" stroke="#0F2B46" stroke-miterlimit="10" stroke-linejoin="round"/>
<path d="M66.1939 414.405L66.1855 455.117" stroke="#0F2B46" stroke-miterlimit="10" stroke-linejoin="round"/>
<path d="M53.3896 426.74H78.1594" stroke="#0F2B46" stroke-miterlimit="10" stroke-linejoin="round"/>
<path d="M53.3896 415.087V455.322" stroke="#0F2B46" stroke-miterlimit="10" stroke-linejoin="round"/>
<path d="M78.8905 414.405L78.5254 454.482" stroke="#0F2B46" stroke-miterlimit="10" stroke-linejoin="round"/>
<path d="M48.9844 455.935C50.1544 455.935 53.3906 455.807 53.3906 455.807L81.6289 454.481" stroke="#0F2B46" stroke-miterlimit="10" stroke-linejoin="round"/>
<path d="M100.623 413.883L132.786 412.52" stroke="#0F2B46" stroke-miterlimit="10" stroke-linejoin="round"/>
<path d="M117.833 413.201L117.824 453.913" stroke="#0F2B46" stroke-miterlimit="10" stroke-linejoin="round"/>
<path d="M105.029 425.537H129.799" stroke="#0F2B46" stroke-miterlimit="10" stroke-linejoin="round"/>
<path d="M105.029 413.883V454.118" stroke="#0F2B46" stroke-miterlimit="10" stroke-linejoin="round"/>
<path d="M129.865 412.804L129.5 452.881" stroke="#0F2B46" stroke-miterlimit="10" stroke-linejoin="round"/>
<path d="M100.623 454.731C101.793 454.731 105.029 454.603 105.029 454.603L133.267 453.277" stroke="#0F2B46" stroke-miterlimit="10" stroke-linejoin="round"/>
<path d="M101.178 496.981L114.181 496.45L133.889 495.646V542.578L97.0703 543.919V541.236L101.751 541.139L101.178 496.981Z" stroke="#0F2B46" stroke-miterlimit="10" stroke-linejoin="round"/>
<path d="M50.0875 498.275L63.0989 497.744L82.8067 496.94V543.871L45.9883 545.212V542.57L50.1124 542.343L50.0875 498.275Z" stroke="#0F2B46" stroke-miterlimit="10" stroke-linejoin="round"/>
<path d="M50.1123 501.495L82.2756 500.131" stroke="#0F2B46" stroke-miterlimit="10" stroke-linejoin="round"/>
<path d="M67.3228 500.812L67.3145 541.524" stroke="#0F2B46" stroke-miterlimit="10" stroke-linejoin="round"/>
<path d="M54.5186 513.148H79.28" stroke="#0F2B46" stroke-miterlimit="10" stroke-linejoin="round"/>
<path d="M54.5186 501.495V541.73" stroke="#0F2B46" stroke-miterlimit="10" stroke-linejoin="round"/>
<path d="M80.0185 500.812L79.6533 540.89" stroke="#0F2B46" stroke-miterlimit="10" stroke-linejoin="round"/>
<path d="M50.1123 542.343C51.2823 542.343 54.5185 542.214 54.5185 542.214L82.7485 540.89" stroke="#0F2B46" stroke-miterlimit="10" stroke-linejoin="round"/>
<path d="M101.751 500.291L133.914 498.927" stroke="#0F2B46" stroke-miterlimit="10" stroke-linejoin="round"/>
<path d="M118.961 499.609L118.953 540.321" stroke="#0F2B46" stroke-miterlimit="10" stroke-linejoin="round"/>
<path d="M106.157 511.945H130.919" stroke="#0F2B46" stroke-miterlimit="10" stroke-linejoin="round"/>
<path d="M106.157 500.291V540.526" stroke="#0F2B46" stroke-miterlimit="10" stroke-linejoin="round"/>
<path d="M130.985 499.213L130.62 539.289" stroke="#0F2B46" stroke-miterlimit="10" stroke-linejoin="round"/>
<path d="M101.751 541.139C102.921 541.139 106.157 541.01 106.157 541.01L134.387 539.686" stroke="#0F2B46" stroke-miterlimit="10" stroke-linejoin="round"/>
<path d="M14.3975 550.181L148.453 546.267" stroke="#0F2B46" stroke-miterlimit="10" stroke-linejoin="round"/>
<path d="M14.3975 589.488L117.169 586.85" stroke="#0F2B46" stroke-miterlimit="10" stroke-linejoin="round"/>
<path d="M130.62 579.996L130.919 571.505L606.696 574.47" stroke="#0F2B46" stroke-miterlimit="10" stroke-linejoin="round"/>
<path d="M117.41 588.767V579.996L606.762 582.907" stroke="#0F2B46" stroke-miterlimit="10" stroke-linejoin="round"/>
<path d="M105.917 596.672V588.767L606.762 591.461" stroke="#0F2B46" stroke-miterlimit="10" stroke-linejoin="round"/>
<path d="M93.2456 605.303L93.2041 596.672L606.762 599.049" stroke="#0F2B46" stroke-miterlimit="10" stroke-linejoin="round"/>
<path d="M93.4775 604.54L606.762 610.696" stroke="#0F2B46" stroke-miterlimit="10" stroke-linejoin="round"/>
<path d="M255.63 327.528C261.995 321.152 277.496 321.983 285.694 323.155C286.997 323.341 294.449 324.972 294.938 325.948" stroke="#0F2B46" stroke-miterlimit="10" stroke-linecap="round" stroke-linejoin="round"/>
<path d="M185.869 505.543C192.242 493.913 207.742 495.43 215.932 497.567C217.235 497.906 224.695 500.881 225.185 502.66" stroke="#0F2B46" stroke-miterlimit="10" stroke-linecap="round" stroke-linejoin="round"/>
<path d="M321.724 326.45C328.097 320.073 343.598 320.905 351.788 322.076C353.091 322.262 358.584 323.248 359.074 324.224" stroke="#0F2B46" stroke-miterlimit="10" stroke-linecap="round" stroke-linejoin="round"/>
<path d="M385.827 323.857C392.191 317.48 407.086 318.679 415.285 319.851C416.588 320.037 421.376 320.655 421.865 321.63" stroke="#0F2B46" stroke-miterlimit="10" stroke-linecap="round" stroke-linejoin="round"/>
<path d="M262.825 338.186L287.735 337.373V372.464L262.941 372.998L262.825 338.186Z" stroke="#0F2B46" stroke-miterlimit="10" stroke-linejoin="round"/>
<path d="M262.949 402.955H288.748V449.254L262.949 449.458V402.955Z" stroke="#0F2B46" stroke-miterlimit="10" stroke-linejoin="round"/>
<path d="M259.406 503.678H292.233V572.336L259.406 572.162V503.678Z" stroke="#0F2B46" stroke-miterlimit="10" stroke-linejoin="round"/>
<path d="M193.071 503.511H225.907V572.169L193.071 571.995V503.511Z" stroke="#0F2B46" stroke-miterlimit="10" stroke-linejoin="round"/>
<path d="M324.413 503.953H357.24V572.611L324.413 572.437V503.953Z" stroke="#0F2B46" stroke-miterlimit="10" stroke-linejoin="round"/>
<path d="M387.428 503.953H420.264V572.611L387.428 572.437V503.953Z" stroke="#0F2B46" stroke-miterlimit="10" stroke-linejoin="round"/>
<path d="M451.149 504.937H483.976V573.595L451.149 573.42V504.937Z" stroke="#0F2B46" stroke-miterlimit="10" stroke-linejoin="round"/>
<path d="M193.071 403.488H218.878V449.787L193.071 449.992V403.488Z" stroke="#0F2B46" stroke-miterlimit="10" stroke-linejoin="round"/>
<path d="M327.948 402.285H353.746V448.583L327.948 448.788V402.285Z" stroke="#0F2B46" stroke-miterlimit="10" stroke-linejoin="round"/>
<path d="M327.948 335.862L352.85 335.049V370.14L328.056 370.674L327.948 335.862Z" stroke="#0F2B46" stroke-miterlimit="10" stroke-linejoin="round"/>
<path d="M391.386 333.98L416.297 333.168V368.259L391.502 368.793L391.386 333.98Z" stroke="#0F2B46" stroke-miterlimit="10" stroke-linejoin="round"/>
<path d="M459.057 330.496L483.968 329.684V364.775L459.173 365.309L459.057 330.496Z" stroke="#0F2B46" stroke-miterlimit="10" stroke-linejoin="round"/>
<path d="M193.071 339.915L217.982 339.103V374.193L193.187 374.728L193.071 339.915Z" stroke="#0F2B46" stroke-miterlimit="10" stroke-linejoin="round"/>
<path d="M391.386 401.346H416.297V448.583L391.386 448.787V401.346Z" stroke="#0F2B46" stroke-miterlimit="10" stroke-linejoin="round"/>
<path d="M459.057 400.407H483.968V447.645L459.057 447.849V400.407Z" stroke="#0F2B46" stroke-miterlimit="10" stroke-linejoin="round"/>
<path d="M193.071 346.821L217.982 346.147" stroke="#0F2B46" stroke-miterlimit="10" stroke-linejoin="round"/>
<path d="M262.949 344.118L287.86 343.443" stroke="#0F2B46" stroke-miterlimit="10" stroke-linejoin="round"/>
<path d="M327.856 341.949L352.767 341.275" stroke="#0F2B46" stroke-miterlimit="10" stroke-linejoin="round"/>
<path d="M391.386 339.776L416.297 339.103" stroke="#0F2B46" stroke-miterlimit="10" stroke-linejoin="round"/>
<path d="M459.057 337.373L483.968 336.699" stroke="#0F2B46" stroke-miterlimit="10" stroke-linejoin="round"/>
<path d="M205.975 449.458V403.488" stroke="#0F2B46" stroke-miterlimit="10" stroke-linejoin="round"/>
<path d="M205.975 374.727V345.865" stroke="#0F2B46" stroke-miterlimit="10" stroke-linejoin="round"/>
<path d="M276.292 372.642V343.781" stroke="#0F2B46" stroke-miterlimit="10" stroke-linejoin="round"/>
<path d="M341.341 370.81V341.949" stroke="#0F2B46" stroke-miterlimit="10" stroke-linejoin="round"/>
<path d="M403.842 368.548V339.688" stroke="#0F2B46" stroke-miterlimit="10" stroke-linejoin="round"/>
<path d="M471.512 365.411V336.55" stroke="#0F2B46" stroke-miterlimit="10" stroke-linejoin="round"/>
<path d="M193.519 420.19H218.43" stroke="#0F2B46" stroke-miterlimit="10" stroke-linejoin="round"/>
<path d="M276.292 449.458V402.552" stroke="#0F2B46" stroke-miterlimit="10" stroke-linejoin="round"/>
<path d="M276.292 572.611V503.953" stroke="#0F2B46" stroke-miterlimit="10" stroke-linejoin="round"/>
<path d="M205.526 572.611V503.953" stroke="#0F2B46" stroke-miterlimit="10" stroke-linejoin="round"/>
<path d="M341.341 572.507V503.849" stroke="#0F2B46" stroke-miterlimit="10" stroke-linejoin="round"/>
<path d="M403.842 572.169V503.511" stroke="#0F2B46" stroke-miterlimit="10" stroke-linejoin="round"/>
<path d="M471.57 573.595V504.937" stroke="#0F2B46" stroke-miterlimit="10" stroke-linejoin="round"/>
<path d="M262.949 419.253H288.748" stroke="#0F2B46" stroke-miterlimit="10" stroke-linejoin="round"/>
<path d="M341.341 448.332L341.291 402.119" stroke="#0F2B46" stroke-miterlimit="10" stroke-linejoin="round"/>
<path d="M328.271 418.037L353.747 418.047" stroke="#0F2B46" stroke-miterlimit="10" stroke-linejoin="round"/>
<path d="M403.842 448.332V401.346" stroke="#0F2B46" stroke-miterlimit="10" stroke-linejoin="round"/>
<path d="M391.386 417.107H416.297" stroke="#0F2B46" stroke-miterlimit="10" stroke-linejoin="round"/>
<path d="M471.57 447.408L471.521 400.407" stroke="#0F2B46" stroke-miterlimit="10" stroke-linejoin="round"/>
<path d="M459.065 417.107H483.976" stroke="#0F2B46" stroke-miterlimit="10" stroke-linejoin="round"/>
<path d="M185.869 505.542V571.505" stroke="#0F2B46" stroke-miterlimit="10" stroke-linejoin="round"/>
<path d="M190.458 500.141V571.505" stroke="#0F2B46" stroke-miterlimit="10" stroke-linejoin="round"/>
<path d="M483.976 550.182H552.394" stroke="#0F2B46" stroke-miterlimit="10" stroke-linejoin="round"/>
<path d="M552.394 550.182H599.012" stroke="#0F2B46" stroke-miterlimit="10" stroke-linejoin="round"/>
<path d="M329.616 457.738H352.767V463.199H329.616V457.738Z" stroke="#0F2B46" stroke-miterlimit="10" stroke-linejoin="round"/>
<path d="M527.516 278.925V270.527L552.393 268.445L555.123 270.527L558.127 278.908" stroke="#0F2B46" stroke-miterlimit="10" stroke-linejoin="round"/>
<path d="M209.485 291.903V286.424L275.28 283.877" stroke="#0F2B46" stroke-miterlimit="10" stroke-linejoin="round"/>
<path d="M275.404 289.2L275.379 288.113C275.321 285.532 275.28 283.877 275.28 283.877L295.104 278.351C295.519 278.236 295.934 278.156 296.365 278.113L321.724 275.533L341.233 273.696C341.307 273.689 341.374 273.683 341.448 273.678L359.613 272.495C359.696 272.49 359.779 272.486 359.862 272.483L420.139 270.532C420.222 270.529 420.297 270.527 420.38 270.527H476.267C476.898 270.527 477.528 270.607 478.142 270.764L512.712 279.643" stroke="#0F2B46" stroke-miterlimit="10" stroke-linejoin="round"/>
<path d="M300.075 209.219L299.934 277.733" stroke="#0F2B46" stroke-miterlimit="10" stroke-linejoin="round"/>
<path d="M433.665 210.556L432.943 270.527" stroke="#0F2B46" stroke-miterlimit="10" stroke-linejoin="round"/>
<path d="M433.657 210.558C433.657 200.378 403.767 192.132 366.882 192.132C329.997 192.132 300.083 200.378 300.083 210.558" stroke="#0F2B46" stroke-miterlimit="10" stroke-linejoin="round"/>
<path d="M433.665 214.062C436.204 212.345 438.594 210.556 438.594 208.477C438.594 208.477 438.594 205.904 437.208 204.058C435.557 201.846 432.843 200.375 430.951 199.184C421.492 193.243 397.211 185.978 366.89 185.978C337.723 185.978 309.078 193.449 299.933 200.64C298.39 201.857 294.938 204.404 294.938 208.477C294.938 212.635 299.933 215.025 299.933 215.793" stroke="#0F2B46" stroke-miterlimit="10" stroke-linejoin="round"/>
<path d="M415.177 140.172C415.185 139.737 415.326 137.739 415.26 137.311C413.725 127.737 393.22 120.179 368.384 120.179C343.723 120.179 323.492 127.632 321.558 137.114C321.459 137.606 321.741 140.714 321.741 141.215" stroke="#0F2B46" stroke-miterlimit="10" stroke-linejoin="round"/>
<path d="M410.397 143.84C412.181 142.121 417.849 138.604 417.99 136.615C417.99 136.615 418.82 133.951 417.849 132.104C416.687 129.892 414.779 128.422 413.443 127.231C406.788 121.29 389.71 114.024 368.393 114.024C347.88 114.024 327.74 121.495 321.309 128.687C320.222 129.904 317.791 132.45 317.791 136.523C317.791 140.682 326.23 142.875 326.736 143.453" stroke="#0F2B46" stroke-miterlimit="10" stroke-linejoin="round"/>
<path d="M418.322 133.517C416.977 129.14 413.907 123.475 410.463 120.178C407.974 117.8 398.854 109.624 383.959 105.343C379.412 104.036 374.284 103.191 368.392 103.191C349.489 103.191 328.08 113.54 319.658 129.356C318.936 130.705 318.289 131.823 318.289 133.517" stroke="#0F2B46" stroke-miterlimit="10" stroke-linejoin="round"/>
<path d="M410.464 168.362C403.809 162.422 390.366 157.693 369.048 157.693C348.535 157.693 333.508 161.573 327.077 168.764" stroke="#0F2B46" stroke-miterlimit="10" stroke-linejoin="round"/>
<path d="M409.866 190.859C409.866 190.859 411.202 139.25 409.866 138.022C403.219 131.897 388.532 126.957 367.206 126.957C346.693 126.957 333.507 130.609 327.076 138.022C325.989 139.276 327.856 189.987 327.856 189.987" stroke="#0F2B46" stroke-miterlimit="10" stroke-linejoin="round"/>
<path d="M359.107 186.359V164.53H367.09H374.633V186.359" stroke="#0F2B46" stroke-miterlimit="10" stroke-linejoin="round"/>
<path d="M433.3 231.756L422.462 226.913L422.487 270.527" stroke="#0F2B46" stroke-miterlimit="10" stroke-linejoin="round"/>
<path d="M340.312 273.685V223.024L362.086 222.376L362.036 272.618" stroke="#0F2B46" stroke-miterlimit="10" stroke-linejoin="round"/>
<path d="M304.016 277.733V232.865L317.791 227.615L317.758 276.54" stroke="#0F2B46" stroke-miterlimit="10" stroke-linejoin="round"/>
<path d="M407.601 271.272V223.756L385.827 222.145L385.876 271.946" stroke="#0F2B46" stroke-miterlimit="10" stroke-linejoin="round"/>
<path d="M335.001 188.47V169.731L349.979 164.53L350.527 186.359" stroke="#0F2B46" stroke-miterlimit="10" stroke-linejoin="round"/>
<path d="M383.329 186.359L382.715 164.53L398.855 169.731V188.47" stroke="#0F2B46" stroke-miterlimit="10" stroke-linejoin="round"/>
<path d="M223.11 298.931L260.518 297.465" stroke="#0F2B46" stroke-miterlimit="10" stroke-linejoin="round"/>
<path d="M228.454 304.922L255.423 304.246" stroke="#0F2B46" stroke-miterlimit="10" stroke-linejoin="round"/>
<path d="M289.752 296.647L327.409 294.983" stroke="#0F2B46" stroke-miterlimit="10" stroke-linejoin="round"/>
<path d="M294.606 302.861L322.222 301.629" stroke="#0F2B46" stroke-miterlimit="10" stroke-linejoin="round"/>
<path d="M353.365 294.371L391.013 292.708" stroke="#0F2B46" stroke-miterlimit="10" stroke-linejoin="round"/>
<path d="M358.211 300.585L385.835 299.354" stroke="#0F2B46" stroke-miterlimit="10" stroke-linejoin="round"/>
<path d="M416.156 292.096L453.813 290.433" stroke="#0F2B46" stroke-miterlimit="10" stroke-linejoin="round"/>
<path d="M421.01 298.31L448.626 297.078" stroke="#0F2B46" stroke-miterlimit="10" stroke-linejoin="round"/>
<path d="M601.652 399.251C600.869 398.71 599.848 399.946 598.895 399.968C596.861 400.013 595.082 400.12 593.057 400.593C589.253 401.485 586.24 403.345 582.675 404.784C580.539 405.648 578.241 405.093 576.156 405.89C575.211 406.251 574.752 407.416 574.113 408.091C572.658 409.612 569.62 410.334 567.646 410.564C561.297 411.306 556.88 406.343 551.493 403.936C546.328 401.623 538.651 399.455 532.924 400.797C525.895 402.442 518.099 409.886 518.806 417.593C519.129 421.179 522.176 424.867 520.618 428.618C519.427 431.49 515.112 434.992 515.453 438.255C515.751 441.087 517.529 443.998 517.589 446.622C517.623 448.022 516.831 448.916 517.555 450.234C519.121 453.107 522.465 454.225 524.984 455.922C526.499 456.947 527.801 459.167 529.58 459.75C533.264 460.961 540.77 462.311 544.532 461.193C551.017 459.269 561.791 455.33 568.344 457.722C571.041 458.706 574.539 462.545 575.96 464.948C578.156 468.677 578.403 474.006 581.007 477.299C586.462 484.208 600.274 487.73 606.29 479.968C609.848 475.375 609.226 468.091 609.805 462.651C610.58 455.242 610.622 448.217 610.656 440.793C610.673 436.055 611.771 431.207 610.775 426.493C610.009 422.896 607.448 419.258 606.367 415.613C605.303 412.02 603.252 408.892 601.84 405.464C601.397 404.406 602.835 400.066 601.652 399.251Z" fill="#7396CD"/>
<path d="M599.2 341.598C599.098 341.489 592.52 342.221 591.141 341.394C588.29 339.687 590.537 334.805 586.844 334.224C582.784 333.583 582.997 338.198 581.661 339.778C581.006 340.551 578.887 340.005 578.197 340.935C577.168 342.307 577.984 344.624 576.682 345.743C575.346 346.886 573.857 345.561 572.393 346.026C569.483 346.95 567.781 349.331 564.811 349.756C562.564 350.079 559.483 348.613 557.517 347.753C555.313 346.788 548.488 345.134 546.063 345.134C545.118 345.135 543.254 346.801 542.233 347.115C541.535 347.332 536.055 347.139 536.557 348.993C536.838 349.996 539.195 350.296 539.927 350.714C543.952 353.018 549.731 350.147 554.003 352.406C557.807 354.422 559.441 359.867 563.407 361.966C566.394 363.55 571.423 361.445 574.351 363.814C577.278 366.187 577.091 371.908 581.695 372.346C583.695 372.536 586.784 371.258 588.299 370.005C588.997 369.424 589.09 368.455 589.916 367.974C593.26 366.007 595.252 367.808 597.975 367.149C599.09 366.881 600.783 365.327 601.728 365.4" fill="#48638C"/>
<path d="M566.741 363.988C565.703 364.61 565.464 365.628 564.835 366.487C563.958 367.669 562.554 368.314 561.592 369.41C560.469 370.699 560.137 372.272 558.639 373.275C557.49 374.047 554.435 374.434 552.767 375.439C550.359 376.889 548.308 379.564 545.585 380.384C543.568 380.991 541.73 380.71 539.713 381.009C535.943 381.568 532.147 382.25 528.505 383C524.59 383.805 520.148 386.796 516.233 384.493C514.812 383.654 512.284 377.69 511.195 375.964C509.927 373.95 504.872 372.68 504.812 370.118C504.727 366.311 511.323 367.652 512.055 364.714C513.033 360.773 504.387 359.661 507.331 355.687C509.153 353.228 512.429 355.146 514.718 354.077C516.318 353.337 515.331 350.613 517.441 349.857C519.39 349.158 520.956 351.358 522.99 350.778C524.139 350.45 524.028 348.442 524.99 348.244C526.071 348.022 527.543 348.66 528.632 348.75C530.428 348.898 532.283 348.28 534.028 348.627C537.313 349.278 540.359 350.367 543.951 350.398C546.291 350.417 548.665 350.111 550.955 350.63C552.554 350.99 553.967 351.861 555.601 352.095C556.12 352.17 559.363 352.695 558.946 353.591" fill="#48638C"/>
<path d="M549.526 398.438C547.755 401.073 544.249 399.111 541.985 400.391C541.092 400.9 540.743 402.035 539.722 402.456C538.573 402.929 537.177 402.354 536.173 402.853C535.245 403.313 534.896 404.329 533.722 404.68C531.543 405.328 529.944 405.276 527.91 406.57C527.033 407.124 526.854 408.67 526.037 409.402C524.923 410.413 523.569 410.724 522.761 412.122C520.472 416.086 524.463 415.815 524.676 417.228C524.897 418.738 522.889 419.648 523.025 421.159C523.127 422.31 524.582 422.625 525.076 423.498C525.399 424.074 525.263 424.98 525.91 425.321C529.322 427.134 531.365 423.561 534.335 423.697C535.339 423.743 537.722 423.171 537.688 424.776C537.637 427.988 532.36 427.235 530.531 427.707C527.033 428.606 528.054 431.512 525.893 433.18C524.42 434.318 522.106 433.759 520.599 434.924C518.285 436.707 520.08 438.814 519.297 439.973C518.506 441.152 516.549 441.362 516.54 443.116C516.532 444.475 519.953 445.585 518.685 447.468C518.565 447.646 518.072 447.398 517.987 447.377C516.149 446.95 516.506 444.219 514.251 444.249C512.234 444.275 512.208 446.461 508.906 445.773C504.924 444.941 506.098 443.026 504.345 440.75C501.766 437.394 495.92 439.651 494.941 433.957C494.728 432.717 496.865 431.611 496.439 430.65C495.673 428.884 491.843 427.997 492.567 425.859C494.805 419.241 502.77 423.948 506.251 420.487C507.698 419.058 505.392 418.092 505.375 416.8C505.366 415.926 506.592 415.649 506.711 414.758C506.847 413.679 504.302 413.437 503.613 413.285C500.686 412.631 501.273 412.327 499.06 410.979C497.63 410.107 495.528 410.632 494.005 409.752C492.873 409.097 491.656 408.073 491.324 406.76C490.805 404.743 493.597 404.517 494.031 402.966C494.728 400.424 492.192 398.018 493.579 395.404C495.29 392.164 499.724 393.943 502.396 394.045C504.924 394.141 506.668 392.384 509.23 392.502C512.132 392.634 514.2 394.311 517.255 393.399C520.387 392.466 517.17 390.329 518.412 388.903C519.11 388.1 520.761 388.364 521.536 387.378C522.514 386.137 521.033 385.329 521.595 384.17" fill="#48638C"/>
<path d="M526.024 380.746C522.534 383.543 523.973 382.138 523.896 386.003C523.879 386.783 523.377 388.234 524.151 388.88C526.16 390.575 530.057 390.924 532.5 391.737C535.819 392.842 538.882 394.565 542.218 395.679C544.712 396.512 548.278 399.345 550.635 396.684C552.473 394.597 551.375 389.757 549.614 388.002C548.295 386.689 546.38 385.977 544.959 384.795C541.521 381.946 537.81 380.442 533.24 379.692C530.772 379.286 528.1 379.083 526.024 380.746Z" fill="#48638C"/>
<path d="M541.976 347.874C542.308 344.438 535.27 342.966 533.185 342.41C532.359 342.191 530.53 342.408 530.266 341.394C529.44 338.224 536.3 339.006 533.857 333.889C532.334 330.688 528.181 332.632 526.147 331.077C524.743 329.997 526.615 327.356 526.13 327.051C524.972 326.325 521.185 326.227 522.096 323.649C522.36 322.903 523.16 322.403 523.738 321.926C523.738 321.923 524.377 321.449 524.326 321.379C523.619 320.525 522.751 323.669 522.853 324.124C523.219 325.701 525.185 326.458 525.355 328.117C525.483 329.31 523.339 330.26 523.773 331.388C524.385 332.972 529.364 333.274 529.381 336.549C529.389 337.428 529.032 339.928 528.079 340.382C524.513 342.088 522.283 340.89 520.156 344.793C519.662 345.695 519.288 346.352 519.654 347.293C519.858 347.831 519.1 348.238 519.245 348.73C519.773 350.538 523.594 349.116 524.266 350.214C524.589 350.749 524.283 351.838 524.521 352.452" fill="#48638C"/>
<path d="M599.652 326.444C600.945 326.841 594.324 326.549 593.49 327.06C592.512 327.658 590.103 332.354 589.354 331.902C587.235 330.614 588.605 327.102 587.457 325.345C585.993 323.104 582.47 324.585 580.393 323.415C578.155 322.154 577.798 319.731 575.67 318.528C571.985 316.451 567.9 320.307 563.943 318.079C561.381 316.631 560.343 313.019 557.85 311.742C555.45 310.514 552.42 310.803 550.131 309.417C549.297 308.908 549.603 308.041 549.288 307.368C548.514 305.693 545.391 305.673 544.148 305.818C542.71 305.985 541.621 303.131 540.353 303.171C538.625 303.228 541.289 309.344 538.387 309.91C537.042 310.172 536.523 308.226 535.178 308.27C534.719 308.285 534.285 309.626 533.962 309.888C533.851 309.979 530.149 308.609 529.902 308.414C528.26 307.116 527.145 302.909 524.575 302.993C521.758 303.085 523.383 306.345 522.405 306.802C521.596 307.18 521.349 305.992 520.822 305.912C519.801 305.756 518.805 307.062 517.647 306.819C516.337 306.546 516.252 305.092 514.771 305.141C512.831 305.204 510.073 307.497 507.299 307.82C501.818 308.458 483.862 303.092 480.986 308.732C480.101 310.464 482.577 311.796 481.666 313.418C480.841 314.875 474.739 316.74 475.003 317.817C475.965 321.752 483.071 317.705 484.696 319.911C486.585 322.479 477.13 323.652 480.109 326.015C481.428 327.061 483.505 326.151 484.96 326.189C489.249 326.302 494.21 325.464 497.81 328.318C500.338 330.324 495.47 331.378 496.874 333.528C498.142 335.473 501.751 333.37 503.24 335.204C503.844 335.956 501.631 337.207 502.542 338.439C503.784 340.131 510.371 341.217 510.695 341.718C511.137 342.387 509.784 343.088 510.788 343.654C512.193 344.447 513.963 343.607 515.443 343.918C517.069 344.257 517.656 346.373 519.647 345.443C521.622 344.519 525.894 340.27 528.209 340.622C529.468 340.814 529.928 342.112 530.932 342.721C532.523 343.689 534.71 343.439 536.472 343.622C538.276 343.809 540.931 346.6 542.684 347.463C545.425 348.82 547.535 346.872 550.369 347.241C555.867 347.956 562.369 350.941 567.824 349.773C571.781 348.928 575.151 348.15 578.58 345.907C579.304 345.428 579.321 344.165 579.908 343.537C581.533 341.808 584.759 339.752 587.082 339.482C588.061 339.367 589.125 341.298 589.712 341.86C592.129 344.191 597.55 345.809 600.324 343.177C603.388 340.267 603.098 334.59 602.434 330.784C602.154 329.13 601.669 328.154 600.273 327.143C599.856 326.841 598.656 326.136 599.652 326.444Z" fill="#7396CD"/>
<path d="M598.578 322.597C597.199 322.483 595.863 323.021 594.451 322.773C592.238 322.384 590 321.519 587.932 320.632C586.34 319.95 583.719 317.451 582.324 317.132C581.064 316.843 579.771 317.326 578.605 316.742C577.107 315.992 577.515 313.086 575.881 312.564C573.882 311.921 572.971 312.646 571.065 313.04C568.716 313.523 566.214 312.926 563.925 312.524C558.963 311.652 559.414 305.689 553.023 308.423C552.598 308.606 550.725 308.423 550.632 308.901C550.317 310.501 557.125 310.856 558.197 311.408C561.925 313.321 559.644 317.392 562.325 318.815C564.954 320.21 568.631 319.506 571.337 318.849C572.477 318.57 573.839 317.972 574.996 318.396C577.66 319.365 577.32 322.418 579.549 323.604C582.17 324.997 585.847 322.665 588.094 324.916C589.234 326.06 589.676 332.118 589.838 332.204C590.757 332.694 592.119 328.943 592.859 328.466C594.255 327.575 595.438 328.122 596.867 328.241C597.761 328.316 598.527 327.471 599.233 327.122C600.255 326.621 601.301 322.219 600.059 322.521" fill="#0F2B46"/>
<path d="M598.578 322.597C597.199 322.483 595.863 323.021 594.451 322.773C592.238 322.384 590 321.519 587.932 320.632C586.34 319.95 583.719 317.451 582.324 317.132C581.064 316.843 579.771 317.326 578.605 316.742C577.107 315.992 577.515 313.086 575.881 312.564C573.882 311.921 572.971 312.646 571.065 313.04C568.716 313.523 566.214 312.926 563.925 312.524C558.963 311.652 559.414 305.689 553.023 308.423C552.598 308.606 550.725 308.423 550.632 308.901C550.317 310.501 557.125 310.856 558.197 311.408C561.925 313.321 559.644 317.392 562.325 318.815C564.954 320.21 568.631 319.506 571.337 318.849C572.477 318.57 573.839 317.972 574.996 318.396C577.66 319.365 577.32 322.418 579.549 323.604C582.17 324.997 585.847 322.665 588.094 324.916C589.234 326.06 589.676 332.118 589.838 332.204C590.757 332.694 592.119 328.943 592.859 328.466C594.255 327.575 595.438 328.122 596.867 328.241C597.761 328.316 598.527 327.471 599.233 327.122C600.255 326.621 601.301 322.219 600.059 322.521" stroke="#0F2B46" stroke-miterlimit="10" stroke-linecap="round" stroke-linejoin="round"/>
<path d="M570.169 363.265C571.531 362.152 563.497 361.454 562.017 360.949C558.536 359.76 557.447 354.308 554.451 352.463C552.511 351.269 549.847 352.606 547.975 352.089C546.868 351.781 545.873 351.134 544.698 350.989C542.903 350.767 541.856 351.7 539.839 351.106C538.75 350.783 537.635 350.579 536.503 350.474C536.435 350.467 534.775 350.331 534.835 350.45C535.141 351.074 537.533 351.32 538.094 351.468C541.286 352.303 544.639 352.574 547.873 353.187C549.311 353.459 551.847 353.476 553.106 354.231C556.962 356.544 558.664 361.536 562.672 363.656C563.055 363.857 563.412 363.442 563.778 363.465C564.765 363.527 565.361 364.626 566.374 364.488C568.101 364.255 568.654 364.503 570.169 363.265Z" fill="#0F2B46" stroke="#0F2B46" stroke-miterlimit="10" stroke-linecap="round" stroke-linejoin="round"/>
<path d="M558.301 373.617C556.642 373.067 556.276 376.86 556.625 377.928C557.127 379.487 559.757 379.922 558.931 381.798C558.352 383.101 556.08 381.804 554.999 382.481C553.757 383.25 552.906 388.726 553.995 389.925C555.11 391.149 557.093 391.582 558.063 392.877C558.616 393.611 558.378 394.83 558.727 395.652C559.706 397.949 561.85 399.654 564.063 400.672C565.152 401.167 574.198 400.7 571.492 403.336C570.624 404.183 569.552 404.166 568.539 404.584C566.761 405.311 561.859 409.155 559.552 407.264C557.706 405.746 560.854 403.809 557.059 402.178C554.702 401.167 549.11 402.26 547.536 399.238C546.915 398.046 549.51 397.486 549.851 396.763C551.136 394.087 548.821 390.805 546.2 389.646C544.413 388.856 543.451 390.337 541.758 390.744C539.707 391.233 538.141 391.164 536.09 390.623C534.243 390.136 532.652 389.309 531.656 387.62C531.009 386.525 531.273 384.881 529.631 384.674C528.099 384.479 523.001 388.02 522.193 384.891C521.639 382.722 531.588 381.455 533.494 380.568C535.741 379.517 534.737 376.452 536.583 375.643C539.23 374.481 541.936 379.132 544.787 378.875C549.868 378.42 546.14 375.589 548.064 374.586C548.915 374.142 554.225 373.191 555.212 373.251C556.012 373.299 556.821 373.255 557.612 373.367C557.808 373.394 558.872 373.807 558.301 373.617Z" fill="#0F2B46" stroke="#0F2B46" stroke-miterlimit="10" stroke-linecap="round" stroke-linejoin="round"/>
<path d="M600.777 505.738C600.777 499.217 593.093 503.998 592.105 498.068C591.748 495.93 595.024 496.768 595.331 495.242C595.739 493.222 591.161 492.323 591.901 490.095C592.565 488.111 596.914 487.717 598.156 486.058C600.658 482.715 596.786 483.158 596.343 480.508C596.139 479.285 597.867 478.77 597.348 477.38C596.182 474.259 587.314 476.525 587.969 469.911C588.038 469.272 589.637 460.27 589.782 460.122C590.922 458.981 596.046 458.975 596.343 457.498C596.888 454.74 591.382 454.75 592.71 450.332C593.825 446.627 596.726 445.446 598.658 442.865C598.828 442.642 599.109 442.155 598.965 441.856C598.207 440.344 592.191 444.546 591.297 445.287C590.191 446.214 589.62 447.836 588.676 448.919C586.787 451.08 584.863 451.788 582.523 452.956C581.791 453.323 581.238 454.782 580.71 455.379C579.17 457.109 575.562 457.586 573.349 457.094C568.328 455.978 571.111 453.539 569.622 451.745C568.234 450.081 565.273 449.157 565.886 446.397C566.345 444.327 571.332 441.492 569.622 439.433C567.971 437.453 566.013 443.988 563.664 444.378C561.273 444.778 556.746 443.625 554.695 442.259C554.337 442.023 551.401 439.767 551.265 439.837C551.086 439.927 551.129 440.898 551.163 441.048C551.316 441.649 553.316 442.337 553.886 442.663C555.537 443.606 558.048 446.707 558.32 448.617C558.669 451.014 553.861 453.691 551.971 454.773C550.891 455.389 547.589 456.042 546.321 455.681C545.223 455.367 544.329 453.32 542.993 453.764C541.521 454.256 541.402 456.785 539.768 457.397C537.053 458.418 534.755 457.224 532.109 456.892C530.058 456.637 527.777 457.563 525.854 456.792C521.445 455.026 522.084 451.707 519.301 448.919C518.518 448.142 517.982 447.34 517.284 446.498C517.224 446.423 516.892 445.807 516.782 445.893C516.322 446.233 516.416 447.393 515.973 447.91C515.037 449.003 513.42 448.96 512.544 450.534C508.893 457.115 516.28 454.048 518.799 457.195C520.194 458.943 518.484 463.187 519.097 463.553C521.828 465.192 526.662 464.475 528.875 466.379C530.509 467.778 527.845 470.729 530.185 472.03C532.645 473.395 535.402 472.123 536.747 475.26C537.666 477.404 535.266 477.194 534.023 478.086C532.9 478.888 533.487 480.908 532.815 481.315C530.56 482.665 527.062 481.132 525.352 483.536C522.722 487.222 528.807 487.827 529.283 490.701C529.513 492.065 527.488 492.368 526.96 493.425C526.075 495.206 528.194 498.493 529.385 499.683C530.015 500.317 531.811 501.673 532.713 501.802C533.598 501.928 535.283 500.775 535.938 501.298C537.836 502.815 535.538 504.916 536.44 506.041C538.006 507.994 539.215 506.714 540.883 507.756C545.274 510.507 544.431 514.455 551.665 512.903C556.073 511.958 556.882 505.347 562.354 506.343C564.983 506.821 562.618 509.857 564.779 510.784C566.6 511.566 568.779 511.039 570.626 511.894C571.723 512.399 572.481 514.5 573.553 514.619C575.323 514.816 577.008 513.745 578.795 514.417C582.217 515.702 578.727 518.084 579.706 519.059C581.791 521.154 588.012 520.215 589.084 521.279C591.646 523.846 592.922 526.999 595.127 530.161C595.926 531.298 600.241 536.189 601.688 535.61C609.041 532.664 608.479 517.654 605.824 512.095C604.266 508.853 601.305 506.712 600.173 503.315" fill="#48638C"/>
<path d="M599.451 546.251C598.694 543.96 597.035 542.552 596.15 540.476C594.754 537.229 593.971 533.731 592.38 530.543C591.733 529.265 590.414 528.412 589.912 527.079C589.265 525.348 589.129 523.39 588.371 521.689C587.92 520.665 587.095 519.89 586.763 518.763C585.886 515.844 585.325 512.44 583.835 509.754C581.784 506.055 578.363 502.873 575.912 499.437C574.091 496.885 574.806 492.712 572.525 490.428C571.87 489.773 570.542 489.686 569.759 489.196C567.445 487.748 565.581 485.795 563.445 484.269C562.636 483.687 561.607 483.443 560.985 482.574C560.313 481.634 558.943 480.791 558.449 479.802C557.147 477.202 559.326 473.332 558.756 470.486C558.611 469.759 557.173 466.23 558.449 465.866C559.922 465.445 559.675 468.255 559.675 468.869C559.675 471.662 559.105 476.045 560.22 478.647C561.539 481.73 564.492 482.178 567.138 483.653C569.845 485.158 572.942 487.12 574.985 489.504C576.976 491.823 578.636 495.792 579.836 498.59C580.014 499.016 581.01 501.508 581.759 501.208C582.942 500.735 582.423 495.764 582.295 494.971C581.904 492.425 580.925 489.899 581.146 487.272C581.308 485.269 582.312 483.275 582.142 481.265C581.989 479.456 581.069 477.743 581.069 475.876C581.069 473.56 581.75 471.732 582.678 469.639C582.763 469.45 582.84 468.953 582.993 469.1C583.103 469.211 582.789 469.571 582.754 469.639C582.116 471.141 581.452 473.31 581.452 474.952C581.452 477.656 583.274 480.668 583.529 483.499C583.784 486.282 582.754 488.946 582.754 491.737C582.754 493.31 583.648 494.525 583.835 496.049C584.465 501.097 584.516 502.295 587.146 506.675C587.707 507.613 587.427 508.973 587.682 509.985C588.218 512.135 588.984 514.603 589.758 516.684C590.771 519.381 593.256 521.206 594.303 523.999C595.205 526.426 595.128 529.551 596.609 531.776C597.469 533.07 599 534.002 599.996 535.241C600.779 536.228 600.847 537.632 602.073 538.244" fill="#0F2B46"/>
<path d="M599.451 546.251C598.694 543.96 597.035 542.552 596.15 540.476C594.754 537.229 593.971 533.731 592.38 530.543C591.733 529.265 590.414 528.412 589.912 527.079C589.265 525.348 589.129 523.39 588.371 521.689C587.92 520.665 587.095 519.89 586.763 518.763C585.886 515.844 585.325 512.44 583.835 509.754C581.784 506.055 578.363 502.873 575.912 499.437C574.091 496.885 574.806 492.712 572.525 490.428C571.87 489.773 570.542 489.686 569.759 489.196C567.445 487.748 565.581 485.795 563.445 484.269C562.636 483.687 561.607 483.443 560.985 482.574C560.313 481.634 558.943 480.791 558.449 479.802C557.147 477.202 559.326 473.332 558.756 470.486C558.611 469.759 557.173 466.23 558.449 465.866C559.922 465.445 559.675 468.255 559.675 468.869C559.675 471.662 559.105 476.045 560.22 478.647C561.539 481.73 564.492 482.178 567.138 483.653C569.845 485.158 572.942 487.12 574.985 489.504C576.976 491.823 578.636 495.792 579.836 498.59C580.014 499.016 581.01 501.508 581.759 501.208C582.942 500.735 582.423 495.764 582.295 494.971C581.904 492.425 580.925 489.899 581.146 487.272C581.308 485.269 582.312 483.275 582.142 481.265C581.989 479.456 581.069 477.743 581.069 475.876C581.069 473.56 581.75 471.732 582.678 469.639C582.763 469.45 582.84 468.953 582.993 469.1C583.103 469.211 582.789 469.571 582.754 469.639C582.116 471.141 581.452 473.31 581.452 474.952C581.452 477.656 583.274 480.668 583.529 483.499C583.784 486.282 582.754 488.946 582.754 491.737C582.754 493.31 583.648 494.525 583.835 496.049C584.465 501.097 584.516 502.295 587.146 506.675C587.707 507.613 587.427 508.973 587.682 509.985C588.218 512.135 588.984 514.603 589.758 516.684C590.771 519.381 593.256 521.206 594.303 523.999C595.205 526.426 595.128 529.551 596.609 531.776C597.469 533.07 599 534.002 599.996 535.241C600.779 536.228 600.847 537.632 602.073 538.244" stroke="#0F2B46" stroke-miterlimit="10" stroke-linecap="round" stroke-linejoin="round"/>
<path d="M600.825 322.399C598.825 321.628 596.681 323.973 594.459 323.973C592.4 323.973 581.26 319.009 579.49 317.679C578.086 316.628 576.494 314.033 574.844 313.483C571.899 312.498 570.027 315.401 567.508 314.982C564.095 314.412 562.291 311.457 559.423 309.736C556.64 308.065 553.619 308.425 551.185 305.991C547.781 302.583 552.291 302.863 551.934 300.746C551.679 299.177 549.696 298.366 549.245 296.999C548.819 295.724 550.138 295.335 550.138 294.452C550.138 293.5 549.1 292.704 548.947 291.754C548.87 291.338 551.5 286.495 551.934 286.06C553.619 284.373 556.887 284.784 559.125 284.411C561.21 284.063 560.529 282.435 561.968 281.714C563.312 281.044 564.75 281.46 566.01 280.515C567.755 279.206 566.818 278.081 567.057 276.619C567.235 275.555 569.125 275.652 569.456 274.82C569.831 273.889 568.146 273.205 568.708 272.273C570.188 269.809 573.933 270.094 576.043 268.826C576.92 268.303 575.72 267.667 576.197 267.028C577.167 265.728 579.771 265.69 580.988 264.781C582.911 263.339 579.447 262.214 580.988 260.284C582.188 258.783 586.826 259.99 587.421 258.786C587.898 257.838 585.813 254.555 586.23 253.092C586.366 252.589 586.664 252.55 587.124 252.492C591.03 252.003 594.647 249.959 598.357 249.495C603.421 248.862 609.591 257.401 610.033 261.334C610.416 264.702 609.752 268.192 610.484 271.524C611.207 274.831 612.799 277.426 612.433 280.964C612.118 283.956 610.935 286.808 610.637 289.806C610.127 294.898 610.025 298.216 607.642 302.993C605.446 307.382 604.68 312.322 603.148 316.93C602.672 318.368 602.57 320.053 601.497 321.126C601.217 321.408 601.761 322.759 600.825 322.399Z" fill="#7396CD"/>
<path d="M599.985 363.981C596.249 364.136 590.7 365.097 587.662 367.226C585.696 368.6 584.36 371.085 581.697 371.144C579.127 371.201 578.48 366.537 577.365 364.951C576.378 363.533 571.297 361.073 569.629 361.018C563.451 360.811 560.966 368.765 557.255 372.242C556.651 372.803 555.017 373.79 554.864 374.683C554.464 376.917 557.46 378.499 556.702 380.437C556.285 381.506 554.404 381.085 553.596 381.846C552.541 382.831 552.439 386.419 552.388 387.813C552.226 392.868 556.532 393.928 558.855 397.249C559.638 398.372 559.621 400.151 561.255 400.689C562.54 401.111 570.242 400.981 568.353 403.152C567.604 404.018 565.595 405.011 564.506 405.335C559.153 406.925 561.298 401.047 557.536 399.579C556.064 399.001 554.353 400.028 552.881 399.507C550.958 398.825 548.66 397.403 546.839 397.08C544.294 396.63 540.72 400.253 538.575 401.194C537.724 401.57 532.831 402.37 533.189 403.557C533.291 403.893 533.835 403.824 534.184 403.884C537.801 404.525 542.473 402.78 546.03 404.174C548.43 405.113 548.813 408.244 550.975 409.421C554.285 411.215 558.149 413.734 561.774 414.8C565.749 415.97 571.884 414.431 574.974 411.711C575.765 411.016 576.48 408.356 577.424 408.075C578.224 407.838 578.965 411.28 581.058 410.527C583.543 409.636 584.182 406.206 586.403 404.992C587.85 404.203 589.875 404.551 591.483 404.384C594.93 404.027 599.057 402.356 601.721 400.166C604.895 397.563 605.21 384.331 605.304 380.751C605.363 378.607 606.521 376.327 605.542 374.311C604.7 372.585 603.644 367.773 602.368 366.665C601.764 366.136 600.377 365.711 600.24 365.082C600.189 364.848 600.453 363.962 599.985 363.981Z" fill="#7396CD"/>
<path d="M600.171 480.35C600.376 480.04 598.069 481.952 597.133 482.642C594.597 484.504 591.355 484.836 590.061 488C588.589 491.589 591.312 492.02 591.142 494.289C591.074 495.111 590.087 495.599 589.891 496.425C588.674 501.503 593.627 506.011 598.444 506.287C602.222 506.504 602.129 502.232 602.316 499.353C602.58 495.251 602.571 491.165 601.635 487.129C601.184 485.163 599.125 481.974 600.171 480.35Z" fill="#7396CD"/>
<path d="M518.13 439.682C516.376 439.682 515.883 441.67 516.096 442.981C516.249 443.9 516.947 444.783 517.364 445.621C517.806 446.501 517.747 447.71 518.13 448.668C518.776 450.281 521.048 454.291 522.189 455.623C523.133 456.726 525.227 458.72 527.006 457.704C528.503 456.848 527.704 454.607 527.261 453.389C526.24 450.627 524.555 448.734 522.793 446.434C522.317 445.806 521.542 445.333 521.372 444.505C521.023 442.733 521.985 441.041 521.678 439.224C521.559 438.514 519.619 435.439 520.053 437.194" fill="#7396CD"/>
<path d="M601.599 588.46C601.803 588.495 599.948 587.547 599.454 587.279C597.999 586.491 595.701 585.651 594.05 585.827C592.255 586.02 583.047 589.198 582.825 589.064C580.97 587.944 581.047 582.609 579.728 580.796C576.834 576.819 573.201 573.754 568.962 571.636C567.201 570.755 566.197 571.857 564.529 571.11C561.822 569.893 557.457 566.507 554.214 567.31C551.014 568.101 549.687 569.72 547.304 571.456C543.33 574.346 538.666 573.029 535.977 578.424C535.007 580.357 532.93 587.08 531.016 587.768C529.339 588.374 528.65 585.653 526.48 585.538C520.012 585.194 512.37 588.069 506.847 590.997C503.162 592.952 499.97 604.326 496.83 605.264C496.524 605.356 494.286 603.787 493.758 603.695C490.218 603.073 484.346 605.626 481.537 607.461C474.576 612.008 473.359 620.682 469.955 627.516C469.359 628.704 464.585 633.362 465.13 634.392C467.112 638.137 472.967 633.964 475.384 632.948C480.882 630.645 485.929 627.111 492.26 628.313C495.094 628.85 497.485 631.983 500.302 632.039C503.102 632.094 505.953 629.066 508.447 629.318C514.965 629.976 511.578 641.604 516.497 641.196C520.905 640.832 524.99 638.839 529.518 638.928C532.292 638.983 536.096 641.111 538.649 640.481C544.47 639.038 547.993 631.206 553.202 628.444C557.159 626.343 560.98 633.588 566.758 630.523C571.499 628.009 576.017 621.37 578.494 616.783C579.472 614.969 580.485 611.344 582.511 610.494C585.838 609.102 594.425 618.382 601.293 616.684C608.858 614.809 605.471 599.556 604.944 595.237C604.731 593.477 603.999 591.28 602.493 590.303C602.059 590.022 600.637 588.293 601.599 588.46Z" fill="#7396CD"/>
<path d="M600.485 616.271C595.336 611.83 589.583 608 582.597 608.407C575.286 608.832 572.98 622.237 567.806 626.139C564.538 628.608 559.925 625.749 556.232 626.656C552.607 627.549 547.994 628.652 544.93 630.959C541.543 633.519 539.603 636.153 535.025 636.795C531.637 637.269 528.557 636.134 525.204 636.22C520.974 636.33 518.396 639.254 514.643 635.272C512.6 633.112 513.996 628.575 510.2 626.887C505.877 624.968 502.992 628.73 499.231 628.827C494.525 628.949 492.567 624.422 487.793 624.545C481.759 624.701 477.223 630.257 471.666 630.847C469.164 631.113 466.722 624.048 463.93 623.069C452.808 619.174 452.467 623.714 443.863 628.819C440.876 630.593 437.396 633.002 435.379 635.926C433.6 638.518 435.762 641.193 434.579 643.575C434.57 643.589 425.286 649.415 423.992 650.388C421.686 652.132 418.809 651.115 416.358 651.458C411.559 652.129 407.704 658.262 403.602 658.501C402.274 658.577 401.117 659.461 399.934 659.86C399.33 660.062 397.687 660.327 398.215 660.689C400.164 662.037 405.091 659.546 407.201 659.541C417.354 659.515 427.541 657.403 437.762 657.139C444.127 656.973 450.765 658.621 457.131 658.251C461.76 657.981 467.309 655.074 471.683 653.602C483.436 649.65 496.073 650.208 508.047 647.998C511.545 647.352 515.664 645.472 519.127 645.27C521.587 645.127 524.183 644.162 526.761 644.201C531.11 644.266 535.833 645.627 540.097 644.467C544.573 643.25 547.994 638.434 552.666 636.862C558.164 635.013 565.04 636.703 570.827 635.128C578.205 633.121 581.592 627.989 588.298 624.999C591.09 623.754 594.953 625.321 597.549 623.889C600.596 622.205 602.68 618.166 600.485 616.271Z" fill="#48638C"/>
<path d="M602.081 623.053C596.668 621.5 591.341 620.475 586.005 622.269C581.392 623.821 578.473 629.665 574.005 631.559C566.593 634.707 558.108 631.976 550.415 633.869C548.024 634.457 542.331 641.613 539.692 643.606C537.063 645.587 529.65 641.206 526.91 641.277C516.689 641.541 510.63 648.846 501.431 651.352C499.354 651.916 494.588 649.054 492.171 648.714C485.959 647.843 476.215 649.065 470.377 651.544C468.122 652.499 465.62 655.466 463.118 655.611C458.446 655.883 453.646 654.965 448.991 655.235C443.774 655.539 438.37 656.026 433.196 657.3C431.621 657.687 430.311 658.978 428.668 659.074C427.741 659.128 425.077 659.147 425.928 659.493C429.553 660.961 433.928 659.652 437.655 659.801C445.536 660.113 453.425 659.511 461.22 659.628C480.947 659.923 500.818 655.61 520.544 656.177C529.301 656.428 538.169 657.027 546.952 656.671C556.202 656.295 565.257 657.598 574.371 657.575C577.639 657.567 582.371 659.152 585.35 657.509C589.23 655.366 585.358 650.435 587.128 648.658C589.885 645.876 595.111 649.644 597.791 646.943C598.566 646.165 603.297 630.549 603.178 629.497C602.915 626.979 604.983 623.886 602.081 623.053Z" fill="#0F2B46"/>
<path d="M599.89 643.874C600.051 642.859 598.085 645.46 596.588 645.463C593.711 645.468 584.427 643.782 583.839 649.019C583.678 650.46 585.593 651.465 585.158 652.983C584.733 654.491 581.286 656.48 582.495 657.773C583.89 659.259 599.49 659.42 600.187 658.069C602.638 653.288 599.294 647.746 599.89 643.874Z" fill="#7396CD"/>
<path d="M512.797 645.468C509.248 645.628 505.674 646.982 502.049 647.145C499.615 647.255 497.13 647.025 494.73 647.674C492.058 648.396 491.462 648.964 488.458 648.504C488.186 648.461 485.267 648.58 485.292 648.746C485.326 648.908 485.547 648.98 485.709 649.025C488.152 649.72 490.909 649.361 493.394 650.069C498.526 651.528 505.206 652.881 510.372 649.999C511.972 649.106 511.835 647.115 513.486 646.481C514.874 645.948 519.375 645.794 519.58 643.971C519.665 643.224 517.725 643.478 517.274 643.479C513.844 643.484 511.333 644.886 509.206 647.22" fill="#7396CD"/>
<path d="M398.832 660.464C409.078 657.995 420.567 655.014 431.111 655.853C434.788 656.145 429.247 658.448 434.132 658.996C440.345 659.692 447.732 658.759 453.995 657.952C461.169 657.026 468.428 658.175 475.645 658.069C487.576 657.893 499.516 656.346 511.328 655.814C514.698 655.662 518.451 654.509 521.864 654.892C532.119 656.042 542.841 656.01 553.164 656.61C559.394 656.973 566.023 655.456 572.202 656.15C577.674 656.763 583.835 657.215 589.418 656.963C590.516 656.914 600.617 656.174 600.617 657.701C600.626 662.162 591.928 659.98 589.009 660.112C576.848 660.66 564.491 661.159 552.305 660.773C542.169 660.45 532.093 662.288 522 662.437C507.703 662.647 493.278 661.447 478.964 661.297C471.101 661.215 463.288 662.568 455.425 662.11C449.987 661.794 444.54 660.494 439.009 660.217C433.647 659.949 428.303 661.362 422.916 661.191C417.58 661.021 411.529 660.873 406.355 661.54C405.266 661.681 404.406 662.373 403.206 662.278C401.734 662.16 397.504 660.784 398.832 660.464Z" fill="#7396CD"/>
</svg>
