<svg width="720" height="284" viewBox="0 0 720 284" fill="none" xmlns="http://www.w3.org/2000/svg">
<g clip-path="url(#clip0_9_38611)">
<mask id="mask0_9_38611" style="mask-type:luminance" maskUnits="userSpaceOnUse" x="-1196" y="-461" width="1921" height="1081">
<path d="M724.508 -461H-1195.49V619H724.508V-461Z" fill="white"/>
</mask>
<g mask="url(#mask0_9_38611)">
<path d="M662.358 34.4026L715.248 48.8586" stroke="#0F2B46" stroke-miterlimit="10" stroke-linejoin="round"/>
<path d="M662.358 38.9897L715.248 53.1947" stroke="#0F2B46" stroke-miterlimit="10" stroke-linejoin="round"/>
<path d="M659.318 46.0925L707.888 59.2505" stroke="#0F2B46" stroke-miterlimit="10" stroke-linejoin="round"/>
<path d="M172.958 165.873L172.278 388.77" stroke="#0F2B46" stroke-miterlimit="10" stroke-linejoin="round"/>
<path d="M172.898 133.242L3.70776 153.376V162.707L167.758 157.59" stroke="#0F2B46" stroke-miterlimit="10" stroke-linejoin="round"/>
<path d="M3.70776 162.707H0.427856V169.038L167.998 163.56" stroke="#0F2B46" stroke-miterlimit="10" stroke-linejoin="round"/>
<path d="M3.70776 169.038V174.221L172.898 169.038" stroke="#0F2B46" stroke-miterlimit="10" stroke-linejoin="round"/>
<path d="M3.70776 169.038V174.221L172.898 169.038" stroke="#0F2B46" stroke-miterlimit="10" stroke-linejoin="round"/>
<path d="M10.6779 174.221V412.01" stroke="#0F2B46" stroke-miterlimit="10" stroke-linejoin="round"/>
<path d="M171.658 70.9656L172.898 155.753" stroke="#0F2B46" stroke-miterlimit="10" stroke-linejoin="round"/>
<path d="M171.658 70.9656L164.008 63.0066V54.8236L662.358 34.4026V38.9716H659.038V391.549" stroke="#0F2B46" stroke-miterlimit="10" stroke-linejoin="round"/>
<path d="M659.318 52.6716L705.668 65.4876" stroke="#0F2B46" stroke-miterlimit="10" stroke-linejoin="round"/>
<path d="M171.658 70.9656L269.288 67.3026M300.488 66.1326L348.418 64.3346M380.668 63.1736L425.968 61.4096M458.248 60.3026L501.168 58.5866M533.418 57.8426L659.318 52.6716" stroke="#0F2B46" stroke-miterlimit="10" stroke-linejoin="round"/>
<path d="M167.998 165.873V155.737L645.788 143.458L659.068 143.117V151.203L167.998 165.873Z" stroke="#0F2B46" stroke-miterlimit="10" stroke-linejoin="round"/>
<path d="M659.318 46.0925L539.728 50.3665M495.348 51.6185L464.118 52.8595M419.788 54.2555L386.948 55.4545M342.368 56.9155L307.328 58.1125M262.478 59.6435L164.008 63.0065" stroke="#0F2B46" stroke-miterlimit="10" stroke-linejoin="round"/>
<path d="M659.318 38.9897L539.778 44.0477M493.708 45.7837L464.098 47.0687M419.328 48.8067L387.538 50.1967M341.228 52.0017L307.698 53.3387M261.498 55.2628L164.008 59.2507" stroke="#0F2B46" stroke-miterlimit="10" stroke-linejoin="round"/>
<path d="M208.128 165.049V388.779" stroke="#0F2B46" stroke-miterlimit="10" stroke-linejoin="round"/>
<path d="M208.168 154.512L208.088 97.9126" stroke="#0F2B46" stroke-miterlimit="10" stroke-linejoin="round"/>
<path d="M172.278 98.8207L172.728 98.8047M207.278 97.6007L269.628 95.4277M533.758 86.3547L627.028 81.8447C627.028 81.8447 627.028 108.006 627.028 144.347M627.028 151.507C627.028 234.567 627.028 362.302 627.028 362.302M658.828 81.8627L659.318 81.8447" stroke="#0F2B46" stroke-miterlimit="10" stroke-linejoin="round"/>
<path d="M261.508 51.1125L262.458 60.3276L268.888 67.1085L269.908 152.849" stroke="#0F2B46" stroke-miterlimit="10" stroke-linejoin="round"/>
<path d="M307.698 49.1206V58.3356L301.258 65.4876V152.849" stroke="#0F2B46" stroke-miterlimit="10" stroke-linejoin="round"/>
<path d="M387.538 46.0486V55.2646L381.108 62.4156V149.778" stroke="#0F2B46" stroke-miterlimit="10" stroke-linejoin="round"/>
<path d="M341.348 48.0405L342.298 57.2565L348.738 64.0375L349.758 150.636" stroke="#0F2B46" stroke-miterlimit="10" stroke-linejoin="round"/>
<path d="M464.688 43.0107V52.5737L458.248 59.7247V147.975" stroke="#0F2B46" stroke-miterlimit="10" stroke-linejoin="round"/>
<path d="M418.498 44.6975L419.438 54.5655L425.878 61.3465L426.898 148.879" stroke="#0F2B46" stroke-miterlimit="10" stroke-linejoin="round"/>
<path d="M493.708 41.6306L495.028 52.2266L501.468 59.0076L502.488 146.899" stroke="#0F2B46" stroke-miterlimit="10" stroke-linejoin="round"/>
<path d="M540.278 40.0137V50.2347L533.838 57.3857V146.148" stroke="#0F2B46" stroke-miterlimit="10" stroke-linejoin="round"/>
<path d="M265.708 152.849V162.707" stroke="#0F2B46" stroke-miterlimit="10" stroke-linejoin="round"/>
<path d="M304.478 152.063V161.922" stroke="#0F2B46" stroke-miterlimit="10" stroke-linejoin="round"/>
<path d="M384.328 150.636V159.591" stroke="#0F2B46" stroke-miterlimit="10" stroke-linejoin="round"/>
<path d="M345.548 151.421V161.279" stroke="#0F2B46" stroke-miterlimit="10" stroke-linejoin="round"/>
<path d="M422.698 149.732V157.902" stroke="#0F2B46" stroke-miterlimit="10" stroke-linejoin="round"/>
<path d="M461.468 148.947V157.902" stroke="#0F2B46" stroke-miterlimit="10" stroke-linejoin="round"/>
<path d="M537.058 146.944V155.113" stroke="#0F2B46" stroke-miterlimit="10" stroke-linejoin="round"/>
<path d="M498.288 147.729V155.897" stroke="#0F2B46" stroke-miterlimit="10" stroke-linejoin="round"/>
<path d="M269.908 162.707V389.185" stroke="#0F2B46" stroke-miterlimit="10" stroke-linejoin="round"/>
<path d="M301.258 161.923V388.98" stroke="#0F2B46" stroke-miterlimit="10" stroke-linejoin="round"/>
<path d="M381.108 159.591V389.711" stroke="#0F2B46" stroke-miterlimit="10" stroke-linejoin="round"/>
<path d="M349.758 160.375V389.31" stroke="#0F2B46" stroke-miterlimit="10" stroke-linejoin="round"/>
<path d="M426.898 158.7V390.496" stroke="#0F2B46" stroke-miterlimit="10" stroke-linejoin="round"/>
<path d="M458.248 157.902V389.697" stroke="#0F2B46" stroke-miterlimit="10" stroke-linejoin="round"/>
<path d="M533.838 154.512V390.496" stroke="#0F2B46" stroke-miterlimit="10" stroke-linejoin="round"/>
<path d="M502.488 156.551V389.711" stroke="#0F2B46" stroke-miterlimit="10" stroke-linejoin="round"/>
<path d="M10.6779 257.563L172.588 253.197" stroke="#0F2B46" stroke-miterlimit="10" stroke-linejoin="round"/>
<path d="M113.948 194.191L129.628 193.552L153.378 192.584V249.096L108.998 250.711V247.482L114.638 247.365L113.948 194.191Z" stroke="#0F2B46" stroke-miterlimit="10" stroke-linejoin="round"/>
<path d="M52.3878 195.75L68.0579 195.111L91.8079 194.143V250.655L47.4379 252.27V249.089L52.4078 248.815L52.3878 195.75Z" stroke="#0F2B46" stroke-miterlimit="10" stroke-linejoin="round"/>
<path d="M52.4078 199.628L91.1678 197.985" stroke="#0F2B46" stroke-miterlimit="10" stroke-linejoin="round"/>
<path d="M73.1478 198.807L73.1378 247.83" stroke="#0F2B46" stroke-miterlimit="10" stroke-linejoin="round"/>
<path d="M57.7178 213.661H87.5679" stroke="#0F2B46" stroke-miterlimit="10" stroke-linejoin="round"/>
<path d="M57.7178 199.628V248.077" stroke="#0F2B46" stroke-miterlimit="10" stroke-linejoin="round"/>
<path d="M88.4478 198.807L88.0078 247.065" stroke="#0F2B46" stroke-miterlimit="10" stroke-linejoin="round"/>
<path d="M52.4078 248.815C53.8178 248.815 57.7178 248.661 57.7178 248.661L91.7478 247.065" stroke="#0F2B46" stroke-miterlimit="10" stroke-linejoin="round"/>
<path d="M114.638 198.178L153.398 196.536" stroke="#0F2B46" stroke-miterlimit="10" stroke-linejoin="round"/>
<path d="M135.378 197.357L135.368 246.38" stroke="#0F2B46" stroke-miterlimit="10" stroke-linejoin="round"/>
<path d="M119.948 212.211H149.798" stroke="#0F2B46" stroke-miterlimit="10" stroke-linejoin="round"/>
<path d="M119.948 198.178V246.627" stroke="#0F2B46" stroke-miterlimit="10" stroke-linejoin="round"/>
<path d="M149.878 196.879L149.438 245.138" stroke="#0F2B46" stroke-miterlimit="10" stroke-linejoin="round"/>
<path d="M114.638 247.365C116.048 247.365 119.948 247.211 119.948 247.211L153.978 245.615" stroke="#0F2B46" stroke-miterlimit="10" stroke-linejoin="round"/>
<path d="M301.438 94.1936C309.108 86.5156 327.788 87.5166 337.668 88.9276C339.238 89.1516 348.218 91.1156 348.808 92.2906" stroke="#0F2B46" stroke-miterlimit="10" stroke-linecap="round" stroke-linejoin="round"/>
<path d="M381.088 92.8946C388.768 85.2166 407.448 86.2186 417.318 87.6286C418.888 87.8526 425.508 89.0396 426.098 90.2146" stroke="#0F2B46" stroke-miterlimit="10" stroke-linecap="round" stroke-linejoin="round"/>
<path d="M458.338 89.7726C466.008 82.0936 483.958 83.5377 493.838 84.9487C495.408 85.1727 501.178 85.9167 501.768 87.0917" stroke="#0F2B46" stroke-miterlimit="10" stroke-linecap="round" stroke-linejoin="round"/>
<path d="M310.108 107.028L340.128 106.049V148.304L310.248 148.947L310.108 107.028Z" stroke="#0F2B46" stroke-miterlimit="10" stroke-linejoin="round"/>
<path d="M310.258 185.019H341.348V240.77L310.258 241.016V185.019Z" stroke="#0F2B46" stroke-miterlimit="10" stroke-linejoin="round"/>
<path d="M226.048 185.662H257.148V241.413L226.048 241.659V185.662Z" stroke="#0F2B46" stroke-miterlimit="10" stroke-linejoin="round"/>
<path d="M388.588 184.213H419.678V239.963L388.588 240.209V184.213Z" stroke="#0F2B46" stroke-miterlimit="10" stroke-linejoin="round"/>
<path d="M388.588 104.229L418.598 103.25V145.505L388.718 146.147L388.588 104.229Z" stroke="#0F2B46" stroke-miterlimit="10" stroke-linejoin="round"/>
<path d="M465.038 101.963L495.058 100.985V143.24L465.178 143.883L465.038 101.963Z" stroke="#0F2B46" stroke-miterlimit="10" stroke-linejoin="round"/>
<path d="M546.588 97.7665L576.608 96.7886V139.044L546.728 139.687L546.588 97.7665Z" stroke="#0F2B46" stroke-miterlimit="10" stroke-linejoin="round"/>
<path d="M226.048 109.109L256.068 108.131V150.385L226.188 151.029L226.048 109.109Z" stroke="#0F2B46" stroke-miterlimit="10" stroke-linejoin="round"/>
<path d="M465.038 183.082H495.058V239.963L465.038 240.209V183.082Z" stroke="#0F2B46" stroke-miterlimit="10" stroke-linejoin="round"/>
<path d="M546.588 181.951H576.608V238.832L546.588 239.078V181.951Z" stroke="#0F2B46" stroke-miterlimit="10" stroke-linejoin="round"/>
<path d="M226.048 117.426L256.068 116.615" stroke="#0F2B46" stroke-miterlimit="10" stroke-linejoin="round"/>
<path d="M310.258 114.171L340.278 113.359" stroke="#0F2B46" stroke-miterlimit="10" stroke-linejoin="round"/>
<path d="M388.478 111.559L418.498 110.748" stroke="#0F2B46" stroke-miterlimit="10" stroke-linejoin="round"/>
<path d="M465.038 108.942L495.058 108.131" stroke="#0F2B46" stroke-miterlimit="10" stroke-linejoin="round"/>
<path d="M546.588 106.049L576.608 105.238" stroke="#0F2B46" stroke-miterlimit="10" stroke-linejoin="round"/>
<path d="M241.598 241.016V185.662" stroke="#0F2B46" stroke-miterlimit="10" stroke-linejoin="round"/>
<path d="M241.598 151.029V116.275" stroke="#0F2B46" stroke-miterlimit="10" stroke-linejoin="round"/>
<path d="M326.338 148.518V113.765" stroke="#0F2B46" stroke-miterlimit="10" stroke-linejoin="round"/>
<path d="M404.728 146.312V111.559" stroke="#0F2B46" stroke-miterlimit="10" stroke-linejoin="round"/>
<path d="M480.048 143.589V108.836" stroke="#0F2B46" stroke-miterlimit="10" stroke-linejoin="round"/>
<path d="M561.598 139.81V105.057" stroke="#0F2B46" stroke-miterlimit="10" stroke-linejoin="round"/>
<path d="M226.588 205.772H256.608" stroke="#0F2B46" stroke-miterlimit="10" stroke-linejoin="round"/>
<path d="M326.338 241.016V184.534" stroke="#0F2B46" stroke-miterlimit="10" stroke-linejoin="round"/>
<path d="M310.258 204.645H341.348" stroke="#0F2B46" stroke-miterlimit="10" stroke-linejoin="round"/>
<path d="M404.728 239.66L404.668 184.013" stroke="#0F2B46" stroke-miterlimit="10" stroke-linejoin="round"/>
<path d="M388.978 203.18L419.678 203.192" stroke="#0F2B46" stroke-miterlimit="10" stroke-linejoin="round"/>
<path d="M480.048 239.66V183.082" stroke="#0F2B46" stroke-miterlimit="10" stroke-linejoin="round"/>
<path d="M465.038 202.061H495.058" stroke="#0F2B46" stroke-miterlimit="10" stroke-linejoin="round"/>
<path d="M561.668 238.547L561.608 181.951" stroke="#0F2B46" stroke-miterlimit="10" stroke-linejoin="round"/>
<path d="M546.598 202.061H576.618" stroke="#0F2B46" stroke-miterlimit="10" stroke-linejoin="round"/>
<path d="M390.598 250.987H418.498V257.563H390.598V250.987Z" stroke="#0F2B46" stroke-miterlimit="10" stroke-linejoin="round"/>
<path d="M629.088 35.6676V25.5556L659.068 23.0486L662.358 25.5556L665.978 35.6476" stroke="#0F2B46" stroke-miterlimit="10" stroke-linejoin="round"/>
<path d="M245.828 51.2946V44.6976L325.118 41.6306" stroke="#0F2B46" stroke-miterlimit="10" stroke-linejoin="round"/>
<path d="M325.268 48.0407L325.238 46.7317C325.168 43.6237 325.118 41.6307 325.118 41.6307L349.008 34.9767C349.508 34.8377 350.008 34.7417 350.528 34.6897L381.088 31.5827L404.598 29.3707C404.688 29.3627 404.768 29.3557 404.858 29.3497L426.748 27.9247C426.848 27.9187 426.948 27.9137 427.048 27.9107L499.688 25.5607C499.788 25.5577 499.878 25.5557 499.978 25.5557H567.328C568.088 25.5557 568.848 25.6517 569.588 25.8407L611.248 36.5327" stroke="#0F2B46" stroke-miterlimit="10" stroke-linejoin="round"/>
<path d="M354.998 -48.2683L354.828 34.2327" stroke="#0F2B46" stroke-miterlimit="10" stroke-linejoin="round"/>
<path d="M515.988 -46.6584L515.118 25.5555" stroke="#0F2B46" stroke-miterlimit="10" stroke-linejoin="round"/>
<path d="M515.548 -21.1304L502.488 -26.9624L502.518 25.5556" stroke="#0F2B46" stroke-miterlimit="10" stroke-linejoin="round"/>
<path d="M403.488 29.3587V-31.6453L429.728 -32.4253L429.668 28.0737" stroke="#0F2B46" stroke-miterlimit="10" stroke-linejoin="round"/>
<path d="M359.748 34.2325V-19.7945L376.348 -26.1165L376.308 32.7965" stroke="#0F2B46" stroke-miterlimit="10" stroke-linejoin="round"/>
<path d="M484.578 26.4526V-30.7634L458.338 -32.7043L458.398 27.2646" stroke="#0F2B46" stroke-miterlimit="10" stroke-linejoin="round"/>
<path d="M262.248 59.7577L307.328 57.9927" stroke="#0F2B46" stroke-miterlimit="10" stroke-linejoin="round"/>
<path d="M268.688 66.9727L301.188 66.1587" stroke="#0F2B46" stroke-miterlimit="10" stroke-linejoin="round"/>
<path d="M342.558 57.0076L387.938 55.0046" stroke="#0F2B46" stroke-miterlimit="10" stroke-linejoin="round"/>
<path d="M348.408 64.4896L381.688 63.0066" stroke="#0F2B46" stroke-miterlimit="10" stroke-linejoin="round"/>
<path d="M419.218 54.2677L464.588 52.2646" stroke="#0F2B46" stroke-miterlimit="10" stroke-linejoin="round"/>
<path d="M425.058 61.7496L458.348 60.2666" stroke="#0F2B46" stroke-miterlimit="10" stroke-linejoin="round"/>
<path d="M494.888 51.5287L540.268 49.5256" stroke="#0F2B46" stroke-miterlimit="10" stroke-linejoin="round"/>
<path d="M500.738 59.0106L534.018 57.5276" stroke="#0F2B46" stroke-miterlimit="10" stroke-linejoin="round"/>
</g>
<path d="M727.735 233.827C726.737 233.137 725.435 234.712 724.22 234.74C721.626 234.797 719.359 234.934 716.776 235.536C711.926 236.672 708.085 239.042 703.539 240.875C700.816 241.977 697.886 241.269 695.228 242.285C694.023 242.744 693.437 244.228 692.624 245.089C690.768 247.026 686.895 247.945 684.378 248.239C676.283 249.185 670.652 242.862 663.784 239.795C657.198 236.849 647.411 234.086 640.109 235.796C631.146 237.892 621.207 247.376 622.108 257.194C622.52 261.762 626.405 266.46 624.419 271.239C622.9 274.899 617.399 279.359 617.833 283.516C618.213 287.125 620.48 290.833 620.556 294.176C620.6 295.959 619.591 297.098 620.513 298.778C622.509 302.438 626.773 303.862 629.985 306.024C631.916 307.33 633.577 310.158 635.844 310.901C640.542 312.443 650.112 314.164 654.908 312.739C663.176 310.288 676.913 305.27 685.267 308.316C688.707 309.571 693.166 314.461 694.978 317.523C697.778 322.273 698.092 329.062 701.413 333.257C708.368 342.058 725.978 346.546 733.649 336.657C738.184 330.806 737.392 321.526 738.13 314.596C739.117 305.158 739.171 296.207 739.215 286.749C739.237 280.713 740.636 274.537 739.367 268.532C738.39 263.95 735.124 259.314 733.746 254.671C732.39 250.094 729.775 246.108 727.974 241.741C727.41 240.394 729.243 234.865 727.735 233.827Z" fill="#7396CD"/>
<path d="M724.61 160.378C724.479 160.239 716.092 161.172 714.334 160.118C710.699 157.944 713.564 151.724 708.855 150.983C703.679 150.167 703.951 156.047 702.247 158.059C701.412 159.044 698.71 158.349 697.831 159.533C696.518 161.281 697.56 164.233 695.9 165.658C694.196 167.115 692.297 165.427 690.431 166.02C686.72 167.196 684.55 170.23 680.764 170.771C677.899 171.182 673.971 169.315 671.465 168.219C668.655 166.99 659.953 164.883 656.86 164.883C655.656 164.884 653.28 167.006 651.978 167.406C651.088 167.683 644.1 167.437 644.741 169.799C645.099 171.077 648.104 171.459 649.037 171.992C654.17 174.927 661.537 171.269 666.984 174.148C671.834 176.715 673.917 183.652 678.973 186.326C682.782 188.344 689.194 185.663 692.927 188.68C696.659 191.703 696.42 198.993 702.29 199.55C704.84 199.792 708.779 198.164 710.71 196.568C711.6 195.828 711.719 194.593 712.772 193.98C717.036 191.474 719.575 193.768 723.047 192.929C724.468 192.588 726.628 190.609 727.832 190.701" fill="#48638C"/>
<path d="M683.224 188.902C681.9 189.694 681.597 190.992 680.794 192.086C679.676 193.592 677.886 194.413 676.66 195.809C675.227 197.452 674.804 199.455 672.895 200.733C671.43 201.716 667.535 202.21 665.408 203.49C662.337 205.337 659.722 208.745 656.25 209.79C653.679 210.564 651.335 210.206 648.764 210.586C643.957 211.298 639.118 212.167 634.474 213.123C629.483 214.149 623.819 217.958 618.828 215.024C617.016 213.955 613.793 206.358 612.404 204.159C610.788 201.594 604.343 199.975 604.267 196.711C604.158 191.861 612.567 193.57 613.5 189.827C614.748 184.806 603.724 183.389 607.478 178.326C609.8 175.194 613.978 177.637 616.896 176.276C618.936 175.333 617.678 171.863 620.368 170.899C622.853 170.009 624.85 172.812 627.443 172.073C628.908 171.655 628.767 169.097 629.993 168.844C631.371 168.562 633.248 169.375 634.637 169.489C636.926 169.678 639.291 168.891 641.516 169.333C645.704 170.162 649.588 171.549 654.167 171.588C657.151 171.613 660.178 171.224 663.097 171.885C665.137 172.344 666.938 173.452 669.021 173.751C669.683 173.846 673.817 174.516 673.285 175.656" fill="#48638C"/>
<path d="M661.275 232.791C659.018 236.147 654.548 233.648 651.662 235.279C650.522 235.926 650.078 237.373 648.775 237.909C647.311 238.512 645.531 237.78 644.251 238.416C643.068 239.001 642.623 240.295 641.126 240.743C638.348 241.569 636.309 241.501 633.715 243.151C632.598 243.856 632.37 245.825 631.328 246.758C629.907 248.046 628.182 248.442 627.151 250.223C624.232 255.274 629.321 254.927 629.592 256.729C629.874 258.652 627.314 259.811 627.487 261.736C627.617 263.203 629.473 263.603 630.102 264.715C630.514 265.45 630.341 266.603 631.166 267.039C635.516 269.347 638.12 264.797 641.907 264.969C643.188 265.028 646.226 264.3 646.182 266.344C646.117 270.436 639.39 269.477 637.057 270.078C632.598 271.223 633.9 274.926 631.144 277.051C629.267 278.501 626.315 277.788 624.395 279.272C621.444 281.544 623.733 284.227 622.735 285.704C621.726 287.207 619.23 287.474 619.219 289.709C619.209 291.44 623.57 292.853 621.954 295.254C621.802 295.48 621.172 295.163 621.064 295.137C618.72 294.593 619.176 291.114 616.301 291.152C613.729 291.186 613.696 293.97 609.487 293.093C604.409 292.033 605.906 289.594 603.671 286.695C600.383 282.419 592.929 285.294 591.681 278.041C591.41 276.461 594.134 275.051 593.591 273.828C592.615 271.577 587.732 270.448 588.654 267.724C591.508 259.292 601.664 265.289 606.101 260.88C607.946 259.059 605.006 257.829 604.984 256.183C604.973 255.07 606.535 254.717 606.687 253.581C606.861 252.207 603.617 251.899 602.738 251.705C599.005 250.872 599.754 250.484 596.933 248.767C595.11 247.657 592.43 248.325 590.488 247.204C589.045 246.37 587.493 245.066 587.07 243.393C586.408 240.823 589.967 240.535 590.52 238.559C591.41 235.321 588.177 232.256 589.945 228.925C592.126 224.797 597.779 227.064 601.186 227.194C604.409 227.317 606.633 225.078 609.899 225.228C613.599 225.396 616.236 227.533 620.131 226.371C624.124 225.183 620.022 222.459 621.606 220.643C622.496 219.62 624.601 219.956 625.588 218.701C626.836 217.12 624.948 216.09 625.664 214.613" fill="#48638C"/>
<path d="M631.31 210.251C626.862 213.814 628.696 212.025 628.598 216.949C628.576 217.943 627.936 219.791 628.923 220.613C631.484 222.773 636.454 223.218 639.568 224.253C643.799 225.662 647.705 227.857 651.959 229.275C655.138 230.336 659.684 233.946 662.689 230.556C665.033 227.897 663.634 221.731 661.388 219.495C659.706 217.822 657.264 216.915 655.452 215.409C651.069 211.78 646.338 209.864 640.512 208.909C637.365 208.391 633.958 208.132 631.31 210.251Z" fill="#48638C"/>
<path d="M651.649 168.374C652.072 163.997 643.099 162.121 640.441 161.413C639.388 161.134 637.056 161.41 636.719 160.119C635.667 156.08 644.412 157.077 641.298 150.558C639.356 146.479 634.061 148.957 631.468 146.975C629.677 145.599 632.064 142.235 631.446 141.846C629.97 140.922 625.142 140.797 626.303 137.513C626.639 136.562 627.659 135.924 628.397 135.318C628.397 135.313 629.211 134.709 629.146 134.62C628.245 133.532 627.138 137.538 627.269 138.117C627.735 140.127 630.242 141.091 630.459 143.205C630.621 144.724 627.887 145.935 628.441 147.371C629.222 149.389 635.569 149.775 635.591 153.947C635.602 155.066 635.146 158.251 633.931 158.829C629.384 161.002 626.542 159.477 623.829 164.449C623.2 165.598 622.722 166.435 623.189 167.634C623.449 168.32 622.484 168.837 622.668 169.465C623.341 171.768 628.213 169.956 629.07 171.355C629.482 172.036 629.092 173.424 629.395 174.206" fill="#48638C"/>
<path d="M725.184 141.072C726.834 141.578 718.392 141.206 717.329 141.857C716.081 142.618 713.01 148.601 712.056 148.026C709.354 146.384 711.101 141.911 709.636 139.672C707.77 136.818 703.278 138.703 700.63 137.214C697.777 135.607 697.321 132.52 694.608 130.988C689.91 128.341 684.702 133.253 679.657 130.415C676.391 128.57 675.067 123.969 671.888 122.342C668.828 120.778 664.966 121.147 662.047 119.38C660.983 118.731 661.374 117.628 660.973 116.77C659.985 114.636 656.003 114.61 654.419 114.795C652.585 115.007 651.197 111.372 649.58 111.424C647.377 111.496 650.773 119.288 647.073 120.008C645.359 120.343 644.697 117.863 642.983 117.919C642.397 117.938 641.844 119.647 641.431 119.98C641.29 120.096 636.57 118.352 636.256 118.103C634.162 116.448 632.74 111.089 629.463 111.197C625.872 111.313 627.944 115.466 626.697 116.049C625.666 116.531 625.351 115.017 624.678 114.915C623.376 114.717 622.107 116.38 620.631 116.071C618.96 115.723 618.852 113.87 616.964 113.932C614.49 114.013 610.974 116.935 607.437 117.346C600.45 118.158 577.556 111.323 573.888 118.508C572.76 120.715 575.917 122.411 574.756 124.478C573.704 126.334 565.924 128.709 566.261 130.082C567.487 135.095 576.547 129.939 578.619 132.749C581.028 136.021 568.973 137.515 572.771 140.525C574.453 141.859 577.1 140.699 578.955 140.748C584.424 140.891 590.75 139.823 595.339 143.46C598.562 146.015 592.355 147.358 594.146 150.097C595.762 152.574 600.363 149.895 602.262 152.231C603.032 153.191 600.211 154.783 601.372 156.354C602.956 158.508 611.354 159.893 611.767 160.531C612.331 161.383 610.606 162.276 611.886 162.997C613.676 164.007 615.933 162.938 617.821 163.334C619.893 163.765 620.642 166.461 623.181 165.276C625.698 164.098 631.145 158.686 634.096 159.135C635.702 159.379 636.288 161.032 637.569 161.809C639.598 163.042 642.386 162.724 644.632 162.956C646.932 163.195 650.318 166.75 652.553 167.849C656.047 169.578 658.737 167.096 662.351 167.566C669.36 168.478 677.65 172.281 684.605 170.793C689.65 169.716 693.946 168.725 698.319 165.867C699.241 165.257 699.263 163.648 700.012 162.847C702.084 160.645 706.196 158.027 709.159 157.682C710.406 157.536 711.763 159.996 712.511 160.712C715.593 163.681 722.504 165.742 726.042 162.39C729.948 158.682 729.579 151.45 728.732 146.601C728.374 144.494 727.756 143.251 725.976 141.963C725.445 141.578 723.915 140.679 725.184 141.072Z" fill="#7396CD"/>
<path d="M723.816 136.172C722.058 136.026 720.355 136.711 718.553 136.395C715.732 135.899 712.879 134.798 710.242 133.669C708.213 132.799 704.871 129.615 703.092 129.209C701.486 128.841 699.837 129.457 698.35 128.712C696.441 127.756 696.961 124.055 694.878 123.39C692.328 122.571 691.167 123.494 688.737 123.996C685.742 124.611 682.552 123.85 679.633 123.339C673.308 122.228 673.883 114.631 665.734 118.114C665.192 118.347 662.805 118.114 662.685 118.723C662.284 120.761 670.964 121.214 672.331 121.917C677.084 124.354 674.176 129.54 677.594 131.353C680.946 133.13 685.634 132.233 689.084 131.397C690.538 131.042 692.274 130.279 693.75 130.819C697.146 132.054 696.712 135.943 699.555 137.454C702.896 139.229 707.584 136.259 710.448 139.125C711.902 140.584 712.466 148.3 712.673 148.411C713.844 149.035 715.58 144.256 716.524 143.649C718.304 142.514 719.812 143.21 721.635 143.362C722.774 143.457 723.751 142.38 724.651 141.936C725.953 141.297 727.288 135.69 725.704 136.075" fill="#0F2B46"/>
<path d="M723.816 136.172C722.058 136.026 720.355 136.711 718.553 136.395C715.732 135.899 712.879 134.798 710.242 133.669C708.213 132.799 704.871 129.615 703.092 129.209C701.486 128.841 699.837 129.457 698.35 128.712C696.441 127.756 696.961 124.055 694.878 123.39C692.328 122.571 691.167 123.494 688.737 123.996C685.742 124.611 682.552 123.85 679.633 123.339C673.308 122.228 673.883 114.631 665.734 118.114C665.192 118.347 662.805 118.114 662.685 118.723C662.284 120.761 670.964 121.214 672.331 121.917C677.084 124.354 674.176 129.54 677.594 131.353C680.946 133.13 685.634 132.233 689.084 131.397C690.538 131.042 692.274 130.279 693.75 130.819C697.146 132.054 696.712 135.943 699.555 137.454C702.896 139.229 707.584 136.259 710.448 139.125C711.902 140.584 712.466 148.3 712.673 148.411C713.844 149.035 715.58 144.256 716.524 143.649C718.304 142.514 719.812 143.21 721.635 143.362C722.774 143.457 723.751 142.38 724.651 141.936C725.953 141.297 727.288 135.69 725.704 136.075" stroke="#0F2B46" stroke-width="0.781212" stroke-miterlimit="10" stroke-linecap="round" stroke-linejoin="round"/>
<path d="M687.595 187.981C689.331 186.564 679.089 185.674 677.201 185.031C672.763 183.516 671.374 176.571 667.555 174.22C665.081 172.7 661.685 174.402 659.298 173.743C657.887 173.352 656.618 172.527 655.12 172.343C652.831 172.059 651.496 173.249 648.925 172.491C647.536 172.08 646.115 171.82 644.672 171.686C644.585 171.678 642.469 171.504 642.545 171.656C642.936 172.451 645.984 172.764 646.701 172.952C650.769 174.016 655.044 174.362 659.168 175.143C661.001 175.489 664.235 175.511 665.84 176.472C670.756 179.419 672.926 185.779 678.036 188.479C678.524 188.735 678.98 188.207 679.447 188.236C680.705 188.315 681.465 189.716 682.756 189.54C684.959 189.243 685.664 189.559 687.595 187.981Z" fill="#0F2B46" stroke="#0F2B46" stroke-width="0.781212" stroke-miterlimit="10" stroke-linecap="round" stroke-linejoin="round"/>
<path d="M672.464 201.169C670.348 200.468 669.882 205.301 670.327 206.662C670.967 208.647 674.32 209.202 673.267 211.592C672.529 213.251 669.632 211.6 668.254 212.462C666.67 213.442 665.585 220.418 666.974 221.945C668.395 223.504 670.923 224.056 672.16 225.706C672.866 226.641 672.562 228.194 673.007 229.241C674.255 232.167 676.989 234.34 679.81 235.636C681.199 236.268 692.733 235.672 689.282 239.03C688.175 240.11 686.808 240.088 685.517 240.62C683.249 241.546 677 246.443 674.059 244.034C671.705 242.101 675.719 239.632 670.88 237.556C667.875 236.267 660.746 237.66 658.739 233.81C657.947 232.291 661.256 231.577 661.69 230.657C663.328 227.248 660.377 223.066 657.035 221.589C654.757 220.584 653.531 222.469 651.371 222.988C648.756 223.612 646.76 223.524 644.145 222.834C641.791 222.213 639.762 221.161 638.492 219.008C637.668 217.614 638.004 215.519 635.91 215.255C633.957 215.008 627.457 219.518 626.427 215.532C625.721 212.769 638.405 211.155 640.836 210.024C643.7 208.686 642.42 204.781 644.774 203.75C648.149 202.271 651.599 208.195 655.234 207.868C661.712 207.289 656.959 203.682 659.411 202.404C660.496 201.838 667.267 200.627 668.526 200.703C669.546 200.764 670.576 200.708 671.585 200.85C671.835 200.885 673.191 201.411 672.464 201.169Z" fill="#0F2B46" stroke="#0F2B46" stroke-width="0.781212" stroke-miterlimit="10" stroke-linecap="round" stroke-linejoin="round"/>
<path d="M726.619 369.487C726.619 361.18 716.822 367.271 715.563 359.717C715.107 356.993 719.285 358.06 719.675 356.116C720.196 353.543 714.359 352.397 715.303 349.56C716.149 347.032 721.693 346.53 723.277 344.417C726.467 340.158 721.531 340.722 720.966 337.345C720.706 335.787 722.909 335.132 722.247 333.36C720.76 329.385 709.454 332.271 710.29 323.846C710.377 323.032 712.416 311.563 712.601 311.374C714.055 309.921 720.587 309.914 720.966 308.031C721.661 304.518 714.641 304.531 716.333 298.903C717.755 294.182 721.455 292.678 723.918 289.389C724.135 289.105 724.493 288.486 724.308 288.104C723.343 286.178 715.672 291.531 714.532 292.475C713.122 293.656 712.395 295.723 711.19 297.103C708.782 299.856 706.329 300.757 703.346 302.246C702.412 302.712 701.707 304.571 701.034 305.332C699.071 307.537 694.47 308.144 691.649 307.517C685.247 306.096 688.795 302.988 686.897 300.703C685.128 298.583 681.352 297.406 682.133 293.889C682.719 291.252 689.078 287.64 686.897 285.018C684.792 282.495 682.296 290.821 679.301 291.318C676.253 291.826 670.48 290.358 667.865 288.618C667.41 288.317 663.666 285.443 663.493 285.532C663.265 285.647 663.319 286.884 663.362 287.075C663.558 287.841 666.108 288.717 666.834 289.132C668.939 290.333 672.14 294.284 672.487 296.718C672.932 299.771 666.802 303.181 664.393 304.56C663.015 305.345 658.805 306.177 657.189 305.717C655.789 305.317 654.65 302.709 652.946 303.275C651.069 303.902 650.917 307.123 648.834 307.903C645.373 309.203 642.443 307.683 639.069 307.26C636.454 306.934 633.546 308.115 631.094 307.132C625.473 304.883 626.287 300.654 622.739 297.103C621.741 296.112 621.057 295.091 620.167 294.018C620.092 293.923 619.668 293.137 619.527 293.247C618.941 293.681 619.061 295.159 618.497 295.817C617.303 297.209 615.241 297.155 614.124 299.16C609.469 307.544 618.887 303.637 622.099 307.646C623.878 309.873 621.697 315.279 622.479 315.746C625.962 317.833 632.124 316.92 634.946 319.346C637.029 321.129 633.633 324.887 636.616 326.545C639.752 328.284 643.268 326.663 644.982 330.66C646.154 333.392 643.094 333.124 641.51 334.26C640.078 335.282 640.826 337.855 639.969 338.374C637.094 340.094 632.634 338.141 630.454 341.203C627.101 345.899 634.859 346.67 635.466 350.331C635.759 352.069 633.177 352.455 632.504 353.802C631.376 356.071 634.077 360.258 635.597 361.774C636.399 362.582 638.689 364.309 639.839 364.473C640.967 364.634 643.116 363.165 643.951 363.831C646.371 365.763 643.441 368.44 644.591 369.873C646.588 372.363 648.129 370.732 650.255 372.059C655.854 375.563 654.78 380.594 664.002 378.616C669.623 377.412 670.654 368.989 677.63 370.259C680.983 370.867 677.967 374.736 680.723 375.916C683.045 376.912 685.822 376.242 688.177 377.33C689.577 377.973 690.542 380.65 691.909 380.802C694.166 381.053 696.315 379.689 698.593 380.545C702.955 382.182 698.506 385.216 699.754 386.458C702.412 389.127 710.344 387.931 711.711 389.287C714.977 392.557 716.605 396.574 719.415 400.601C720.435 402.05 725.936 408.281 727.78 407.543C737.155 403.79 736.439 384.669 733.054 377.587C731.068 373.456 727.292 370.729 725.849 366.401" fill="#48638C"/>
<path d="M726.68 135.92C724.131 134.938 721.396 137.925 718.564 137.925C715.939 137.925 701.736 131.6 699.479 129.907C697.688 128.568 695.66 125.262 693.555 124.561C689.8 123.306 687.413 127.004 684.201 126.47C679.851 125.744 677.55 121.98 673.894 119.787C670.346 117.659 666.494 118.117 663.391 115.016C659.051 110.674 664.801 111.031 664.346 108.334C664.02 106.335 661.492 105.302 660.917 103.561C660.374 101.937 662.056 101.441 662.056 100.316C662.056 99.1026 660.732 98.0892 660.537 96.8793C660.439 96.3488 663.792 90.1793 664.346 89.6249C666.494 87.4754 670.66 87.9995 673.514 87.5242C676.172 87.0805 675.304 85.007 677.138 84.088C678.852 83.234 680.686 83.7646 682.292 82.5602C684.516 80.8925 683.323 79.4592 683.627 77.5973C683.854 76.2421 686.263 76.3647 686.686 75.3058C687.164 74.1187 685.015 73.2474 685.731 72.0604C687.619 68.9214 692.393 69.2849 695.084 67.6693C696.202 67.0031 694.672 66.1926 695.28 65.3789C696.517 63.722 699.837 63.6742 701.388 62.5154C703.841 60.6785 699.425 59.2463 701.388 56.7876C702.918 54.8747 708.832 56.4122 709.591 54.8791C710.199 53.6703 707.54 49.4886 708.072 47.6246C708.246 46.9844 708.625 46.9345 709.211 46.8607C714.192 46.2379 718.803 43.6338 723.534 43.0425C729.99 42.2363 737.856 53.1137 738.42 58.1243C738.909 62.4156 738.062 66.861 738.995 71.1067C739.918 75.3199 741.947 78.6248 741.48 83.1331C741.079 86.9437 739.57 90.5775 739.191 94.3968C738.54 100.884 738.409 105.111 735.371 111.197C732.572 116.788 731.595 123.082 729.642 128.952C729.035 130.784 728.905 132.93 727.538 134.298C727.179 134.657 727.874 136.379 726.68 135.92Z" fill="#7396CD"/>
<path d="M725.609 188.893C720.846 189.091 713.772 190.316 709.898 193.027C707.392 194.778 705.688 197.943 702.292 198.019C699.015 198.092 698.191 192.149 696.769 190.129C695.511 188.323 689.033 185.189 686.907 185.118C679.029 184.856 675.861 194.988 671.13 199.418C670.36 200.133 668.277 201.389 668.081 202.528C667.571 205.374 671.391 207.39 670.425 209.858C669.893 211.22 667.495 210.684 666.465 211.653C665.119 212.908 664.989 217.479 664.924 219.254C664.718 225.695 670.208 227.045 673.17 231.275C674.168 232.706 674.147 234.973 676.23 235.659C677.868 236.196 687.688 236.03 685.279 238.796C684.324 239.899 681.764 241.164 680.375 241.577C673.55 243.602 676.284 236.115 671.488 234.244C669.611 233.508 667.43 234.817 665.553 234.153C663.101 233.284 660.171 231.472 657.85 231.06C654.605 230.488 650.048 235.103 647.314 236.302C646.229 236.781 639.99 237.8 640.446 239.312C640.576 239.74 641.27 239.652 641.715 239.729C646.327 240.546 652.283 238.323 656.819 240.098C659.878 241.294 660.367 245.283 663.123 246.782C667.343 249.069 672.269 252.277 676.892 253.636C681.959 255.125 689.782 253.165 693.72 249.7C694.729 248.815 695.641 245.426 696.845 245.068C697.865 244.765 698.809 249.151 701.478 248.192C704.647 247.056 705.46 242.687 708.292 241.14C710.137 240.136 712.719 240.578 714.77 240.366C719.164 239.911 724.427 237.782 727.823 234.993C731.87 231.676 732.271 214.819 732.391 210.258C732.467 207.526 733.942 204.622 732.695 202.053C731.62 199.855 730.275 193.725 728.647 192.313C727.877 191.639 726.109 191.098 725.935 190.296C725.87 189.998 726.206 188.869 725.609 188.893Z" fill="#7396CD"/>
<path d="M621.246 285.334C619.011 285.334 618.382 287.866 618.653 289.537C618.848 290.708 619.738 291.832 620.269 292.901C620.834 294.022 620.758 295.561 621.246 296.782C622.071 298.837 624.968 303.945 626.422 305.642C627.626 307.047 630.295 309.587 632.563 308.294C634.472 307.203 633.453 304.348 632.888 302.796C631.586 299.278 629.438 296.867 627.192 293.936C626.584 293.136 625.597 292.533 625.38 291.478C624.935 289.22 626.161 287.066 625.771 284.751C625.619 283.846 623.145 279.928 623.698 282.164" fill="#7396CD"/>
</g>
<defs>
<clipPath id="clip0_9_38611">
<rect width="720" height="284" fill="white"/>
</clipPath>
</defs>
</svg>
