<svg width="140" height="34" viewBox="0 0 140 34" fill="none" xmlns="http://www.w3.org/2000/svg">
<g clip-path="url(#clip0_7_33996)">
<path fill-rule="evenodd" clip-rule="evenodd" d="M73.835 9.11943C72.6971 8.51088 71.3533 8.20665 69.8041 8.20665C67.6857 8.20665 65.9103 8.87406 64.4783 10.2089C64.6353 8.89369 65.1061 7.89256 65.8909 7.20547C66.695 6.49879 68.7558 5.7247 70.4624 5.41065C78.2147 4.25076 77.3253 7.64718e-07 77.3253 7.64718e-07L72.3507 0C72.3507 0 72.6729 0.541515 67.7831 1.4673C61.9767 2.5666 59.153 6.12585 59.153 12.6823C59.153 16.1765 59.9867 18.7972 61.6541 20.5443C63.321 22.2913 65.5571 23.1649 68.362 23.1649C70.0691 23.1649 71.5989 22.8508 72.9524 22.2227C74.3253 21.5748 75.3939 20.6817 76.1593 19.5431C76.9436 18.385 77.3365 17.0501 77.3365 15.5385C77.3365 14.0663 77.0318 12.7805 76.4243 11.6812C75.8357 10.5623 74.9725 9.70835 73.835 9.11943ZM70.7453 17.9531C70.1766 18.6009 69.3923 18.9248 68.3915 18.9248C67.411 18.9248 66.6166 18.6107 66.0081 17.9825C65.4002 17.3543 65.0964 16.5495 65.0964 15.568C65.0964 14.5472 65.3905 13.7424 65.9791 13.1535C66.587 12.5645 67.3912 12.2701 68.3915 12.2701C69.3725 12.2701 70.1572 12.5645 70.7453 13.1535C71.3339 13.7227 71.6285 14.5178 71.6285 15.5385C71.6285 16.5005 71.3339 17.3052 70.7453 17.9531ZM80.3331 6.85627H85.8939V12.7748H91.631V6.85627H97.2217V22.8157H91.631V17.2211H85.8939V22.8157H80.3331V6.85627ZM105.7 6.85627H100.139V22.8157H105.318L112.283 14.4237V22.8157H117.872V6.85627H112.723L105.7 15.2187V6.85627ZM126.435 17.1327H128.531L132.238 22.8157H138.828L133.121 14.5121L138.476 6.85627H132.562L128.649 12.7453H126.435V6.85627H120.844V22.8157H126.435V17.1327ZM57.8581 6.85627L48.5896 28.8446H42.9059L45.7653 23.0218L38.939 6.85627H44.6766L48.5896 16.6027L52.5323 6.85627H57.8581ZM34.6311 7.62185C33.4541 6.93476 32.1399 6.59122 30.6884 6.59122C28.5896 6.59122 27.0204 7.20959 25.9808 8.44633V6.85627H20.6553V28.5281H26.2456V21.4023C27.344 22.5212 28.825 23.0807 30.6884 23.0807C32.1399 23.0807 33.4541 22.747 34.6311 22.0795C35.8276 21.3925 36.769 20.4306 37.4557 19.1939C38.1616 17.9376 38.5149 16.4849 38.5149 14.8359C38.5149 13.187 38.1616 11.7442 37.4557 10.5075C36.769 9.25112 35.8276 8.28925 34.6311 7.62185ZM31.9242 17.6333C31.2965 18.3007 30.4923 18.6344 29.5115 18.6344C28.5308 18.6344 27.7265 18.3007 27.0988 17.6333C26.4712 16.9462 26.1573 16.0138 26.1573 14.8359C26.1573 13.6581 26.4712 12.7355 27.0988 12.0681C27.7265 11.381 28.5308 11.0375 29.5115 11.0375C30.4923 11.0375 31.2965 11.381 31.9242 12.0681C32.5519 12.7355 32.8657 13.6581 32.8657 14.8359C32.8657 16.0138 32.5519 16.9462 31.9242 17.6333ZM18.3598 6.84358H12.0633V22.8157H6.3259V6.84358H0V2.22063H18.3598V6.84358Z" fill="#F54B0E"/>
<path d="M94.7367 33.5762C94.1651 33.5762 93.6496 33.4497 93.1904 33.1968C92.7389 32.9365 92.3814 32.5832 92.1179 32.1368C91.8548 31.6831 91.7231 31.1661 91.7231 30.5859C91.7231 29.9983 91.8548 29.4813 92.1179 29.035C92.3814 28.5887 92.7389 28.2391 93.1904 27.9862C93.6419 27.7333 94.1573 27.6068 94.7367 27.6068C95.3238 27.6068 95.8426 27.7333 96.2941 27.9862C96.7534 28.2391 97.1109 28.5887 97.3666 29.035C97.6302 29.4813 97.7615 29.9983 97.7615 30.5859C97.7615 31.1661 97.6302 31.6831 97.3666 32.1368C97.1109 32.5832 96.7534 32.9365 96.2941 33.1968C95.8354 33.4497 95.3161 33.5762 94.7367 33.5762ZM94.7367 32.8732C95.1654 32.8732 95.5457 32.7803 95.8765 32.5943C96.2079 32.4009 96.4675 32.1331 96.6555 31.7909C96.8512 31.4413 96.9491 31.0396 96.9491 30.5859C96.9491 30.1247 96.8512 29.723 96.6555 29.3809C96.4675 29.0387 96.2079 28.7746 95.8765 28.5887C95.5457 28.3953 95.1693 28.2986 94.7478 28.2986C94.3269 28.2986 93.9505 28.3953 93.6191 28.5887C93.2882 28.7746 93.0247 29.0387 92.829 29.3809C92.6338 29.723 92.5359 30.1247 92.5359 30.5859C92.5359 31.0396 92.6338 31.4413 92.829 31.7909C93.0247 32.1331 93.2882 32.4009 93.6191 32.5943C93.9505 32.7803 94.323 32.8732 94.7367 32.8732Z" fill="#F54B0E"/>
<path d="M100.601 33.5217V27.6639H101.402V30.2524H105.138V27.6639H105.94V33.5217H105.138V30.9331H101.402V33.5217H100.601Z" fill="#F54B0E"/>
<path d="M108.263 33.5105L108.32 32.8299C108.372 32.8373 108.421 32.8485 108.467 32.8634C108.519 32.8708 108.564 32.8745 108.602 32.8745C108.842 32.8745 109.034 32.7853 109.178 32.6068C109.328 32.4282 109.441 32.1902 109.516 31.8927C109.591 31.5951 109.644 31.2604 109.674 30.8885C109.704 30.5091 109.73 30.1297 109.753 29.7504L109.855 27.6639H114.2V33.5217H113.399V28.1213L113.602 28.3556H110.374L110.566 28.1102L110.475 29.8061C110.453 30.312 110.412 30.7955 110.351 31.2567C110.299 31.7179 110.212 32.1232 110.092 32.4729C109.979 32.8225 109.821 33.0977 109.618 33.2985C109.415 33.492 109.155 33.5886 108.839 33.5886C108.748 33.5886 108.655 33.5812 108.557 33.5663C108.467 33.5514 108.369 33.5328 108.263 33.5105Z" fill="#F54B0E"/>
<path d="M121.284 33.5204V32.2261L121.25 32.0141V29.8495C121.25 29.3511 121.107 28.968 120.821 28.7003C120.543 28.4325 120.125 28.2986 119.568 28.2986C119.184 28.2986 118.819 28.3618 118.473 28.4883C118.127 28.6147 117.834 28.7821 117.593 28.9904L117.232 28.399C117.533 28.1461 117.894 27.9527 118.315 27.8188C118.737 27.6775 119.181 27.6068 119.647 27.6068C120.414 27.6068 121.005 27.7965 121.419 28.1758C121.841 28.5478 122.051 29.1168 122.051 29.883V33.5204H121.284ZM119.241 33.5762C118.797 33.5762 118.409 33.5055 118.078 33.3642C117.754 33.2154 117.506 33.0146 117.333 32.7617C117.16 32.5013 117.074 32.2038 117.074 31.8691C117.074 31.5641 117.145 31.2889 117.288 31.0434C117.439 30.7905 117.679 30.5896 118.011 30.4409C118.349 30.2847 118.801 30.2065 119.365 30.2065H121.408V30.7979H119.387C118.816 30.7979 118.417 30.8983 118.191 31.0992C117.973 31.3 117.864 31.5492 117.864 31.8467C117.864 32.1815 117.996 32.4493 118.259 32.6501C118.522 32.8509 118.891 32.9514 119.365 32.9514C119.817 32.9514 120.204 32.8509 120.527 32.6501C120.859 32.4418 121.099 32.1443 121.25 31.7575L121.43 32.3042C121.28 32.691 121.017 32.9997 120.64 33.2303C120.271 33.4609 119.805 33.5762 119.241 33.5762Z" fill="#F54B0E"/>
<path d="M125.313 33.5211V27.6633H126.115V32.3161L130.076 27.6633H130.787V33.5211H129.986V28.8572L126.036 33.5211H125.313ZM128 26.8153C127.503 26.8153 127.1 26.6926 126.792 26.4471C126.491 26.1942 126.333 25.8334 126.318 25.3648H126.894C126.901 25.6623 127.006 25.8966 127.209 26.0677C127.413 26.2388 127.676 26.3244 128 26.3244C128.323 26.3244 128.587 26.2388 128.79 26.0677C129 25.8966 129.109 25.6623 129.117 25.3648H129.693C129.685 25.8334 129.527 26.1942 129.219 26.4471C128.91 26.6926 128.504 26.8153 128 26.8153Z" fill="#F54B0E"/>
<path d="M134.215 33.5217V27.6639H135.017V30.2524H138.753V27.6639H139.554V33.5217H138.753V30.9331H135.017V33.5217H134.215Z" fill="#F54B0E"/>
</g>
<defs>
<clipPath id="clip0_7_33996">
<rect width="140" height="34" fill="white"/>
</clipPath>
</defs>
</svg>
