<svg width="320" height="541" viewBox="0 0 320 541" fill="none" xmlns="http://www.w3.org/2000/svg">
<g clip-path="url(#clip0_14_11831)">
<path d="M55.6428 531.243L62.2133 246.301C62.2461 244.929 62.5738 243.583 63.18 242.35L63.8191 241.081C64.7694 239.419 66.0966 238.259 68.9477 237.446L71.0122 237.119C71.4546 237.03 74.6826 236.701 75.125 236.724L81.6299 236.439C81.9248 236.427 82.2034 236.427 82.4819 236.44L88.5282 236.724L93.3126 237.086C93.6075 237.107 93.9025 237.143 94.1811 237.192L99.7029 238.13C100.162 238.156 103.045 238.831 103.504 238.982H103.537L107.273 240.684C107.863 240.948 108.403 241.274 108.911 241.654C111.091 243.276 112.402 245.795 112.484 248.501L121.741 531.243" stroke="#0F2B46" stroke-width="1.56605" stroke-miterlimit="10" stroke-linejoin="round"/>
<path d="M62.344 242.366C61.0332 239.748 55.9047 237.356 56.6748 233.495C57.6251 228.739 67.4399 226.332 71.1429 225.591C83.3336 223.151 96.9171 223.095 108.567 227.754C111.287 228.84 119.267 231.103 118.562 235.358C117.956 238.948 113.466 241.275 111.172 243.559" stroke="#0F2B46" stroke-width="1.56605" stroke-miterlimit="10" stroke-linecap="round" stroke-linejoin="round"/>
<path d="M56.5931 233.76C56.5931 233.76 54.9709 222.301 55.7902 219.344C56.5931 216.386 64.5072 213.783 67.0961 212.995C79.8766 209.106 92.2147 209.814 104.979 213.276C106.667 213.737 115.695 217.025 117.153 219.344C118.612 221.664 118.612 233.76 118.612 233.76" stroke="#0F2B46" stroke-width="1.56605" stroke-miterlimit="10" stroke-linecap="round" stroke-linejoin="round"/>
<path d="M63.4583 214.132V198.2V197.46C63.8023 194.659 69.2422 192.914 71.3723 192.159C79.6469 189.226 92.0342 189.391 100.342 191.989C101.57 192.369 110.074 195.529 110.074 198.2V214.132" stroke="#0F2B46" stroke-width="1.56605" stroke-miterlimit="10" stroke-linecap="round" stroke-linejoin="round"/>
<path d="M61.6729 273.304C67.0308 264.018 91.7235 265.175 100.391 267.644C101.751 268.031 113.172 272.122 113.254 273.304" stroke="#0F2B46" stroke-width="1.56605" stroke-miterlimit="10" stroke-linecap="round" stroke-linejoin="round"/>
<path d="M60.8391 309.237C66.1807 299.95 91.7254 300.489 100.393 302.959C101.753 303.345 114.386 308.054 114.468 309.237" stroke="#0F2B46" stroke-width="1.56605" stroke-miterlimit="10" stroke-linecap="round" stroke-linejoin="round"/>
<path d="M60.0532 346.099C65.4112 336.812 91.3326 336.822 100.017 339.291C101.377 339.678 115.468 344.916 115.55 346.099" stroke="#0F2B46" stroke-width="1.56605" stroke-miterlimit="10" stroke-linecap="round" stroke-linejoin="round"/>
<path d="M59.4309 381.852C61.0039 378.847 66.1979 377.369 69.1309 376.452C80.0271 373.044 91.9065 374.022 102.819 376.66C104.032 376.955 116.435 380.132 116.419 381.067" stroke="#0F2B46" stroke-width="1.56605" stroke-miterlimit="10" stroke-linecap="round" stroke-linejoin="round"/>
<path d="M58.8044 417.832C61.7374 414.268 68.996 412.962 73.2234 412.269C86.3808 410.109 99.0631 411.335 111.614 415.777C113.499 416.447 116.219 417.184 117.808 418.487" stroke="#0F2B46" stroke-width="1.56605" stroke-miterlimit="10" stroke-linecap="round" stroke-linejoin="round"/>
<path d="M57.8708 453.697C60.0337 450.697 67.9478 450.255 71.1757 449.375C83.5958 445.978 107.83 448.123 118.775 455.964" stroke="#0F2B46" stroke-width="1.56605" stroke-miterlimit="10" stroke-linecap="round" stroke-linejoin="round"/>
<path d="M57.3658 490.961C57.0217 491.22 58.5782 490.524 58.8731 490.388C60.2167 489.785 61.5277 489.292 62.9368 488.874C66.9021 487.701 70.9001 486.672 75.0128 486.252C87.056 485.025 97.5588 486.821 109.291 489.118C111.306 489.514 118.27 490.961 120.22 492.644" stroke="#0F2B46" stroke-width="1.56605" stroke-miterlimit="10" stroke-linecap="round" stroke-linejoin="round"/>
<path d="M43.0918 543.62C44.5829 539.505 56.2657 536.52 59.6083 535.558C76.6982 530.649 97.8024 531.972 114.925 535.963C119.12 536.941 134.686 541.755 134.817 547.033C134.833 547.375 134.735 547.746 134.555 548.137C132.9 551.901 121.758 558.832 121.758 558.832" stroke="#0F2B46" stroke-width="1.56605" stroke-miterlimit="10" stroke-linecap="round" stroke-linejoin="round"/>
<path d="M43.0918 536.555C47.778 532.993 53.3818 530.915 57.8714 529.794C69.3411 526.936 74.7318 526.268 82.8425 525.857C84.9235 525.752 86.7424 525.772 88.6922 525.857C97.7205 526.255 113.663 528.562 121.741 530.915C125.248 531.934 131.36 535.169 134.817 538.244" stroke="#0F2B46" stroke-width="1.56605" stroke-miterlimit="10" stroke-linecap="round" stroke-linejoin="round"/>
<path d="M43.1956 518.052C47.8654 514.489 53.4692 512.413 57.9751 511.29C69.4448 508.434 74.8356 507.764 82.9299 507.354C85.0272 507.248 86.8295 507.268 88.7958 507.354C97.8077 507.753 113.751 510.06 121.845 512.413C125.351 513.432 131.463 516.665 134.92 519.742" stroke="#0F2B46" stroke-width="1.56605" stroke-miterlimit="10" stroke-linecap="round" stroke-linejoin="round"/>
<path d="M43.1922 518.077L43.012 544.459" stroke="#0F2B46" stroke-width="1.56605" stroke-miterlimit="10" stroke-linejoin="round"/>
<path d="M51.9253 513.118L51.7451 538.24" stroke="#0F2B46" stroke-width="1.56605" stroke-miterlimit="10" stroke-linejoin="round"/>
<path d="M64.804 509.608L64.6074 534.731" stroke="#0F2B46" stroke-width="1.56605" stroke-miterlimit="10" stroke-linejoin="round"/>
<path d="M84.5677 507.828L84.3875 532.95" stroke="#0F2B46" stroke-width="1.56605" stroke-miterlimit="10" stroke-linejoin="round"/>
<path d="M106.191 509.129L105.995 534.251" stroke="#0F2B46" stroke-width="1.56605" stroke-miterlimit="10" stroke-linejoin="round"/>
<path d="M128.556 515.253L128.376 540.375" stroke="#0F2B46" stroke-width="1.56605" stroke-miterlimit="10" stroke-linejoin="round"/>
<path d="M134.913 519.737L134.815 547.014" stroke="#0F2B46" stroke-width="1.56605" stroke-miterlimit="10" stroke-linejoin="round"/>
<path d="M192.203 610.713L194.196 469.122C194.215 467.155 194.812 465.236 195.881 463.591L196.841 462.126C198.472 460.017 200.719 458.544 205.538 457.513L209.052 457.098C209.813 456.986 215.266 456.567 216.009 456.596L227.785 456.212L238.746 456.596L247.587 457.098L257.66 458.381C258.457 458.413 263.349 459.272 264.128 459.462H264.183L271.103 461.823C271.683 462.024 272.263 462.28 272.806 462.586L273.984 463.242C277.154 465.021 279.165 468.34 279.274 471.981L282.97 607.314" stroke="#0F2B46" stroke-width="1.56605" stroke-miterlimit="10" stroke-linejoin="round"/>
<path d="M194.235 435.067L202.677 73.1269C202.713 71.596 203.094 70.0904 203.764 68.719L204.724 66.8185C205.956 64.7079 207.659 63.2368 211.301 62.2041L213.964 61.7892C214.544 61.6769 218.675 61.2584 219.236 61.2874L227.679 60.9232C227.987 60.9105 228.313 60.9106 228.621 60.9251L236.466 61.2874L242.68 61.753C243.006 61.7765 243.314 61.8164 243.64 61.8689L250.796 63.0719C251.394 63.1063 255.108 63.9633 255.688 64.1535H255.724L260.634 66.3602C261.304 66.6645 261.938 67.0395 262.536 67.4816L262.971 67.7986C265.543 69.6955 267.101 72.6613 267.21 75.8517L279.113 435.067" stroke="#0F2B46" stroke-width="1.56605" stroke-miterlimit="10" stroke-linejoin="round"/>
<path d="M202.844 68.461C201.159 65.1365 194.565 62.1019 195.561 57.2012C196.775 51.1664 209.384 48.1119 214.131 47.1716C229.802 44.0754 247.231 44.003 262.195 49.9164C265.674 51.2951 275.928 54.1666 275.022 59.5673C274.243 64.1219 268.482 67.0768 265.547 69.9756" stroke="#0F2B46" stroke-width="1.56605" stroke-miterlimit="10" stroke-linecap="round" stroke-linejoin="round"/>
<path d="M195.45 57.5318C195.45 57.5318 193.367 42.9911 194.417 39.2372C195.45 35.4833 205.596 32.1788 208.929 31.1787C225.343 26.2437 241.178 27.1423 257.573 31.5356C259.747 32.1226 271.342 36.2932 273.208 39.2372C275.075 42.1812 275.074 57.5318 275.074 57.5318" stroke="#0F2B46" stroke-width="1.56605" stroke-miterlimit="10" stroke-linecap="round" stroke-linejoin="round"/>
<path d="M204.27 32.6239V12.4053V11.4632C204.705 7.91043 211.698 5.69472 214.433 4.73633C225.05 1.0169 240.957 1.22525 251.628 4.52256C253.186 5.00447 264.129 9.01558 264.129 12.4053V32.6239" stroke="#0F2B46" stroke-width="1.56605" stroke-miterlimit="10" stroke-linecap="round" stroke-linejoin="round"/>
<path d="M201.97 107.726C208.836 95.941 240.559 97.4085 251.683 100.543C253.44 101.034 268.097 106.226 268.206 107.726" stroke="#0F2B46" stroke-width="1.56605" stroke-miterlimit="10" stroke-linecap="round" stroke-linejoin="round"/>
<path d="M200.887 153.328C207.753 141.543 240.563 142.228 251.687 145.36C253.445 145.851 269.659 151.828 269.768 153.328" stroke="#0F2B46" stroke-width="1.56605" stroke-miterlimit="10" stroke-linecap="round" stroke-linejoin="round"/>
<path d="M199.889 200.105C206.756 188.32 240.055 188.333 251.197 191.467C252.936 191.958 271.053 198.605 271.144 200.105" stroke="#0F2B46" stroke-width="1.56605" stroke-miterlimit="10" stroke-linecap="round" stroke-linejoin="round"/>
<path d="M199.089 245.484C201.118 241.67 207.786 239.793 211.554 238.628C225.54 234.304 240.795 235.547 254.799 238.893C256.357 239.268 272.282 243.301 272.264 244.487" stroke="#0F2B46" stroke-width="1.56605" stroke-miterlimit="10" stroke-linecap="round" stroke-linejoin="round"/>
<path d="M198.297 291.147C202.065 286.625 211.395 284.968 216.812 284.087C233.697 281.348 250.003 282.904 266.09 288.539C268.518 289.39 272.015 290.325 274.044 291.981" stroke="#0F2B46" stroke-width="1.56605" stroke-miterlimit="10" stroke-linecap="round" stroke-linejoin="round"/>
<path d="M197.101 336.656C199.855 332.848 210.036 332.288 214.185 331.171C230.128 326.861 261.235 329.582 275.294 339.532" stroke="#0F2B46" stroke-width="1.56605" stroke-miterlimit="10" stroke-linecap="round" stroke-linejoin="round"/>
<path d="M196.429 383.955C196.013 384.283 197.987 383.399 198.386 383.229C200.089 382.462 201.792 381.837 203.604 381.305C208.676 379.817 213.822 378.511 219.094 377.98C234.548 376.42 248.045 378.699 263.1 381.616C265.709 382.12 274.64 383.955 277.141 386.091" stroke="#0F2B46" stroke-width="1.56605" stroke-miterlimit="10" stroke-linecap="round" stroke-linejoin="round"/>
<path d="M193.889 468.516C189.324 467.63 176.642 456.031 178.127 450.912" stroke="#0F2B46" stroke-width="1.56605" stroke-miterlimit="10" stroke-linecap="round" stroke-linejoin="round"/>
<path d="M178.127 450.781C180.03 445.559 195.031 441.771 199.324 440.55C221.264 434.32 248.349 435.997 270.343 441.064C275.724 442.304 295.725 448.415 295.888 455.112C295.906 455.547 295.779 456.017 295.562 456.515C293.442 461.29 281.684 468.512 281.684 468.512" stroke="#0F2B46" stroke-width="1.56605" stroke-miterlimit="10" stroke-linecap="round" stroke-linejoin="round"/>
<path d="M178.127 441.82C184.124 437.298 191.317 434.662 197.096 433.24C211.825 429.615 218.746 428.763 229.145 428.243C231.826 428.109 234.163 428.135 236.663 428.243C248.258 428.749 268.731 431.677 279.112 434.662C283.605 435.956 291.45 440.059 295.888 443.964" stroke="#0F2B46" stroke-width="1.56605" stroke-miterlimit="10" stroke-linecap="round" stroke-linejoin="round"/>
<path d="M178.241 418.332C184.237 413.81 191.43 411.176 197.227 409.752C211.938 406.126 218.859 405.277 229.258 404.755C231.958 404.621 234.277 404.646 236.795 404.755C248.372 405.26 268.844 408.188 279.225 411.176C283.736 412.467 291.581 416.571 296.02 420.477" stroke="#0F2B46" stroke-width="1.56605" stroke-miterlimit="10" stroke-linecap="round" stroke-linejoin="round"/>
<path d="M178.236 418.372L178 451.854" stroke="#0F2B46" stroke-width="1.56605" stroke-miterlimit="10" stroke-linejoin="round"/>
<path d="M189.453 412.08L189.217 443.963" stroke="#0F2B46" stroke-width="1.56605" stroke-miterlimit="10" stroke-linejoin="round"/>
<path d="M205.977 407.615L205.742 439.497" stroke="#0F2B46" stroke-width="1.56605" stroke-miterlimit="10" stroke-linejoin="round"/>
<path d="M231.376 405.364L231.141 437.248" stroke="#0F2B46" stroke-width="1.56605" stroke-miterlimit="10" stroke-linejoin="round"/>
<path d="M259.132 407.006L258.897 438.888" stroke="#0F2B46" stroke-width="1.56605" stroke-miterlimit="10" stroke-linejoin="round"/>
<path d="M287.844 414.784L287.608 446.666" stroke="#0F2B46" stroke-width="1.56605" stroke-miterlimit="10" stroke-linejoin="round"/>
<path d="M296.015 420.481L295.888 455.099" stroke="#0F2B46" stroke-width="1.56605" stroke-miterlimit="10" stroke-linejoin="round"/>
<path d="M217.822 456.212V609.165" stroke="#0F2B46" stroke-width="1.56605" stroke-miterlimit="10" stroke-linejoin="round"/>
<path d="M231.141 456.212V607.49" stroke="#0F2B46" stroke-width="1.56605" stroke-miterlimit="10" stroke-linejoin="round"/>
<path d="M194.093 486.827C197.916 483.537 204.384 482.6 209.148 481.395C211.014 480.923 212.79 480.731 214.674 480.558C215.109 480.519 217.12 480.243 217.066 480.347" stroke="#0F2B46" stroke-width="1.56605" stroke-miterlimit="10" stroke-linecap="round" stroke-linejoin="round"/>
<path d="M231.735 478.94C234.543 477.784 238.511 478.178 241.482 478.156C249.961 478.1 257.896 478.6 266.303 479.225C268.078 479.357 277.282 480.794 278.568 482.288" stroke="#0F2B46" stroke-width="1.56605" stroke-miterlimit="10" stroke-linecap="round" stroke-linejoin="round"/>
<path d="M193.944 505.149C197.35 502.64 212.605 499.361 217.134 500.038" stroke="#0F2B46" stroke-width="1.56605" stroke-miterlimit="10" stroke-linecap="round" stroke-linejoin="round"/>
<path d="M231.487 498.817C231.378 498.837 232.791 498.428 233.262 498.39C234.603 498.286 235.907 497.904 237.248 497.926C240.998 497.986 244.694 497.562 248.426 497.846C256.452 498.453 264.387 499.604 272.214 501.451C273.228 501.691 278.736 504.015 279.533 503.423" stroke="#0F2B46" stroke-width="1.56605" stroke-miterlimit="10" stroke-linecap="round" stroke-linejoin="round"/>
<path d="M193.314 529.739C199.51 525.559 209.239 525.824 216.341 524.894" stroke="#0F2B46" stroke-width="1.56605" stroke-miterlimit="10" stroke-linecap="round" stroke-linejoin="round"/>
<path d="M231.233 523.727C241.922 520.743 254.097 523.3 264.786 524.823C268.373 525.336 272.105 526.468 275.565 527.615C276.616 527.968 280.076 529.211 279.714 529.342" stroke="#0F2B46" stroke-width="1.56605" stroke-miterlimit="10" stroke-linecap="round" stroke-linejoin="round"/>
<path d="M231.573 543.871C246.374 539.672 265.868 543.572 279.728 549.187" stroke="#0F2B46" stroke-width="1.56605" stroke-miterlimit="10" stroke-linecap="round" stroke-linejoin="round"/>
</g>
<defs>
<clipPath id="clip0_14_11831">
<rect width="320" height="541" fill="white"/>
</clipPath>
</defs>
</svg>
