<svg width="70" height="17" viewBox="0 0 70 17" fill="none" xmlns="http://www.w3.org/2000/svg">
<path d="M6.31725 7.33826C10.4159 6.46444 14.3603 4.83504 18.413 3.78919C20.6767 3.20493 22.9189 2.40127 25.1661 1.76137C26.7472 1.31116 28.5702 0.116894 30.2195 0.00775476C32.2883 -0.129131 35.1612 2.28558 35.2801 4.72107C35.3132 5.39853 34.908 6.06175 34.7267 6.66194C34.453 7.56807 29.7977 8.64665 28.9848 8.85639C22.8589 10.4373 16.8474 12.2693 10.8025 14.1736C9.12205 14.7029 7.45669 15.3535 5.76001 15.8367C5.6635 15.8642 4.28202 16.2455 4.2717 16.3303C4.24849 16.5213 4.6034 16.2874 4.76046 16.2262C5.23438 16.0415 5.49953 15.7411 5.89284 15.3967C6.65839 14.7265 7.16966 13.0388 6.94457 11.9676C6.62243 10.4346 5.07834 8.9264 3.79639 8.49311C3.27877 8.31824 2.41032 8.33104 1.94116 8.7417C1.86608 8.80744 1.80363 9.08847 1.66375 9.06542C1.59962 9.05489 1.64298 8.45256 1.66304 8.41869" fill="#7396CD"/>
<path d="M6.31725 7.33826C10.4159 6.46444 14.3603 4.83504 18.413 3.78919C20.6767 3.20493 22.9189 2.40127 25.1661 1.76137C26.7472 1.31116 28.5702 0.116894 30.2195 0.00775476C32.2883 -0.129131 35.1612 2.28558 35.2801 4.72107C35.3132 5.39853 34.908 6.06175 34.7267 6.66194C34.453 7.56807 29.7977 8.64665 28.9848 8.85639C22.8589 10.4373 16.8474 12.2693 10.8025 14.1736C9.12205 14.7029 7.45669 15.3535 5.76001 15.8367C5.6635 15.8642 4.28202 16.2455 4.2717 16.3303C4.24849 16.5213 4.6034 16.2874 4.76046 16.2262C5.23438 16.0415 5.49953 15.7411 5.89284 15.3967C6.65839 14.7265 7.16966 13.0388 6.94457 11.9676C6.62243 10.4346 5.07834 8.9264 3.79639 8.49311C3.27877 8.31824 2.41032 8.33104 1.94116 8.7417C1.86608 8.80744 1.80363 9.08847 1.66375 9.06542C1.59962 9.05489 1.64298 8.45256 1.66304 8.41869" stroke="#0F2B46" stroke-opacity="0.018018" stroke-width="0.58818" stroke-miterlimit="10" stroke-linecap="round" stroke-linejoin="round"/>
<path d="M0.91206 9.24362C2.23423 6.97447 8.31358 9.40242 7.27366 12.7082C6.1177 16.3827 2.16511 18.2138 0.80239 13.6018C0.583283 12.8603 0.527177 11.64 0.832289 10.9124C0.938854 10.6582 1.40296 9.71276 1.36569 9.48637C1.19332 8.43967 0.548947 11.0556 0.555841 11.3868C0.566732 11.9098 0.609551 12.6292 0.782906 13.1247C0.993628 13.7268 1.52177 13.7872 1.43319 14.5617" fill="#48638C"/>
<path d="M0.91206 9.24362C2.23423 6.97447 8.31358 9.40242 7.27366 12.7082C6.1177 16.3827 2.16511 18.2138 0.80239 13.6018C0.583283 12.8603 0.527177 11.64 0.832289 10.9124C0.938854 10.6582 1.40296 9.71276 1.36569 9.48637C1.19332 8.43967 0.548947 11.0556 0.555841 11.3868C0.566732 11.9098 0.609551 12.6292 0.782906 13.1247C0.993628 13.7268 1.52177 13.7872 1.43319 14.5617" stroke="#0F2B46" stroke-opacity="0.018018" stroke-width="0.58818" stroke-miterlimit="10" stroke-linecap="round" stroke-linejoin="round"/>
<path d="M4.88808 15.7872C3.49408 16.0983 1.96517 15.9964 1.06154 14.4399C0.0634171 12.7204 -0.220609 9.59691 1.81861 8.63017C3.04059 8.05075 7.07289 10.0959 7.15897 11.6347C7.22912 12.8887 6.00675 14.6846 5.16453 15.3128C4.99537 15.439 3.79107 15.7327 3.78325 15.8962C3.76998 16.174 4.13935 16.0749 4.22595 16.0725C5.03732 16.0496 5.8337 15.621 6.39665 14.9003C7.30637 13.7356 6.88531 11.616 6.14248 10.4857" fill="#48638C"/>
<path d="M4.88808 15.7872C3.49408 16.0983 1.96517 15.9964 1.06154 14.4399C0.0634171 12.7204 -0.220609 9.59691 1.81861 8.63017C3.04059 8.05075 7.07289 10.0959 7.15897 11.6347C7.22912 12.8887 6.00675 14.6846 5.16453 15.3128C4.99537 15.439 3.79107 15.7327 3.78325 15.8962C3.76998 16.174 4.13935 16.0749 4.22595 16.0725C5.03732 16.0496 5.8337 15.621 6.39665 14.9003C7.30637 13.7356 6.88531 11.616 6.14248 10.4857" stroke="#0F2B46" stroke-opacity="0.018018" stroke-width="0.58818" stroke-miterlimit="10" stroke-linecap="round" stroke-linejoin="round"/>
<path d="M9.00365 12.4269C8.87827 11.8657 13.0093 10.893 13.6768 10.6619C18.6236 8.94944 23.7075 7.73682 28.6091 5.88544C29.9517 5.37845 31.4276 5.30731 32.7264 4.69161C32.9733 4.5745 33.7634 4.33473 33.91 4.7027C34.0772 5.12233 32.7463 5.65023 32.5942 5.6841C31.0114 6.03741 29.3199 6.48535 27.8149 7.16338C23.4448 9.132 18.7686 10.2886 14.2943 11.8999C13.4073 12.2193 9.7233 13.7049 8.91223 13.3072C8.55871 13.1338 9.09473 12.8346 9.00365 12.4269Z" fill="#48638C" stroke="#0F2B46" stroke-opacity="0.018018" stroke-width="0.58818" stroke-miterlimit="10" stroke-linecap="round" stroke-linejoin="round"/>
<path d="M6.48482 8.07112C6.50754 8.03655 9.6641 7.13299 10.0035 7.01076C11.2181 6.57335 12.5343 6.52739 13.7545 6.10506C16.69 5.0888 19.6943 4.28598 22.6183 3.23302C24.5749 2.52824 26.6477 2.11246 28.5619 1.28759C29.4119 0.921323 30.0986 0.732218 31.0128 0.740755C31.2469 0.74289 31.4152 0.935269 31.6483 1.01168C31.69 1.02534 31.7976 1.01097 31.7732 1.05266C31.6555 1.25472 30.7554 1.25514 30.5654 1.25329C29.6617 1.2449 28.4718 1.72699 27.6233 2.04743C24.6967 3.15276 21.4876 3.59743 18.6455 4.94494C17.4661 5.50401 16.07 5.5652 14.8812 6.12882C13.181 6.93491 10.9924 7.72123 9.1329 7.8241C8.73145 7.8463 6.03656 8.75185 6.48482 8.07112Z" fill="#48638C" stroke="#0F2B46" stroke-opacity="0.018018" stroke-width="0.58818" stroke-miterlimit="10" stroke-linecap="round" stroke-linejoin="round"/>
<path d="M0.524688 10.8449C0.385975 6.33093 8.99558 8.69413 7.02925 13.3833C6.457 14.748 5.64779 15.7553 4.33608 16.0478C4.14961 16.0895 3.35617 16.3287 3.2094 16.0241C3.13948 15.8791 4.12514 15.6471 4.2596 15.5834C4.72476 15.3628 5.11257 14.7477 5.48553 14.4156C6.33041 13.6633 6.17324 11.0333 5.35392 10.3864C4.52727 9.73372 3.21493 9.49609 2.26124 9.90704C1.84103 10.0882 1.24814 10.3147 0.901822 10.6232C0.722637 10.7827 0.367615 11.4088 0.397392 11.1484C0.410153 11.0368 0.528147 10.9574 0.524688 10.8449Z" fill="#0F2B46" stroke="#0F2B46" stroke-opacity="0.018018" stroke-width="0.58818" stroke-miterlimit="10" stroke-linecap="round" stroke-linejoin="round"/>
<path d="M30.4974 0.134263C30.2322 -0.0723468 32.2791 0.616063 32.6727 0.783826C34.2152 1.44151 36.9388 3.57946 35.2785 5.8432C34.9328 6.31448 34.6382 6.85718 34.1314 7.13095C33.9889 7.20793 34.4876 6.30864 34.5375 6.00855C34.6737 5.18908 34.9828 3.91911 34.5916 3.10719C33.7708 1.40351 31.7038 1.07368 30.4974 0.134263Z" fill="#0F2B46" stroke="#0F2B46" stroke-opacity="0.018018" stroke-width="0.58818" stroke-miterlimit="10" stroke-linecap="round" stroke-linejoin="round"/>
<path d="M8.08613 14.0398C7.80217 13.8776 10.2871 13.0672 10.7456 12.9649C13.7691 12.2902 16.838 11.1797 19.8022 10.1874C23.223 9.04221 26.7392 8.1311 30.1261 6.85189C31.0453 6.50469 32.0932 6.20502 32.9566 5.73887C33.005 5.71269 33.1541 5.69135 33.1954 5.75438C33.6013 6.37179 31.4709 6.89586 31.2067 6.95477C28.8895 7.47186 26.543 8.33743 24.3051 9.18265C20.5288 10.6089 16.6146 11.5293 12.7952 12.8515C11.5338 13.2881 9.33844 14.7556 8.08613 14.0398Z" fill="#0F2B46" stroke="#0F2B46" stroke-opacity="0.018018" stroke-width="0.58818" stroke-miterlimit="10" stroke-linecap="round" stroke-linejoin="round"/>
<path d="M1.14646 11.3445C1.16759 11.1378 1.09571 11.9399 1.09157 12.1553C1.06714 13.4253 1.76062 14.627 2.75524 15.0699C3.51323 15.4074 4.70614 15.1378 5.32912 14.5993C5.60552 14.3604 5.83085 13.5485 5.83085 13.5485C5.83085 13.5485 5.30724 14.0117 4.99525 14.0759C4.26945 14.2253 3.63502 14.4538 2.8885 14.2726C1.75292 13.9972 1.01929 12.5895 1.14646 11.3445Z" fill="#7396CD" stroke="#0F2B46" stroke-opacity="0.018018" stroke-width="0.58818" stroke-miterlimit="10" stroke-linecap="round" stroke-linejoin="round"/>
<path d="M4.82415 8.27987C4.55615 8.1908 6.78696 7.77402 7.21078 7.58136C7.83868 7.29578 8.49639 7.38727 9.12593 7.12787C10.4579 6.57905 11.9003 6.3269 13.2579 5.86274C16.1881 4.861 19.0798 3.86936 22.0035 2.81895C23.0557 2.44088 24.2496 2.37457 25.2737 1.90885C26.2403 1.4693 27.2924 1.13805 28.3291 0.924607C28.4429 0.901271 29.1391 0.575987 29.2083 0.684414C29.3155 0.852604 28.4422 1.13435 28.4133 1.14417C27.6271 1.41296 26.8229 1.57431 26.0223 1.81408C24.0743 2.39734 22.1222 3.03367 20.2074 3.72166C17.7831 4.59263 15.3177 5.35988 12.9243 6.34597C12.1168 6.67865 11.1784 6.57962 10.3592 6.87402C8.98032 7.36948 6.20116 8.7372 4.82415 8.27987Z" fill="#C3D3ED" stroke="#0F2B46" stroke-opacity="0.018018" stroke-width="0.58818" stroke-miterlimit="10" stroke-linecap="round" stroke-linejoin="round"/>
<path d="M8.1796 10.2826C8.14547 10.3734 8.02552 10.3735 7.94167 10.3909C7.77 10.4262 8.24315 10.1803 8.40881 10.117C8.53574 10.0686 8.67579 10.0817 8.80344 10.0357C9.28471 9.86284 9.76017 9.65609 10.2485 9.50142C11.8391 8.99756 13.5027 8.59843 15.0449 7.92197C19.5877 5.92915 24.6986 5.03072 29.3704 3.43348C30.6045 3.01144 33.4106 1.36055 34.0977 3.40787C34.4431 4.4375 32.6908 4.40804 32.1798 4.51334C30.142 4.93268 28.0222 5.38019 26.0658 6.12708C24.8718 6.58299 23.6175 6.76285 22.4098 7.17578C18.426 8.53781 14.343 9.62194 10.394 11.1297C9.78214 11.3633 9.07807 11.3107 8.47888 11.583C8.26365 11.6809 8.09677 11.7802 7.85504 11.8299C7.73533 11.8545 7.50941 12.1559 7.52718 12.0159C7.57159 11.6661 7.90801 11.6307 7.9158 11.2253C7.92242 10.8808 7.35126 10.582 7.52087 10.2998C7.64527 10.0928 8.27155 10.038 8.1796 10.2826Z" fill="#C3D3ED" stroke="#0F2B46" stroke-opacity="0.018018" stroke-width="0.58818" stroke-miterlimit="10" stroke-linecap="round" stroke-linejoin="round"/>
<path d="M22.9241 7.33595C27.0227 6.46212 30.9671 4.83272 35.0198 3.78687C37.2835 3.20262 39.5257 2.39895 41.7729 1.75906C43.354 1.30884 45.177 0.114574 46.8264 0.00543543C48.8951 -0.13145 51.768 2.28326 51.8869 4.71875C51.92 5.39621 51.5148 6.05943 51.3335 6.65963C51.0599 7.56575 46.4045 8.64433 45.5917 8.85407C39.4657 10.4349 33.4542 12.267 27.4093 14.1713C25.7289 14.7006 24.0635 15.3512 22.3668 15.8344C22.2703 15.8619 20.8888 16.2432 20.8785 16.328C20.8553 16.519 21.2102 16.285 21.3673 16.2239C21.8412 16.0392 22.1063 15.7388 22.4997 15.3944C23.2652 14.7242 23.7765 13.0365 23.5514 11.9653C23.2292 10.4322 21.6851 8.92408 20.4032 8.4908C19.8856 8.31592 19.0171 8.32872 18.548 8.73938C18.4729 8.80512 18.4104 9.08615 18.2706 9.0631C18.2064 9.05257 18.2498 8.45024 18.2698 8.41637" fill="#7396CD"/>
<path d="M22.9241 7.33595C27.0227 6.46212 30.9671 4.83272 35.0198 3.78687C37.2835 3.20262 39.5257 2.39895 41.7729 1.75906C43.354 1.30884 45.177 0.114574 46.8264 0.00543543C48.8951 -0.13145 51.768 2.28326 51.8869 4.71875C51.92 5.39621 51.5148 6.05943 51.3335 6.65963C51.0599 7.56575 46.4045 8.64433 45.5917 8.85407C39.4657 10.4349 33.4542 12.267 27.4093 14.1713C25.7289 14.7006 24.0635 15.3512 22.3668 15.8344C22.2703 15.8619 20.8888 16.2432 20.8785 16.328C20.8553 16.519 21.2102 16.285 21.3673 16.2239C21.8412 16.0392 22.1063 15.7388 22.4997 15.3944C23.2652 14.7242 23.7765 13.0365 23.5514 11.9653C23.2292 10.4322 21.6851 8.92408 20.4032 8.4908C19.8856 8.31592 19.0171 8.32872 18.548 8.73938C18.4729 8.80512 18.4104 9.08615 18.2706 9.0631C18.2064 9.05257 18.2498 8.45024 18.2698 8.41637" stroke="#0F2B46" stroke-opacity="0.018018" stroke-width="0.58818" stroke-miterlimit="10" stroke-linecap="round" stroke-linejoin="round"/>
<path d="M17.52 9.24167C18.8422 6.97252 24.9216 9.40047 23.8816 12.7062C22.7257 16.3808 18.7731 18.2118 17.4104 13.5998C17.1913 12.8583 17.1351 11.638 17.4403 10.9105C17.5468 10.6562 18.0109 9.71081 17.9737 9.48442C17.8013 8.43771 17.1569 11.0536 17.1638 11.3849C17.1747 11.9078 17.2175 12.6272 17.3909 13.1227C17.6016 13.7249 18.1297 13.7852 18.0412 14.5597" fill="#48638C"/>
<path d="M17.52 9.24167C18.8422 6.97252 24.9216 9.40047 23.8816 12.7062C22.7257 16.3808 18.7731 18.2118 17.4104 13.5998C17.1913 12.8583 17.1351 11.638 17.4403 10.9105C17.5468 10.6562 18.0109 9.71081 17.9737 9.48442C17.8013 8.43771 17.1569 11.0536 17.1638 11.3849C17.1747 11.9078 17.2175 12.6272 17.3909 13.1227C17.6016 13.7249 18.1297 13.7852 18.0412 14.5597" stroke="#0F2B46" stroke-opacity="0.018018" stroke-width="0.58818" stroke-miterlimit="10" stroke-linecap="round" stroke-linejoin="round"/>
<path d="M21.4937 15.7847C20.0997 16.0957 18.5708 15.9938 17.6671 14.4373C16.669 12.7178 16.385 9.59434 18.4242 8.62761C19.6462 8.04819 23.6785 10.0934 23.7646 11.6321C23.8347 12.8862 22.6123 14.682 21.7701 15.3103C21.601 15.4365 20.3967 15.7302 20.3888 15.8937C20.3756 16.1714 20.7449 16.0724 20.8315 16.07C21.6429 16.0471 22.4393 15.6185 23.0022 14.8977C23.912 13.7331 23.4909 11.6135 22.7481 10.4831" fill="#48638C"/>
<path d="M21.4937 15.7847C20.0997 16.0957 18.5708 15.9938 17.6671 14.4373C16.669 12.7178 16.385 9.59434 18.4242 8.62761C19.6462 8.04819 23.6785 10.0934 23.7646 11.6321C23.8347 12.8862 22.6123 14.682 21.7701 15.3103C21.601 15.4365 20.3967 15.7302 20.3888 15.8937C20.3756 16.1714 20.7449 16.0724 20.8315 16.07C21.6429 16.0471 22.4393 15.6185 23.0022 14.8977C23.912 13.7331 23.4909 11.6135 22.7481 10.4831" stroke="#0F2B46" stroke-opacity="0.018018" stroke-width="0.58818" stroke-miterlimit="10" stroke-linecap="round" stroke-linejoin="round"/>
<path d="M25.6094 12.424C25.484 11.8628 29.615 10.8901 30.2825 10.659C35.2293 8.94651 40.3132 7.73389 45.2148 5.88251C46.5574 5.37552 48.0333 5.30438 49.3321 4.68868C49.579 4.57157 50.3691 4.33181 50.5157 4.69977C50.6829 5.1194 49.352 5.6473 49.1999 5.68117C47.6171 6.03448 45.9256 6.48242 44.4206 7.16045C40.0505 9.12907 35.3743 10.2856 30.9 11.897C30.013 12.2164 26.329 13.7019 25.5179 13.3042C25.1644 13.1309 25.7004 12.8317 25.6094 12.424Z" fill="#48638C" stroke="#0F2B46" stroke-opacity="0.018018" stroke-width="0.58818" stroke-miterlimit="10" stroke-linecap="round" stroke-linejoin="round"/>
<path d="M23.0906 8.06807C23.1133 8.03349 26.2699 7.12993 26.6093 7.0077C27.8239 6.5703 29.14 6.52433 30.3603 6.10201C33.2957 5.08575 36.3001 4.28293 39.2241 3.22996C41.1807 2.52519 43.2534 2.10941 45.1676 1.28453C46.0177 0.918272 46.7044 0.729166 47.6186 0.737704C47.8527 0.739838 48.021 0.932217 48.2541 1.00863C48.2958 1.02229 48.4033 1.00792 48.379 1.04961C48.2613 1.25166 47.3612 1.25209 47.1712 1.25024C46.2675 1.24185 45.0776 1.72393 44.2291 2.04438C41.3024 3.14971 38.0934 3.59438 35.2513 4.94189C34.0719 5.50096 32.6757 5.56215 31.487 6.12577C29.7867 6.93186 27.5982 7.71817 25.7387 7.82105C25.3372 7.84325 22.6423 8.7488 23.0906 8.06807Z" fill="#48638C" stroke="#0F2B46" stroke-opacity="0.018018" stroke-width="0.58818" stroke-miterlimit="10" stroke-linecap="round" stroke-linejoin="round"/>
<path d="M17.1334 10.8414C16.9947 6.32739 25.6043 8.69059 23.6379 13.3797C23.0657 14.7444 22.2565 15.7517 20.9448 16.0443C20.7583 16.086 19.9649 16.3252 19.8181 16.0205C19.7482 15.8755 20.7338 15.6436 20.8683 15.5799C21.3335 15.3593 21.7213 14.7442 22.0942 14.4121C22.9391 13.6597 22.7819 11.0297 21.9626 10.3829C21.136 9.73018 19.8236 9.49255 18.8699 9.9035C18.4497 10.0846 17.8568 10.3112 17.5105 10.6197C17.3313 10.7792 16.9763 11.4053 17.0061 11.1449C17.0189 11.0333 17.1369 10.9539 17.1334 10.8414Z" fill="#0F2B46" stroke="#0F2B46" stroke-opacity="0.018018" stroke-width="0.58818" stroke-miterlimit="10" stroke-linecap="round" stroke-linejoin="round"/>
<path d="M47.1038 0.130112C46.8387 -0.0764972 48.8855 0.611913 49.2791 0.779676C50.8216 1.43735 53.5453 3.57531 51.8849 5.83905C51.5393 6.31032 51.2447 6.85303 50.7379 7.1268C50.5953 7.20378 51.0941 6.30449 51.1439 6.00439C51.2801 5.18493 51.5892 3.91496 51.1981 3.10304C50.3773 1.39936 48.3103 1.06953 47.1038 0.130112Z" fill="#0F2B46" stroke="#0F2B46" stroke-opacity="0.018018" stroke-width="0.58818" stroke-miterlimit="10" stroke-linecap="round" stroke-linejoin="round"/>
<path d="M24.6928 14.0388C24.4088 13.8766 26.8937 13.0663 27.3522 12.964C30.3757 12.2892 33.4446 11.1788 36.4088 10.1864C39.8296 9.04123 43.3458 8.13013 46.7327 6.85091C47.6519 6.50372 48.6999 6.20405 49.5632 5.7379C49.6116 5.71171 49.7608 5.69037 49.8021 5.7534C50.2079 6.37081 48.0776 6.89488 47.8133 6.95379C45.4961 7.47088 43.1496 8.33645 40.9118 9.18167C37.1354 10.6079 33.2212 11.5284 29.4018 12.8506C28.1405 13.2871 25.9451 14.7546 24.6928 14.0388Z" fill="#0F2B46" stroke="#0F2B46" stroke-opacity="0.018018" stroke-width="0.58818" stroke-miterlimit="10" stroke-linecap="round" stroke-linejoin="round"/>
<path d="M17.7499 11.3433C17.771 11.1366 17.6991 11.9387 17.695 12.1541C17.6705 13.4241 18.364 14.6257 19.3586 15.0687C20.1166 15.4062 21.3095 15.1366 21.9325 14.5981C22.2089 14.3592 22.4342 13.5473 22.4342 13.5473C22.4342 13.5473 21.9106 14.0105 21.5986 14.0746C20.8728 14.224 20.2384 14.4526 19.4919 14.2714C18.3563 13.9959 17.6227 12.5882 17.7499 11.3433Z" fill="#7396CD" stroke="#0F2B46" stroke-opacity="0.018018" stroke-width="0.58818" stroke-miterlimit="10" stroke-linecap="round" stroke-linejoin="round"/>
<path d="M21.4306 8.27609C21.1626 8.18701 23.3934 7.77024 23.8172 7.57757C24.4451 7.29199 25.1028 7.38349 25.7324 7.12409C27.0644 6.57526 28.5067 6.32312 29.8644 5.85896C32.7945 4.85721 35.6862 3.86558 38.6099 2.81517C39.6621 2.4371 40.856 2.37079 41.8801 1.90506C42.8467 1.46552 43.8988 1.13426 44.9355 0.920823C45.0493 0.897487 45.7456 0.572202 45.8147 0.68063C45.9219 0.84882 45.0487 1.13056 45.0197 1.14038C44.2335 1.40917 43.4293 1.57053 42.6288 1.81029C40.6807 2.39355 38.7286 3.02989 36.8138 3.71787C34.3896 4.58885 31.9242 5.3561 29.5308 6.34219C28.7232 6.67487 27.7849 6.57583 26.9656 6.87024C25.5868 7.3657 22.8076 8.73342 21.4306 8.27609Z" fill="#C3D3ED" stroke="#0F2B46" stroke-opacity="0.018018" stroke-width="0.58818" stroke-miterlimit="10" stroke-linecap="round" stroke-linejoin="round"/>
<path d="M24.7871 10.2794C24.753 10.3702 24.633 10.3704 24.5492 10.3877C24.3775 10.423 24.8506 10.1771 25.0163 10.1138C25.1432 10.0654 25.2833 10.0785 25.4109 10.0326C25.8922 9.85967 26.3677 9.65292 26.8559 9.49825C28.4466 8.99439 30.1102 8.59526 31.6524 7.91879C36.1952 5.92598 41.3061 5.02754 45.9778 3.4303C47.2119 3.00826 50.0181 1.35738 50.7052 3.40469C51.0506 4.43432 49.2983 4.40487 48.7873 4.51016C46.7495 4.9295 44.6297 5.37701 42.6733 6.12391C41.4793 6.57982 40.2249 6.75967 39.0173 7.17261C35.0335 8.53464 30.9505 9.61877 27.0015 11.1265C26.3896 11.3602 25.6856 11.3075 25.0864 11.5799C24.8711 11.6777 24.7042 11.7771 24.4625 11.8267C24.3428 11.8513 24.1169 12.1527 24.1347 12.0127C24.1791 11.663 24.5155 11.6275 24.5233 11.2221C24.5299 10.8776 23.9587 10.5788 24.1283 10.2967C24.2528 10.0896 24.879 10.0348 24.7871 10.2794Z" fill="#C3D3ED" stroke="#0F2B46" stroke-opacity="0.018018" stroke-width="0.58818" stroke-miterlimit="10" stroke-linecap="round" stroke-linejoin="round"/>
<path d="M39.4264 7.33859C43.5249 6.46486 47.469 4.83563 51.5215 3.78989C53.7852 3.2057 56.0272 2.40211 58.2743 1.76229C59.8553 1.31212 61.6783 0.11798 63.3275 0.00885281C65.3961 -0.128019 68.2689 2.28644 68.3878 4.72167C68.4209 5.39906 68.0158 6.06221 67.8345 6.66234C67.5608 7.56837 62.9057 8.64684 62.0929 8.85656C55.9672 10.4373 49.956 12.2691 43.9114 14.1732C42.2311 14.7025 40.5658 15.353 38.8692 15.8361C38.7727 15.8636 37.3913 16.2449 37.3809 16.3297C37.3577 16.5206 37.7126 16.2867 37.8697 16.2256C38.3436 16.0409 38.6087 15.7405 39.002 15.3962C39.7675 14.7261 40.2788 13.0385 40.0537 11.9675C39.7316 10.4346 38.1875 8.92656 36.9057 8.49332C36.3881 8.31846 35.5197 8.33126 35.0505 8.74188C34.9754 8.80761 34.913 9.08861 34.7731 9.06556C34.709 9.05503 34.7524 8.45277 34.7724 8.41891" fill="#7396CD"/>
<path d="M39.4264 7.33859C43.5249 6.46486 47.469 4.83563 51.5215 3.78989C53.7852 3.2057 56.0272 2.40211 58.2743 1.76229C59.8553 1.31212 61.6783 0.11798 63.3275 0.00885281C65.3961 -0.128019 68.2689 2.28644 68.3878 4.72167C68.4209 5.39906 68.0158 6.06221 67.8345 6.66234C67.5608 7.56837 62.9057 8.64684 62.0929 8.85656C55.9672 10.4373 49.956 12.2691 43.9114 14.1732C42.2311 14.7025 40.5658 15.353 38.8692 15.8361C38.7727 15.8636 37.3913 16.2449 37.3809 16.3297C37.3577 16.5206 37.7126 16.2867 37.8697 16.2256C38.3436 16.0409 38.6087 15.7405 39.002 15.3962C39.7675 14.7261 40.2788 13.0385 40.0537 11.9675C39.7316 10.4346 38.1875 8.92656 36.9057 8.49332C36.3881 8.31846 35.5197 8.33126 35.0505 8.74188C34.9754 8.80761 34.913 9.08861 34.7731 9.06556C34.709 9.05503 34.7524 8.45277 34.7724 8.41891" stroke="#0F2B46" stroke-opacity="0.018018" stroke-width="0.58818" stroke-miterlimit="10" stroke-linecap="round" stroke-linejoin="round"/>
<path d="M34.0253 9.24463C35.3474 6.97572 41.4265 9.40341 40.3866 12.7088C39.2307 16.383 35.2783 18.2138 33.9157 13.6023C33.6966 12.8609 33.6405 11.6407 33.9456 10.9133C34.0521 10.659 34.5162 9.71372 34.4789 9.48735C34.3066 8.44076 33.6622 11.0564 33.6691 11.3876C33.68 11.9105 33.7228 12.6299 33.8962 13.1253C34.1069 13.7274 34.635 13.7877 34.5464 14.5621" fill="#48638C"/>
<path d="M34.0253 9.24463C35.3474 6.97572 41.4265 9.40341 40.3866 12.7088C39.2307 16.383 35.2783 18.2138 33.9157 13.6023C33.6966 12.8609 33.6405 11.6407 33.9456 10.9133C34.0521 10.659 34.5162 9.71372 34.4789 9.48735C34.3066 8.44076 33.6622 11.0564 33.6691 11.3876C33.68 11.9105 33.7228 12.6299 33.8962 13.1253C34.1069 13.7274 34.635 13.7877 34.5464 14.5621" stroke="#0F2B46" stroke-opacity="0.018018" stroke-width="0.58818" stroke-miterlimit="10" stroke-linecap="round" stroke-linejoin="round"/>
<path d="M37.9972 15.7834C36.6033 16.0944 35.0745 15.9926 34.1709 14.4362C33.1728 12.7169 32.8888 9.59374 34.9279 8.62711C36.1498 8.04775 40.1819 10.0927 40.268 11.6313C40.3382 12.8852 39.1158 14.6809 38.2737 15.3091C38.1045 15.4353 36.9003 15.7289 36.8925 15.8924C36.8792 16.1701 37.2485 16.0711 37.3351 16.0687C38.1465 16.0458 38.9428 15.6172 39.5057 14.8966C40.4154 13.732 39.9944 11.6127 39.2516 10.4824" fill="#48638C"/>
<path d="M37.9972 15.7834C36.6033 16.0944 35.0745 15.9926 34.1709 14.4362C33.1728 12.7169 32.8888 9.59374 34.9279 8.62711C36.1498 8.04775 40.1819 10.0927 40.268 11.6313C40.3382 12.8852 39.1158 14.6809 38.2737 15.3091C38.1045 15.4353 36.9003 15.7289 36.8925 15.8924C36.8792 16.1701 37.2485 16.0711 37.3351 16.0687C38.1465 16.0458 38.9428 15.6172 39.5057 14.8966C40.4154 13.732 39.9944 11.6127 39.2516 10.4824" stroke="#0F2B46" stroke-opacity="0.018018" stroke-width="0.58818" stroke-miterlimit="10" stroke-linecap="round" stroke-linejoin="round"/>
<path d="M42.113 12.4272C41.9876 11.8661 46.1185 10.8934 46.786 10.6624C51.7325 8.95007 56.8161 7.73757 61.7175 5.8864C63.0601 5.37946 64.5359 5.30832 65.8346 4.69268C66.0815 4.57559 66.8716 4.33585 67.0181 4.70378C67.1853 5.12336 65.8545 5.65121 65.7024 5.68507C64.1197 6.03835 62.4283 6.48624 60.9234 7.16419C56.5534 9.13261 51.8774 10.289 47.4034 11.9002C46.5165 12.2196 42.8326 13.705 42.0216 13.3073C41.6681 13.134 42.2041 12.8348 42.113 12.4272Z" fill="#48638C" stroke="#0F2B46" stroke-opacity="0.018018" stroke-width="0.58818" stroke-miterlimit="10" stroke-linecap="round" stroke-linejoin="round"/>
<path d="M39.5903 8.07145C39.613 8.03688 42.7694 7.13341 43.1088 7.0112C44.3233 6.57383 45.6394 6.52788 46.8597 6.10559C49.7949 5.08944 52.7991 4.28671 55.723 3.23385C57.6795 2.52915 59.7521 2.11341 61.6663 1.28863C62.5162 0.922403 63.2029 0.733317 64.1171 0.741854C64.3512 0.743988 64.5195 0.936347 64.7526 1.01275C64.7942 1.02641 64.9018 1.01204 64.8775 1.05373C64.7598 1.25576 63.8597 1.25619 63.6697 1.25434C62.7661 1.24594 61.5762 1.72798 60.7278 2.04839C57.8012 3.15361 54.5923 3.59823 51.7504 4.9456C50.5711 5.50461 49.175 5.56579 47.9863 6.12936C46.2861 6.93536 44.0977 7.72159 42.2382 7.82446C41.8368 7.84665 39.142 8.75211 39.5903 8.07145Z" fill="#48638C" stroke="#0F2B46" stroke-opacity="0.018018" stroke-width="0.58818" stroke-miterlimit="10" stroke-linecap="round" stroke-linejoin="round"/>
<path d="M33.638 10.8457C33.4993 6.33225 42.1084 8.6952 40.1422 13.3838C39.57 14.7484 38.7608 15.7556 37.4492 16.0481C37.2627 16.0898 36.4693 16.329 36.3225 16.0244C36.2526 15.8794 37.2382 15.6475 37.3727 15.5837C37.8378 15.3632 38.2256 14.7481 38.5986 14.4161C39.4434 13.6638 39.2862 11.0341 38.467 10.3873C37.6403 9.73469 36.3281 9.49708 35.3744 9.90798C34.9542 10.0891 34.3614 10.3156 34.0151 10.6241C33.8359 10.7836 33.4809 11.4096 33.5107 11.1492C33.5234 11.0377 33.6414 10.9583 33.638 10.8457Z" fill="#0F2B46" stroke="#0F2B46" stroke-opacity="0.018018" stroke-width="0.58818" stroke-miterlimit="10" stroke-linecap="round" stroke-linejoin="round"/>
<path d="M63.6028 0.135357C63.3377 -0.0712305 65.3845 0.617107 65.778 0.784853C67.3204 1.44246 70.044 3.58019 68.3837 5.84369C68.0381 6.31492 67.7435 6.85757 67.2367 7.13131C67.0942 7.20828 67.5929 6.30909 67.6428 6.00902C67.7789 5.18964 68.088 3.91981 67.6969 3.10797C66.8761 1.40447 64.8092 1.07468 63.6028 0.135357Z" fill="#0F2B46" stroke="#0F2B46" stroke-opacity="0.018018" stroke-width="0.58818" stroke-miterlimit="10" stroke-linecap="round" stroke-linejoin="round"/>
<path d="M41.1955 14.04C40.9116 13.8778 43.3963 13.0676 43.8548 12.9653C46.8782 12.2906 49.9469 11.1803 52.911 10.188C56.3316 9.04295 59.8477 8.13195 63.2344 6.85287C64.1536 6.50571 65.2015 6.20607 66.0648 5.73997C66.1132 5.71379 66.2623 5.69245 66.3036 5.75548C66.7094 6.37282 64.5792 6.89683 64.3149 6.95573C61.9978 7.47277 59.6515 8.33825 57.4137 9.18338C53.6376 10.6094 49.7235 11.5298 45.9043 12.8519C44.643 13.2884 42.4478 14.7557 41.1955 14.04Z" fill="#0F2B46" stroke="#0F2B46" stroke-opacity="0.018018" stroke-width="0.58818" stroke-miterlimit="10" stroke-linecap="round" stroke-linejoin="round"/>
<path d="M34.2558 11.3456C34.277 11.1389 34.2051 11.9409 34.2009 12.1563C34.1765 13.4262 34.87 14.6277 35.8645 15.0706C36.6225 15.4081 37.8153 15.1385 38.4383 14.6001C38.7147 14.3612 38.94 13.5494 38.94 13.5494C38.94 13.5494 38.4164 14.0125 38.1044 14.0767C37.3787 14.226 36.7443 14.4546 35.9978 14.2734C34.8623 13.998 34.1287 12.5904 34.2558 11.3456Z" fill="#7396CD" stroke="#0F2B46" stroke-opacity="0.018018" stroke-width="0.58818" stroke-miterlimit="10" stroke-linecap="round" stroke-linejoin="round"/>
<path d="M37.9335 8.27626C37.6655 8.1872 39.8962 7.77047 40.32 7.57782C40.9479 7.29227 41.6056 7.38376 42.2351 7.12438C43.567 6.57562 45.0093 6.3235 46.3669 5.85939C49.2969 4.85775 52.1884 3.86622 55.112 2.81592C56.1642 2.43789 57.358 2.37158 58.382 1.90591C59.3486 1.46641 60.4007 1.13519 61.4373 0.921772C61.5511 0.898438 62.2473 0.573188 62.3165 0.681604C62.4237 0.849777 61.5505 1.13149 61.5215 1.14131C60.7353 1.41007 59.9312 1.57141 59.1307 1.81115C57.1827 2.39435 55.2307 3.03062 53.316 3.71853C50.8919 4.58941 48.4266 5.35658 46.0333 6.34257C45.2258 6.67521 44.2875 6.57619 43.4683 6.87056C42.0895 7.36597 39.3105 8.73355 37.9335 8.27626Z" fill="#C3D3ED" stroke="#0F2B46" stroke-opacity="0.018018" stroke-width="0.58818" stroke-miterlimit="10" stroke-linecap="round" stroke-linejoin="round"/>
<path d="M41.2928 10.2829C41.2587 10.3737 41.1388 10.3738 41.0549 10.3912C40.8833 10.4264 41.3564 10.1806 41.522 10.1173C41.649 10.0689 41.789 10.082 41.9167 10.036C42.3979 9.86316 42.8733 9.65643 43.3616 9.50177C44.9522 8.99797 46.6157 8.59888 48.1578 7.92249C52.7004 5.92988 57.8111 5.03154 62.4826 3.43447C63.7166 3.01247 66.5226 1.36176 67.2097 3.40886C67.5551 4.43838 65.8028 4.40893 65.2919 4.51422C63.2542 4.93351 61.1345 5.38097 59.1782 6.12779C57.9843 6.58365 56.73 6.76349 55.5223 7.17638C51.5388 8.53827 47.456 9.62228 43.5072 11.1299C42.8953 11.3635 42.1913 11.3108 41.5921 11.5832C41.3769 11.681 41.21 11.7804 40.9683 11.83C40.8486 11.8546 40.6227 12.156 40.6405 12.016C40.6849 11.6662 41.0213 11.6308 41.0291 11.2255C41.0357 10.881 40.4646 10.5822 40.6341 10.3001C40.7585 10.0931 41.3848 10.0383 41.2928 10.2829Z" fill="#C3D3ED" stroke="#0F2B46" stroke-opacity="0.018018" stroke-width="0.58818" stroke-miterlimit="10" stroke-linecap="round" stroke-linejoin="round"/>
</svg>
